<svg width="456" height="437" viewBox="0 0 456 437" fill="none" xmlns="http://www.w3.org/2000/svg">
<path d="M262.007 204.662C265.527 210.134 272.223 213.062 278.727 213.062C285.231 213.062 291.519 210.438 296.887 206.758C306.623 200.086 313.567 190.846 322.319 183.246C323.399 182.31 331.119 175.238 330.999 175.198C338.023 177.542 344.151 181.822 348.623 187.502C341.471 192.974 336.039 198.934 329.847 205.43C323.255 212.342 318.191 217.126 309.143 227.478C302.183 235.43 291.023 238.758 280.487 237.902C269.951 237.046 259.927 231.23 253.943 222.51" fill="#D6C7B7"/>
<path d="M262.007 204.662C265.527 210.134 272.223 213.062 278.727 213.062C285.231 213.062 291.519 210.438 296.887 206.758C306.623 200.086 313.567 190.846 322.319 183.246C323.399 182.31 331.119 175.238 330.999 175.198C338.023 177.542 344.151 181.822 348.623 187.502C341.471 192.974 336.039 198.934 329.847 205.43C323.255 212.342 318.191 217.126 309.143 227.478C302.183 235.43 291.023 238.758 280.487 237.902C269.951 237.046 259.927 231.23 253.943 222.51" stroke="black" stroke-width="3.944" stroke-linecap="round" stroke-linejoin="round"/>
<path d="M331.055 179.542C323.551 166.382 325.375 149.87 321.375 139.558C319.839 135.598 317.983 131.262 319.415 127.262C320.911 123.078 325.927 120.782 330.287 121.646C334.647 122.51 338.183 126.006 339.919 130.102C341.655 134.198 341.815 138.806 341.279 143.214C345.975 143.582 350.359 140.646 353.375 137.03C356.391 133.414 358.407 129.086 361.103 125.222C366.879 116.95 371.135 111.182 381.007 109.062C383.887 108.446 387.303 108.294 389.351 110.414C392.311 113.486 390.119 118.726 386.983 121.614C381.975 126.23 379.951 128.118 373.839 131.134C367.727 134.15 369.455 131.622 366.407 138.374C367.103 136.174 363.367 138.166 365.639 138.558C367.911 138.95 370.391 144.662 371.975 146.342C379.711 154.566 381.679 167.702 376.687 177.838C371.695 187.966 356.151 191.894 344.911 190.774" fill="#D6C7B7"/>
<path d="M331.055 179.542C323.551 166.382 325.375 149.87 321.375 139.558C319.839 135.598 317.983 131.262 319.415 127.262C320.911 123.078 325.927 120.782 330.287 121.646C334.647 122.51 338.183 126.006 339.919 130.102C341.655 134.198 341.815 138.806 341.279 143.214C345.975 143.582 350.359 140.646 353.375 137.03C356.391 133.414 358.407 129.086 361.103 125.222C366.879 116.95 371.135 111.182 381.007 109.062C383.887 108.446 387.303 108.294 389.351 110.414C392.311 113.486 390.119 118.726 386.983 121.614C381.975 126.23 379.951 128.118 373.839 131.134C367.727 134.15 369.455 131.622 366.407 138.374C367.103 136.174 363.367 138.166 365.639 138.558C367.911 138.95 370.391 144.662 371.975 146.342C379.711 154.566 381.679 167.702 376.687 177.838C371.695 187.966 356.151 191.894 344.911 190.774" stroke="black" stroke-width="3.944" stroke-linecap="round" stroke-linejoin="round"/>
<path d="M359.383 145.75C362.399 142.638 363.175 140.19 363.623 135.63C363.951 132.254 364.279 128.886 364.615 125.51C365.007 121.462 365.463 117.246 367.631 113.798C369.799 110.358 374.239 107.974 378.007 109.494C381.199 110.774 382.879 114.326 383.463 117.718C384.383 123.046 383.311 128.574 381.311 133.598C379.311 138.622 376.415 143.238 373.535 147.814" fill="#D6C7B7"/>
<path d="M359.383 145.75C362.399 142.638 363.175 140.19 363.623 135.63C363.951 132.254 364.279 128.886 364.615 125.51C365.007 121.462 365.463 117.246 367.631 113.798C369.799 110.358 374.239 107.974 378.007 109.494C381.199 110.774 382.879 114.326 383.463 117.718C384.383 123.046 383.311 128.574 381.311 133.598C379.311 138.622 376.415 143.238 373.535 147.814" stroke="black" stroke-width="3.944" stroke-linecap="round" stroke-linejoin="round"/>
<path d="M363.511 152.478C367.271 150.342 368.671 145.582 368.815 141.254C368.959 136.926 368.215 132.534 369.151 128.31C369.623 126.198 370.543 124.134 372.103 122.63C373.663 121.126 375.911 120.254 378.031 120.67C381.175 121.286 383.183 124.39 384.255 127.406C388.039 138.062 384.599 149.79 381.167 160.566" fill="#D6C7B7"/>
<path d="M363.511 152.478C367.271 150.342 368.671 145.582 368.815 141.254C368.959 136.926 368.215 132.534 369.151 128.31C369.623 126.198 370.543 124.134 372.103 122.63C373.663 121.126 375.911 120.254 378.031 120.67C381.175 121.286 383.183 124.39 384.255 127.406C388.039 138.062 384.599 149.79 381.167 160.566" stroke="black" stroke-width="3.944" stroke-linecap="round" stroke-linejoin="round"/>
<path d="M365.359 171.342C364.239 168.102 365.311 164.502 366.951 161.494C368.591 158.486 370.791 155.782 372.151 152.638C373.551 149.39 374.023 145.75 375.863 142.734C377.695 139.71 381.719 137.486 384.767 139.286C387.687 141.006 387.871 145.134 387.423 148.494C385.863 160.11 380.087 172.846 373.895 182.31" fill="#D6C7B7"/>
<path d="M365.359 171.342C364.239 168.102 365.311 164.502 366.951 161.494C368.591 158.486 370.791 155.782 372.151 152.638C373.551 149.39 374.023 145.75 375.863 142.734C377.695 139.71 381.719 137.486 384.767 139.286C387.687 141.006 387.871 145.134 387.423 148.494C385.863 160.11 380.087 172.846 373.895 182.31" stroke="black" stroke-width="3.944" stroke-linecap="round" stroke-linejoin="round"/>
<path d="M339.055 172.422C341.903 168.758 346.127 165.398 350.687 164.566L339.055 172.422Z" fill="white"/>
<path d="M339.055 172.422C341.903 168.758 346.127 165.398 350.687 164.566" stroke="black" stroke-width="3.944" stroke-linecap="round" stroke-linejoin="round"/>
<path d="M368.727 142.19C369.015 143.846 369.647 145.446 370.575 146.854L368.727 142.19Z" fill="white"/>
<path d="M368.727 142.19C369.015 143.846 369.647 145.446 370.575 146.854" stroke="black" stroke-width="3.944" stroke-linecap="round" stroke-linejoin="round"/>
<path d="M363.943 133.174C364.231 134.83 364.863 136.43 365.791 137.838L363.943 133.174Z" fill="white"/>
<path d="M363.943 133.174C364.231 134.83 364.863 136.43 365.791 137.838" stroke="black" stroke-width="3.944" stroke-linecap="round" stroke-linejoin="round"/>
<path d="M195.231 273.95C198.735 281.254 204.839 286.99 208.983 293.95C213.135 300.91 214.959 310.486 209.775 316.71C206.479 320.662 201.175 322.27 196.111 323.19C179.479 326.206 162.391 323.966 145.639 321.718C146.671 334.07 147.695 346.566 145.815 358.822C143.935 371.078 138.855 383.262 129.479 391.374C120.103 399.486 105.975 402.694 94.8792 397.174C81.5432 390.542 76.2792 374.094 75.6952 359.206C74.7192 334.118 83.5832 308.774 99.9992 289.774C103.503 285.718 107.439 281.87 112.295 279.606C117.159 277.342 123.111 276.894 127.775 279.526C131.663 281.718 134.159 285.678 136.959 289.158C149.519 304.83 171.287 312.502 190.895 308.174C189.575 297.646 185.623 287.454 179.511 278.782" fill="#D6C7B7"/>
<path d="M195.231 273.95C198.735 281.254 204.839 286.99 208.983 293.95C213.135 300.91 214.959 310.486 209.775 316.71C206.479 320.662 201.175 322.27 196.111 323.19C179.479 326.206 162.391 323.966 145.639 321.718C146.671 334.07 147.695 346.566 145.815 358.822C143.935 371.078 138.855 383.262 129.479 391.374C120.103 399.486 105.975 402.694 94.8792 397.174C81.5432 390.542 76.2792 374.094 75.6952 359.206C74.7192 334.118 83.5832 308.774 99.9992 289.774C103.503 285.718 107.439 281.87 112.295 279.606C117.159 277.342 123.111 276.894 127.775 279.526C131.663 281.718 134.159 285.678 136.959 289.158C149.519 304.83 171.287 312.502 190.895 308.174C189.575 297.646 185.623 287.454 179.511 278.782" stroke="black" stroke-width="3.944" stroke-linecap="round" stroke-linejoin="round"/>
<path d="M145.551 297.598C150.231 299.054 160.063 305.318 164.743 306.774C164.303 310.118 163.959 313.47 163.711 316.846C163.575 318.718 162.167 321.606 159.839 322.59C160.287 316.822 160.079 317.038 158.151 313.262C157.159 311.318 156.007 309.406 154.719 307.534C154.063 306.59 146.879 298.006 145.559 297.598H145.551Z" fill="#221F20" stroke="black" stroke-width="3.944" stroke-linecap="round" stroke-linejoin="round"/>
<path d="M188.535 297.446C188.247 293.854 187.527 288.198 187.239 284.606C189.983 283.878 192.703 283.078 195.415 282.214C196.919 281.734 199.599 281.79 201.079 283.054C196.439 284.518 196.671 284.59 194.311 287.046C193.095 288.31 191.951 289.67 190.887 291.11C190.343 291.838 188.455 296.438 188.535 297.454V297.446Z" fill="#221F20" stroke="black" stroke-width="3.944" stroke-linecap="round" stroke-linejoin="round"/>
<path d="M72.6951 44.446L83.719 267.83C83.967 272.854 87.8951 276.918 92.9111 277.334L159.447 282.87L172.999 283.998L239.535 289.534C244.551 289.95 249.095 286.59 250.175 281.678L297.959 63.19" fill="#D6C7B7"/>
<path d="M72.6951 44.446L83.719 267.83C83.967 272.854 87.8951 276.918 92.9111 277.334L159.447 282.87L172.999 283.998L239.535 289.534C244.551 289.95 249.095 286.59 250.175 281.678L297.959 63.19" stroke="black" stroke-width="3.944" stroke-linecap="round" stroke-linejoin="round"/>
<path d="M225.696 78.6461C212.344 78.6461 198.216 78.0301 183.704 76.8221C155.432 74.4701 128.872 70.0941 108.92 64.5101C98.4236 61.5741 90.0156 58.3581 83.9196 54.9421C69.7596 47.0221 67.4556 37.3421 68.0156 30.6141C69.5596 12.0621 92.1276 7.56614 99.5436 6.09414C111.84 3.64614 128.512 2.3501 147.76 2.3501C161.104 2.3501 175.232 2.96612 189.752 4.17412C218.024 6.52612 244.584 10.9021 264.536 16.4861C275.032 19.4221 283.44 22.6461 289.536 26.0541C303.696 33.9741 306 43.6541 305.44 50.3821C303.896 68.9341 281.328 73.4301 273.912 74.9021C261.616 77.3501 244.952 78.6461 225.704 78.6461H225.696Z" fill="#D6C7B7"/>
<path d="M225.696 78.6461C212.344 78.6461 198.216 78.0301 183.704 76.8221C155.432 74.4701 128.872 70.0941 108.92 64.5101C98.4236 61.5741 90.0156 58.3581 83.9196 54.9421C69.7596 47.0221 67.4556 37.3421 68.0156 30.6141C69.5596 12.0621 92.1276 7.56614 99.5436 6.09414C111.84 3.64614 128.512 2.3501 147.76 2.3501C161.104 2.3501 175.232 2.96612 189.752 4.17412C218.024 6.52612 244.584 10.9021 264.536 16.4861C275.032 19.4221 283.44 22.6461 289.536 26.0541C303.696 33.9741 306 43.6541 305.44 50.3821C303.896 68.9341 281.328 73.4301 273.912 74.9021C261.616 77.3501 244.952 78.6461 225.704 78.6461H225.696Z" stroke="black" stroke-width="3.944" stroke-linecap="round" stroke-linejoin="round"/>
<path d="M288.956 46.8123C289.858 35.9764 244.919 23.3893 188.583 18.6982C132.246 14.007 85.8442 18.9883 84.9419 29.8242C84.0396 40.6601 128.978 53.2473 185.315 57.9384C241.652 62.6295 288.054 57.6482 288.956 46.8123Z" fill="#6E6860"/>
<mask id="mask0_136_84021" style="mask-type:luminance" maskUnits="userSpaceOnUse" x="84" y="16" width="205" height="44">
<path d="M288.956 46.8123C289.858 35.9764 244.919 23.3893 188.583 18.6982C132.246 14.007 85.8442 18.9883 84.9419 29.8242C84.0396 40.6601 128.978 53.2473 185.315 57.9384C241.652 62.6295 288.054 57.6482 288.956 46.8123Z" fill="white"/>
</mask>
<g mask="url(#mask0_136_84021)">
<path d="M287.4 52.1795C288.229 42.2243 243.231 30.351 186.894 25.6599C130.557 20.9688 84.2152 25.2362 83.3862 35.1914C82.5573 45.1467 127.555 57.02 183.892 61.7111C240.229 66.4022 286.571 62.1348 287.4 52.1795Z" fill="#38332F"/>
<path d="M287.4 52.1795C288.229 42.2243 243.231 30.351 186.894 25.6599C130.557 20.9688 84.2152 25.2362 83.3862 35.1914C82.5573 45.1467 127.555 57.02 183.892 61.7111C240.229 66.4022 286.571 62.1348 287.4 52.1795Z" stroke="black" stroke-width="3.944" stroke-linecap="round" stroke-linejoin="round"/>
<path d="M240.167 48.5983L220.175 36.9023L223.751 52.6144L240.167 48.6063V48.5983Z" fill="white" stroke="black" stroke-width="3.944" stroke-linecap="round" stroke-linejoin="round"/>
<path d="M201.591 116.886L248.207 106.278C250.871 105.67 252.511 102.846 251.855 99.9743L240.167 48.5982L223.783 52.1823L220.175 36.8943L185.207 44.8542C182.543 45.4622 180.903 48.2863 181.559 51.1583L195.583 112.774C196.239 115.646 198.927 117.486 201.599 116.878L201.591 116.886Z" fill="white" stroke="black" stroke-width="3.944" stroke-linecap="round" stroke-linejoin="round"/>
<path d="M229.871 60.9824L198.271 68.1744" stroke="black" stroke-width="3.944" stroke-linecap="round" stroke-linejoin="round"/>
<path d="M245.847 47.3024L225.855 35.6064L229.431 51.3185L245.847 47.3104V47.3024Z" fill="white" stroke="black" stroke-width="3.944" stroke-linecap="round" stroke-linejoin="round"/>
<path d="M207.279 115.59L253.895 104.982C256.559 104.374 258.199 101.55 257.543 98.6784L245.855 47.3024L229.471 50.8864L225.863 35.5984L190.895 43.5584C188.231 44.1664 186.591 46.9904 187.247 49.8624L201.271 111.478C201.927 114.35 204.615 116.19 207.287 115.582L207.279 115.59Z" fill="white" stroke="black" stroke-width="3.944" stroke-linecap="round" stroke-linejoin="round"/>
<path d="M235.551 59.6943L203.951 66.8863" stroke="black" stroke-width="3.944" stroke-linecap="round" stroke-linejoin="round"/>
<path d="M251.015 46.1264L231.023 34.4304L234.599 50.1424L251.015 46.1344V46.1264Z" fill="white" stroke="black" stroke-width="3.944" stroke-linecap="round" stroke-linejoin="round"/>
<path d="M212.447 114.414L259.063 103.806C261.727 103.198 263.367 100.374 262.711 97.5023L251.023 46.1264L234.639 49.7104L231.031 34.4224L196.063 42.3824C193.399 42.9904 191.759 45.8144 192.415 48.6864L206.439 110.302C207.095 113.174 209.783 115.014 212.455 114.406L212.447 114.414Z" fill="white" stroke="black" stroke-width="3.944" stroke-linecap="round" stroke-linejoin="round"/>
<path d="M240.719 58.5183L209.119 65.7103" stroke="black" stroke-width="3.944" stroke-linecap="round" stroke-linejoin="round"/>
<path d="M221.711 70.9904L213.871 49.1904L206.535 63.5344L221.703 70.9824L221.711 70.9904Z" fill="white" stroke="black" stroke-width="3.944" stroke-linecap="round" stroke-linejoin="round"/>
<path d="M148.327 98.6546L190.895 120.415C193.335 121.663 196.391 120.543 197.735 117.919L221.711 70.9986L206.839 63.2466L213.871 49.2066L181.935 32.8866C179.495 31.6386 176.439 32.7586 175.095 35.3826L146.335 91.6546C144.991 94.2786 145.879 97.4146 148.319 98.6626L148.327 98.6546Z" fill="white" stroke="black" stroke-width="3.944" stroke-linecap="round" stroke-linejoin="round"/>
<path d="M205.863 73.8942L177.007 59.1501" stroke="black" stroke-width="3.944" stroke-linecap="round" stroke-linejoin="round"/>
<path d="M226.903 73.6467L219.063 51.8467L211.727 66.1907L226.895 73.6387L226.903 73.6467Z" fill="white" stroke="black" stroke-width="3.944" stroke-linecap="round" stroke-linejoin="round"/>
<path d="M153.511 101.31L196.079 123.07C198.519 124.318 201.575 123.198 202.919 120.574L226.895 73.6543L212.023 65.9023L219.055 51.8623L187.119 35.5424C184.679 34.2944 181.623 35.4143 180.279 38.0383L151.519 94.3103C150.175 96.9343 151.063 100.07 153.503 101.318L153.511 101.31Z" fill="white" stroke="black" stroke-width="3.944" stroke-linecap="round" stroke-linejoin="round"/>
<path d="M211.055 76.5506L182.199 61.7986" stroke="black" stroke-width="3.944" stroke-linecap="round" stroke-linejoin="round"/>
<path d="M231.623 76.0625L223.783 54.2625L216.447 68.6064L231.615 76.0544L231.623 76.0625Z" fill="white" stroke="black" stroke-width="3.944" stroke-linecap="round" stroke-linejoin="round"/>
<path d="M158.231 103.719L200.799 125.479C203.239 126.727 206.295 125.607 207.639 122.983L231.615 76.0626L216.743 68.3106L223.775 54.2706L191.839 37.9505C189.399 36.7025 186.343 37.8226 184.999 40.4466L156.239 96.7186C154.895 99.3426 155.783 102.479 158.223 103.727L158.231 103.719Z" fill="white" stroke="black" stroke-width="3.944" stroke-linecap="round" stroke-linejoin="round"/>
<path d="M157.943 43.8943L137.919 32.2463L141.535 47.9503L157.943 43.8943Z" fill="white" stroke="black" stroke-width="3.944" stroke-linecap="round" stroke-linejoin="round"/>
<path d="M119.551 112.286L166.135 101.558C168.799 100.942 170.423 98.118 169.767 95.2459L157.943 43.9019L141.567 47.5339L137.919 32.2539L102.975 40.3019C100.311 40.9179 98.6872 43.7419 99.3432 46.6139L113.527 108.198C114.191 111.07 116.887 112.902 119.551 112.286Z" fill="white" stroke="black" stroke-width="3.944" stroke-linecap="round" stroke-linejoin="round"/>
<path d="M147.679 56.3101L116.103 63.5821" stroke="black" stroke-width="3.944" stroke-linecap="round" stroke-linejoin="round"/>
<path d="M163.623 42.5901L143.599 30.9421L147.215 46.6461L163.623 42.5901Z" fill="white" stroke="black" stroke-width="3.944" stroke-linecap="round" stroke-linejoin="round"/>
<path d="M125.231 110.982L171.815 100.254C174.479 99.638 176.103 96.814 175.447 93.942L163.623 42.5979L147.247 46.23L143.599 30.95L108.655 38.9979C105.991 39.6139 104.367 42.438 105.023 45.31L119.207 106.894C119.871 109.766 122.567 111.598 125.231 110.982Z" fill="white" stroke="black" stroke-width="3.944" stroke-linecap="round" stroke-linejoin="round"/>
<path d="M153.359 55.0061L121.783 62.2781" stroke="black" stroke-width="3.944" stroke-linecap="round" stroke-linejoin="round"/>
<path d="M168.791 41.398L148.767 29.75L152.383 45.454L168.791 41.398Z" fill="white" stroke="black" stroke-width="3.944" stroke-linecap="round" stroke-linejoin="round"/>
<path d="M130.399 109.79L176.983 99.0621C179.647 98.4461 181.271 95.622 180.615 92.75L168.791 41.4061L152.415 45.0381L148.767 29.7581L113.823 37.8061C111.159 38.4221 109.535 41.2461 110.191 44.1181L124.375 105.702C125.039 108.574 127.735 110.406 130.399 109.79Z" fill="white" stroke="black" stroke-width="3.944" stroke-linecap="round" stroke-linejoin="round"/>
<path d="M158.527 53.814L126.943 61.086" stroke="black" stroke-width="3.944" stroke-linecap="round" stroke-linejoin="round"/>
</g>
<path d="M288.956 46.8123C289.858 35.9764 244.919 23.3893 188.583 18.6982C132.246 14.007 85.8442 18.9883 84.9419 29.8242C84.0396 40.6601 128.978 53.2473 185.315 57.9384C241.652 62.6295 288.054 57.6482 288.956 46.8123Z" stroke="black" stroke-width="3.944" stroke-linecap="round" stroke-linejoin="round"/>
<path d="M95.5751 181.766C76.135 195.622 63.5431 227.214 53.5591 248.902C60.4311 256.814 60.1111 256.534 60.3831 267.966C60.5671 275.422 54.879 281.83 59.119 293.142C60.775 297.55 58.7031 302.398 54.1991 300.99C49.7031 299.582 43.3591 291.15 40.6631 287.286C40.6071 295.798 37.8631 292.438 37.8071 300.95C37.7991 302.686 37.7271 304.59 36.5751 305.894C35.4151 307.214 33.4071 307.518 31.7031 307.086C29.9991 306.654 28.5191 305.614 27.1031 304.558C22.7271 301.31 21.2231 309.678 17.0471 306.174C12.9511 302.734 8.75108 299.182 6.19907 294.486C1.76707 286.342 3.11105 276.094 7.07105 267.718C12.743 255.742 23.6071 246.342 36.2791 242.462C45.9111 213.758 63.4951 187.742 86.5111 168.062" fill="#D6C7B7"/>
<path d="M95.5751 181.766C76.1351 195.622 63.5431 227.214 53.5591 248.902C60.4311 256.814 60.1111 256.534 60.3831 267.966C60.5671 275.422 54.879 281.83 59.119 293.142C60.775 297.55 58.7031 302.398 54.1991 300.99C49.7031 299.582 43.3591 291.15 40.6631 287.286C40.6071 295.798 37.8631 292.438 37.8071 300.95C37.7991 302.686 37.7271 304.59 36.5751 305.894C35.4151 307.214 33.4071 307.518 31.7031 307.086C29.9991 306.654 28.5191 305.614 27.1031 304.558C22.7271 301.31 21.2231 309.678 17.0471 306.174C12.9511 302.734 8.75108 299.182 6.19907 294.486C1.76707 286.342 3.11105 276.094 7.07105 267.718C12.743 255.742 23.6071 246.342 36.2791 242.462C45.9111 213.758 63.4951 187.742 86.5111 168.062" stroke="black" stroke-width="3.944" stroke-linecap="round" stroke-linejoin="round"/>
<path d="M3.61513 280.758C2.27913 286.67 2.2471 292.87 3.5271 298.79C3.9671 300.83 4.61511 302.926 6.08711 304.398C7.55911 305.87 10.0791 306.486 11.7671 305.262C12.8631 304.462 13.3911 303.062 13.5031 301.71C13.6151 300.35 13.3671 298.998 13.2151 297.646C12.8631 294.382 15.1591 283.942 15.9831 280.774" fill="#D6C7B7"/>
<path d="M3.61513 280.758C2.27913 286.67 2.2471 292.87 3.5271 298.79C3.9671 300.83 4.61511 302.926 6.08711 304.398C7.55911 305.87 10.0791 306.486 11.7671 305.262C12.8631 304.462 13.3911 303.062 13.5031 301.71C13.6151 300.35 13.3671 298.998 13.2151 297.646C12.8631 294.382 15.1591 283.942 15.9831 280.774" stroke="black" stroke-width="3.944" stroke-linecap="round" stroke-linejoin="round"/>
<path d="M8.71114 284.79C7.37514 290.702 9.2391 299.166 10.5191 305.086C10.9591 307.126 11.6071 309.222 13.0791 310.694C14.5511 312.166 17.0711 312.782 18.7591 311.558C19.8551 310.758 20.3831 309.358 20.4951 308.006C20.6071 306.646 20.3591 305.294 20.2071 303.942C19.8551 300.678 20.1031 297.358 20.9351 294.182" fill="#D6C7B7"/>
<path d="M8.71114 284.79C7.37514 290.702 9.2391 299.166 10.5191 305.086C10.9591 307.126 11.6071 309.222 13.0791 310.694C14.5511 312.166 17.0711 312.782 18.7591 311.558C19.8551 310.758 20.3831 309.358 20.4951 308.006C20.6071 306.646 20.3591 305.294 20.2071 303.942C19.8551 300.678 20.1031 297.358 20.9351 294.182" stroke="black" stroke-width="3.944" stroke-linecap="round" stroke-linejoin="round"/>
<path d="M14.2877 288.534C13.1837 295.238 14.4077 303.478 16.8397 309.998C17.6717 312.238 18.7517 314.518 20.6717 315.95C22.5917 317.382 25.5517 317.67 27.2637 316.006C28.3837 314.918 28.7517 313.238 28.6557 311.678C28.5597 310.118 28.0557 308.614 27.6717 307.102C26.7437 303.454 26.4797 299.63 26.9037 295.886" fill="#D6C7B7"/>
<path d="M14.2877 288.534C13.1837 295.238 14.4077 303.478 16.8397 309.998C17.6717 312.238 18.7517 314.518 20.6717 315.95C22.5917 317.382 25.5517 317.67 27.2637 316.006C28.3837 314.918 28.7517 313.238 28.6557 311.678C28.5597 310.118 28.0557 308.614 27.6717 307.102C26.7437 303.454 26.4797 299.63 26.9037 295.886" stroke="black" stroke-width="3.944" stroke-linecap="round" stroke-linejoin="round"/>
<path d="M24.767 283.598C20.983 292.606 21.135 308.334 26.087 316.75C27.255 318.726 28.679 320.622 30.647 321.814C32.615 323.006 35.191 323.374 37.207 322.286C39.527 321.03 40.575 318.182 40.583 315.534C40.583 312.894 39.767 310.334 39.279 307.734C37.655 299.134 39.823 289.886 45.111 282.91" fill="#D6C7B7"/>
<path d="M24.767 283.598C20.983 292.606 21.135 308.334 26.087 316.75C27.255 318.726 28.679 320.622 30.647 321.814C32.615 323.006 35.191 323.374 37.207 322.286C39.527 321.03 40.575 318.182 40.583 315.534C40.583 312.894 39.767 310.334 39.279 307.734C37.655 299.134 39.823 289.886 45.111 282.91" stroke="black" stroke-width="3.944" stroke-linecap="round" stroke-linejoin="round"/>
<path d="M37.1031 262.214C35.5191 263.91 33.9351 265.606 32.3591 267.302L37.1031 262.214Z" fill="white"/>
<path d="M37.1031 262.214C35.5191 263.91 33.9351 265.606 32.3591 267.302" stroke="black" stroke-width="3.944" stroke-linecap="round" stroke-linejoin="round"/>
<path d="M30.167 257.878C27.895 260.206 25.623 262.534 23.343 264.862L30.167 257.878Z" fill="white"/>
<path d="M30.167 257.878C27.895 260.206 25.623 262.534 23.343 264.862" stroke="black" stroke-width="3.944" stroke-linecap="round" stroke-linejoin="round"/>
<path d="M81.1111 215.574C82.7111 211.07 80.3991 202.174 82.8311 198.062C83.4311 197.054 87.2071 194.462 88.0311 193.622C90.1991 191.414 89.6471 186.95 93.3831 183.422C87.7911 193.102 84.5111 206.63 81.1111 215.574Z" fill="#221F20" stroke="black" stroke-width="3.944" stroke-linecap="round" stroke-linejoin="round"/>
<path d="M167.191 275.702C166.759 305.03 179.855 334.286 202.023 353.494C207.223 339.726 218.127 328.206 231.591 322.27C245.055 316.334 260.911 316.046 274.591 321.486C280.199 323.718 285.799 327.294 287.927 332.942C290.111 338.734 288.127 345.19 285.919 350.974C275.431 378.382 259.639 403.75 239.663 425.262C236.247 428.942 232.463 432.654 227.607 433.942C221.327 435.606 214.463 432.654 210.151 427.79C205.839 422.926 203.087 418.622 199.927 410.574C196.807 402.63 195.415 395.182 195.671 384.702C195.807 379.166 192.215 375.686 188.847 371.286C168.287 344.438 160.127 310.398 152.479 277.454" fill="#D6C7B7"/>
<mask id="mask1_136_84021" style="mask-type:luminance" maskUnits="userSpaceOnUse" x="152" y="275" width="137" height="160">
<path d="M167.191 275.702C166.759 305.03 179.855 334.286 202.023 353.494C207.223 339.726 218.127 328.206 231.591 322.27C245.055 316.334 260.911 316.046 274.591 321.486C280.199 323.718 285.799 327.294 287.927 332.942C290.111 338.734 288.127 345.19 285.919 350.974C275.431 378.382 259.639 403.75 239.663 425.262C236.247 428.942 232.463 432.654 227.607 433.942C221.327 435.606 214.463 432.654 210.151 427.79C205.839 422.926 203.087 418.622 199.927 410.574C196.807 402.63 195.415 395.182 195.671 384.702C195.807 379.166 192.215 375.686 188.847 371.286C168.287 344.438 160.127 310.398 152.479 277.454" fill="white"/>
</mask>
<g mask="url(#mask1_136_84021)">
<path d="M269.391 392.827C290.033 361.126 301.367 331.911 294.707 327.574C288.046 323.236 265.912 345.419 245.27 377.12C224.628 408.821 213.294 438.036 219.955 442.373C226.616 446.711 248.749 424.528 269.391 392.827Z" fill="#221F20" stroke="black" stroke-width="3.944" stroke-linecap="round" stroke-linejoin="round"/>
</g>
<path d="M167.191 275.702C166.759 305.03 179.855 334.286 202.023 353.494C207.223 339.726 218.127 328.206 231.591 322.27C245.055 316.334 260.911 316.046 274.591 321.486C280.199 323.718 285.799 327.294 287.927 332.942C290.111 338.734 288.127 345.19 285.919 350.974C275.431 378.382 259.639 403.75 239.663 425.262C236.247 428.942 232.463 432.654 227.607 433.942C221.327 435.606 214.463 432.654 210.151 427.79C205.839 422.926 203.087 418.622 199.927 410.574C196.807 402.63 195.415 395.182 195.671 384.702C195.807 379.166 192.215 375.686 188.847 371.286C168.287 344.438 160.127 310.398 152.479 277.454" stroke="black" stroke-width="3.944" stroke-linecap="round" stroke-linejoin="round"/>
<path d="M147.111 277.222C148.535 277.302 150.775 277.222 152.199 277.31C152.679 279.454 153.191 281.59 153.727 283.718C154.023 284.894 154.423 286.63 154.783 288.422C153.879 284.782 153.647 284.39 152.023 282.31C150.687 280.598 151.583 281.87 150.927 280.942C150.599 280.47 147.519 277.254 147.119 277.23L147.111 277.222Z" fill="#221F20" stroke="black" stroke-width="3.944" stroke-linecap="round" stroke-linejoin="round"/>
<path d="M145.807 321.718C139.951 322.11 133.383 318.526 132.031 316.518L145.807 321.718Z" fill="white"/>
<path d="M145.807 321.718C139.951 322.11 133.383 318.526 132.031 316.518" stroke="black" stroke-width="3.944" stroke-linecap="round" stroke-linejoin="round"/>
<path d="M202.471 352.35C201.383 355.158 200.927 358.566 201.431 360.926L202.471 352.35Z" fill="white"/>
<path d="M202.471 352.35C201.383 355.158 200.927 358.566 201.431 360.926" stroke="black" stroke-width="3.944" stroke-linecap="round" stroke-linejoin="round"/>
<path d="M219.271 189.982C204.983 196.078 185.647 203.278 170.223 201.39C154.799 199.502 139.759 192.054 130.383 179.67C130.735 192.694 132.863 206.07 139.687 217.166C146.519 228.262 158.815 236.67 171.831 235.958C183.071 235.35 191.479 232.446 199.919 224.99C204.535 220.91 210.407 212.47 213.783 207.326C217.167 202.182 219.431 196.142 219.271 189.982Z" fill="#605B54"/>
<mask id="mask2_136_84021" style="mask-type:luminance" maskUnits="userSpaceOnUse" x="130" y="179" width="90" height="58">
<path d="M219.271 189.982C204.983 196.078 185.647 203.278 170.223 201.39C154.799 199.502 139.759 192.054 130.383 179.67C130.735 192.694 132.863 206.07 139.687 217.166C146.519 228.262 158.815 236.67 171.831 235.958C183.071 235.35 191.479 232.446 199.919 224.99C204.535 220.91 210.407 212.47 213.783 207.326C217.167 202.182 219.431 196.142 219.271 189.982Z" fill="white"/>
</mask>
<g mask="url(#mask2_136_84021)">
<path d="M240.783 169.542C220.559 174.934 193.135 181.174 170.871 178.47C148.607 175.766 126.599 167.502 112.479 154.55C113.655 167.67 117.407 181.238 127.799 192.758C138.191 204.278 156.311 213.374 174.975 213.334C191.103 213.302 203.039 210.822 214.775 203.758C221.199 199.894 229.199 191.71 233.791 186.702C238.383 181.702 241.327 175.742 240.783 169.534" fill="white"/>
<path d="M240.783 169.542C220.559 174.934 193.135 181.174 170.871 178.47C148.607 175.766 126.599 167.502 112.479 154.55C113.655 167.67 117.407 181.238 127.799 192.758C138.191 204.278 156.311 213.374 174.975 213.334C191.103 213.302 203.039 210.822 214.775 203.758C221.199 199.894 229.199 191.71 233.791 186.702C238.383 181.702 241.327 175.742 240.783 169.534" stroke="black" stroke-width="3.944" stroke-linecap="round" stroke-linejoin="round"/>
<path d="M148.223 219.814C151.623 218.342 154.831 217.014 158.439 217.854C163.599 219.046 165.311 218.654 167.799 226.294C168.047 219.542 174.031 219.622 179.327 221.886C184.575 224.134 188.879 228.222 191.479 233.302C194.071 238.374 195.207 245.126 191.375 249.35C188.951 252.022 185.191 252.934 181.671 253.71C173.271 255.558 164.175 257.318 156.343 253.782C149.175 250.55 144.783 243.63 141.519 236.782C140.231 234.078 137.527 230.206 138.735 227.158C140.039 223.862 145.191 221.134 148.231 219.814H148.223Z" fill="#E58EA5" stroke="black" stroke-width="3.944" stroke-linecap="round" stroke-linejoin="round"/>
</g>
<path d="M219.271 189.982C204.983 196.078 185.647 203.278 170.223 201.39C154.799 199.502 139.759 192.054 130.383 179.67C130.735 192.694 132.863 206.07 139.687 217.166C146.519 228.262 158.815 236.67 171.831 235.958C183.071 235.35 191.479 232.446 199.919 224.99C204.535 220.91 210.407 212.47 213.783 207.326C217.167 202.182 219.431 196.142 219.271 189.982Z" stroke="black" stroke-width="3.944" stroke-linecap="round" stroke-linejoin="round"/>
<path d="M180.863 241.822C173.631 246.462 163.575 246.206 156.583 241.214" stroke="black" stroke-width="3.944" stroke-linecap="round" stroke-linejoin="round"/>
<path d="M143.591 193.766L142.391 203.846" stroke="black" stroke-width="3.944" stroke-linecap="round" stroke-linejoin="round"/>
<path d="M203.023 196.638L201.831 206.718" stroke="black" stroke-width="3.944" stroke-linecap="round" stroke-linejoin="round"/>
<path d="M156.447 198.062L155.247 208.142" stroke="black" stroke-width="3.944" stroke-linecap="round" stroke-linejoin="round"/>
<path d="M172.423 202.302L171.247 212.214" stroke="black" stroke-width="3.944" stroke-linecap="round" stroke-linejoin="round"/>
<path d="M187.943 201.046L186.575 212.614" stroke="black" stroke-width="3.944" stroke-linecap="round" stroke-linejoin="round"/>
<path d="M129.008 105.406C132.4 101.19 137.296 98.2063 142.6 97.1263C147.904 96.0463 153.576 96.8703 158.352 99.4143" fill="#D6C7B7"/>
<path d="M129.008 105.406C132.4 101.19 137.296 98.2063 142.6 97.1263C147.904 96.0463 153.576 96.8703 158.352 99.4143" stroke="black" stroke-width="3.944" stroke-linecap="round" stroke-linejoin="round"/>
<path d="M130.984 170.598C130.848 155.278 130.752 139.686 135.184 125.022C136.36 121.134 137.88 117.286 140.344 114.054C142.808 110.822 146.32 108.246 150.328 107.574C156.944 106.47 163.552 110.863 166.88 116.687C170.208 122.511 170.88 129.454 170.944 136.158C171.072 149.19 169.208 162.247 165.44 174.727" fill="white"/>
<mask id="mask3_136_84021" style="mask-type:luminance" maskUnits="userSpaceOnUse" x="130" y="107" width="41" height="68">
<path d="M130.984 170.598C130.848 155.278 130.752 139.686 135.184 125.022C136.36 121.134 137.88 117.286 140.344 114.054C142.808 110.822 146.32 108.246 150.328 107.574C156.944 106.47 163.552 110.863 166.88 116.687C170.208 122.511 170.88 129.454 170.944 136.158C171.072 149.19 169.208 162.247 165.44 174.727" fill="white"/>
</mask>
<g mask="url(#mask3_136_84021)">
<path d="M162.62 155.407C164.073 137.963 159.786 123.366 153.045 122.804C146.303 122.243 139.661 135.93 138.209 153.375C136.756 170.82 141.043 185.416 147.784 185.978C154.525 186.539 161.167 172.852 162.62 155.407Z" fill="#221F20" stroke="black" stroke-width="3.944" stroke-linecap="round" stroke-linejoin="round"/>
</g>
<path d="M130.984 170.598C130.848 155.278 130.752 139.686 135.184 125.022C136.36 121.134 137.88 117.286 140.344 114.054C142.808 110.822 146.32 108.246 150.328 107.574C156.944 106.47 163.552 110.863 166.88 116.687C170.208 122.511 170.88 129.454 170.944 136.158C171.072 149.19 169.208 162.247 165.44 174.727" stroke="black" stroke-width="3.944" stroke-linecap="round" stroke-linejoin="round"/>
<path d="M171.272 138.806C158.088 136.438 141.768 136.222 129.04 140.39C129.312 133.622 129.608 126.71 132.048 120.39C134.48 114.07 139.48 108.326 146.088 106.838C153.744 105.118 161.832 109.638 166.12 116.206C170.408 122.774 171.496 130.958 171.272 138.798" fill="#D6C7B7"/>
<path d="M171.272 138.806C158.088 136.438 141.768 136.222 129.04 140.39C129.312 133.622 129.608 126.71 132.048 120.39C134.48 114.07 139.48 108.326 146.088 106.838C153.744 105.118 161.832 109.638 166.12 116.206C170.408 122.774 171.496 130.958 171.272 138.798" stroke="black" stroke-width="3.944" stroke-linecap="round" stroke-linejoin="round"/>
<path d="M151.022 146.444C151.217 144.106 149.811 142.081 147.883 141.92C145.954 141.76 144.233 143.525 144.038 145.863C143.844 148.201 145.249 150.226 147.178 150.387C149.106 150.548 150.827 148.782 151.022 146.444Z" fill="white"/>
<path d="M151.754 153.996C151.865 152.662 151.063 151.506 149.962 151.415C148.862 151.323 147.879 152.33 147.768 153.664C147.657 154.998 148.459 156.154 149.56 156.246C150.661 156.337 151.643 155.33 151.754 153.996Z" fill="white"/>
<path d="M123.223 174.974C130.695 172.342 138.479 170.118 146.407 170.35C154.327 170.582 162.487 173.582 167.399 179.806C167.071 179.286 166.743 178.758 166.423 178.238" stroke="black" stroke-width="3.944" stroke-linecap="round" stroke-linejoin="round"/>
<path d="M235.143 114.238C232.495 109.518 228.159 105.766 223.103 103.822C218.047 101.878 212.319 101.75 207.183 103.478" fill="#D6C7B7"/>
<path d="M235.143 114.238C232.495 109.518 228.159 105.766 223.103 103.822C218.047 101.878 212.319 101.75 207.183 103.478" stroke="black" stroke-width="3.944" stroke-linecap="round" stroke-linejoin="round"/>
<path d="M188.847 175.414C188.711 160.094 188.615 144.502 193.047 129.838C194.223 125.95 195.743 122.102 198.207 118.87C200.671 115.638 204.183 113.062 208.191 112.39C214.807 111.286 221.415 115.678 224.743 121.502C228.071 127.326 228.743 134.27 228.807 140.974C228.935 154.006 227.071 167.062 223.303 179.542" fill="white"/>
<mask id="mask4_136_84021" style="mask-type:luminance" maskUnits="userSpaceOnUse" x="188" y="112" width="41" height="68">
<path d="M188.847 175.414C188.711 160.094 188.615 144.502 193.047 129.838C194.223 125.95 195.743 122.102 198.207 118.87C200.671 115.638 204.183 113.062 208.191 112.39C214.807 111.286 221.415 115.678 224.743 121.502C228.071 127.326 228.743 134.27 228.807 140.974C228.935 154.006 227.071 167.062 223.303 179.542" fill="white"/>
</mask>
<g mask="url(#mask4_136_84021)">
<path d="M220.825 159.831C222.278 142.386 217.991 127.79 211.25 127.228C204.509 126.667 197.867 140.354 196.414 157.799C194.961 175.243 199.248 189.84 205.989 190.402C212.731 190.963 219.373 177.276 220.825 159.831Z" fill="#221F20" stroke="black" stroke-width="3.944" stroke-linecap="round" stroke-linejoin="round"/>
</g>
<path d="M188.847 175.414C188.711 160.094 188.615 144.502 193.047 129.838C194.223 125.95 195.743 122.102 198.207 118.87C200.671 115.638 204.183 113.062 208.191 112.39C214.807 111.286 221.415 115.678 224.743 121.502C228.071 127.326 228.743 134.27 228.807 140.974C228.935 154.006 227.071 167.062 223.303 179.542" stroke="black" stroke-width="3.944" stroke-linecap="round" stroke-linejoin="round"/>
<path d="M190.736 139.446C204.128 139.286 220.264 141.774 232.128 147.99C232.976 141.27 233.824 134.406 232.472 127.766C231.12 121.126 227.136 114.638 220.864 112.086C213.6 109.126 204.872 112.246 199.56 118.014C194.24 123.782 191.824 131.67 190.744 139.446" fill="#D6C7B7"/>
<path d="M190.736 139.446C204.128 139.286 220.264 141.774 232.128 147.99C232.976 141.27 233.824 134.406 232.472 127.766C231.12 121.126 227.136 114.638 220.864 112.086C213.6 109.126 204.872 112.246 199.56 118.014C194.24 123.782 191.824 131.67 190.744 139.446" stroke="black" stroke-width="3.944" stroke-linecap="round" stroke-linejoin="round"/>
<path d="M231.415 184.846C224.903 180.326 217.991 176.118 210.295 174.238C202.599 172.358 193.935 173.086 187.543 177.782C187.999 177.366 188.447 176.95 188.903 176.534" fill="#D6C7B7"/>
<path d="M231.415 184.846C224.903 180.326 217.991 176.118 210.295 174.238C202.599 172.358 193.935 173.086 187.543 177.782C187.999 177.366 188.447 176.95 188.903 176.534" stroke="black" stroke-width="3.944" stroke-linecap="round" stroke-linejoin="round"/>
<path d="M209.578 150.896C209.772 148.558 208.367 146.533 206.438 146.372C204.51 146.211 202.788 147.976 202.594 150.315C202.399 152.653 203.805 154.678 205.733 154.839C207.662 154.999 209.383 153.234 209.578 150.896Z" fill="white"/>
<path d="M210.309 158.448C210.421 157.113 209.618 155.958 208.517 155.866C207.417 155.774 206.434 156.782 206.323 158.116C206.212 159.45 207.014 160.606 208.115 160.697C209.216 160.789 210.198 159.782 210.309 158.448Z" fill="white"/>
<path d="M173.015 171.446C176.471 168.062 180.655 165.422 185.199 163.774C187.903 162.79 190.823 162.15 193.663 162.614C196.503 163.07 199.263 164.798 200.367 167.454C201.735 170.742 200.343 174.542 198.383 177.518C193.311 185.222 184.247 190.126 175.023 190.158" fill="#D6C7B7"/>
<path d="M173.015 171.446C176.471 168.062 180.655 165.422 185.199 163.774C187.903 162.79 190.823 162.15 193.663 162.614C196.503 163.07 199.263 164.798 200.367 167.454C201.735 170.742 200.343 174.542 198.383 177.518C193.311 185.222 184.247 190.126 175.023 190.158" stroke="black" stroke-width="3.944" stroke-linecap="round" stroke-linejoin="round"/>
<path d="M167.847 226.462C168.151 227.614 168.359 228.798 168.455 229.99L167.847 226.462Z" fill="white"/>
<path d="M167.847 226.462C168.151 227.614 168.359 228.798 168.455 229.99" stroke="black" stroke-width="3.944" stroke-linecap="round" stroke-linejoin="round"/>
<path d="M448.781 110.63L414.986 72.552C411.466 68.5867 405.399 68.2251 401.433 71.7445L336.203 129.638C332.238 133.158 331.876 139.225 335.396 143.191L369.191 181.268C372.71 185.234 378.778 185.595 382.743 182.076L447.973 124.182C451.939 120.663 452.3 114.595 448.781 110.63Z" fill="white" stroke="black" stroke-width="3.944" stroke-linecap="round" stroke-linejoin="round"/>
<path d="M334.199 136.662C364.775 131.806 384.159 129.19 389.343 129.462C390.119 129.502 393.023 129.734 395.055 127.926C397.071 126.134 397.199 123.27 397.255 122.438C397.615 117.11 401.631 97.8703 407.887 69.8623" fill="white"/>
<path d="M334.199 136.662C364.775 131.806 384.159 129.19 389.343 129.462C390.119 129.502 393.023 129.734 395.055 127.926C397.071 126.134 397.199 123.27 397.255 122.438C397.615 117.11 401.631 97.8703 407.887 69.8623" stroke="black" stroke-width="3.944" stroke-linecap="round" stroke-linejoin="round"/>
<path d="M330.32 178.622C324.432 164.566 325.2 152.038 320.704 137.838C319.976 135.542 318.848 129.598 319.408 127.254C320.744 121.654 329.368 120.694 334.72 122.814C340.072 124.934 343.504 130.294 345.304 135.766C347.104 141.238 343.288 148.398 344.864 153.942" fill="#D6C7B7"/>
<path d="M330.32 178.622C324.432 164.566 325.2 152.038 320.704 137.838C319.976 135.542 318.848 129.598 319.408 127.254C320.744 121.654 329.368 120.694 334.72 122.814C340.072 124.934 343.504 130.294 345.304 135.766C347.104 141.238 343.288 148.398 344.864 153.942" stroke="black" stroke-width="3.944" stroke-linecap="round" stroke-linejoin="round"/>
</svg>
