<svg width="416" height="440" viewBox="0 0 416 440" fill="none" xmlns="http://www.w3.org/2000/svg">
<path d="M159.824 274.791C161.736 282.663 166.528 289.535 169.144 297.199C171.768 304.863 171.576 314.615 165.208 319.631C161.168 322.823 155.641 323.295 150.496 323.143C133.6 322.655 117.344 316.927 101.416 311.271C99.8724 323.575 98.2884 336.007 93.9204 347.607C89.5524 359.207 82.0564 370.079 71.2084 376.079C60.3604 382.079 45.8725 382.303 36.1525 374.599C24.4805 365.351 22.7204 348.167 25.2244 333.487C29.4484 308.735 43.3685 285.775 63.3525 270.575C67.6165 267.327 72.2645 264.375 77.4885 263.167C82.7125 261.959 88.6325 262.743 92.6485 266.287C96.0005 269.239 97.6244 273.623 99.6404 277.615C108.688 295.543 128.4 307.551 148.488 307.367C149.368 296.791 147.616 286.007 143.424 276.255" fill="#D6C7B7"/>
<path d="M159.824 274.791C161.736 282.663 166.528 289.535 169.144 297.199C171.768 304.863 171.576 314.615 165.208 319.631C161.168 322.823 155.64 323.295 150.496 323.143C133.6 322.655 117.344 316.927 101.416 311.271C99.8724 323.575 98.2884 336.007 93.9204 347.607C89.5524 359.207 82.0564 370.079 71.2084 376.079C60.3604 382.079 45.8725 382.303 36.1525 374.599C24.4805 365.351 22.7204 348.167 25.2244 333.487C29.4484 308.735 43.3685 285.775 63.3525 270.575C67.6165 267.327 72.2645 264.375 77.4885 263.167C82.7125 261.959 88.6325 262.743 92.6485 266.287C96.0005 269.239 97.6244 273.623 99.6404 277.615C108.688 295.543 128.4 307.551 148.488 307.367C149.368 296.791 147.616 286.007 143.424 276.255" stroke="black" stroke-width="3.944" stroke-linecap="round" stroke-linejoin="round"/>
<path d="M28.7124 50.6229L55.5284 272.663C56.1284 277.655 60.3365 281.431 65.3685 281.495L132.136 282.303L145.736 282.471L212.504 283.279C217.536 283.343 221.832 279.663 222.56 274.687L254.752 53.3669" fill="#D6C7B7"/>
<path d="M28.7124 50.6229L55.5284 272.663C56.1284 277.655 60.3365 281.431 65.3685 281.495L132.136 282.303L145.736 282.471L212.504 283.279C217.536 283.343 221.832 279.663 222.56 274.687L254.752 53.3669" stroke="black" stroke-width="3.944" stroke-linecap="round" stroke-linejoin="round"/>
<path d="M148.472 75.1029C146.241 75.1029 143.992 75.0869 141.728 75.0629C113.36 74.7189 86.5605 72.2389 66.2645 68.0789C55.5925 65.8949 46.9685 63.2789 40.6485 60.3109C25.9605 53.4149 22.9765 43.9269 23.0565 37.1749C23.1365 30.5829 26.2005 21.3669 40.3525 14.8549C46.3845 12.0789 54.5685 9.69486 64.6805 7.75886C83.6165 4.13486 108.896 2.13489 135.872 2.13489C138.104 2.13489 140.352 2.15088 142.616 2.17488C170.984 2.51888 197.785 4.99886 218.081 9.15886C228.753 11.3429 237.377 13.9589 243.697 16.9269C258.385 23.8229 261.368 33.3109 261.288 40.0629C261.209 46.6549 258.145 55.8709 243.993 62.3829C237.961 65.1589 229.776 67.5429 219.664 69.4789C200.728 73.1029 175.449 75.1029 148.472 75.1029Z" fill="#D6C7B7"/>
<path d="M148.472 75.1029C146.24 75.1029 143.992 75.0869 141.728 75.0629C113.36 74.7189 86.5605 72.2389 66.2645 68.0789C55.5925 65.8949 46.9685 63.2789 40.6485 60.3109C25.9605 53.4149 22.9765 43.9269 23.0565 37.1749C23.1365 30.5829 26.2005 21.3669 40.3525 14.8549C46.3845 12.0789 54.5685 9.69486 64.6805 7.75886C83.6165 4.13486 108.896 2.13489 135.872 2.13489C138.104 2.13489 140.352 2.15088 142.616 2.17488C170.984 2.51888 197.785 4.99886 218.081 9.15886C228.753 11.3429 237.377 13.9589 243.697 16.9269C258.385 23.8229 261.369 33.3109 261.289 40.0629C261.209 46.6549 258.145 55.8709 243.993 62.3829C237.961 65.1589 229.776 67.5429 219.664 69.4789C200.728 73.1029 175.449 75.1029 148.472 75.1029Z" stroke="black" stroke-width="3.944" stroke-linecap="round" stroke-linejoin="round"/>
<path d="M244.468 37.5649C244.599 26.6923 198.88 17.3265 142.352 16.6457C85.8246 15.9649 39.8937 24.227 39.7627 35.0996C39.6318 45.9722 85.3505 55.3381 141.878 56.0189C198.406 56.6997 244.337 48.4375 244.468 37.5649Z" fill="#6E6860"/>
<mask id="mask0_136_84019" style="mask-type:luminance" maskUnits="userSpaceOnUse" x="39" y="16" width="206" height="41">
<path d="M244.468 37.5648C244.599 26.6922 198.88 17.3264 142.352 16.6456C85.8246 15.9648 39.8937 24.2269 39.7627 35.0995C39.6318 45.9721 85.3505 55.338 141.878 56.0188C198.406 56.6996 244.337 48.4374 244.468 37.5648Z" fill="white"/>
</mask>
<g mask="url(#mask0_136_84019)">
<path d="M243.294 43.0145C243.414 33.0255 197.687 24.376 141.159 23.6952C84.6311 23.0144 38.7087 30.5602 38.5884 40.5492C38.4681 50.5382 84.1954 59.1877 140.723 59.8685C197.251 60.5493 243.173 53.0035 243.294 43.0145Z" fill="#38332F"/>
<path d="M243.294 43.0145C243.414 33.0255 197.687 24.376 141.159 23.6952C84.6311 23.0144 38.7087 30.5602 38.5884 40.5492C38.4681 50.5382 84.1954 59.1877 140.723 59.8685C197.251 60.5493 243.173 53.0035 243.294 43.0145Z" stroke="black" stroke-width="3.944" stroke-linecap="round" stroke-linejoin="round"/>
<path d="M196.057 42.9028L175.281 32.6469L179.961 48.0628L196.057 42.8948V42.9028Z" fill="white" stroke="black" stroke-width="3.944" stroke-linecap="round" stroke-linejoin="round"/>
<path d="M162.417 113.751L208.161 99.8708C210.777 99.0788 212.209 96.1428 211.353 93.3268L196.049 42.9108L179.961 47.6468L175.281 32.6548L140.969 43.0708C138.353 43.8628 136.921 46.7988 137.777 49.6148L156.129 110.087C156.985 112.911 159.801 114.551 162.417 113.759V113.751Z" fill="white" stroke="black" stroke-width="3.944" stroke-linecap="round" stroke-linejoin="round"/>
<path d="M186.665 55.9908L155.657 65.3989" stroke="black" stroke-width="3.944" stroke-linecap="round" stroke-linejoin="round"/>
<path d="M201.633 41.2068L180.857 30.9508L185.537 46.3668L201.633 41.1988V41.2068Z" fill="white" stroke="black" stroke-width="3.944" stroke-linecap="round" stroke-linejoin="round"/>
<path d="M168.001 112.063L213.745 98.1828C216.361 97.3908 217.793 94.4548 216.937 91.6388L201.633 41.2228L185.545 45.9588L180.865 30.9668L146.553 41.3828C143.937 42.1748 142.505 45.1108 143.361 47.9268L161.713 108.399C162.569 111.223 165.385 112.863 168.001 112.071V112.063Z" fill="white" stroke="black" stroke-width="3.944" stroke-linecap="round" stroke-linejoin="round"/>
<path d="M192.241 54.2948L161.233 63.7028" stroke="black" stroke-width="3.944" stroke-linecap="round" stroke-linejoin="round"/>
<path d="M206.705 39.6709L185.929 29.4149L190.609 44.8309L206.705 39.6629V39.6709Z" fill="white" stroke="black" stroke-width="3.944" stroke-linecap="round" stroke-linejoin="round"/>
<path d="M173.073 110.519L218.817 96.6389C221.433 95.8469 222.865 92.9109 222.009 90.0949L206.705 39.6789L190.617 44.4148L185.937 29.4229L151.625 39.8389C149.009 40.6309 147.577 43.5669 148.433 46.3829L166.785 106.855C167.641 109.679 170.457 111.319 173.073 110.527V110.519Z" fill="white" stroke="black" stroke-width="3.944" stroke-linecap="round" stroke-linejoin="round"/>
<path d="M197.313 52.7588L166.305 62.1668" stroke="black" stroke-width="3.944" stroke-linecap="round" stroke-linejoin="round"/>
<path d="M179.241 66.5508L169.881 45.3588L163.585 60.1908L179.249 66.5508H179.241Z" fill="white" stroke="black" stroke-width="3.944" stroke-linecap="round" stroke-linejoin="round"/>
<path d="M107.993 99.3428L152.001 118.031C154.521 119.103 157.497 117.767 158.649 115.055L179.241 66.5587L163.857 59.8787L169.881 45.3747L136.873 31.3587C134.353 30.2867 131.377 31.6228 130.225 34.3348L105.521 92.5027C104.369 95.2147 105.473 98.2868 107.993 99.3508V99.3428Z" fill="white" stroke="black" stroke-width="3.944" stroke-linecap="round" stroke-linejoin="round"/>
<path d="M163.641 70.5667L133.809 57.9027" stroke="black" stroke-width="3.944" stroke-linecap="round" stroke-linejoin="round"/>
<path d="M184.601 68.8308L175.241 47.6388L168.945 62.4708L184.609 68.8308H184.601Z" fill="white" stroke="black" stroke-width="3.944" stroke-linecap="round" stroke-linejoin="round"/>
<path d="M113.361 101.615L157.369 120.303C159.889 121.375 162.865 120.039 164.017 117.327L184.609 68.8307L169.225 62.1507L175.249 47.6467L142.241 33.6307C139.721 32.5587 136.745 33.8947 135.593 36.6067L110.889 94.7747C109.737 97.4867 110.841 100.559 113.361 101.623V101.615Z" fill="white" stroke="black" stroke-width="3.944" stroke-linecap="round" stroke-linejoin="round"/>
<path d="M189.481 70.9027L180.121 49.7107L173.825 64.5427L189.489 70.9027H189.481Z" fill="white" stroke="black" stroke-width="3.944" stroke-linecap="round" stroke-linejoin="round"/>
<path d="M118.233 103.687L162.241 122.375C164.761 123.447 167.737 122.111 168.889 119.399L189.481 70.9027L174.097 64.2227L180.121 49.7187L147.113 35.7027C144.593 34.6307 141.617 35.9668 140.465 38.6788L115.761 96.8468C114.609 99.5588 115.713 102.631 118.233 103.695V103.687Z" fill="white" stroke="black" stroke-width="3.944" stroke-linecap="round" stroke-linejoin="round"/>
<path d="M113.713 44.0389L92.9126 33.8389L97.6326 49.2469L113.713 44.0389Z" fill="white" stroke="black" stroke-width="3.944" stroke-linecap="round" stroke-linejoin="round"/>
<path d="M80.2567 114.975L125.969 100.975C128.585 100.175 130.009 97.2389 129.145 94.4229L113.713 44.0469L97.6327 48.8309L92.9126 33.8549L58.6247 44.3589C56.0087 45.1589 54.5847 48.0949 55.4487 50.9109L73.9607 111.335C74.8247 114.151 77.6487 115.791 80.2647 114.991L80.2567 114.975Z" fill="white" stroke="black" stroke-width="3.944" stroke-linecap="round" stroke-linejoin="round"/>
<path d="M104.353 57.1509L73.3687 66.6389" stroke="black" stroke-width="3.944" stroke-linecap="round" stroke-linejoin="round"/>
<path d="M119.281 42.3268L98.4807 32.1268L103.201 47.5348L119.281 42.3268Z" fill="white" stroke="black" stroke-width="3.944" stroke-linecap="round" stroke-linejoin="round"/>
<path d="M85.8326 113.271L131.545 99.2709C134.161 98.4708 135.585 95.5348 134.721 92.7188L119.289 42.3429L103.209 47.1269L98.4887 32.1509L64.2007 42.6548C61.5847 43.4548 60.1606 46.3908 61.0246 49.2068L79.5366 109.631C80.4006 112.447 83.2246 114.087 85.8406 113.287L85.8326 113.271Z" fill="white" stroke="black" stroke-width="3.944" stroke-linecap="round" stroke-linejoin="round"/>
<path d="M109.921 55.4388L78.9368 64.9348" stroke="black" stroke-width="3.944" stroke-linecap="round" stroke-linejoin="round"/>
<path d="M124.353 40.7748L103.553 30.5748L108.273 45.9828L124.353 40.7748Z" fill="white" stroke="black" stroke-width="3.944" stroke-linecap="round" stroke-linejoin="round"/>
<path d="M90.9045 111.719L136.617 97.7188C139.233 96.9188 140.657 93.9828 139.793 91.1668L124.361 40.7909L108.281 45.5749L103.561 30.5989L69.2726 41.1028C66.6566 41.9028 65.2326 44.8388 66.0966 47.6548L84.6085 108.079C85.4725 110.895 88.2965 112.535 90.9125 111.735L90.9045 111.719Z" fill="white" stroke="black" stroke-width="3.944" stroke-linecap="round" stroke-linejoin="round"/>
<path d="M114.993 53.8868L84.0085 63.3828" stroke="black" stroke-width="3.944" stroke-linecap="round" stroke-linejoin="round"/>
</g>
<path d="M244.468 37.5649C244.599 26.6923 198.88 17.3265 142.352 16.6457C85.8246 15.9649 39.8937 24.227 39.7627 35.0996C39.6318 45.9722 85.3505 55.3381 141.878 56.0189C198.406 56.6997 244.337 48.4375 244.468 37.5649Z" stroke="black" stroke-width="3.944" stroke-linecap="round" stroke-linejoin="round"/>
<path d="M106.336 287.663C110.616 290.055 118.936 298.215 123.216 300.607C122.096 303.783 121.064 306.999 120.128 310.247C119.608 312.047 117.632 314.583 115.152 315.071C116.784 309.527 116.536 309.687 115.424 305.599C114.848 303.495 114.128 301.383 113.248 299.287C112.8 298.223 107.544 288.351 106.336 287.671V287.663Z" fill="#D6C7B7" stroke="black" stroke-width="3.944" stroke-linecap="round" stroke-linejoin="round"/>
<path d="M56.3044 278.687C59.5124 286.679 67.3845 292.599 75.9525 293.463C84.5205 294.327 93.4165 290.103 98.1525 282.911" fill="#221F20"/>
<path d="M56.3044 278.687C59.5124 286.679 67.3845 292.599 75.9525 293.463C84.5205 294.327 93.4165 290.103 98.1525 282.911" stroke="black" stroke-width="3.944" stroke-linecap="round" stroke-linejoin="round"/>
<path d="M219.665 231.071C227.209 241.175 240.241 245.991 252.841 246.519C257.417 246.711 316.033 238.039 315.753 235.975C314.769 228.815 311.649 222.031 306.777 216.447C306.857 216.543 296.617 218.735 295.217 218.991C290.305 219.903 285.416 222.183 280.608 223.591C271.048 226.391 261.329 228.375 251.665 225.935C242.009 223.495 233.225 217.719 227.161 209.815" fill="#D6C7B7"/>
<path d="M219.665 231.071C227.209 241.175 240.241 245.991 252.841 246.519C257.417 246.711 316.033 238.039 315.753 235.975C314.769 228.815 311.649 222.031 306.777 216.447C306.857 216.543 296.617 218.735 295.217 218.991C290.305 219.903 285.416 222.183 280.608 223.591C271.048 226.391 261.329 228.375 251.665 225.935C242.009 223.495 233.225 217.719 227.161 209.815" stroke="black" stroke-width="3.944" stroke-linecap="round" stroke-linejoin="round"/>
<path d="M154.561 176.415C153.265 162.343 151.985 148.015 154.937 134.199C155.721 130.535 156.817 126.879 158.841 123.719C160.857 120.559 163.889 117.919 167.521 116.999C173.513 115.479 179.929 119.007 183.433 124.103C186.937 129.199 188.081 135.535 188.657 141.695C189.777 153.671 189.057 165.807 186.545 177.567" fill="white"/>
<mask id="mask1_136_84019" style="mask-type:luminance" maskUnits="userSpaceOnUse" x="153" y="116" width="37" height="62">
<path d="M154.561 176.415C153.265 162.343 151.985 148.015 154.937 134.199C155.721 130.535 156.817 126.879 158.841 123.719C160.857 120.559 163.889 117.919 167.521 116.999C173.513 115.479 179.929 119.007 183.433 124.103C186.937 129.199 188.081 135.535 188.657 141.695C189.777 153.671 189.057 165.807 186.545 177.567" fill="white"/>
</mask>
<g mask="url(#mask1_136_84019)">
<path d="M185.137 187.063C191.375 187.063 196.433 173.975 196.433 157.831C196.433 141.686 191.375 128.599 185.137 128.599C178.898 128.599 173.841 141.686 173.841 157.831C173.841 173.975 178.898 187.063 185.137 187.063Z" fill="#221F20" stroke="black" stroke-width="3.944" stroke-linecap="round" stroke-linejoin="round"/>
</g>
<path d="M154.561 176.415C153.265 162.343 151.985 148.015 154.937 134.199C155.721 130.535 156.817 126.879 158.841 123.719C160.857 120.559 163.889 117.919 167.521 116.999C173.513 115.479 179.929 119.007 183.433 124.103C186.937 129.199 188.081 135.535 188.657 141.695C189.777 153.671 189.057 165.807 186.545 177.567" stroke="black" stroke-width="3.944" stroke-linecap="round" stroke-linejoin="round"/>
<path d="M98.9205 178.655C97.6245 164.583 96.3445 150.255 99.2965 136.439C100.081 132.775 101.177 129.119 103.201 125.959C105.217 122.799 108.249 120.159 111.881 119.239C117.873 117.719 124.289 121.247 127.793 126.343C131.297 131.439 132.44 137.775 133.016 143.935C134.136 155.911 133.416 168.047 130.904 179.807" fill="white"/>
<mask id="mask2_136_84019" style="mask-type:luminance" maskUnits="userSpaceOnUse" x="97" y="118" width="37" height="62">
<path d="M98.9205 178.655C97.6245 164.583 96.3445 150.255 99.2965 136.439C100.081 132.775 101.177 129.119 103.201 125.959C105.217 122.799 108.249 120.159 111.881 119.239C117.873 117.719 124.289 121.247 127.793 126.343C131.297 131.439 132.44 137.775 133.016 143.935C134.136 155.911 133.416 168.047 130.904 179.807" fill="white"/>
</mask>
<g mask="url(#mask2_136_84019)">
<path d="M129.496 189.303C135.735 189.303 140.792 176.215 140.792 160.071C140.792 143.927 135.735 130.839 129.496 130.839C123.258 130.839 118.2 143.927 118.2 160.071C118.2 176.215 123.258 189.303 129.496 189.303Z" fill="#221F20" stroke="black" stroke-width="3.944" stroke-linecap="round" stroke-linejoin="round"/>
</g>
<path d="M98.9205 178.655C97.6245 164.583 96.3445 150.255 99.2965 136.439C100.081 132.775 101.177 129.119 103.201 125.959C105.217 122.799 108.249 120.159 111.881 119.239C117.873 117.719 124.289 121.247 127.793 126.343C131.297 131.439 132.44 137.775 133.016 143.935C134.136 155.911 133.416 168.047 130.904 179.807" stroke="black" stroke-width="3.944" stroke-linecap="round" stroke-linejoin="round"/>
<path d="M135.569 171.583C133.953 172.919 132.737 174.815 132.505 176.895C132.105 180.423 134.633 183.807 137.849 185.303C141.065 186.807 144.793 186.751 148.297 186.191C151.129 185.743 154.185 184.783 155.657 182.327C157.129 179.871 156.537 176.735 155.065 174.343C151.033 167.791 141.361 166.775 135.577 171.575L135.569 171.583Z" fill="#D6C7B7" stroke="black" stroke-width="3.944" stroke-linecap="round" stroke-linejoin="round"/>
<path d="M184.089 201.815C188.121 199.151 191.257 194.767 191.377 189.943C191.537 183.591 186.256 177.943 180.112 176.319C173.968 174.695 167.329 176.479 161.849 179.703C156.593 182.799 151.713 187.327 145.625 187.639C142.073 187.823 138.601 186.487 135.545 184.679C132.489 182.871 129.745 180.583 126.793 178.599C121.505 175.031 115.185 172.391 108.865 173.247C100.345 174.399 92.8486 183.495 93.5926 192.063C94.3606 200.895 96.2005 203.183 103.033 206.079" fill="#D6C7B7"/>
<path d="M184.089 201.815C188.121 199.151 191.257 194.767 191.377 189.943C191.537 183.591 186.256 177.943 180.112 176.319C173.968 174.695 167.329 176.479 161.849 179.703C156.593 182.799 151.713 187.327 145.625 187.639C142.073 187.823 138.601 186.487 135.545 184.679C132.489 182.871 129.745 180.583 126.793 178.599C121.505 175.031 115.185 172.391 108.865 173.247C100.345 174.399 92.8486 183.495 93.5926 192.063C94.3606 200.895 96.2005 203.183 103.033 206.079" stroke="black" stroke-width="3.944" stroke-linecap="round" stroke-linejoin="round"/>
<path d="M167.856 218.759C162.504 226.375 154.48 231.559 145.288 230.095C136.76 228.735 129.512 227.007 123.704 220.615C120.504 217.095 116.384 208.631 114.296 204.359C112.208 200.087 111.704 193.911 112.92 189.311C114.904 191.543 121.816 192.911 124.792 193.167C136.664 194.199 141.92 194.639 155.36 194.255C158.264 194.175 162.464 193.503 165.352 193.167C167.368 192.935 174.768 190.647 174.768 190.647C174.768 190.647 174.152 200.055 173.768 202.943C173.016 208.575 171.136 214.095 167.856 218.759Z" fill="#605B54"/>
<mask id="mask3_136_84019" style="mask-type:luminance" maskUnits="userSpaceOnUse" x="112" y="189" width="63" height="42">
<path d="M167.856 218.759C162.504 226.375 154.48 231.559 145.288 230.095C136.76 228.735 129.512 227.007 123.704 220.615C120.504 217.095 116.384 208.631 114.296 204.359C112.208 200.087 111.704 193.911 112.92 189.311C114.904 191.543 121.816 192.911 124.792 193.167C136.664 194.199 141.92 194.639 155.36 194.255C158.264 194.175 162.464 193.503 165.352 193.167C167.368 192.935 174.768 190.647 174.768 190.647C174.768 190.647 174.152 200.055 173.768 202.943C173.016 208.575 171.136 214.095 167.856 218.759Z" fill="white"/>
</mask>
<g mask="url(#mask3_136_84019)">
<path d="M172.536 218.847C170.664 212.975 165.888 208.103 160.056 206.119C154.224 204.135 147.472 205.079 142.4 208.591C135.736 202.591 124.704 202.231 117.664 207.783C113.816 210.815 113.104 216.911 115.2 221.343C117.296 225.775 121.544 228.799 125.92 231.023C132.336 234.287 139.4 236.239 146.568 236.951C152.768 237.567 159.312 237.191 164.76 234.151C170.208 231.111 174.432 224.783 172.536 218.847Z" fill="#E58EA5" stroke="black" stroke-width="3.944" stroke-linecap="round" stroke-linejoin="round"/>
</g>
<path d="M167.856 218.759C162.504 226.375 154.48 231.559 145.288 230.095C136.76 228.735 129.512 227.007 123.704 220.615C120.504 217.095 116.384 208.631 114.296 204.359C112.208 200.087 111.704 193.911 112.92 189.311C114.904 191.543 121.816 192.911 124.792 193.167C136.664 194.199 141.92 194.639 155.36 194.255C158.264 194.175 162.464 193.503 165.352 193.167C167.368 192.935 174.768 190.647 174.768 190.647C174.768 190.647 174.152 200.055 173.768 202.943C173.016 208.575 171.136 214.095 167.856 218.759Z" stroke="black" stroke-width="3.944" stroke-linecap="round" stroke-linejoin="round"/>
<path d="M187.359 168.913C187.433 166.749 186.047 164.945 184.263 164.884C182.479 164.823 180.973 166.528 180.899 168.692C180.825 170.855 182.211 172.659 183.995 172.72C185.779 172.781 187.285 171.076 187.359 168.913Z" fill="white"/>
<path d="M183.578 161.898C183.62 160.666 182.827 159.639 181.807 159.604C180.787 159.569 179.926 160.539 179.884 161.771C179.842 163.003 180.635 164.03 181.655 164.065C182.675 164.1 183.536 163.13 183.578 161.898Z" fill="white"/>
<path d="M131.455 168.705C131.529 166.541 130.143 164.737 128.359 164.676C126.575 164.615 125.069 166.32 124.995 168.484C124.921 170.647 126.307 172.451 128.091 172.512C129.875 172.573 131.381 170.868 131.455 168.705Z" fill="white"/>
<path d="M127.674 161.682C127.716 160.45 126.923 159.423 125.903 159.388C124.883 159.353 124.022 160.323 123.98 161.555C123.938 162.787 124.73 163.814 125.75 163.849C126.771 163.884 127.632 162.914 127.674 161.682Z" fill="white"/>
<path d="M128.889 240.703C136.249 246.775 147.105 248.263 155.825 244.383L128.889 240.703Z" fill="#D6C7B7"/>
<path d="M128.889 240.703C136.249 246.775 147.105 248.263 155.825 244.383" stroke="black" stroke-width="3.944" stroke-linecap="round" stroke-linejoin="round"/>
<path d="M116.257 184.639C114.425 187.655 111.481 189.983 108.113 191.055L116.257 184.639Z" fill="white"/>
<path d="M116.257 184.639C114.425 187.655 111.481 189.983 108.113 191.055" stroke="black" stroke-width="3.944" stroke-linecap="round" stroke-linejoin="round"/>
<path d="M173.44 186.455C174.872 189.007 177.072 191.119 179.68 192.447L173.44 186.455Z" fill="white"/>
<path d="M173.44 186.455C174.872 189.007 177.072 191.119 179.68 192.447" stroke="black" stroke-width="3.944" stroke-linecap="round" stroke-linejoin="round"/>
<path d="M191.84 116.743C186.32 107.639 173.512 103.839 163.92 108.447L191.84 116.743Z" fill="#D6C7B7"/>
<path d="M191.84 116.743C186.32 107.639 173.512 103.839 163.92 108.447" stroke="black" stroke-width="3.944" stroke-linecap="round" stroke-linejoin="round"/>
<path d="M116.512 96.6229C111.296 94.0949 105.08 93.6949 99.5845 95.5269C94.0885 97.3589 89.3525 101.407 86.6885 106.551" fill="#D6C7B7"/>
<path d="M116.512 96.6229C111.296 94.0949 105.08 93.6949 99.5845 95.5269C94.0885 97.3589 89.3525 101.407 86.6885 106.551" stroke="black" stroke-width="3.944" stroke-linecap="round" stroke-linejoin="round"/>
<path d="M59.9285 187.751C45.8085 206.999 43.7445 240.951 41.0645 264.671C50.0725 270.031 49.6725 269.863 53.5205 280.639C56.0325 287.663 52.6325 295.535 60.2085 304.943C63.1605 308.615 62.7126 313.863 58.0006 313.935C53.2886 314.007 44.6245 307.991 40.8565 305.159C43.4725 313.263 39.8165 310.927 42.4245 319.031C42.9605 320.687 43.4886 322.519 42.8006 324.111C42.1126 325.727 40.3045 326.647 38.5445 326.775C36.7845 326.903 35.0566 326.367 33.3846 325.815C28.2086 324.095 29.4085 332.519 24.3445 330.503C19.3765 328.527 14.2806 326.463 10.3766 322.799C3.61655 316.455 1.6805 306.303 2.8165 297.103C4.4485 283.959 11.8245 271.623 22.6405 263.967C22.7925 233.687 31.3445 203.471 47.0325 177.575" fill="#D6C7B7"/>
<path d="M59.9285 187.751C45.8085 206.999 43.7445 240.951 41.0645 264.671C50.0725 270.031 49.6725 269.863 53.5205 280.639C56.0325 287.663 52.6325 295.535 60.2085 304.943C63.1605 308.615 62.7126 313.863 58.0006 313.935C53.2886 314.007 44.6245 307.991 40.8565 305.159C43.4725 313.263 39.8165 310.927 42.4245 319.031C42.9605 320.687 43.4886 322.519 42.8006 324.111C42.1126 325.727 40.3045 326.647 38.5445 326.775C36.7845 326.903 35.0566 326.367 33.3846 325.815C28.2086 324.095 29.4085 332.519 24.3445 330.503C19.3765 328.527 14.2806 326.463 10.3766 322.799C3.61655 316.455 1.6805 306.303 2.8165 297.103C4.4485 283.959 11.8245 271.623 22.6405 263.967C22.7925 233.687 31.3445 203.471 47.0325 177.575" stroke="black" stroke-width="3.944" stroke-linecap="round" stroke-linejoin="round"/>
<path d="M3.61646 310.575C4.19246 316.607 6.11252 322.503 9.18452 327.727C10.2405 329.519 11.5125 331.311 13.3765 332.247C15.2405 333.183 17.8245 332.983 19.0405 331.287C19.8325 330.183 19.8965 328.687 19.5685 327.367C19.2485 326.047 18.5845 324.839 18.0245 323.599C16.6725 320.615 15.5765 309.975 15.3685 306.703" fill="#D6C7B7"/>
<path d="M3.61646 310.575C4.19246 316.607 6.11252 322.503 9.18452 327.727C10.2405 329.519 11.5125 331.311 13.3765 332.247C15.2405 333.183 17.8245 332.983 19.0405 331.287C19.8325 330.183 19.8965 328.687 19.5685 327.367C19.2485 326.047 18.5845 324.839 18.0245 323.599C16.6725 320.615 15.5765 309.975 15.3685 306.703" stroke="black" stroke-width="3.944" stroke-linecap="round" stroke-linejoin="round"/>
<path d="M9.72046 312.807C10.2965 318.839 14.7205 326.295 17.8005 331.519C18.8565 333.311 20.1285 335.103 21.9925 336.039C23.8565 336.975 26.4405 336.775 27.6565 335.079C28.4485 333.975 28.5125 332.479 28.1845 331.159C27.8645 329.839 27.2005 328.631 26.6405 327.391C25.2885 324.407 24.4805 321.167 24.2725 317.895" fill="#D6C7B7"/>
<path d="M9.72046 312.807C10.2965 318.839 14.7205 326.295 17.8005 331.519C18.8565 333.311 20.1285 335.103 21.9925 336.039C23.8565 336.975 26.4405 336.775 27.6565 335.079C28.4485 333.975 28.5125 332.479 28.1845 331.159C27.8645 329.839 27.2005 328.631 26.6405 327.391C25.2885 324.407 24.4805 321.167 24.2725 317.895" stroke="black" stroke-width="3.944" stroke-linecap="round" stroke-linejoin="round"/>
<path d="M16.1846 314.607C17.2406 321.319 20.9845 328.759 25.3365 334.191C26.8325 336.063 28.5685 337.887 30.8405 338.647C33.1125 339.407 36.0165 338.751 37.1205 336.631C37.8405 335.247 37.6646 333.535 37.0806 332.087C36.4966 330.639 35.5525 329.367 34.7125 328.055C32.6805 324.879 31.2406 321.335 30.4646 317.647" fill="#D6C7B7"/>
<path d="M16.1846 314.607C17.2406 321.319 20.9845 328.759 25.3365 334.191C26.8325 336.063 28.5685 337.887 30.8405 338.647C33.1125 339.407 36.0165 338.751 37.1205 336.631C37.8405 335.247 37.6646 333.535 37.0806 332.087C36.4966 330.639 35.5525 329.367 34.7125 328.055C32.6805 324.879 31.2405 321.335 30.4645 317.647" stroke="black" stroke-width="3.944" stroke-linecap="round" stroke-linejoin="round"/>
<path d="M24.5925 306.639C23.8245 316.375 28.8885 331.263 36.2325 337.711C37.9605 339.223 39.9125 340.575 42.1445 341.095C44.3765 341.615 46.9445 341.159 48.5205 339.487C50.3365 337.567 50.4324 334.535 49.6084 332.023C48.7844 329.511 47.2005 327.335 45.9205 325.023C41.6805 317.367 40.8485 307.903 43.6805 299.623" fill="#D6C7B7"/>
<path d="M24.5925 306.639C23.8245 316.375 28.8885 331.263 36.2325 337.711C37.9605 339.223 39.9125 340.575 42.1445 341.095C44.3765 341.615 46.9445 341.159 48.5205 339.487C50.3365 337.567 50.4324 334.535 49.6084 332.023C48.7844 329.511 47.2005 327.335 45.9205 325.023C41.6805 317.367 40.8485 307.903 43.6805 299.623" stroke="black" stroke-width="3.944" stroke-linecap="round" stroke-linejoin="round"/>
<path d="M29.6084 282.463L26.6965 288.783L29.6084 282.463Z" fill="white"/>
<path d="M29.6084 282.463L26.6965 288.783" stroke="black" stroke-width="3.944" stroke-linecap="round" stroke-linejoin="round"/>
<path d="M21.6566 280.527C20.2246 283.455 18.8007 286.375 17.3687 289.303L21.6566 280.527Z" fill="white"/>
<path d="M21.6566 280.527C20.2246 283.455 18.8007 286.375 17.3687 289.303" stroke="black" stroke-width="3.944" stroke-linecap="round" stroke-linejoin="round"/>
<path d="M148.425 296.399C148.889 292.831 149.345 287.143 149.809 283.567C152.641 283.423 155.473 283.207 158.297 282.911C159.865 282.751 162.481 283.359 163.665 284.903C158.825 285.375 159.033 285.495 156.225 287.415C154.777 288.399 153.377 289.495 152.033 290.679C151.353 291.279 148.553 295.391 148.425 296.399Z" fill="#221F20" stroke="black" stroke-width="3.944" stroke-linecap="round" stroke-linejoin="round"/>
<path d="M146.336 214.599C145.184 211.743 143.304 209.191 140.928 207.231L146.336 214.599Z" fill="#221F20"/>
<path d="M146.336 214.599C145.184 211.743 143.304 209.191 140.928 207.231" stroke="black" stroke-width="3.944" stroke-linecap="round" stroke-linejoin="round"/>
<path d="M50.9924 231.911C51.1044 227.135 48.3684 216.823 49.3924 212.151C49.6404 211.007 50.1684 209.943 50.6884 208.895C52.0564 206.119 52.9764 199.655 55.4164 195.135C53.1364 206.079 51.4244 222.351 50.9924 231.911Z" fill="white" stroke="black" stroke-width="3.944" stroke-linecap="round" stroke-linejoin="round"/>
<path d="M247.889 205.879L246.993 214.559C247.137 216.007 253.761 218.463 255.073 219.087L343.321 260.655L398.361 222.783C399.489 222.007 400.161 220.727 400.161 219.359V209.607" fill="#B6B8BA"/>
<path d="M247.889 205.879L246.993 214.559C247.137 216.007 253.761 218.463 255.073 219.087L343.321 260.655L398.361 222.783C399.489 222.007 400.161 220.727 400.161 219.359V209.607" stroke="black" stroke-width="3.944" stroke-linecap="round" stroke-linejoin="round"/>
<path d="M303.889 176.791L394.449 213.463C397.185 214.567 400.169 212.559 400.169 209.607V141.815C400.169 140.119 399.145 138.599 397.569 137.959L301.289 98.9669V172.935C301.289 174.631 302.313 176.151 303.889 176.791Z" fill="#B6B8BA" stroke="black" stroke-width="3.944" stroke-linecap="round" stroke-linejoin="round"/>
<path d="M341.001 252.871L250.281 210.351C247.377 208.991 247.041 204.991 249.681 203.167L299.409 168.815C300.625 167.975 302.201 167.847 303.537 168.471L398.409 212.935C399.473 213.439 399.601 214.903 398.625 215.575L345.129 252.527C343.913 253.367 342.337 253.495 341.001 252.871Z" fill="#B6B8BA" stroke="black" stroke-width="3.944" stroke-linecap="round" stroke-linejoin="round"/>
<path d="M343.168 253.887L343.304 260.327" stroke="black" stroke-width="3.944" stroke-linecap="round" stroke-linejoin="round"/>
<path d="M307.504 164.007V109.271L392.472 143.743V202.815L307.504 164.007Z" fill="#B6DFF7"/>
<path d="M309.48 112.199L390.504 145.071V199.743L309.48 162.735V112.199ZM305.536 106.343V165.271L394.448 205.879V142.415L305.536 106.343Z" fill="black"/>
<path d="M313.553 233.215L292.745 223.463C292.081 223.151 292.001 222.231 292.609 221.815L304.017 213.935C304.297 213.743 304.657 213.711 304.961 213.855L326.713 224.055C326.961 224.167 326.985 224.503 326.761 224.663L314.489 233.135C314.209 233.327 313.849 233.359 313.545 233.215H313.553Z" fill="#828486" stroke="black" stroke-width="3.944" stroke-linecap="round" stroke-linejoin="round"/>
<path d="M355.497 232.791L278.833 197.455C276.321 196.295 274.785 193.743 276.073 192.863L300.601 176.175C301.209 175.759 302.297 175.847 303.457 176.391L383.897 214.199C384.785 214.615 385.281 215.527 384.793 215.847L358.249 232.991C357.649 233.375 356.601 233.303 355.497 232.791Z" fill="#828486" stroke="black" stroke-width="3.944" stroke-linecap="round" stroke-linejoin="round"/>
<path d="M369.537 163.759C366.801 152.455 357.217 140.599 347.425 136.607C338.257 132.871 330.793 137.295 327.745 144.983" stroke="black" stroke-width="3.944" stroke-linecap="round" stroke-linejoin="round"/>
<path d="M362.385 164.543C360.585 156.839 354.129 148.623 347.401 145.727C341.009 142.983 335.769 145.983 333.633 151.351" stroke="black" stroke-width="3.944" stroke-linecap="round" stroke-linejoin="round"/>
<path d="M356.889 165.975C355.777 161.063 351.697 155.743 347.385 153.807C343.241 151.943 339.817 153.839 338.425 157.335" stroke="black" stroke-width="3.944" stroke-linecap="round" stroke-linejoin="round"/>
<path d="M350.241 167.463C350.265 165.759 348.953 163.751 347.321 162.983C345.689 162.215 344.369 162.959 344.345 164.631C344.313 166.311 345.601 168.311 347.225 169.103C348.849 169.895 350.225 169.167 350.249 167.463H350.241Z" fill="#221F20" stroke="black" stroke-width="3.944" stroke-linecap="round" stroke-linejoin="round"/>
<path d="M375.473 141.151C384.225 142.783 392.537 154.903 390.905 163.663C392.537 154.911 404.657 146.599 413.417 148.231C404.665 146.599 396.353 134.479 397.985 125.719C396.353 134.471 384.233 142.783 375.473 141.151Z" fill="white"/>
<path d="M375.473 141.151C384.225 142.783 392.537 154.903 390.905 163.663C392.537 154.911 404.657 146.599 413.417 148.231C404.665 146.599 396.353 134.479 397.985 125.719C396.353 134.471 384.233 142.783 375.473 141.151Z" stroke="black" stroke-width="3.944" stroke-linecap="round" stroke-linejoin="round"/>
<path d="M132.032 270.711C125.552 299.319 132.32 330.647 150.032 354.023C157.96 341.623 171.008 332.607 185.416 329.583C199.816 326.551 215.392 329.551 227.648 337.703C232.672 341.047 237.416 345.703 238.328 351.671C239.264 357.791 235.992 363.703 232.632 368.895C216.704 393.551 196.008 415.103 172.024 432.015C167.92 434.911 163.448 437.759 158.432 438.015C151.944 438.343 145.84 434.039 142.624 428.391C139.416 422.743 137.608 417.959 136.184 409.431C134.776 401.015 134.944 393.439 137.368 383.239C138.648 377.847 135.848 373.703 133.464 368.703C118.896 338.191 117.944 303.191 117.272 269.383" fill="#D6C7B7"/>
<mask id="mask4_136_84019" style="mask-type:luminance" maskUnits="userSpaceOnUse" x="117" y="269" width="122" height="170">
<path d="M132.032 270.711C125.552 299.319 132.32 330.647 150.032 354.023C157.96 341.623 171.008 332.607 185.416 329.583C199.816 326.551 215.392 329.551 227.648 337.703C232.672 341.047 237.416 345.703 238.328 351.671C239.264 357.791 235.992 363.703 232.632 368.895C216.704 393.551 196.008 415.103 172.024 432.015C167.92 434.911 163.448 437.759 158.432 438.015C151.944 438.343 145.84 434.039 142.624 428.391C139.416 422.743 137.608 417.959 136.184 409.431C134.776 401.015 134.944 393.439 137.368 383.239C138.648 377.847 135.848 373.703 133.464 368.703C118.896 338.191 117.944 303.191 117.272 269.383" fill="white"/>
</mask>
<g mask="url(#mask4_136_84019)">
<path d="M207.807 406.506C234.557 379.756 251.685 353.515 246.065 347.895C240.444 342.274 214.203 359.403 187.454 386.152C160.705 412.902 143.576 439.142 149.197 444.763C154.817 450.383 181.058 433.255 207.807 406.506Z" fill="#221F20" stroke="black" stroke-width="3.944" stroke-linecap="round" stroke-linejoin="round"/>
</g>
<path d="M132.032 270.711C125.552 299.319 132.32 330.647 150.032 354.023C157.96 341.623 171.008 332.607 185.416 329.583C199.816 326.551 215.392 329.551 227.648 337.703C232.672 341.047 237.416 345.703 238.328 351.671C239.264 357.791 235.992 363.703 232.632 368.895C216.704 393.551 196.008 415.103 172.024 432.015C167.92 434.911 163.448 437.759 158.432 438.015C151.944 438.343 145.84 434.039 142.624 428.391C139.416 422.743 137.608 417.959 136.184 409.431C134.776 401.015 134.944 393.439 137.368 383.239C138.648 377.847 135.848 373.703 133.464 368.703C118.896 338.191 117.944 303.191 117.272 269.383" stroke="black" stroke-width="3.944" stroke-linecap="round" stroke-linejoin="round"/>
<path d="M112.072 268.047C113.448 268.423 115.656 268.807 117.032 269.183C117.064 271.383 117.12 273.575 117.2 275.767C117.248 276.983 117.28 278.759 117.256 280.591C117.12 276.839 116.976 276.407 115.816 274.039C114.864 272.087 115.472 273.519 115.024 272.471C114.8 271.943 112.456 268.159 112.064 268.055L112.072 268.047Z" fill="#221F20" stroke="black" stroke-width="3.944" stroke-linecap="round" stroke-linejoin="round"/>
<path d="M101.601 311.311C95.7926 310.479 90.1046 305.615 89.1926 303.375L101.601 311.311Z" fill="#D6C7B7"/>
<path d="M101.601 311.311C95.7926 310.479 90.1046 305.615 89.1926 303.375" stroke="black" stroke-width="3.944" stroke-linecap="round" stroke-linejoin="round"/>
<path d="M150.712 352.991C149.064 355.511 147.92 358.751 147.92 361.167L150.712 352.991Z" fill="#D6C7B7"/>
<path d="M150.712 352.991C149.064 355.511 147.92 358.751 147.92 361.167" stroke="black" stroke-width="3.944" stroke-linecap="round" stroke-linejoin="round"/>
</svg>
