<svg width="506" height="555" viewBox="0 0 506 555" fill="none" xmlns="http://www.w3.org/2000/svg">
<g clip-path="url(#clip0_136_87458)">
<path d="M366.291 253.898C372.987 253.925 379.493 251.732 385.674 249.142C405.329 240.903 423.052 228.207 437.418 212.487C444.682 204.537 451.098 195.811 456.476 186.471C461.53 177.7 464.508 167.268 470.888 159.354C464.48 154.328 456.621 151.268 448.292 150.574C448.436 150.583 441.857 160.392 440.919 161.709C437.661 166.302 435.478 171.987 432.689 176.896C426.995 186.913 420.597 196.632 412.539 204.925C399.923 217.91 382.345 227.277 364.306 225.788" fill="#D6C7B7"/>
<path d="M366.291 253.898C372.987 253.925 379.493 251.732 385.674 249.142C405.329 240.903 423.052 228.207 437.418 212.487C444.682 204.537 451.098 195.811 456.476 186.471C461.53 177.7 464.508 167.268 470.888 159.354C464.481 154.328 456.621 151.268 448.292 150.574C448.436 150.583 441.857 160.392 440.919 161.709C437.661 166.302 435.478 171.987 432.689 176.896C426.995 186.913 420.597 196.632 412.539 204.925C399.923 217.91 382.345 227.277 364.306 225.788" stroke="black" stroke-width="4.44881" stroke-linecap="round" stroke-linejoin="round"/>
<path d="M447.308 152.405C438.41 138.545 435.369 124.323 428.231 114.081C425.488 110.146 422.303 105.896 422.799 101.122C423.322 96.1321 428.204 92.2789 433.213 92.0623C438.221 91.8457 443.031 94.7334 446.027 98.7581C449.022 102.774 450.421 107.791 451.017 112.772C456.26 111.924 460.284 107.538 462.622 102.765C464.959 98.0001 466.015 92.712 467.946 87.7669C472.07 77.1547 475.192 69.701 485.443 64.7468C488.439 63.303 492.139 62.2291 494.945 64.0069C499.006 66.5787 498.004 72.9135 495.333 76.9111C491.074 83.3091 489.36 85.917 483.476 90.8531C477.583 95.7892 478.802 92.5586 477.258 100.77C477.43 98.1715 473.865 101.357 476.464 101.186C479.063 101.014 483.304 106.609 485.479 108.026C496.155 114.974 501.813 128.853 499.042 141.288C496.272 153.723 480.29 162.169 467.675 163.947" fill="#D6C7B7"/>
<path d="M447.308 152.405C438.41 138.545 435.369 124.323 428.231 114.081C425.488 110.146 422.303 105.896 422.799 101.122C423.322 96.1321 428.204 92.2789 433.213 92.0623C438.221 91.8457 443.031 94.7334 446.027 98.7581C449.022 102.774 450.421 107.791 451.017 112.772C456.26 111.924 460.284 107.538 462.622 102.765C464.959 98.0001 466.015 92.712 467.946 87.7669C472.07 77.1547 475.192 69.701 485.443 64.7468C488.439 63.303 492.139 62.2291 494.945 64.0069C499.006 66.5787 498.004 72.9135 495.333 76.9111C491.074 83.3091 489.36 85.917 483.476 90.8531C477.583 95.7892 478.802 92.5586 477.258 100.77C477.43 98.1715 473.865 101.357 476.464 101.186C479.063 101.014 483.304 106.609 485.479 108.026C496.155 114.974 501.813 128.853 499.042 141.288C496.272 153.723 480.29 162.169 467.675 163.947" stroke="black" stroke-width="4.44881" stroke-linecap="round" stroke-linejoin="round"/>
<path d="M471.537 110.733C474.01 106.519 474.217 103.622 473.486 98.5054C472.945 94.7244 472.413 90.9343 471.871 87.1533C471.221 82.6142 470.59 77.8676 472.052 73.5181C473.504 69.1686 477.737 65.3695 482.276 66.0282C486.111 66.5877 488.908 70.0258 490.451 73.5813C492.879 79.1761 493.186 85.5109 492.337 91.557C491.489 97.603 489.54 103.423 487.609 109.217" fill="#D6C7B7"/>
<path d="M471.537 110.733C474.01 106.519 474.217 103.622 473.486 98.5054C472.945 94.7244 472.413 90.9343 471.871 87.1533C471.221 82.6142 470.59 77.8676 472.052 73.5181C473.504 69.1686 477.737 65.3695 482.276 66.0282C486.111 66.5877 488.908 70.0258 490.451 73.5813C492.879 79.1761 493.186 85.5109 492.337 91.557C491.489 97.603 489.54 103.423 487.609 109.217" stroke="black" stroke-width="4.44881" stroke-linecap="round" stroke-linejoin="round"/>
<path d="M477.854 117.004C481.409 113.657 481.671 108.071 480.679 103.288C479.686 98.5054 477.692 93.8851 477.592 89.0122C477.547 86.5757 478.007 84.0671 479.307 82.0006C480.606 79.9341 482.844 78.382 485.281 78.2737C488.89 78.1113 491.922 80.9809 493.899 83.9949C500.892 94.6702 500.251 108.432 499.358 121.155" fill="#D6C7B7"/>
<path d="M477.854 117.004C481.409 113.657 481.671 108.071 480.679 103.288C479.686 98.5054 477.692 93.8851 477.592 89.0122C477.547 86.5757 478.007 84.0671 479.307 82.0006C480.606 79.9341 482.844 78.382 485.281 78.2737C488.89 78.1113 491.922 80.9809 493.899 83.9949C500.892 94.6702 500.251 108.432 499.358 121.155" stroke="black" stroke-width="4.44881" stroke-linecap="round" stroke-linejoin="round"/>
<path d="M484.911 137.182C482.817 133.933 483.034 129.692 484.035 125.965C485.037 122.238 486.716 118.683 487.365 114.875C488.033 110.949 487.582 106.825 488.791 103.026C490 99.2273 493.817 95.717 497.625 96.872C501.289 97.982 502.589 102.449 502.995 106.257C504.384 119.405 501.452 134.899 497.192 146.928" fill="#D6C7B7"/>
<path d="M484.911 137.182C482.817 133.933 483.034 129.692 484.035 125.965C485.037 122.238 486.716 118.683 487.365 114.875C488.033 110.949 487.582 106.825 488.791 103.026C490 99.2273 493.817 95.717 497.625 96.872C501.289 97.982 502.589 102.449 502.995 106.257C504.384 119.405 501.452 134.899 497.192 146.928" stroke="black" stroke-width="4.44881" stroke-linecap="round" stroke-linejoin="round"/>
<path d="M456.377 145.385C458.516 140.611 462.468 136.677 467.242 134.547L456.377 145.385Z" fill="#D6C7B7"/>
<path d="M456.377 145.385C458.516 140.611 462.468 136.677 467.242 134.547" stroke="black" stroke-width="4.44881" stroke-linecap="round" stroke-linejoin="round"/>
<path d="M480.823 104.335C481.581 106.076 482.7 107.656 484.09 108.955L480.823 104.335Z" fill="#D6C7B7"/>
<path d="M480.823 104.335C481.581 106.076 482.7 107.656 484.09 108.955" stroke="black" stroke-width="4.44881" stroke-linecap="round" stroke-linejoin="round"/>
<path d="M487.185 117.122C487.943 118.863 489.062 120.443 490.451 121.742L487.185 117.122Z" fill="#D6C7B7"/>
<path d="M487.185 117.122C487.943 118.863 489.062 120.443 490.451 121.742" stroke="black" stroke-width="4.44881" stroke-linecap="round" stroke-linejoin="round"/>
<path d="M473.18 95.726C473.938 97.4677 475.057 99.0469 476.446 100.346L473.18 95.726Z" fill="#D6C7B7"/>
<path d="M473.18 95.726C473.938 97.4677 475.057 99.0469 476.446 100.346" stroke="black" stroke-width="4.44881" stroke-linecap="round" stroke-linejoin="round"/>
<path d="M384.032 224.398C384.231 226.167 383.094 241.21 382.678 243.259C382.263 245.307 382.002 247.662 382.678 248.763C383.057 249.386 383.662 249.467 384.24 249.503C388.066 249.783 389.41 245.28 393.489 243.899C391.829 244.459 399.535 217.279 399.535 217.279C399.535 217.279 395.899 220.527 390.899 221.98C388.815 222.585 386.243 223.83 384.041 224.398H384.032Z" fill="#221F20"/>
<path d="M126.66 162.693L207.65 401.62C209.473 406.998 214.995 410.192 220.563 409.092L294.46 394.536L309.512 391.567L383.409 377.011C388.977 375.911 392.876 370.866 392.524 365.199L376.849 113.413" fill="#D6C7B7"/>
<path d="M126.66 162.693L207.65 401.62C209.473 406.998 214.995 410.192 220.563 409.092L294.46 394.536L309.512 391.567L383.409 377.011C388.977 375.911 392.876 370.866 392.524 365.199L376.849 113.413" stroke="black" stroke-width="4.44881" stroke-linecap="round" stroke-linejoin="round"/>
<path d="M171.067 173.278C159.056 173.278 149.157 172.348 141.658 170.526C124.169 166.266 118.755 156.556 117.293 149.157C115.822 141.685 117.194 130.549 132.074 119.892C138.481 115.308 147.505 110.643 158.903 106.031C180.569 97.2691 209.789 89.0302 241.192 82.8488C273.137 76.5592 303.683 73.094 327.208 73.094C339.219 73.094 349.118 74.0234 356.617 75.8463C374.115 80.1056 379.52 89.8153 380.982 97.215C382.453 104.687 381.081 115.822 366.201 126.48C359.794 131.064 350.77 135.729 339.373 140.34C317.706 149.103 288.487 157.342 257.083 163.523C225.138 169.813 194.592 173.278 171.067 173.278Z" fill="#D6C7B7"/>
<path d="M171.067 173.278C159.056 173.278 149.157 172.348 141.658 170.526C124.169 166.266 118.755 156.556 117.293 149.157C115.822 141.685 117.194 130.549 132.074 119.892C138.481 115.308 147.505 110.643 158.903 106.031C180.569 97.2691 209.789 89.0302 241.192 82.8488C273.137 76.5592 303.683 73.094 327.208 73.094C339.219 73.094 349.118 74.0234 356.617 75.8463C374.115 80.1056 379.52 89.8153 380.982 97.215C382.453 104.687 381.081 115.822 366.201 126.48C359.794 131.064 350.77 135.729 339.373 140.34C317.706 149.103 288.487 157.342 257.083 163.523C225.138 169.813 194.592 173.278 171.067 173.278Z" stroke="black" stroke-width="4.44881" stroke-linecap="round" stroke-linejoin="round"/>
<path d="M252.938 142.513C315.504 130.193 364.303 110.45 361.933 98.4157C359.563 86.3817 306.922 86.6139 244.356 98.9342C181.79 111.255 132.992 130.998 135.361 143.032C137.731 155.066 190.372 154.834 252.938 142.513Z" fill="#6E6860"/>
<mask id="mask0_136_87458" style="mask-type:luminance" maskUnits="userSpaceOnUse" x="135" y="89" width="228" height="63">
<path d="M252.938 142.513C315.504 130.193 364.303 110.45 361.933 98.4157C359.563 86.3817 306.922 86.6139 244.356 98.9342C181.79 111.255 132.992 130.998 135.361 143.032C137.731 155.066 190.372 154.834 252.938 142.513Z" fill="white"/>
</mask>
<g mask="url(#mask0_136_87458)">
<path d="M252.561 147.036C315.127 134.716 364.082 115.765 361.905 104.709C359.728 93.6533 307.243 94.6782 244.677 106.999C182.111 119.319 133.156 138.269 135.333 149.325C137.511 160.381 189.995 159.356 252.561 147.036Z" fill="#38332F"/>
<path d="M252.561 147.036C315.127 134.716 364.082 115.765 361.905 104.709C359.728 93.6533 307.243 94.6782 244.677 106.999C182.111 119.319 133.156 138.269 135.333 149.325C137.511 160.381 189.995 159.356 252.561 147.036Z" stroke="black" stroke-width="4.44881" stroke-linecap="round" stroke-linejoin="round"/>
<path d="M309.621 115.443L284.317 108.928L293.053 124.864L309.63 115.434L309.621 115.443Z" fill="white" stroke="black" stroke-width="4.44881" stroke-linecap="round" stroke-linejoin="round"/>
<path d="M288.884 201.442L336.178 175.525C338.885 174.045 339.788 170.471 338.181 167.557L309.621 115.434L292.953 124.386L284.317 108.919L248.844 128.357C246.137 129.837 245.235 133.41 246.841 136.325L281.096 198.843C282.693 201.757 286.185 202.921 288.893 201.442H288.884Z" fill="white" stroke="black" stroke-width="4.44881" stroke-linecap="round" stroke-linejoin="round"/>
<path d="M308.465 143.363L276.412 160.933" stroke="black" stroke-width="4.44881" stroke-linecap="round" stroke-linejoin="round"/>
<path d="M302.275 132.065L270.222 149.626" stroke="black" stroke-width="4.44881" stroke-linecap="round" stroke-linejoin="round"/>
<path d="M315.387 112.285L290.084 105.77L298.819 121.706L315.396 112.276L315.387 112.285Z" fill="white" stroke="black" stroke-width="4.44881" stroke-linecap="round" stroke-linejoin="round"/>
<path d="M294.65 198.283L341.944 172.366C344.652 170.886 345.554 167.313 343.948 164.398L315.387 112.276L298.72 121.228L290.084 105.761L254.611 125.198C251.903 126.678 251.001 130.252 252.607 133.166L286.862 195.684C288.459 198.599 291.952 199.763 294.659 198.283H294.65Z" fill="white" stroke="black" stroke-width="4.44881" stroke-linecap="round" stroke-linejoin="round"/>
<path d="M320.422 151.503L288.369 169.073" stroke="black" stroke-width="4.44881" stroke-linecap="round" stroke-linejoin="round"/>
<path d="M314.232 140.205L282.179 157.766" stroke="black" stroke-width="4.44881" stroke-linecap="round" stroke-linejoin="round"/>
<path d="M308.041 128.907L275.988 146.468" stroke="black" stroke-width="4.44881" stroke-linecap="round" stroke-linejoin="round"/>
<path d="M320.63 109.415L295.327 102.9L304.062 118.836L320.639 109.406L320.63 109.415Z" fill="white" stroke="black" stroke-width="4.44881" stroke-linecap="round" stroke-linejoin="round"/>
<path d="M299.893 195.414L347.187 169.497C349.894 168.017 350.797 164.443 349.191 161.529L320.63 109.406L303.963 118.358L295.327 102.891L259.853 122.329C257.146 123.809 256.244 127.382 257.85 130.297L292.105 192.815C293.702 195.729 297.195 196.893 299.902 195.414H299.893Z" fill="white" stroke="black" stroke-width="4.44881" stroke-linecap="round" stroke-linejoin="round"/>
<path d="M325.665 148.633L293.612 166.194" stroke="black" stroke-width="4.44881" stroke-linecap="round" stroke-linejoin="round"/>
<path d="M319.475 137.335L287.422 154.896" stroke="black" stroke-width="4.44881" stroke-linecap="round" stroke-linejoin="round"/>
<path d="M313.284 126.037L281.231 143.598" stroke="black" stroke-width="4.44881" stroke-linecap="round" stroke-linejoin="round"/>
<path d="M296.527 145.439L281.285 124.215L277.766 142.046L296.527 145.439Z" fill="white" stroke="black" stroke-width="4.44881" stroke-linecap="round" stroke-linejoin="round"/>
<path d="M225.454 198.13L278.362 208.579C281.394 209.175 284.363 207.018 285.012 203.752L296.527 145.439L277.992 141.622L281.285 124.215L241.598 116.382C238.566 115.786 235.597 117.943 234.947 121.21L221.141 191.145C220.5 194.412 222.431 197.534 225.454 198.139V198.13Z" fill="white" stroke="black" stroke-width="4.44881" stroke-linecap="round" stroke-linejoin="round"/>
<path d="M280.23 153.488L244.368 146.404" stroke="black" stroke-width="4.44881" stroke-linecap="round" stroke-linejoin="round"/>
<path d="M302.97 146.72L287.728 125.496L284.209 143.327L302.97 146.72Z" fill="white" stroke="black" stroke-width="4.44881" stroke-linecap="round" stroke-linejoin="round"/>
<path d="M231.906 199.402L284.814 209.852C287.846 210.447 290.815 208.291 291.464 205.024L302.979 146.711L284.444 142.894L287.737 125.487L248.05 117.654C245.018 117.059 242.049 119.215 241.4 122.482L227.593 192.418C226.952 195.684 228.883 198.807 231.906 199.411V199.402Z" fill="white" stroke="black" stroke-width="4.44881" stroke-linecap="round" stroke-linejoin="round"/>
<path d="M286.682 154.761L250.821 147.677" stroke="black" stroke-width="4.44881" stroke-linecap="round" stroke-linejoin="round"/>
<path d="M308.835 147.875L293.594 126.651L290.075 144.482L308.835 147.875Z" fill="white" stroke="black" stroke-width="4.44881" stroke-linecap="round" stroke-linejoin="round"/>
<path d="M237.772 200.566L290.679 211.016C293.711 211.612 296.68 209.455 297.33 206.188L308.844 147.875L290.309 144.058L293.603 126.651L253.916 118.818C250.884 118.223 247.915 120.379 247.265 123.646L233.458 193.582C232.818 196.848 234.749 199.971 237.772 200.575V200.566Z" fill="white" stroke="black" stroke-width="4.44881" stroke-linecap="round" stroke-linejoin="round"/>
<path d="M292.547 155.916L256.686 148.841" stroke="black" stroke-width="4.44881" stroke-linecap="round" stroke-linejoin="round"/>
<path d="M218.966 135.756L193.645 129.313L202.416 145.231L218.966 135.765V135.756Z" fill="white" stroke="black" stroke-width="4.44881" stroke-linecap="round" stroke-linejoin="round"/>
<path d="M198.455 221.809L245.677 195.774C248.384 194.286 249.268 190.712 247.662 187.806L218.966 135.756L202.326 144.753L193.645 129.313L158.226 148.841C155.519 150.33 154.634 153.903 156.241 156.809L190.658 219.237C192.264 222.151 195.756 223.307 198.464 221.809H198.455Z" fill="white" stroke="black" stroke-width="4.44881" stroke-linecap="round" stroke-linejoin="round"/>
<path d="M211.675 152.396L179.658 170.047" stroke="black" stroke-width="4.44881" stroke-linecap="round" stroke-linejoin="round"/>
<path d="M224.732 132.58L199.411 126.137L208.182 142.055L224.732 132.589V132.58Z" fill="white" stroke="black" stroke-width="4.44881" stroke-linecap="round" stroke-linejoin="round"/>
<path d="M204.212 218.632L251.434 192.598C254.141 191.109 255.026 187.536 253.419 184.63L224.723 132.58L208.083 141.577L199.402 126.137L163.983 145.665C161.276 147.153 160.392 150.727 161.998 153.633L196.415 216.06C198.021 218.975 201.514 220.13 204.221 218.632H204.212Z" fill="white" stroke="black" stroke-width="4.44881" stroke-linecap="round" stroke-linejoin="round"/>
<path d="M217.432 149.22L185.415 166.871" stroke="black" stroke-width="4.44881" stroke-linecap="round" stroke-linejoin="round"/>
<path d="M229.966 129.692L204.645 123.249L213.416 139.167L229.966 129.701V129.692Z" fill="white" stroke="black" stroke-width="4.44881" stroke-linecap="round" stroke-linejoin="round"/>
<path d="M209.455 215.744L256.677 189.71C259.384 188.221 260.269 184.648 258.662 181.742L229.966 129.692L213.326 138.689L204.645 123.249L169.226 142.777C166.519 144.266 165.635 147.839 167.241 150.745L201.658 213.173C203.264 216.087 206.757 217.242 209.464 215.744H209.455Z" fill="white" stroke="black" stroke-width="4.44881" stroke-linecap="round" stroke-linejoin="round"/>
<path d="M222.666 146.332L190.658 163.983" stroke="black" stroke-width="4.44881" stroke-linecap="round" stroke-linejoin="round"/>
</g>
<path d="M252.938 142.513C315.504 130.193 364.303 110.45 361.933 98.4157C359.563 86.3817 306.922 86.6139 244.356 98.9342C181.79 111.255 132.992 130.998 135.361 143.032C137.731 155.066 190.372 154.834 252.938 142.513Z" stroke="black" stroke-width="4.44881" stroke-linecap="round" stroke-linejoin="round"/>
<path d="M334.238 554.72C412.528 554.72 475.995 541.497 475.995 525.185C475.995 508.873 412.528 495.649 334.238 495.649C255.948 495.649 192.481 508.873 192.481 525.185C192.481 541.497 255.948 554.72 334.238 554.72Z" fill="#221F20"/>
<path d="M296.364 266.071C295.011 257.201 286.889 229.993 291.455 222.269C296.022 214.553 306.589 209.861 314.385 214.31C319.222 217.071 321.866 222.485 323.698 227.746C328.968 242.916 329.789 259.213 330.565 275.248" fill="white"/>
<mask id="mask1_136_87458" style="mask-type:luminance" maskUnits="userSpaceOnUse" x="290" y="212" width="41" height="64">
<path d="M296.364 266.071C295.011 257.201 286.889 229.993 291.455 222.269C296.022 214.553 306.589 209.861 314.385 214.31C319.222 217.071 321.866 222.485 323.698 227.746C328.968 242.916 329.789 259.213 330.565 275.248" fill="white"/>
</mask>
<g mask="url(#mask1_136_87458)">
<path d="M333.214 304.505C338.496 303.644 339.097 280.364 334.556 252.509C330.014 224.653 322.05 202.77 316.767 203.632C311.484 204.493 310.884 227.773 315.425 255.628C319.967 283.483 327.931 305.366 333.214 304.505Z" fill="black" stroke="black" stroke-width="4.44881" stroke-linecap="round" stroke-linejoin="round"/>
</g>
<path d="M296.364 266.071C295.011 257.2 286.889 229.993 291.455 222.269C296.022 214.553 306.589 209.861 314.385 214.31C319.222 217.071 321.866 222.485 323.698 227.746C328.968 242.916 329.789 259.213 330.565 275.248" stroke="black" stroke-width="4.44881" stroke-linecap="round" stroke-linejoin="round"/>
<path d="M221.348 204.131C221.249 197.291 226.772 190.82 233.54 189.837C240.308 188.853 247.437 193.509 249.268 200.097" stroke="black" stroke-width="4.44881" stroke-linecap="round" stroke-linejoin="round"/>
<path d="M285.852 203.237C285.752 196.397 291.275 189.927 298.043 188.943C304.811 187.969 311.94 192.616 313.772 199.204" stroke="black" stroke-width="4.44881" stroke-linecap="round" stroke-linejoin="round"/>
<path d="M332.244 225.68C334.752 233.431 336.503 241.427 337.459 249.521" stroke="black" stroke-width="4.44881" stroke-linecap="round" stroke-linejoin="round"/>
<path d="M214.635 245.316C212.622 252.526 212.532 260.269 214.4 267.524" stroke="black" stroke-width="4.44881" stroke-linecap="round" stroke-linejoin="round"/>
<path d="M270.078 267.488C272.496 264.402 274.942 261.288 277.965 258.78C280.988 256.28 284.678 254.412 288.595 254.241C292.511 254.069 296.635 255.829 298.647 259.195C300.687 262.624 300.371 267.154 298.512 270.682L292.322 277.089C300.127 268.092 314.051 265.71 325.331 271.828C336.611 277.938 343.28 290.743 344.146 303.547C345.013 316.343 340.735 329.058 334.373 340.194" fill="#D6C7B7"/>
<path d="M270.078 267.488C272.496 264.402 274.942 261.288 277.965 258.78C280.988 256.28 284.678 254.412 288.595 254.241C292.511 254.069 296.635 255.829 298.647 259.195C300.687 262.624 300.371 267.154 298.512 270.682L292.322 277.089C300.127 268.092 314.051 265.71 325.331 271.828C336.611 277.938 343.28 290.743 344.146 303.547C345.013 316.343 340.735 329.058 334.373 340.194" stroke="black" stroke-width="4.44881" stroke-linecap="round" stroke-linejoin="round"/>
<path d="M264.979 283.433C264.203 267.398 263.382 251.091 258.112 235.931C256.28 230.67 253.636 225.256 248.799 222.494C241.012 218.046 230.444 222.729 225.869 230.454C221.303 238.169 221.393 247.77 222.756 256.641C223.731 263.012 223.776 262.949 224.94 270.087C225.572 273.949 226.528 277.901 228.017 281.52" fill="white"/>
<mask id="mask2_136_87458" style="mask-type:luminance" maskUnits="userSpaceOnUse" x="221" y="220" width="44" height="64">
<path d="M264.979 283.433C264.203 267.398 263.382 251.091 258.112 235.931C256.28 230.67 253.636 225.256 248.799 222.494C241.012 218.046 230.444 222.729 225.869 230.454C221.303 238.169 221.393 247.77 222.756 256.641C223.731 263.012 223.776 262.949 224.94 270.087C225.572 273.949 226.528 277.901 228.017 281.52" fill="white"/>
</mask>
<g mask="url(#mask2_136_87458)">
<path d="M268.968 260.684C264.429 232.827 256.461 210.944 251.182 211.81C245.903 212.667 244.684 232.186 249.837 263.806C254.376 291.663 262.344 313.546 267.623 312.68C272.902 311.822 273.507 288.541 268.968 260.684Z" fill="black" stroke="black" stroke-width="4.44881" stroke-linecap="round" stroke-linejoin="round"/>
</g>
<path d="M264.979 283.433C264.203 267.398 263.382 251.091 258.112 235.931C256.28 230.67 253.636 225.256 248.799 222.494C241.012 218.046 230.444 222.729 225.869 230.454C221.303 238.169 221.393 247.77 222.756 256.641C223.731 263.012 223.776 262.949 224.94 270.087C225.572 273.949 226.528 277.901 228.017 281.52" stroke="black" stroke-width="4.44881" stroke-linecap="round" stroke-linejoin="round"/>
<path d="M297.378 325.623C304.372 324.483 308.288 312.796 306.123 299.52C303.959 286.244 296.534 276.406 289.539 277.547C282.545 278.687 278.629 290.374 280.794 303.65C282.958 316.926 290.383 326.764 297.378 325.623Z" stroke="black" stroke-width="4.44881" stroke-linecap="round" stroke-linejoin="round"/>
<path d="M295.076 311.507C296.709 311.24 297.309 306.583 296.415 301.103C295.522 295.623 293.474 291.397 291.841 291.663C290.208 291.93 289.608 296.588 290.502 302.067C291.395 307.547 293.443 311.773 295.076 311.507Z" fill="#7B746C" stroke="black" stroke-width="4.44881" stroke-linecap="round" stroke-linejoin="round"/>
<path d="M220.464 289.38C228.342 278.389 244.251 274.743 256.876 279.58C269.5 284.417 278.551 296.545 281.547 309.729C284.543 322.913 281.998 336.936 276.412 349.254" fill="#D6C7B7"/>
<path d="M220.464 289.38C228.342 278.389 244.251 274.743 256.876 279.58C269.5 284.417 278.551 296.545 281.547 309.729C284.543 322.913 281.998 336.936 276.412 349.254" stroke="black" stroke-width="4.44881" stroke-linecap="round" stroke-linejoin="round"/>
<path d="M339.661 390.25C342.044 401.529 340.167 407.684 335.537 416.04C330.908 424.405 324.6 430.144 318.681 437.652C298.738 462.946 262.191 469.561 236.148 488.358C231.356 491.814 225.581 499.439 224.317 504.439C222.873 510.169 220.825 516.585 224.723 521.025C228.134 524.905 233.738 525.78 238.873 526.331C278.84 530.608 319.321 529.967 359.135 524.427C365.334 523.56 372.653 521.683 374.647 515.746C376.84 509.23 371.001 502.986 365.614 498.717C352.764 488.547 338.822 479.153 322.976 474.975C307.13 470.797 297.456 482.113 276.295 482.916C299.369 481.373 321.956 469.723 336.918 452.091C351.88 434.467 360.759 408.415 355.922 386.875" fill="#D6C7B7"/>
<path d="M339.661 390.25C342.044 401.529 340.167 407.684 335.537 416.04C330.908 424.405 324.6 430.144 318.681 437.652C298.738 462.946 262.191 469.561 236.148 488.358C231.356 491.814 225.581 499.439 224.317 504.439C222.873 510.169 220.825 516.585 224.723 521.025C228.134 524.905 233.738 525.78 238.873 526.331C278.84 530.608 319.321 529.967 359.135 524.427C365.334 523.56 372.653 521.683 374.647 515.746C376.84 509.23 371.001 502.986 365.614 498.717C352.764 488.547 338.822 479.153 322.976 474.975C307.13 470.797 297.456 482.113 276.295 482.916C299.369 481.373 321.956 469.723 336.918 452.091C351.88 434.467 360.759 408.415 355.922 386.875" stroke="black" stroke-width="4.44881" stroke-linecap="round" stroke-linejoin="round"/>
<path d="M264.979 385.449C304.73 410.797 342.811 431.309 391.522 455.908C397.234 430.262 419.974 407.855 444.989 399.824C456.323 396.187 470.093 395.79 478.711 404.002C487.176 412.06 487.618 425.344 486.003 436.921C483.512 454.753 477.493 472.079 468.379 487.609C461.196 499.854 451.838 511.206 439.538 518.29C427.239 525.374 411.663 527.684 398.66 521.99C385.656 516.296 376.407 501.677 379.15 487.753C335.826 455.827 286.781 421.752 243.457 389.825" fill="#D6C7B7"/>
<mask id="mask3_136_87458" style="mask-type:luminance" maskUnits="userSpaceOnUse" x="243" y="385" width="244" height="141">
<path d="M264.979 385.449C304.73 410.797 342.811 431.309 391.522 455.908C397.234 430.262 419.974 407.855 444.989 399.824C456.323 396.187 470.093 395.79 478.711 404.002C487.176 412.06 487.618 425.344 486.003 436.921C483.512 454.753 477.493 472.079 468.379 487.609C461.196 499.854 451.838 511.206 439.538 518.29C427.239 525.374 411.663 527.684 398.66 521.99C385.656 516.296 376.407 501.677 379.15 487.753C335.826 455.827 286.781 421.752 243.457 389.825" fill="white"/>
</mask>
<g mask="url(#mask3_136_87458)">
<path d="M474.971 489.025C495.596 453.301 502.827 418.862 491.122 412.104C479.417 405.346 453.208 428.828 432.582 464.552C411.957 500.276 404.726 534.715 416.431 541.473C428.136 548.231 454.345 524.749 474.971 489.025Z" fill="#221F20" stroke="black" stroke-width="4.44881" stroke-linecap="round" stroke-linejoin="round"/>
</g>
<path d="M264.979 385.449C304.73 410.797 342.811 431.309 391.522 455.908C397.234 430.262 419.974 407.855 444.989 399.824C456.323 396.187 470.093 395.79 478.711 404.002C487.176 412.06 487.618 425.344 486.003 436.921C483.512 454.753 477.493 472.079 468.379 487.609C461.196 499.854 451.838 511.206 439.538 518.29C427.239 525.374 411.663 527.684 398.66 521.99C385.656 516.296 376.407 501.677 379.15 487.753C335.826 455.827 286.781 421.752 243.457 389.825" stroke="black" stroke-width="4.44881" stroke-linecap="round" stroke-linejoin="round"/>
<path d="M440.648 31.6289C406.772 2.30108 356.094 -6.02802 314.602 10.9009" stroke="black" stroke-width="4.44881" stroke-linecap="round" stroke-linejoin="round"/>
<path d="M371.57 36.7455C341.159 26.2958 305.145 35.9063 287.972 57.9789" stroke="black" stroke-width="4.44881" stroke-linecap="round" stroke-linejoin="round"/>
<path d="M178.909 304.242C146.856 327.705 104.118 335.907 65.6582 325.963C65.6041 332.162 66.2718 338.29 69.358 343.668C110.11 356.527 157.089 346.962 189.692 319.33" fill="#D6C7B7"/>
<path d="M178.909 304.242C146.856 327.705 104.118 335.907 65.6582 325.963C65.6041 332.162 66.2718 338.29 69.358 343.668C110.11 356.527 157.089 346.962 189.692 319.33" stroke="black" stroke-width="4.44881" stroke-linecap="round" stroke-linejoin="round"/>
<path d="M2.44547 336.864C1.18212 331.413 5.54068 326.36 9.85413 322.805C15.5302 318.112 21.7477 314.087 28.3442 310.839C35.8431 307.139 44.2985 304.405 52.5103 306.02C60.7221 307.635 68.2661 314.818 67.842 323.175C67.4359 331.043 72.3179 338.245 71.6952 346.104C71.4065 349.786 71.1087 353.54 69.7731 356.987C68.4466 360.434 65.9109 363.611 62.4186 364.811C59.188 365.93 55.5063 365.262 52.3479 366.571C47.493 368.583 45.5799 374.304 44.118 379.349C42.8186 383.815 41.3387 388.427 38.1442 391.82C34.9497 395.213 29.5534 396.981 25.5197 394.653C21.7296 392.469 20.4121 387.407 21.2875 383.121C22.1628 378.834 24.7617 375.134 27.2974 371.561" fill="#D6C7B7"/>
<path d="M2.44547 336.864C1.18212 331.413 5.54068 326.36 9.85413 322.805C15.5302 318.112 21.7477 314.087 28.3442 310.839C35.8431 307.139 44.2985 304.405 52.5103 306.02C60.7221 307.635 68.2661 314.818 67.842 323.175C67.4359 331.043 72.3179 338.245 71.6952 346.104C71.4065 349.786 71.1087 353.54 69.7731 356.987C68.4466 360.434 65.9109 363.611 62.4186 364.811C59.188 365.93 55.5063 365.262 52.3479 366.571C47.493 368.583 45.5799 374.304 44.118 379.349C42.8186 383.815 41.3387 388.427 38.1442 391.82C34.9497 395.213 29.5534 396.981 25.5197 394.653C21.7296 392.469 20.4121 387.407 21.2875 383.121C22.1628 378.834 24.7617 375.134 27.2974 371.561" stroke="black" stroke-width="4.44881" stroke-linecap="round" stroke-linejoin="round"/>
<path d="M23.5525 328.282C29.3098 324.988 37.2147 326.026 41.9252 330.701C40.8785 336.259 36.7455 340.952 31.674 343.451C26.6026 345.951 20.7099 346.429 15.1061 345.653C9.6917 344.895 3.67273 342.197 2.44547 336.873" fill="#D6C7B7"/>
<path d="M23.5525 328.282C29.3098 324.988 37.2147 326.026 41.9252 330.701C40.8785 336.259 36.7455 340.952 31.674 343.451C26.6026 345.951 20.7099 346.429 15.1061 345.653C9.6917 344.895 3.67273 342.197 2.44547 336.873" stroke="black" stroke-width="4.44881" stroke-linecap="round" stroke-linejoin="round"/>
<path d="M52.5284 310.099C48.9188 310.379 45.6431 307.662 44.0188 304.432C42.3945 301.201 42.0335 297.51 41.4921 293.937C40.9507 290.364 40.1295 286.655 37.8193 283.875C35.2385 280.78 30.8799 279.291 26.9455 280.139C21.4048 281.349 17.4613 286.943 17.1906 292.61C16.9199 298.278 19.7895 303.773 23.8954 307.689C28.0013 311.606 33.2442 314.124 38.5683 316.091" fill="#D6C7B7"/>
<path d="M52.5284 310.099C48.9188 310.379 45.6431 307.662 44.0188 304.432C42.3945 301.201 42.0335 297.51 41.4921 293.937C40.9507 290.364 40.1295 286.655 37.8193 283.875C35.2385 280.78 30.8799 279.291 26.9455 280.139C21.4048 281.349 17.4613 286.943 17.1906 292.61C16.9199 298.278 19.7895 303.773 23.8954 307.689C28.0013 311.606 33.2442 314.124 38.5683 316.091" stroke="black" stroke-width="4.44881" stroke-linecap="round" stroke-linejoin="round"/>
<path d="M11.7943 358.16C10.0256 361.481 11.2438 365.876 14.0683 368.366C16.8928 370.857 20.9355 371.615 24.6534 371.083C28.3713 370.55 31.8365 368.863 35.067 366.941C37.4584 365.515 39.8678 363.845 41.1672 361.382C42.4667 358.918 42.2862 355.462 40.0663 353.775" fill="#D6C7B7"/>
<path d="M11.7943 358.16C10.0256 361.481 11.2438 365.876 14.0683 368.366C16.8928 370.857 20.9355 371.615 24.6534 371.083C28.3713 370.55 31.8365 368.863 35.067 366.941C37.4584 365.515 39.8678 363.845 41.1672 361.382C42.4667 358.918 42.2862 355.462 40.0663 353.775" stroke="black" stroke-width="4.44881" stroke-linecap="round" stroke-linejoin="round"/>
<path d="M7.30939 353.946C8.98784 356.843 12.0379 358.765 15.2775 359.622C18.5171 360.48 21.9282 360.353 25.24 359.884C29.5534 359.27 33.8578 358.034 37.4313 355.543C41.0048 353.062 43.7842 349.2 44.2444 344.868" fill="#D6C7B7"/>
<path d="M7.30939 353.946C8.98784 356.843 12.0379 358.765 15.2775 359.622C18.5171 360.48 21.9282 360.353 25.24 359.884C29.5534 359.27 33.8578 358.034 37.4313 355.543C41.0048 353.062 43.7842 349.2 44.2444 344.868" stroke="black" stroke-width="4.44881" stroke-linecap="round" stroke-linejoin="round"/>
<path d="M7.57108 344.48C5.54971 347.151 5.63093 351.05 7.30938 353.946L7.57108 344.48Z" fill="#D6C7B7"/>
<path d="M7.57108 344.48C5.54971 347.151 5.63093 351.05 7.30938 353.946" stroke="black" stroke-width="4.44881" stroke-linecap="round" stroke-linejoin="round"/>
<path d="M6.10919 342.224C13.1208 347.205 25.7994 347.305 33.4608 342.45L6.10919 342.224Z" fill="#D6C7B7"/>
<path d="M6.10919 342.224C13.1208 347.205 25.7994 347.305 33.4608 342.45" stroke="black" stroke-width="4.44881" stroke-linecap="round" stroke-linejoin="round"/>
<path d="M47.6645 340.076C51.9869 341.665 57.0674 341.015 60.8575 338.398L47.6645 340.076Z" fill="#D6C7B7"/>
<path d="M47.6645 340.076C51.9869 341.665 57.0674 341.015 60.8575 338.398" stroke="black" stroke-width="4.44881" stroke-linecap="round" stroke-linejoin="round"/>
<path d="M355.516 391.63C354.849 390.755 354.84 389.564 354.731 388.472C354.623 387.38 354.28 386.144 353.287 385.665C352.728 385.395 352.069 385.431 351.456 385.485C347.377 385.837 343.334 386.631 339.427 387.858C341.024 387.362 339.625 400.771 340.699 399.057C342.053 396.873 344.056 395.213 347.72 393.733C349.795 392.894 353.36 392.208 355.525 391.639L355.516 391.63Z" fill="#221F20"/>
<path d="M312.147 444.871C313.438 444.691 314.115 443.716 314.854 442.895C315.594 442.074 316.704 441.334 318.157 441.749C318.978 441.984 319.736 442.543 320.44 443.094C325.097 446.694 329.455 450.629 333.417 454.807C331.801 453.101 325.9 465.311 325.602 463.028C325.223 460.131 323.77 457.135 320.251 452.93C318.266 450.557 314.403 447.091 312.147 444.871Z" fill="#221F20"/>
<path d="M239.369 404.083C240.362 403.749 248.727 403.262 249.855 403.415C250.983 403.569 252.291 403.569 252.932 402.892C253.293 402.513 253.365 401.99 253.419 401.493C253.744 398.236 251.29 397.523 250.694 394.211C250.938 395.565 241.219 388.219 241.481 390.168C241.703 391.865 241.586 394.16 241.129 397.054C240.84 398.904 239.144 402.269 239.36 404.083H239.369Z" fill="#221F20"/>
<path d="M190.649 319.899C189.647 319.583 186.263 323.545 185.442 322.759C184.621 321.974 183.836 324.492 182.915 324.654C182.392 324.745 182.031 325.124 181.706 325.494C179.522 327.939 181.093 329.961 179.622 332.984C180.226 331.747 185.487 343.668 185.487 343.668C185.487 343.668 183.583 333.967 185.487 329.816C188.826 322.534 189.765 321.487 190.649 319.899Z" fill="#221F20"/>
<path d="M317.147 228.938C319.011 228.938 320.522 227.107 320.522 224.85C320.522 222.592 319.011 220.762 317.147 220.762C315.283 220.762 313.772 222.592 313.772 224.85C313.772 227.107 315.283 228.938 317.147 228.938Z" fill="white"/>
<path d="M319.899 234.352C320.96 234.352 321.821 233.309 321.821 232.024C321.821 230.738 320.96 229.695 319.899 229.695C318.837 229.695 317.977 230.738 317.977 232.024C317.977 233.309 318.837 234.352 319.899 234.352Z" fill="white"/>
<path d="M252.643 239.396C254.507 239.396 256.018 237.566 256.018 235.308C256.018 233.051 254.507 231.221 252.643 231.221C250.779 231.221 249.268 233.051 249.268 235.308C249.268 237.566 250.779 239.396 252.643 239.396Z" fill="white"/>
<path d="M255.396 244.811C256.457 244.811 257.318 243.768 257.318 242.482C257.318 241.197 256.457 240.154 255.396 240.154C254.334 240.154 253.474 241.197 253.474 242.482C253.474 243.768 254.334 244.811 255.396 244.811Z" fill="white"/>
<path d="M202.064 65.9921L209.653 40.9868L218.731 56.7335L202.064 65.9921Z" fill="#A3A5A7" stroke="black" stroke-width="4.44881" stroke-linecap="round" stroke-linejoin="round"/>
<path d="M286.321 92.9647L239.604 119.901C236.933 121.444 233.413 120.361 231.753 117.474L202.064 65.9831L218.379 56.3996L209.653 40.9777L244.693 20.7731C247.364 19.23 250.884 20.3129 252.544 23.2005L288.153 84.9514C289.813 87.83 288.992 91.4216 286.321 92.9556V92.9647Z" fill="white" stroke="black" stroke-width="4.44881" stroke-linecap="round" stroke-linejoin="round"/>
<path d="M239.396 101.835L271.061 83.5798" stroke="black" stroke-width="4.44881" stroke-linecap="round" stroke-linejoin="round"/>
<path d="M232.962 90.6816L264.627 72.4172" stroke="black" stroke-width="4.44881" stroke-linecap="round" stroke-linejoin="round"/>
<path d="M226.519 79.519L258.184 61.2545" stroke="black" stroke-width="4.44881" stroke-linecap="round" stroke-linejoin="round"/>
<path d="M220.085 68.3564L251.75 50.0919" stroke="black" stroke-width="4.44881" stroke-linecap="round" stroke-linejoin="round"/>
<path d="M196.37 69.2768L203.959 44.2715L213.037 60.0183L196.37 69.2768Z" fill="#A3A5A7" stroke="black" stroke-width="4.44881" stroke-linecap="round" stroke-linejoin="round"/>
<path d="M280.627 96.2494L233.91 123.186C231.239 124.729 227.719 123.646 226.059 120.758L196.37 69.2678L212.685 59.6844L203.959 44.2624L238.999 24.0578C241.67 22.5147 245.19 23.5976 246.85 26.4853L282.459 88.2361C284.119 91.1148 283.298 94.7063 280.627 96.2404V96.2494Z" fill="white" stroke="black" stroke-width="4.44881" stroke-linecap="round" stroke-linejoin="round"/>
<path d="M233.702 105.129L265.367 86.8645" stroke="black" stroke-width="4.44881" stroke-linecap="round" stroke-linejoin="round"/>
<path d="M227.259 93.9663L258.924 75.7019" stroke="black" stroke-width="4.44881" stroke-linecap="round" stroke-linejoin="round"/>
<path d="M220.825 82.8037L252.49 64.5392" stroke="black" stroke-width="4.44881" stroke-linecap="round" stroke-linejoin="round"/>
<path d="M214.391 71.6411L246.056 53.3766" stroke="black" stroke-width="4.44881" stroke-linecap="round" stroke-linejoin="round"/>
<path d="M191.19 72.2637L198.779 47.2584L207.858 63.0052L191.19 72.2637Z" fill="#A3A5A7" stroke="black" stroke-width="4.44881" stroke-linecap="round" stroke-linejoin="round"/>
<path d="M275.447 99.2363L228.73 126.173C226.059 127.716 222.54 126.633 220.879 123.745L191.19 72.2547L207.506 62.6713L198.779 47.2494L233.819 27.0448C236.491 25.5017 240.01 26.5846 241.67 29.4722L277.279 91.2231C278.939 94.1017 278.118 97.6932 275.447 99.2273V99.2363Z" fill="white" stroke="black" stroke-width="4.44881" stroke-linecap="round" stroke-linejoin="round"/>
<path d="M228.522 108.107L260.187 89.8514" stroke="black" stroke-width="4.44881" stroke-linecap="round" stroke-linejoin="round"/>
<path d="M222.088 96.9533L253.753 78.6888" stroke="black" stroke-width="4.44881" stroke-linecap="round" stroke-linejoin="round"/>
<path d="M215.645 85.7906L247.31 67.5262" stroke="black" stroke-width="4.44881" stroke-linecap="round" stroke-linejoin="round"/>
<path d="M209.211 74.628L240.876 56.3636" stroke="black" stroke-width="4.44881" stroke-linecap="round" stroke-linejoin="round"/>
<path d="M420.922 61.1372C411.05 62.9781 401.674 76.6494 403.515 86.5306C401.674 76.6584 388.003 67.2825 378.121 69.1234C387.994 67.2825 397.369 53.6113 395.529 43.73C397.369 53.6022 411.041 62.9781 420.922 61.1372Z" fill="white"/>
<path d="M420.922 61.1372C411.05 62.9781 401.674 76.6494 403.515 86.5306C401.674 76.6584 388.003 67.2825 378.121 69.1234C387.994 67.2825 397.369 53.6113 395.529 43.73C397.369 53.6022 411.041 62.9781 420.922 61.1372Z" stroke="black" stroke-width="4.44881" stroke-linecap="round" stroke-linejoin="round"/>
<path d="M120.65 252.427C110.778 254.268 101.402 267.939 103.243 277.82C101.402 267.948 87.7308 258.572 77.8495 260.413C87.7217 258.572 97.0976 244.901 95.2567 235.02C97.0976 244.892 110.769 254.268 120.65 252.427Z" fill="white"/>
<path d="M120.65 252.427C110.778 254.268 101.402 267.939 103.243 277.82C101.402 267.948 87.7308 258.572 77.8495 260.413C87.7217 258.572 97.0976 244.901 95.2567 235.02C97.0976 244.892 110.769 254.268 120.65 252.427Z" stroke="black" stroke-width="4.44881" stroke-linecap="round" stroke-linejoin="round"/>
<path d="M462.053 293.224C452.181 295.065 442.805 308.736 444.646 318.617C442.805 308.745 429.134 299.369 419.252 301.21C429.125 299.369 438.501 285.698 436.66 275.817C438.501 285.689 452.172 295.065 462.053 293.224Z" fill="white"/>
<path d="M462.053 293.224C452.181 295.065 442.805 308.736 444.646 318.617C442.805 308.745 429.134 299.369 419.252 301.21C429.125 299.369 438.501 285.698 436.66 275.817C438.501 285.689 452.172 295.065 462.053 293.224Z" stroke="black" stroke-width="4.44881" stroke-linecap="round" stroke-linejoin="round"/>
</g>
<defs>
<clipPath id="clip0_136_87458">
<rect width="505.567" height="554.72" fill="white"/>
</clipPath>
</defs>
</svg>
