<svg width="539" height="555" viewBox="0 0 539 555" fill="none" xmlns="http://www.w3.org/2000/svg">
<path d="M426.115 279.431C421.067 266.471 420.923 254.191 416.723 244.519C415.107 240.807 413.179 236.751 414.395 232.887C415.659 228.847 420.347 226.471 424.531 227.127C428.715 227.783 432.211 230.983 434.019 234.807C435.827 238.631 436.147 243.015 435.803 247.239C440.283 247.415 444.355 244.455 447.083 240.895C449.811 237.343 451.571 233.143 453.995 229.367C459.179 221.271 463.011 215.623 472.323 213.239C475.043 212.543 478.291 212.271 480.315 214.215C483.251 217.023 481.355 222.095 478.483 224.967C473.891 229.551 472.035 231.423 466.339 234.527C460.635 237.631 462.187 235.159 459.539 241.703C460.115 239.583 456.635 241.623 458.811 241.911C460.987 242.199 463.563 247.543 465.131 249.079C472.803 256.615 475.171 269.047 470.803 278.879C466.435 288.711 451.795 293.031 441.051 292.391" fill="#D6C7B7"/>
<path d="M426.115 279.431C421.067 266.471 420.923 254.191 416.723 244.519C415.107 240.807 413.179 236.751 414.395 232.887C415.659 228.847 420.347 226.471 424.531 227.127C428.715 227.783 432.211 230.983 434.019 234.807C435.827 238.631 436.147 243.015 435.803 247.239C440.283 247.415 444.355 244.455 447.083 240.895C449.811 237.343 451.571 233.143 453.995 229.367C459.179 221.271 463.011 215.623 472.323 213.239C475.043 212.543 478.291 212.271 480.315 214.215C483.251 217.023 481.355 222.095 478.483 224.967C473.891 229.551 472.035 231.423 466.339 234.527C460.635 237.631 462.187 235.159 459.539 241.703C460.115 239.583 456.635 241.623 458.811 241.911C460.987 242.199 463.563 247.543 465.131 249.079C472.803 256.615 475.171 269.047 470.803 278.879C466.435 288.711 451.795 293.031 441.051 292.391" stroke="black" stroke-width="3.944" stroke-linecap="round" stroke-linejoin="round"/>
<path d="M453.139 248.975C455.891 245.895 456.539 243.535 456.795 239.183C456.979 235.959 457.171 232.735 457.355 229.519C457.579 225.647 457.851 221.623 459.779 218.263C461.707 214.903 465.843 212.471 469.491 213.775C472.571 214.879 474.307 218.191 474.995 221.391C476.075 226.431 475.267 231.727 473.555 236.583C471.843 241.439 469.259 245.943 466.691 250.407" fill="#D6C7B7"/>
<path d="M453.139 248.975C455.891 245.895 456.539 243.535 456.795 239.183C456.979 235.959 457.171 232.735 457.355 229.519C457.579 225.647 457.851 221.623 459.779 218.263C461.707 214.903 465.843 212.471 469.491 213.775C472.571 214.879 474.307 218.191 474.995 221.391C476.075 226.431 475.267 231.727 473.555 236.583C471.843 241.439 469.259 245.943 466.691 250.407" stroke="black" stroke-width="3.944" stroke-linecap="round" stroke-linejoin="round"/>
<path d="M457.315 255.231C460.811 253.055 461.963 248.471 461.939 244.351C461.915 240.231 461.035 236.071 461.771 232.015C462.139 229.983 462.939 227.991 464.363 226.495C465.787 224.999 467.891 224.087 469.931 224.407C472.947 224.871 474.979 227.751 476.107 230.583C480.107 240.583 477.283 251.871 474.419 262.255" fill="#D6C7B7"/>
<path d="M457.315 255.231C460.811 253.055 461.963 248.471 461.939 244.351C461.915 240.231 461.035 236.071 461.771 232.015C462.139 229.983 462.939 227.991 464.363 226.495C465.787 224.999 467.891 224.087 469.931 224.407C472.947 224.871 474.979 227.751 476.107 230.583C480.107 240.583 477.283 251.871 474.419 262.255" stroke="black" stroke-width="3.944" stroke-linecap="round" stroke-linejoin="round"/>
<path d="M459.795 273.111C458.603 270.071 459.491 266.599 460.939 263.679C462.387 260.759 464.379 258.095 465.547 255.055C466.755 251.911 467.075 248.431 468.699 245.487C470.331 242.543 474.075 240.271 477.043 241.863C479.891 243.391 480.219 247.311 479.915 250.527C478.867 261.639 473.851 273.983 468.315 283.223" fill="#D6C7B7"/>
<path d="M459.795 273.111C458.603 270.071 459.491 266.599 460.939 263.679C462.387 260.759 464.379 258.095 465.547 255.055C466.755 251.911 467.075 248.431 468.699 245.487C470.331 242.543 474.075 240.271 477.043 241.863C479.891 243.391 480.219 247.311 479.915 250.527C478.867 261.639 473.851 273.983 468.315 283.223" stroke="black" stroke-width="3.944" stroke-linecap="round" stroke-linejoin="round"/>
<path d="M434.803 275.135C437.371 271.543 441.299 268.943 445.611 267.975L434.803 275.135Z" fill="#D6C7B7"/>
<path d="M434.803 275.135C437.371 271.543 441.299 268.943 445.611 267.975" stroke="black" stroke-width="3.944" stroke-linecap="round" stroke-linejoin="round"/>
<path d="M461.891 245.239C462.227 246.807 462.891 248.303 463.827 249.607L461.891 245.239Z" fill="#D6C7B7"/>
<path d="M461.891 245.239C462.227 246.807 462.891 248.303 463.827 249.607" stroke="black" stroke-width="3.944" stroke-linecap="round" stroke-linejoin="round"/>
<path d="M465.027 256.887C465.363 258.455 466.027 259.951 466.963 261.255L465.027 256.887Z" fill="#D6C7B7"/>
<path d="M465.027 256.887C465.363 258.455 466.027 259.951 466.963 261.255" stroke="black" stroke-width="3.944" stroke-linecap="round" stroke-linejoin="round"/>
<path d="M457.003 236.839C457.339 238.407 458.003 239.903 458.939 241.207L457.003 236.839Z" fill="#D6C7B7"/>
<path d="M457.003 236.839C457.339 238.407 458.003 239.903 458.939 241.207" stroke="black" stroke-width="3.944" stroke-linecap="round" stroke-linejoin="round"/>
<path d="M426.115 279.431C414.699 296.343 418.315 321.847 403.883 336.279C394.955 345.199 381.331 348.047 368.787 346.679C356.243 345.311 344.435 340.263 332.835 335.279C330.259 343.135 330.715 348.815 331.171 357.071C349.187 363.207 368.419 365.711 387.403 364.399C396.483 363.767 405.971 362.079 413.043 356.351C431.147 341.687 425.619 309.855 441.051 292.399" fill="#D6C7B7"/>
<path d="M426.115 279.431C414.699 296.343 418.315 321.847 403.883 336.279C394.955 345.199 381.331 348.047 368.787 346.679C356.243 345.311 344.435 340.263 332.835 335.279C330.259 343.135 330.715 348.815 331.171 357.071C349.187 363.207 368.419 365.711 387.403 364.399C396.483 363.767 405.971 362.079 413.043 356.351C431.147 341.687 425.619 309.855 441.051 292.399" stroke="black" stroke-width="3.944" stroke-linecap="round" stroke-linejoin="round"/>
<path d="M130.523 273.455C135.571 260.495 135.715 248.215 139.915 238.543C141.531 234.831 143.459 230.775 142.243 226.911C140.979 222.871 136.291 220.495 132.107 221.151C127.923 221.807 124.427 225.007 122.619 228.831C120.811 232.655 120.491 237.039 120.835 241.263C116.355 241.439 112.283 238.479 109.555 234.919C106.827 231.367 105.067 227.167 102.643 223.391C97.4591 215.295 93.6271 209.647 84.3151 207.263C81.5951 206.567 78.3471 206.295 76.3231 208.239C73.3871 211.047 75.2831 216.119 78.1551 218.991C82.7471 223.575 84.6031 225.447 90.2991 228.551C96.0031 231.655 94.4511 229.183 97.0991 235.727C96.5231 233.607 100.003 235.647 97.8271 235.935C95.6511 236.223 93.0751 241.567 91.5071 243.103C83.8351 250.639 81.4671 263.071 85.8351 272.903C90.2031 282.735 104.843 287.055 115.587 286.415" fill="#D6C7B7"/>
<path d="M130.523 273.455C135.571 260.495 135.715 248.215 139.915 238.543C141.531 234.831 143.459 230.775 142.243 226.911C140.979 222.871 136.291 220.495 132.107 221.151C127.923 221.807 124.427 225.007 122.619 228.831C120.811 232.655 120.491 237.039 120.835 241.263C116.355 241.439 112.283 238.479 109.555 234.919C106.827 231.367 105.067 227.167 102.643 223.391C97.4591 215.295 93.6271 209.647 84.3151 207.263C81.5951 206.567 78.3471 206.295 76.3231 208.239C73.3871 211.047 75.2831 216.119 78.1551 218.991C82.7471 223.575 84.6031 225.447 90.2991 228.551C96.0031 231.655 94.4511 229.183 97.0991 235.727C96.5231 233.607 100.003 235.647 97.8271 235.935C95.6511 236.223 93.0751 241.567 91.5071 243.103C83.8351 250.639 81.4671 263.071 85.8351 272.903C90.2031 282.735 104.843 287.055 115.587 286.415" stroke="black" stroke-width="3.944" stroke-linecap="round" stroke-linejoin="round"/>
<path d="M103.507 242.999C100.755 239.919 100.107 237.559 99.851 233.207C99.667 229.983 99.475 226.759 99.291 223.543C99.067 219.671 98.795 215.647 96.867 212.287C94.939 208.927 90.803 206.495 87.155 207.799C84.075 208.903 82.339 212.215 81.651 215.415C80.571 220.455 81.379 225.751 83.091 230.607C84.803 235.463 87.387 239.967 89.955 244.431" fill="#D6C7B7"/>
<path d="M103.507 242.999C100.755 239.919 100.107 237.559 99.851 233.207C99.667 229.983 99.475 226.759 99.291 223.543C99.067 219.671 98.795 215.647 96.867 212.287C94.939 208.927 90.803 206.495 87.155 207.799C84.075 208.903 82.339 212.215 81.651 215.415C80.571 220.455 81.379 225.751 83.091 230.607C84.803 235.463 87.387 239.967 89.955 244.431" stroke="black" stroke-width="3.944" stroke-linecap="round" stroke-linejoin="round"/>
<path d="M99.3231 249.247C95.8272 247.071 94.6751 242.487 94.6992 238.367C94.7232 234.247 95.6031 230.087 94.8671 226.031C94.4991 223.999 93.6992 222.007 92.2752 220.511C90.8512 219.023 88.7471 218.103 86.7071 218.423C83.6911 218.887 81.6592 221.767 80.5312 224.599C76.5312 234.599 79.3551 245.887 82.2191 256.271" fill="#D6C7B7"/>
<path d="M99.3231 249.247C95.8271 247.071 94.6752 242.487 94.6992 238.367C94.7232 234.247 95.6031 230.087 94.8671 226.031C94.4991 223.999 93.6992 222.007 92.2752 220.511C90.8512 219.023 88.7471 218.103 86.7071 218.423C83.6911 218.887 81.6592 221.767 80.5312 224.599C76.5312 234.599 79.3551 245.887 82.2191 256.271" stroke="black" stroke-width="3.944" stroke-linecap="round" stroke-linejoin="round"/>
<path d="M96.8511 267.127C98.0431 264.087 97.1551 260.615 95.7071 257.695C94.2591 254.767 92.2671 252.111 91.0991 249.071C89.8911 245.927 89.5711 242.447 87.9471 239.503C86.3151 236.559 82.5711 234.287 79.6031 235.879C76.7551 237.407 76.4271 241.327 76.7311 244.543C77.7791 255.655 82.7951 267.999 88.3311 277.239" fill="#D6C7B7"/>
<path d="M96.8511 267.127C98.0431 264.087 97.1551 260.615 95.7071 257.695C94.2591 254.767 92.2671 252.111 91.0991 249.071C89.8911 245.927 89.5711 242.447 87.9471 239.503C86.3151 236.559 82.5711 234.287 79.6031 235.879C76.7551 237.407 76.4271 241.327 76.7311 244.543C77.7791 255.655 82.7951 267.999 88.3311 277.239" stroke="black" stroke-width="3.944" stroke-linecap="round" stroke-linejoin="round"/>
<path d="M121.843 269.151C119.275 265.559 115.347 262.959 111.035 261.991L121.843 269.151Z" fill="#D6C7B7"/>
<path d="M121.843 269.151C119.275 265.559 115.347 262.959 111.035 261.991" stroke="black" stroke-width="3.944" stroke-linecap="round" stroke-linejoin="round"/>
<path d="M94.747 239.263C94.411 240.831 93.747 242.327 92.811 243.631L94.747 239.263Z" fill="#D6C7B7"/>
<path d="M94.747 239.263C94.411 240.831 93.747 242.327 92.811 243.631" stroke="black" stroke-width="3.944" stroke-linecap="round" stroke-linejoin="round"/>
<path d="M91.6191 250.903C91.2831 252.471 90.6191 253.967 89.6831 255.271L91.6191 250.903Z" fill="#D6C7B7"/>
<path d="M91.6191 250.903C91.2831 252.471 90.6191 253.967 89.6831 255.271" stroke="black" stroke-width="3.944" stroke-linecap="round" stroke-linejoin="round"/>
<path d="M99.643 230.855C99.307 232.423 98.643 233.919 97.707 235.223L99.643 230.855Z" fill="#D6C7B7"/>
<path d="M99.643 230.855C99.307 232.423 98.643 233.919 97.707 235.223" stroke="black" stroke-width="3.944" stroke-linecap="round" stroke-linejoin="round"/>
<path d="M130.523 273.455C141.939 290.367 138.323 315.871 152.755 330.303C161.683 339.223 175.307 342.071 187.851 340.703C200.395 339.335 212.203 334.287 223.803 329.303C226.379 337.159 225.923 342.839 225.467 351.095C207.451 357.231 188.219 359.735 169.235 358.423C160.155 357.791 150.667 356.103 143.595 350.375C125.491 335.711 131.019 303.879 115.587 286.423" fill="#D6C7B7"/>
<path d="M130.523 273.455C141.939 290.367 138.323 315.871 152.755 330.303C161.683 339.223 175.307 342.071 187.851 340.703C200.395 339.335 212.203 334.287 223.803 329.303C226.379 337.159 225.923 342.839 225.467 351.095C207.451 357.231 188.219 359.735 169.235 358.423C160.155 357.791 150.667 356.103 143.595 350.375C125.491 335.711 131.019 303.879 115.587 286.423" stroke="black" stroke-width="3.944" stroke-linecap="round" stroke-linejoin="round"/>
<path d="M126.571 29.7112L161.083 96.0472C162.659 99.0712 161.467 102.831 158.443 104.407L72.259 149.247C69.235 150.823 65.475 149.631 63.899 146.607L63.171 145.215L45.883 154.207C42.859 155.783 39.099 154.591 37.523 151.567L3.01101 85.2312C1.43501 82.2072 2.62701 78.4472 5.65101 76.8712L31.851 63.2392C34.875 61.6632 38.635 62.8552 40.211 65.8792C40.611 66.6472 41.563 66.9512 42.331 66.5512L118.203 27.0792C121.227 25.5032 124.987 26.6952 126.563 29.7192L126.571 29.7112Z" fill="#D6C7B7" stroke="black" stroke-width="3.944" stroke-linecap="round" stroke-linejoin="round"/>
<path d="M6.97388 92.8322L126.937 30.41L162.746 99.227C165.19 103.925 163.359 109.73 158.661 112.174L55.7299 165.734C51.0318 168.179 45.2271 166.347 42.7825 161.649L6.97388 92.8322Z" fill="#EBE4DC" stroke="black" stroke-width="3.944" stroke-linecap="round" stroke-linejoin="round"/>
<path d="M535.651 98.0792L501.139 164.415C499.563 167.439 495.803 168.623 492.779 167.055L406.595 122.215C403.571 120.639 402.387 116.879 403.955 113.855L404.683 112.463L387.395 103.471C384.371 101.895 383.187 98.1352 384.755 95.1112L419.267 28.7752C420.843 25.7512 424.603 24.5672 427.627 26.1352L453.827 39.7672C456.851 41.3432 458.035 45.1032 456.467 48.1272C456.067 48.8952 456.363 49.8472 457.139 50.2472L533.011 89.7192C536.035 91.2952 537.219 95.0552 535.651 98.0792Z" fill="#D6C7B7" stroke="black" stroke-width="3.944" stroke-linecap="round" stroke-linejoin="round"/>
<path d="M415.332 36.3589L535.306 98.7602L499.509 167.583C497.066 172.282 491.261 174.114 486.563 171.67L383.622 118.129C378.924 115.685 377.092 109.881 379.535 105.182L415.332 36.3589Z" fill="#EBE4DC" stroke="black" stroke-width="3.944" stroke-linecap="round" stroke-linejoin="round"/>
<path d="M341.299 16.7352V91.5112C341.299 94.9192 338.507 97.7112 335.099 97.7112H237.947C234.539 97.7112 231.747 94.9192 231.747 91.5112V89.9432H212.267C208.859 89.9432 206.067 87.1512 206.067 83.7432V8.96721C206.067 5.55921 208.859 2.76721 212.267 2.76721H241.803C245.211 2.76721 248.003 5.55921 248.003 8.96721C248.003 9.83121 248.707 10.5352 249.571 10.5352H335.099C338.507 10.5352 341.299 13.3272 341.299 16.7352Z" fill="#D6C7B7" stroke="black" stroke-width="3.944" stroke-linecap="round" stroke-linejoin="round"/>
<path d="M206.067 17.5512H341.299V95.1272C341.299 100.423 336.995 104.727 331.699 104.727H215.667C210.371 104.727 206.067 100.423 206.067 95.1272V17.5512Z" fill="#EBE4DC" stroke="black" stroke-width="3.944" stroke-linecap="round" stroke-linejoin="round"/>
<path d="M284.419 422.903C285.019 447.631 287.019 472.687 286.483 497.415C285.979 520.191 286.339 528.015 284.755 546.799C318.939 553.735 354.587 553.399 388.643 545.807C388.915 529.231 379.371 512.863 364.803 504.951C350.243 497.031 326.787 505.191 313.027 514.431C310.611 486.199 312.955 450.791 310.539 422.559" fill="#D6C7B7"/>
<path d="M284.419 422.903C285.019 447.631 287.019 472.687 286.483 497.415C285.979 520.191 286.339 528.015 284.755 546.799C318.939 553.735 354.587 553.399 388.643 545.807C388.915 529.231 379.371 512.863 364.803 504.951C350.243 497.031 326.787 505.191 313.027 514.431C310.611 486.199 312.955 450.791 310.539 422.559" stroke="black" stroke-width="3.944" stroke-linecap="round" stroke-linejoin="round"/>
<path d="M262.363 423.959C261.763 448.687 259.763 473.743 260.299 498.471C260.803 521.247 260.443 529.071 262.027 547.855C227.843 554.791 192.195 554.455 158.139 546.863C157.867 530.287 167.411 513.919 181.979 506.007C196.539 498.087 219.995 506.247 233.755 515.487C236.171 487.255 233.827 451.847 236.243 423.615" fill="#D6C7B7"/>
<path d="M262.363 423.959C261.763 448.687 259.763 473.743 260.299 498.471C260.803 521.247 260.443 529.071 262.027 547.855C227.843 554.791 192.195 554.455 158.139 546.863C157.867 530.287 167.411 513.919 181.979 506.007C196.539 498.087 219.995 506.247 233.755 515.487C236.171 487.255 233.827 451.847 236.243 423.615" stroke="black" stroke-width="3.944" stroke-linecap="round" stroke-linejoin="round"/>
<path d="M235.555 434.183C238.643 431.159 244.843 427.927 249.147 428.231C253.451 428.535 259.347 432.343 261.979 435.767C262.003 432.263 260.267 427.183 260.291 423.679C254.859 423.599 249.419 423.695 243.995 423.943C242.115 424.031 239.107 423.551 238.003 425.031C236.827 426.607 236.939 432.823 235.555 434.175V434.183Z" fill="black" stroke="black" stroke-width="3.944" stroke-linecap="round" stroke-linejoin="round"/>
<path d="M284.747 433.375C287.835 430.351 293.579 427.663 297.883 427.967C302.187 428.271 308.667 431.431 311.299 434.863C311.323 431.359 309.003 426.919 309.027 423.423C303.595 423.343 298.155 423.439 292.731 423.687C290.851 423.775 287.843 423.295 286.739 424.775C285.563 426.351 286.131 432.023 284.747 433.383V433.375Z" fill="black" stroke="black" stroke-width="3.944" stroke-linecap="round" stroke-linejoin="round"/>
<path d="M160.659 196.607L190.115 418.311C190.779 423.295 195.027 427.023 200.059 427.023L266.827 427.039H280.427L347.195 427.055C352.227 427.055 356.483 423.335 357.147 418.343L386.699 196.655" fill="#D6C7B7"/>
<path d="M160.659 196.607L190.115 418.311C190.779 423.295 195.027 427.023 200.059 427.023L266.827 427.039H280.427L347.195 427.055C352.227 427.055 356.483 423.335 357.147 418.343L386.699 196.655" stroke="black" stroke-width="3.944" stroke-linecap="round" stroke-linejoin="round"/>
<path d="M274.099 227.487C245.723 227.487 218.899 225.319 198.555 221.407C187.859 219.351 179.203 216.839 172.851 213.943C158.083 207.223 154.987 197.767 154.987 191.015C154.987 184.271 158.091 174.815 172.843 168.103C179.195 165.215 187.835 162.703 198.523 160.647C218.843 156.743 245.643 154.591 273.987 154.591H274.115C302.483 154.591 329.315 156.759 349.659 160.671C360.355 162.735 369.011 165.239 375.363 168.135C390.131 174.855 393.227 184.311 393.227 191.063C393.227 197.815 390.123 207.263 375.371 213.975C369.019 216.863 360.379 219.375 349.683 221.431C329.363 225.335 302.563 227.487 274.219 227.487H274.091H274.099Z" fill="#D6C7B7"/>
<path d="M274.099 227.487C245.723 227.487 218.899 225.319 198.555 221.407C187.859 219.351 179.203 216.839 172.851 213.943C158.083 207.223 154.987 197.767 154.987 191.015C154.987 184.271 158.091 174.815 172.843 168.103C179.195 165.215 187.835 162.703 198.523 160.647C218.843 156.743 245.643 154.591 273.987 154.591H274.115C302.483 154.591 329.315 156.759 349.659 160.671C360.355 162.735 369.011 165.239 375.363 168.135C390.131 174.855 393.227 184.311 393.227 191.063C393.227 197.815 390.123 207.263 375.371 213.975C369.019 216.863 360.379 219.375 349.683 221.431C329.363 225.335 302.563 227.487 274.219 227.487H274.091H274.099Z" stroke="black" stroke-width="3.944" stroke-linecap="round" stroke-linejoin="round"/>
<path d="M274.107 208.487C330.639 208.487 376.467 199.673 376.467 188.799C376.467 177.926 330.639 169.111 274.107 169.111C217.575 169.111 171.747 177.926 171.747 188.799C171.747 199.673 217.575 208.487 274.107 208.487Z" fill="#6E6860"/>
<mask id="mask0_136_84015" style="mask-type:luminance" maskUnits="userSpaceOnUse" x="171" y="169" width="206" height="40">
<path d="M274.107 208.487C330.639 208.487 376.467 199.673 376.467 188.799C376.467 177.926 330.639 169.111 274.107 169.111C217.575 169.111 171.747 177.926 171.747 188.799C171.747 199.673 217.575 208.487 274.107 208.487Z" fill="white"/>
</mask>
<g mask="url(#mask0_136_84015)">
<path d="M273.003 212.367C329.535 212.367 375.363 204.269 375.363 194.279C375.363 184.289 329.535 176.191 273.003 176.191C216.471 176.191 170.643 184.289 170.643 194.279C170.643 204.269 216.471 212.367 273.003 212.367Z" fill="#38332F"/>
<path d="M273.003 212.367C329.535 212.367 375.363 204.269 375.363 194.279C375.363 184.289 329.535 176.191 273.003 176.191C216.471 176.191 170.643 184.289 170.643 194.279C170.643 204.269 216.471 212.367 273.003 212.367Z" stroke="black" stroke-width="3.944" stroke-linecap="round" stroke-linejoin="round"/>
<path d="M328.035 194.679L307.139 184.671L312.003 200.031L328.035 194.671V194.679Z" fill="white" stroke="black" stroke-width="3.944" stroke-linecap="round" stroke-linejoin="round"/>
<path d="M295.243 265.927L340.819 251.503C343.427 250.679 344.819 247.727 343.931 244.919L328.035 194.687L312.003 199.615L307.139 184.679L272.947 195.503C270.339 196.327 268.947 199.279 269.835 202.087L288.907 262.335C289.795 265.143 292.635 266.759 295.243 265.927Z" fill="white" stroke="black" stroke-width="3.944" stroke-linecap="round" stroke-linejoin="round"/>
<path d="M318.795 207.879L287.899 217.655" stroke="black" stroke-width="3.944" stroke-linecap="round" stroke-linejoin="round"/>
<path d="M333.595 192.927L312.699 182.919L317.563 198.279L333.595 192.919V192.927Z" fill="white" stroke="black" stroke-width="3.944" stroke-linecap="round" stroke-linejoin="round"/>
<path d="M300.803 264.167L346.379 249.743C348.987 248.919 350.379 245.967 349.491 243.159L333.595 192.927L317.563 197.855L312.699 182.919L278.507 193.743C275.899 194.567 274.507 197.519 275.395 200.327L294.467 260.575C295.355 263.383 298.195 264.999 300.803 264.167Z" fill="white" stroke="black" stroke-width="3.944" stroke-linecap="round" stroke-linejoin="round"/>
<path d="M324.355 206.119L293.459 215.903" stroke="black" stroke-width="3.944" stroke-linecap="round" stroke-linejoin="round"/>
<path d="M338.643 191.327L317.747 181.319L322.611 196.679L338.643 191.319V191.327Z" fill="white" stroke="black" stroke-width="3.944" stroke-linecap="round" stroke-linejoin="round"/>
<path d="M305.851 262.567L351.427 248.143C354.035 247.319 355.427 244.367 354.539 241.559L338.643 191.327L322.611 196.255L317.747 181.319L283.555 192.143C280.947 192.967 279.555 195.919 280.443 198.727L299.515 258.975C300.403 261.783 303.243 263.399 305.851 262.567Z" fill="white" stroke="black" stroke-width="3.944" stroke-linecap="round" stroke-linejoin="round"/>
<path d="M329.411 204.519L298.515 214.303" stroke="black" stroke-width="3.944" stroke-linecap="round" stroke-linejoin="round"/>
<path d="M311.499 218.527L301.883 197.455L295.763 212.359L311.499 218.527Z" fill="white" stroke="black" stroke-width="3.944" stroke-linecap="round" stroke-linejoin="round"/>
<path d="M240.651 252.167L284.875 270.327C287.403 271.367 290.363 269.999 291.483 267.271L311.499 218.527L296.035 212.031L301.883 197.455L268.707 183.831C266.179 182.791 263.219 184.159 262.099 186.887L238.091 245.343C236.971 248.071 238.115 251.127 240.643 252.167H240.651Z" fill="white" stroke="black" stroke-width="3.944" stroke-linecap="round" stroke-linejoin="round"/>
<path d="M295.947 222.727L265.971 210.423" stroke="black" stroke-width="3.944" stroke-linecap="round" stroke-linejoin="round"/>
<path d="M316.891 220.743L307.275 199.671L301.155 214.575L316.891 220.743Z" fill="white" stroke="black" stroke-width="3.944" stroke-linecap="round" stroke-linejoin="round"/>
<path d="M246.043 254.383L290.267 272.543C292.795 273.583 295.755 272.215 296.875 269.487L316.891 220.743L301.427 214.247L307.275 199.671L274.099 186.047C271.571 185.007 268.611 186.375 267.491 189.103L243.483 247.559C242.363 250.287 243.507 253.343 246.035 254.383H246.043Z" fill="white" stroke="black" stroke-width="3.944" stroke-linecap="round" stroke-linejoin="round"/>
<path d="M321.795 222.759L312.179 201.687L306.059 216.591L321.795 222.759Z" fill="white" stroke="black" stroke-width="3.944" stroke-linecap="round" stroke-linejoin="round"/>
<path d="M250.939 256.391L295.163 274.551C297.691 275.591 300.651 274.223 301.771 271.495L321.787 222.751L306.323 216.255L312.171 201.679L278.995 188.055C276.467 187.015 273.507 188.383 272.387 191.111L248.379 249.567C247.259 252.295 248.403 255.351 250.931 256.391H250.939Z" fill="white" stroke="black" stroke-width="3.944" stroke-linecap="round" stroke-linejoin="round"/>
<path d="M245.707 196.799L224.787 186.847L229.691 202.199L245.707 196.799Z" fill="white" stroke="black" stroke-width="3.944" stroke-linecap="round" stroke-linejoin="round"/>
<path d="M213.107 268.127L258.651 253.584C261.259 252.752 262.643 249.799 261.747 246.991L245.715 196.799L229.699 201.775L224.795 186.855L190.635 197.767C188.027 198.599 186.643 201.551 187.539 204.359L206.771 264.56C207.667 267.368 210.507 268.968 213.115 268.136L213.107 268.127Z" fill="white" stroke="black" stroke-width="3.944" stroke-linecap="round" stroke-linejoin="round"/>
<path d="M236.507 210.023L205.635 219.879" stroke="black" stroke-width="3.944" stroke-linecap="round" stroke-linejoin="round"/>
<path d="M251.259 195.023L230.339 185.071L235.243 200.423L251.259 195.023Z" fill="white" stroke="black" stroke-width="3.944" stroke-linecap="round" stroke-linejoin="round"/>
<path d="M218.659 266.36L264.203 251.816C266.811 250.984 268.195 248.032 267.299 245.224L251.267 195.032L235.251 200.008L230.347 185.088L196.187 196C193.579 196.832 192.195 199.784 193.091 202.592L212.323 262.792C213.219 265.6 216.059 267.2 218.667 266.368L218.659 266.36Z" fill="white" stroke="black" stroke-width="3.944" stroke-linecap="round" stroke-linejoin="round"/>
<path d="M242.059 208.247L211.187 218.103" stroke="black" stroke-width="3.944" stroke-linecap="round" stroke-linejoin="round"/>
<path d="M256.307 193.415L235.387 183.463L240.291 198.815L256.307 193.415Z" fill="white" stroke="black" stroke-width="3.944" stroke-linecap="round" stroke-linejoin="round"/>
<path d="M223.707 264.743L269.251 250.199C271.859 249.367 273.243 246.415 272.347 243.607L256.315 193.415L240.299 198.391L235.395 183.471L201.235 194.383C198.627 195.215 197.243 198.167 198.139 200.975L217.371 261.175C218.267 263.983 221.107 265.583 223.715 264.751L223.707 264.743Z" fill="white" stroke="black" stroke-width="3.944" stroke-linecap="round" stroke-linejoin="round"/>
<path d="M247.107 206.631L216.235 216.495" stroke="black" stroke-width="3.944" stroke-linecap="round" stroke-linejoin="round"/>
</g>
<path d="M274.107 208.487C330.639 208.487 376.467 199.673 376.467 188.799C376.467 177.926 330.639 169.111 274.107 169.111C217.575 169.111 171.747 177.926 171.747 188.799C171.747 199.673 217.575 208.487 274.107 208.487Z" stroke="black" stroke-width="3.944" stroke-linecap="round" stroke-linejoin="round"/>
<path d="M188.403 46.7032C179.651 48.3352 171.339 60.4552 172.971 69.2152C171.339 60.4632 159.219 52.1512 150.459 53.7832C159.211 52.1512 167.523 40.0312 165.891 31.2712C167.523 40.0232 179.643 48.3352 188.403 46.7032Z" fill="white"/>
<path d="M188.403 46.7032C179.651 48.3352 171.339 60.4552 172.971 69.2152C171.339 60.4632 159.219 52.1512 150.459 53.7832C159.211 52.1512 167.523 40.0312 165.891 31.2712C167.523 40.0232 179.643 48.3352 188.403 46.7032Z" stroke="black" stroke-width="3.944" stroke-linecap="round" stroke-linejoin="round"/>
<path d="M439.147 170.103C430.395 171.735 422.083 183.855 423.715 192.615C422.083 183.863 409.963 175.551 401.203 177.183C409.955 175.551 418.267 163.431 416.635 154.671C418.267 163.423 430.387 171.735 439.147 170.103Z" fill="white"/>
<path d="M439.147 170.103C430.395 171.735 422.083 183.855 423.715 192.615C422.083 183.863 409.963 175.551 401.203 177.183C409.955 175.551 418.267 163.431 416.635 154.671C418.267 163.423 430.387 171.735 439.147 170.103Z" stroke="black" stroke-width="3.944" stroke-linecap="round" stroke-linejoin="round"/>
<path d="M69.059 220.807C60.307 222.439 51.995 234.559 53.627 243.319C51.995 234.567 39.875 226.255 31.115 227.887C39.867 226.255 48.179 214.135 46.547 205.375C48.179 214.127 60.299 222.439 69.059 220.807Z" fill="white"/>
<path d="M69.059 220.807C60.307 222.439 51.995 234.559 53.627 243.319C51.995 234.567 39.875 226.255 31.115 227.887C39.867 226.255 48.179 214.135 46.547 205.375C48.179 214.127 60.299 222.439 69.059 220.807Z" stroke="black" stroke-width="3.944" stroke-linecap="round" stroke-linejoin="round"/>
<path d="M316.699 332.927C302.915 340.095 284.179 348.743 268.659 348.031C253.139 347.319 237.579 341.047 227.283 329.407C228.619 342.367 231.763 355.543 239.411 366.087C247.067 376.631 259.971 384.079 272.891 382.383C284.051 380.919 292.219 377.383 300.059 369.311C304.347 364.895 309.563 356.031 312.539 350.639C315.515 345.247 317.315 339.055 316.691 332.927" fill="#605B54"/>
<mask id="mask1_136_84015" style="mask-type:luminance" maskUnits="userSpaceOnUse" x="227" y="329" width="90" height="54">
<path d="M316.699 332.927C302.915 340.095 284.179 348.743 268.659 348.031C253.139 347.319 237.579 341.047 227.283 329.407C228.619 342.367 231.763 355.543 239.411 366.087C247.067 376.631 259.971 384.079 272.891 382.383C284.051 380.919 292.219 377.383 300.059 369.311C304.347 364.895 309.563 356.031 312.539 350.639C315.515 345.247 317.315 339.055 316.691 332.927" fill="white"/>
</mask>
<g mask="url(#mask1_136_84015)">
<path d="M336.595 310.919C316.835 317.839 289.971 326.143 267.563 325.143C245.155 324.143 222.587 317.575 207.515 305.735C209.691 318.727 214.467 331.975 225.699 342.671C236.939 353.367 255.691 361.055 274.307 359.599C290.387 358.343 302.099 354.951 313.267 347.015C319.379 342.671 326.731 333.903 330.931 328.567C335.131 323.231 337.611 317.063 336.595 310.919Z" fill="white" stroke="black" stroke-width="3.944" stroke-linecap="round" stroke-linejoin="round"/>
<path d="M248.131 368.079C251.411 366.351 254.507 364.791 258.171 365.343C263.403 366.143 265.083 365.615 268.147 373.047C267.883 366.295 273.859 365.919 279.299 367.775C284.699 369.615 289.307 373.359 292.283 378.231C295.259 383.095 296.899 389.743 293.403 394.239C291.187 397.087 287.507 398.287 284.059 399.327C275.827 401.807 266.891 404.255 258.803 401.327C251.403 398.647 246.507 392.087 242.731 385.503C241.243 382.903 238.251 379.255 239.219 376.119C240.267 372.735 245.195 369.623 248.131 368.079Z" fill="#E58EA5" stroke="black" stroke-width="3.944" stroke-linecap="round" stroke-linejoin="round"/>
</g>
<path d="M316.699 332.927C302.915 340.095 284.179 348.743 268.659 348.031C253.139 347.319 237.579 341.047 227.283 329.407C228.619 342.367 231.763 355.543 239.411 366.087C247.067 376.631 259.971 384.079 272.891 382.383C284.051 380.919 292.219 377.383 300.059 369.311C304.347 364.895 309.563 356.031 312.539 350.639C315.515 345.247 317.315 339.055 316.691 332.927" stroke="black" stroke-width="3.944" stroke-linecap="round" stroke-linejoin="round"/>
<path d="M282.347 387.543C275.483 392.719 265.443 393.231 258.091 388.783" stroke="black" stroke-width="3.944" stroke-linecap="round" stroke-linejoin="round"/>
<path d="M241.531 342.463L241.107 352.607" stroke="black" stroke-width="3.944" stroke-linecap="round" stroke-linejoin="round"/>
<path d="M301.011 340.807L300.587 350.943" stroke="black" stroke-width="3.944" stroke-linecap="round" stroke-linejoin="round"/>
<path d="M254.675 345.767L254.251 355.911" stroke="black" stroke-width="3.944" stroke-linecap="round" stroke-linejoin="round"/>
<path d="M270.923 348.775L270.507 358.751" stroke="black" stroke-width="3.944" stroke-linecap="round" stroke-linejoin="round"/>
<path d="M286.307 346.343L285.819 357.983" stroke="black" stroke-width="3.944" stroke-linecap="round" stroke-linejoin="round"/>
<path d="M220.267 255.471C223.331 251.007 227.987 247.663 233.195 246.175C238.403 244.695 244.123 245.079 249.075 247.263" fill="#D6C7B7"/>
<path d="M220.267 255.471C223.331 251.007 227.987 247.663 233.195 246.175C238.403 244.695 244.123 245.079 249.075 247.263" stroke="black" stroke-width="3.944" stroke-linecap="round" stroke-linejoin="round"/>
<path d="M227.195 320.319C225.891 305.055 224.611 289.511 227.915 274.551C228.787 270.583 230.011 266.631 232.219 263.223C234.427 259.815 237.731 256.975 241.675 255.999C248.187 254.391 255.107 258.271 258.875 263.823C262.643 269.375 263.835 276.255 264.411 282.935C265.531 295.927 264.667 309.079 261.859 321.807" fill="white"/>
<mask id="mask2_136_84015" style="mask-type:luminance" maskUnits="userSpaceOnUse" x="225" y="255" width="40" height="67">
<path d="M227.195 320.319C225.891 305.055 224.611 289.511 227.915 274.551C228.787 270.583 230.011 266.631 232.219 263.223C234.427 259.815 237.731 256.975 241.675 255.999C248.187 254.391 255.107 258.271 258.875 263.823C262.643 269.375 263.835 276.255 264.411 282.935C265.531 295.927 264.667 309.079 261.859 321.807" fill="white"/>
</mask>
<g mask="url(#mask2_136_84015)">
<path d="M257.536 270.709C257.655 253.204 252.268 238.976 245.504 238.93C238.74 238.884 233.16 253.037 233.04 270.542C232.921 288.047 238.308 302.275 245.072 302.321C251.837 302.367 257.417 288.214 257.536 270.709Z" fill="#221F20" stroke="black" stroke-width="3.944" stroke-linecap="round" stroke-linejoin="round"/>
</g>
<path d="M227.195 320.319C225.891 305.055 224.611 289.511 227.915 274.551C228.787 270.583 230.011 266.631 232.219 263.223C234.427 259.815 237.731 256.975 241.675 255.999C248.187 254.391 255.107 258.271 258.875 263.823C262.643 269.375 263.835 276.255 264.411 282.935C265.531 295.927 264.667 309.079 261.859 321.807" stroke="black" stroke-width="3.944" stroke-linecap="round" stroke-linejoin="round"/>
<path d="M245.288 262.659C245.304 260.313 243.749 258.4 241.813 258.387C239.878 258.374 238.297 260.265 238.281 262.611C238.265 264.957 239.82 266.87 241.756 266.883C243.691 266.896 245.272 265.005 245.288 262.659Z" fill="white"/>
<path d="M246.603 270.124C246.612 268.785 245.724 267.694 244.62 267.686C243.515 267.679 242.613 268.758 242.603 270.097C242.594 271.435 243.482 272.527 244.587 272.534C245.691 272.542 246.594 271.462 246.603 270.124Z" fill="white"/>
<path d="M222.067 324.295C229.323 321.103 236.915 318.287 244.827 317.919C252.747 317.543 261.107 319.919 266.475 325.751" fill="#D6C7B7"/>
<path d="M222.067 324.295C229.323 321.103 236.915 318.287 244.827 317.919C252.747 317.543 261.107 319.919 266.475 325.751" stroke="black" stroke-width="3.944" stroke-linecap="round" stroke-linejoin="round"/>
<path d="M326.763 256.199C323.763 251.695 319.155 248.287 313.963 246.727C308.771 245.167 303.051 245.487 298.067 247.599" fill="#D6C7B7"/>
<path d="M326.763 256.199C323.763 251.695 319.155 248.287 313.963 246.727C308.771 245.167 303.051 245.487 298.067 247.599" stroke="black" stroke-width="3.944" stroke-linecap="round" stroke-linejoin="round"/>
<path d="M285.259 320.719C283.955 305.455 282.675 289.911 285.979 274.951C286.851 270.983 288.075 267.031 290.283 263.623C292.491 260.215 295.795 257.375 299.739 256.399C306.251 254.791 313.171 258.671 316.939 264.223C320.707 269.775 321.899 276.655 322.475 283.335C323.595 296.327 322.731 309.479 319.923 322.207" fill="white"/>
<mask id="mask3_136_84015" style="mask-type:luminance" maskUnits="userSpaceOnUse" x="283" y="256" width="40" height="67">
<path d="M285.259 320.719C283.955 305.455 282.675 289.911 285.979 274.951C286.851 270.983 288.075 267.031 290.283 263.623C292.491 260.215 295.795 257.375 299.739 256.399C306.251 254.791 313.171 258.671 316.939 264.223C320.707 269.775 321.899 276.655 322.475 283.335C323.595 296.327 322.731 309.479 319.923 322.207" fill="white"/>
</mask>
<g mask="url(#mask3_136_84015)">
<path d="M315.901 270.686C316.02 253.181 310.633 238.954 303.869 238.908C297.105 238.861 291.525 253.015 291.406 270.519C291.287 288.024 296.673 302.252 303.438 302.298C310.202 302.344 315.782 288.191 315.901 270.686Z" fill="#221F20" stroke="black" stroke-width="3.944" stroke-linecap="round" stroke-linejoin="round"/>
</g>
<path d="M285.259 320.719C283.955 305.455 282.675 289.911 285.979 274.951C286.851 270.983 288.075 267.031 290.283 263.623C292.491 260.215 295.795 257.375 299.739 256.399C306.251 254.791 313.171 258.671 316.939 264.223C320.707 269.775 321.899 276.655 322.475 283.335C323.595 296.327 322.731 309.479 319.923 322.207" stroke="black" stroke-width="3.944" stroke-linecap="round" stroke-linejoin="round"/>
<path d="M328.419 326.887C321.587 322.871 314.371 319.207 306.547 317.919C298.731 316.631 290.147 318.023 284.131 323.183C284.555 322.735 284.971 322.279 285.395 321.831" fill="#D6C7B7"/>
<path d="M328.419 326.887C321.587 322.871 314.371 319.207 306.547 317.919C298.731 316.631 290.147 318.023 284.131 323.183C284.555 322.735 284.971 322.279 285.395 321.831" stroke="black" stroke-width="3.944" stroke-linecap="round" stroke-linejoin="round"/>
<path d="M304 262.644C304.016 260.298 302.46 258.386 300.525 258.372C298.59 258.359 297.008 260.25 296.992 262.596C296.976 264.943 298.532 266.855 300.467 266.868C302.402 266.881 303.984 264.99 304 262.644Z" fill="white"/>
<path d="M305.315 270.109C305.324 268.77 304.436 267.679 303.332 267.671C302.227 267.664 301.324 268.743 301.315 270.082C301.306 271.42 302.194 272.512 303.299 272.519C304.403 272.527 305.306 271.448 305.315 270.109Z" fill="white"/>
<path d="M269.171 317.967C272.355 314.327 276.331 311.383 280.739 309.391C283.363 308.207 286.219 307.343 289.091 307.591C291.963 307.831 294.843 309.343 296.147 311.903C297.763 315.079 296.659 318.975 294.931 322.095C290.459 330.159 281.795 335.743 272.603 336.479" fill="#D6C7B7"/>
<path d="M269.171 317.967C272.355 314.327 276.331 311.383 280.739 309.391C283.363 308.207 286.219 307.343 289.091 307.591C291.963 307.831 294.843 309.343 296.147 311.903C297.763 315.079 296.659 318.975 294.931 322.095C290.459 330.159 281.795 335.743 272.603 336.479" stroke="black" stroke-width="3.944" stroke-linecap="round" stroke-linejoin="round"/>
<path d="M268.203 373.223C268.595 374.351 268.891 375.511 269.083 376.695L268.203 373.223Z" fill="white"/>
<path d="M268.203 373.223C268.595 374.351 268.891 375.511 269.083 376.695" stroke="black" stroke-width="3.944" stroke-linecap="round" stroke-linejoin="round"/>
<path d="M175.171 357.799C177.259 357.575 179.347 357.359 181.443 357.135C181.059 352.695 180.675 348.255 180.283 343.807C180.227 343.199 180.155 342.535 179.707 342.111C178.835 341.271 176.515 341.815 175.579 342.191C176.275 344.847 176.963 347.367 176.891 350.167C176.867 351.087 176.323 357.679 175.171 357.799Z" fill="black" stroke="black" stroke-width="3.944" stroke-linecap="round" stroke-linejoin="round"/>
<path d="M372.755 363.975C370.667 363.751 368.579 363.535 366.483 363.311C366.867 358.871 367.251 354.431 367.643 349.983C367.699 349.375 367.771 348.711 368.219 348.287C369.091 347.447 371.411 347.991 372.347 348.367C371.651 351.023 370.963 353.543 371.035 356.343C371.059 357.263 371.603 363.855 372.755 363.975Z" fill="black" stroke="black" stroke-width="3.944" stroke-linecap="round" stroke-linejoin="round"/>
<path d="M308.251 329.695C314.475 329.679 320.651 332.551 324.643 337.327L308.251 329.695Z" fill="#D6C7B7"/>
<path d="M308.251 329.695C314.475 329.679 320.651 332.551 324.643 337.327" stroke="black" stroke-width="3.944" stroke-linecap="round" stroke-linejoin="round"/>
<path d="M230.283 326.359C225.643 328.959 221.667 332.743 218.843 337.247L230.283 326.359Z" fill="#D6C7B7"/>
<path d="M230.283 326.359C225.643 328.959 221.667 332.743 218.843 337.247" stroke="black" stroke-width="3.944" stroke-linecap="round" stroke-linejoin="round"/>
</svg>
