<svg width="418" height="408" viewBox="0 0 418 408" fill="none" xmlns="http://www.w3.org/2000/svg">
<path d="M178.583 211.849C171.039 221.953 158.007 226.769 145.407 227.297C140.831 227.489 82.2149 218.817 82.4949 216.753C83.4789 209.593 86.5989 202.809 91.4709 197.225C91.3909 197.321 101.631 199.513 103.031 199.769C107.943 200.681 112.831 202.961 117.639 204.369C127.199 207.169 136.919 209.153 146.583 206.713C156.239 204.273 165.023 198.497 171.087 190.593" fill="#D6C7B7"/>
<path d="M178.583 211.849C171.039 221.953 158.007 226.769 145.407 227.297C140.831 227.489 82.2149 218.817 82.4949 216.753C83.4789 209.593 86.5989 202.809 91.4709 197.225C91.3909 197.321 101.631 199.513 103.031 199.769C107.943 200.681 112.831 202.961 117.639 204.369C127.199 207.169 136.919 209.153 146.583 206.713C156.239 204.273 165.023 198.497 171.087 190.593" stroke="black" stroke-width="3.944" stroke-linecap="round" stroke-linejoin="round"/>
<path d="M148.295 226.337C147.527 222.945 146.663 219.529 145.023 216.457C143.391 213.385 138.263 209.065 135.031 207.761C136.647 207.817 140.895 209.457 142.511 209.513C143.047 209.529 143.631 209.561 144.055 209.889C144.551 210.273 144.703 210.945 144.823 211.561C145.647 215.833 146.479 220.105 147.303 224.377" fill="#221F20"/>
<path d="M148.295 226.337C147.527 222.945 146.663 219.529 145.023 216.457C143.391 213.385 138.263 209.065 135.031 207.761C136.647 207.817 140.895 209.457 142.511 209.513C143.047 209.529 143.631 209.561 144.055 209.889C144.551 210.273 144.703 210.945 144.823 211.561C145.647 215.833 146.479 220.105 147.303 224.377" stroke="black" stroke-width="3.944" stroke-linecap="round" stroke-linejoin="round"/>
<path d="M236.159 276.433C235.559 301.161 233.559 326.217 234.095 350.945C234.599 373.721 234.239 381.545 235.823 400.329C201.639 407.265 165.991 406.929 131.935 399.337C131.663 382.761 141.207 366.393 155.775 358.481C170.335 350.561 193.791 358.721 207.551 367.961C209.967 339.729 207.623 304.321 210.039 276.089" fill="#D6C7B7"/>
<path d="M236.159 276.433C235.559 301.161 233.559 326.217 234.095 350.945C234.599 373.721 234.239 381.545 235.823 400.329C201.639 407.265 165.991 406.929 131.935 399.337C131.663 382.761 141.207 366.393 155.775 358.481C170.335 350.561 193.791 358.721 207.551 367.961C209.967 339.729 207.623 304.321 210.039 276.089" stroke="black" stroke-width="3.944" stroke-linecap="round" stroke-linejoin="round"/>
<path d="M234.727 299.753C234.135 295.993 233.535 290.009 232.943 286.249C229.295 286.097 225.655 285.865 222.015 285.561C219.999 285.393 210.871 283.929 209.343 285.545C215.575 286.041 221.063 288.281 224.679 290.297C226.543 291.337 228.343 292.481 230.071 293.737C230.943 294.369 234.551 298.689 234.719 299.753H234.727Z" fill="#221F20" stroke="black" stroke-width="3.944" stroke-linecap="round" stroke-linejoin="round"/>
<path d="M127.935 51.1134L154.751 273.153C155.351 278.145 159.559 281.921 164.591 281.985L231.359 282.793L244.959 282.961L311.727 283.769C316.759 283.833 321.055 280.153 321.783 275.177L353.975 53.8574" fill="#D6C7B7"/>
<path d="M127.935 51.1134L154.751 273.153C155.351 278.145 159.559 281.921 164.591 281.985L231.359 282.793L244.959 282.961L311.727 283.769C316.759 283.833 321.055 280.153 321.783 275.177L353.975 53.8574" stroke="black" stroke-width="3.944" stroke-linecap="round" stroke-linejoin="round"/>
<path d="M247.703 75.5933C245.471 75.5933 243.223 75.5773 240.959 75.5533C212.591 75.2093 185.791 72.7294 165.495 68.5694C154.823 66.3854 146.199 63.7693 139.879 60.8013C125.191 53.9053 122.207 44.4174 122.287 37.6654C122.367 31.0734 125.431 21.8573 139.583 15.3453C145.615 12.5693 153.799 10.1853 163.911 8.24934C182.847 4.62534 208.127 2.62537 235.103 2.62537C237.335 2.62537 239.583 2.64136 241.847 2.66536C270.215 3.00936 297.015 5.48934 317.311 9.64934C327.983 11.8333 336.607 14.4494 342.927 17.4174C357.615 24.3134 360.599 33.8013 360.519 40.5533C360.439 47.1453 357.375 56.3614 343.223 62.8734C337.191 65.6494 329.007 68.0334 318.895 69.9694C299.959 73.5934 274.679 75.5933 247.703 75.5933Z" fill="#D6C7B7"/>
<path d="M247.703 75.5933C245.471 75.5933 243.223 75.5773 240.959 75.5533C212.591 75.2093 185.791 72.7294 165.495 68.5694C154.823 66.3854 146.199 63.7693 139.879 60.8013C125.191 53.9053 122.207 44.4174 122.287 37.6654C122.367 31.0734 125.431 21.8573 139.583 15.3453C145.615 12.5693 153.799 10.1853 163.911 8.24934C182.847 4.62534 208.127 2.62537 235.103 2.62537C237.335 2.62537 239.583 2.64136 241.847 2.66536C270.215 3.00936 297.015 5.48934 317.311 9.64934C327.983 11.8333 336.607 14.4494 342.927 17.4174C357.615 24.3134 360.599 33.8013 360.519 40.5533C360.439 47.1453 357.375 56.3614 343.223 62.8734C337.191 65.6494 329.007 68.0334 318.895 69.9694C299.959 73.5934 274.679 75.5933 247.703 75.5933Z" stroke="black" stroke-width="3.944" stroke-linecap="round" stroke-linejoin="round"/>
<path d="M343.766 38.0465C343.897 27.1739 298.179 17.808 241.651 17.1272C185.123 16.4464 139.192 24.7085 139.061 35.5811C138.93 46.4537 184.649 55.8196 241.177 56.5004C297.704 57.1812 343.635 48.9191 343.766 38.0465Z" fill="#6E6860"/>
<mask id="mask0_136_84016" style="mask-type:luminance" maskUnits="userSpaceOnUse" x="139" y="17" width="205" height="40">
<path d="M343.766 38.0465C343.897 27.1739 298.179 17.808 241.651 17.1272C185.123 16.4464 139.192 24.7085 139.061 35.5811C138.93 46.4537 184.649 55.8196 241.177 56.5004C297.704 57.1812 343.635 48.9191 343.766 38.0465Z" fill="white"/>
</mask>
<g mask="url(#mask0_136_84016)">
<path d="M342.592 43.5121C342.712 33.5231 296.985 24.8735 240.457 24.1927C183.929 23.5119 138.007 31.0577 137.887 41.0467C137.766 51.0357 183.494 59.6853 240.021 60.3661C296.549 61.0469 342.471 53.5011 342.592 43.5121Z" fill="#38332F"/>
<path d="M342.592 43.5121C342.712 33.5231 296.985 24.8735 240.457 24.1927C183.929 23.5119 138.007 31.0577 137.887 41.0467C137.766 51.0357 183.494 59.6853 240.021 60.3661C296.549 61.0469 342.471 53.5011 342.592 43.5121Z" stroke="black" stroke-width="3.944" stroke-linecap="round" stroke-linejoin="round"/>
<path d="M295.287 43.3933L274.511 33.1373L279.191 48.5533L295.287 43.3853V43.3933Z" fill="white" stroke="black" stroke-width="3.944" stroke-linecap="round" stroke-linejoin="round"/>
<path d="M261.647 114.241L307.391 100.361C310.007 99.5693 311.439 96.6333 310.583 93.8173L295.279 43.4013L279.191 48.1373L274.511 33.1453L240.199 43.5613C237.583 44.3533 236.151 47.2893 237.007 50.1053L255.359 110.577C256.215 113.401 259.031 115.041 261.647 114.249V114.241Z" fill="white" stroke="black" stroke-width="3.944" stroke-linecap="round" stroke-linejoin="round"/>
<path d="M285.887 56.4813L254.879 65.8893" stroke="black" stroke-width="3.944" stroke-linecap="round" stroke-linejoin="round"/>
<path d="M300.863 41.6974L280.087 31.4413L284.767 46.8574L300.863 41.6893V41.6974Z" fill="white" stroke="black" stroke-width="3.944" stroke-linecap="round" stroke-linejoin="round"/>
<path d="M267.223 112.553L312.967 98.6734C315.583 97.8814 317.015 94.9454 316.159 92.1294L300.855 41.7134L284.767 46.4494L280.087 31.4574L245.775 41.8734C243.159 42.6654 241.727 45.6014 242.583 48.4174L260.935 108.889C261.791 111.713 264.607 113.353 267.223 112.561V112.553Z" fill="white" stroke="black" stroke-width="3.944" stroke-linecap="round" stroke-linejoin="round"/>
<path d="M291.471 54.7852L260.455 64.1932" stroke="black" stroke-width="3.944" stroke-linecap="round" stroke-linejoin="round"/>
<path d="M305.935 40.1613L285.159 29.9053L289.839 45.3214L305.935 40.1533V40.1613Z" fill="white" stroke="black" stroke-width="3.944" stroke-linecap="round" stroke-linejoin="round"/>
<path d="M272.295 111.009L318.039 97.1293C320.655 96.3373 322.087 93.4013 321.231 90.5853L305.927 40.1693L289.839 44.9053L285.159 29.9133L250.847 40.3293C248.231 41.1213 246.799 44.0573 247.655 46.8733L266.007 107.345C266.863 110.169 269.679 111.809 272.295 111.017V111.009Z" fill="white" stroke="black" stroke-width="3.944" stroke-linecap="round" stroke-linejoin="round"/>
<path d="M296.543 53.2494L265.527 62.6574" stroke="black" stroke-width="3.944" stroke-linecap="round" stroke-linejoin="round"/>
<path d="M278.463 67.0414L269.103 45.8494L262.807 60.6813L278.471 67.0414H278.463Z" fill="white" stroke="black" stroke-width="3.944" stroke-linecap="round" stroke-linejoin="round"/>
<path d="M207.215 99.8333L251.223 118.521C253.743 119.593 256.719 118.257 257.871 115.545L278.463 67.0493L263.079 60.3693L269.103 45.8653L236.095 31.8493C233.575 30.7773 230.599 32.1134 229.447 34.8254L204.743 92.9933C203.591 95.7053 204.695 98.7773 207.215 99.8413V99.8333Z" fill="white" stroke="black" stroke-width="3.944" stroke-linecap="round" stroke-linejoin="round"/>
<path d="M262.863 71.0573L233.039 58.3933" stroke="black" stroke-width="3.944" stroke-linecap="round" stroke-linejoin="round"/>
<path d="M283.831 69.3214L274.471 48.1294L268.175 62.9614L283.839 69.3214H283.831Z" fill="white" stroke="black" stroke-width="3.944" stroke-linecap="round" stroke-linejoin="round"/>
<path d="M212.583 102.105L256.591 120.793C259.111 121.865 262.087 120.529 263.239 117.817L283.831 69.3214L268.447 62.6413L274.471 48.1373L241.463 34.1214C238.943 33.0494 235.967 34.3853 234.815 37.0973L210.111 95.2654C208.959 97.9774 210.063 101.049 212.583 102.113V102.105Z" fill="white" stroke="black" stroke-width="3.944" stroke-linecap="round" stroke-linejoin="round"/>
<path d="M288.711 71.3933L279.351 50.2014L273.055 65.0333L288.719 71.3933H288.711Z" fill="white" stroke="black" stroke-width="3.944" stroke-linecap="round" stroke-linejoin="round"/>
<path d="M217.463 104.177L261.471 122.865C263.991 123.937 266.967 122.601 268.119 119.889L288.711 71.3933L273.327 64.7133L279.351 50.2093L246.343 36.1933C243.823 35.1213 240.847 36.4574 239.695 39.1694L214.991 97.3373C213.839 100.049 214.943 103.121 217.463 104.185V104.177Z" fill="white" stroke="black" stroke-width="3.944" stroke-linecap="round" stroke-linejoin="round"/>
<path d="M212.935 44.5294L192.135 34.3294L196.855 49.7374L212.935 44.5294Z" fill="white" stroke="black" stroke-width="3.944" stroke-linecap="round" stroke-linejoin="round"/>
<path d="M179.487 115.465L225.199 101.465C227.815 100.665 229.239 97.7294 228.375 94.9134L212.943 44.5373L196.863 49.3214L192.143 34.3453L157.855 44.8493C155.239 45.6493 153.815 48.5853 154.679 51.4013L173.191 111.825C174.055 114.641 176.879 116.281 179.495 115.481L179.487 115.465Z" fill="white" stroke="black" stroke-width="3.944" stroke-linecap="round" stroke-linejoin="round"/>
<path d="M203.575 57.6418L172.591 67.1299" stroke="black" stroke-width="3.944" stroke-linecap="round" stroke-linejoin="round"/>
<path d="M218.511 42.8176L197.711 32.6176L202.431 48.0256L218.511 42.8176Z" fill="white" stroke="black" stroke-width="3.944" stroke-linecap="round" stroke-linejoin="round"/>
<path d="M185.063 113.762L230.775 99.7618C233.391 98.9618 234.815 96.0258 233.951 93.2098L218.519 42.8338L202.439 47.6178L197.719 32.6418L163.431 43.1458C160.815 43.9458 159.391 46.8818 160.255 49.6978L178.767 110.122C179.631 112.938 182.455 114.578 185.071 113.778L185.063 113.762Z" fill="white" stroke="black" stroke-width="3.944" stroke-linecap="round" stroke-linejoin="round"/>
<path d="M209.151 55.9294L178.167 65.4254" stroke="black" stroke-width="3.944" stroke-linecap="round" stroke-linejoin="round"/>
<path d="M223.575 41.2654L202.775 31.0654L207.495 46.4734L223.575 41.2654Z" fill="white" stroke="black" stroke-width="3.944" stroke-linecap="round" stroke-linejoin="round"/>
<path d="M190.127 112.209L235.839 98.2094C238.455 97.4094 239.879 94.4734 239.015 91.6574L223.583 41.2813L207.503 46.0654L202.783 31.0894L168.495 41.5934C165.879 42.3934 164.455 45.3294 165.319 48.1454L183.831 108.569C184.695 111.385 187.519 113.025 190.135 112.225L190.127 112.209Z" fill="white" stroke="black" stroke-width="3.944" stroke-linecap="round" stroke-linejoin="round"/>
<path d="M214.215 54.3774L183.231 63.8734" stroke="black" stroke-width="3.944" stroke-linecap="round" stroke-linejoin="round"/>
</g>
<path d="M343.766 38.0465C343.897 27.1739 298.179 17.808 241.651 17.1272C185.123 16.4464 139.192 24.7085 139.061 35.5811C138.93 46.4537 184.649 55.8196 241.177 56.5004C297.704 57.1812 343.635 48.9191 343.766 38.0465Z" stroke="black" stroke-width="3.944" stroke-linecap="round" stroke-linejoin="round"/>
<path d="M93.2228 197.785C90.3428 183.473 83.5028 172.537 81.7428 161.609C81.0628 157.417 80.4708 152.737 77.2148 150.009C73.8068 147.153 68.3188 147.713 64.9908 150.665C61.6628 153.617 60.3908 158.417 60.9588 162.833C61.5268 167.241 63.7268 171.297 66.4228 174.833C62.5588 177.529 57.2868 177.217 52.8628 175.617C48.4388 174.017 44.5028 171.313 40.2228 169.345C31.0548 165.129 30.6548 150.665 21.0708 153.825C18.2708 154.753 13.9668 154.641 13.2788 157.513C12.2788 161.657 15.7028 167.697 19.8708 168.609C26.5268 170.057 25.4388 181.385 32.2388 180.897C39.0388 180.409 36.2628 179.105 42.3108 183.385C40.5988 181.841 44.8308 181.665 43.0708 183.153C41.3108 184.641 42.0628 190.825 41.5508 193.073C39.0388 204.081 43.9908 216.409 53.4228 222.625C62.8548 228.841 78.2468 224.361 87.3748 217.705" fill="#D6C7B7"/>
<path d="M93.2228 197.785C90.3428 183.473 83.5028 172.537 81.7428 161.609C81.0628 157.417 80.4708 152.737 77.2148 150.009C73.8068 147.153 68.3188 147.713 64.9908 150.665C61.6628 153.617 60.3908 158.417 60.9588 162.833C61.5268 167.241 63.7268 171.297 66.4228 174.833C62.5588 177.529 57.2868 177.217 52.8628 175.617C48.4388 174.017 44.5028 171.313 40.2228 169.345C31.0548 165.129 30.6548 150.665 21.0708 153.825C18.2708 154.753 13.9668 154.641 13.2788 157.513C12.2788 161.657 15.7028 167.697 19.8708 168.609C26.5268 170.057 25.4388 181.385 32.2388 180.897C39.0388 180.409 36.2628 179.105 42.3108 183.385C40.5988 181.841 44.8308 181.665 43.0708 183.153C41.3108 184.641 42.0628 190.825 41.5508 193.073C39.0388 204.081 43.9908 216.409 53.4228 222.625C62.8548 228.841 78.2468 224.361 87.3748 217.705" stroke="black" stroke-width="3.944" stroke-linecap="round" stroke-linejoin="round"/>
<path d="M52.087 186.185C47.911 185.025 45.999 183.305 43.311 179.601C41.319 176.857 39.327 174.113 37.343 171.377C34.951 168.081 32.431 164.673 28.823 162.801C25.215 160.929 20.175 161.121 17.695 164.337C15.591 167.057 15.935 170.969 17.143 174.185C19.047 179.249 22.759 183.473 27.031 186.793C31.303 190.113 36.135 192.625 40.935 195.121" fill="#D6C7B7"/>
<path d="M52.087 186.185C47.911 185.025 45.999 183.305 43.311 179.601C41.319 176.857 39.327 174.113 37.343 171.377C34.951 168.081 32.431 164.673 28.823 162.801C25.215 160.929 20.175 161.121 17.695 164.337C15.591 167.057 15.935 170.969 17.143 174.185C19.047 179.249 22.759 183.473 27.031 186.793C31.303 190.113 36.135 192.625 40.935 195.121" stroke="black" stroke-width="3.944" stroke-linecap="round" stroke-linejoin="round"/>
<path d="M51.9429 194.073C47.6149 194.129 43.9989 190.729 41.6869 187.073C39.3749 183.417 37.7909 179.241 34.8469 176.081C33.3749 174.497 31.5349 173.185 29.4309 172.673C27.3269 172.161 24.9429 172.545 23.3269 173.977C20.9269 176.097 20.7669 179.793 21.3669 182.937C23.4949 194.049 32.3909 202.417 40.8069 209.969" fill="#D6C7B7"/>
<path d="M51.9429 194.073C47.6149 194.129 43.9989 190.729 41.6869 187.073C39.3749 183.417 37.7909 179.241 34.8469 176.081C33.3749 174.497 31.5349 173.185 29.4309 172.673C27.3269 172.161 24.9429 172.545 23.3269 173.977C20.9269 176.097 20.7669 179.793 21.3669 182.937C23.4949 194.049 32.3909 202.417 40.8069 209.969" stroke="black" stroke-width="3.944" stroke-linecap="round" stroke-linejoin="round"/>
<path d="M77.9908 195.793C73.6868 194.073 68.7428 194.001 64.3828 195.593L77.9908 195.793Z" fill="#D6C7B7"/>
<path d="M77.9908 195.793C73.6868 194.073 68.7428 194.001 64.3828 195.593" stroke="black" stroke-width="3.944" stroke-linecap="round" stroke-linejoin="round"/>
<path d="M42.231 187.841C42.823 189.417 43.087 191.113 42.999 192.801L42.231 187.841Z" fill="#D6C7B7"/>
<path d="M42.231 187.841C42.823 189.417 43.087 191.113 42.999 192.801" stroke="black" stroke-width="3.944" stroke-linecap="round" stroke-linejoin="round"/>
<path d="M46.063 199.905C46.655 201.481 46.919 203.177 46.831 204.865L46.063 199.905Z" fill="#D6C7B7"/>
<path d="M46.063 199.905C46.655 201.481 46.919 203.177 46.831 204.865" stroke="black" stroke-width="3.944" stroke-linecap="round" stroke-linejoin="round"/>
<path d="M41.791 177.641C42.383 179.217 42.647 180.913 42.559 182.601L41.791 177.641Z" fill="#D6C7B7"/>
<path d="M41.791 177.641C42.383 179.217 42.647 180.913 42.559 182.601" stroke="black" stroke-width="3.944" stroke-linecap="round" stroke-linejoin="round"/>
<path d="M251.495 270.169C252.095 294.897 254.095 326.217 253.559 350.953C253.055 373.729 253.415 381.553 251.831 400.337C286.015 407.273 321.663 406.937 355.719 399.345C355.991 382.769 346.447 366.401 331.879 358.489C317.319 350.569 293.863 358.729 280.103 367.969C277.687 339.737 280.031 298.065 277.615 269.833" fill="#D6C7B7"/>
<path d="M251.495 270.169C252.095 294.897 254.095 326.217 253.559 350.953C253.055 373.729 253.415 381.553 251.831 400.337C286.015 407.273 321.663 406.937 355.719 399.345C355.991 382.769 346.447 366.401 331.879 358.489C317.319 350.569 293.863 358.729 280.103 367.969C277.687 339.737 280.031 298.065 277.615 269.833" stroke="black" stroke-width="3.944" stroke-linecap="round" stroke-linejoin="round"/>
<path d="M224.287 177.577C225.583 163.505 226.863 149.177 223.911 135.361C223.127 131.697 222.031 128.041 220.007 124.881C217.991 121.721 214.959 119.081 211.327 118.161C205.335 116.641 198.919 120.169 195.415 125.265C191.911 130.361 190.767 136.697 190.191 142.857C189.071 154.833 189.791 166.969 192.303 178.729" fill="white"/>
<mask id="mask1_136_84016" style="mask-type:luminance" maskUnits="userSpaceOnUse" x="189" y="117" width="37" height="62">
<path d="M224.287 177.577C225.583 163.505 226.863 149.177 223.911 135.361C223.127 131.697 222.031 128.041 220.007 124.881C217.991 121.721 214.959 119.081 211.327 118.161C205.335 116.641 198.919 120.169 195.415 125.265C191.911 130.361 190.767 136.697 190.191 142.857C189.071 154.833 189.791 166.969 192.303 178.729" fill="white"/>
</mask>
<g mask="url(#mask1_136_84016)">
<path d="M193.711 188.226C199.95 188.226 205.007 175.138 205.007 158.994C205.007 142.849 199.95 129.762 193.711 129.762C187.472 129.762 182.415 142.849 182.415 158.994C182.415 175.138 187.472 188.226 193.711 188.226Z" fill="#221F20" stroke="black" stroke-width="3.944" stroke-linecap="round" stroke-linejoin="round"/>
</g>
<path d="M224.287 177.577C225.583 163.505 226.863 149.177 223.911 135.361C223.127 131.697 222.031 128.041 220.007 124.881C217.991 121.721 214.959 119.081 211.327 118.161C205.335 116.641 198.919 120.169 195.415 125.265C191.911 130.361 190.767 136.697 190.191 142.857C189.071 154.833 189.791 166.969 192.303 178.729" stroke="black" stroke-width="3.944" stroke-linecap="round" stroke-linejoin="round"/>
<path d="M279.927 179.817C281.223 165.745 282.503 151.417 279.551 137.601C278.767 133.937 277.671 130.281 275.647 127.121C273.631 123.961 270.599 121.321 266.967 120.401C260.975 118.881 254.559 122.409 251.055 127.505C247.551 132.601 246.407 138.937 245.831 145.097C244.711 157.073 245.431 169.209 247.943 180.969" fill="white"/>
<mask id="mask2_136_84016" style="mask-type:luminance" maskUnits="userSpaceOnUse" x="245" y="120" width="37" height="61">
<path d="M279.927 179.817C281.223 165.745 282.503 151.417 279.551 137.601C278.767 133.937 277.671 130.281 275.647 127.121C273.631 123.961 270.599 121.321 266.967 120.401C260.975 118.881 254.559 122.409 251.055 127.505C247.551 132.601 246.407 138.937 245.831 145.097C244.711 157.073 245.431 169.209 247.943 180.969" fill="white"/>
</mask>
<g mask="url(#mask2_136_84016)">
<path d="M249.351 190.465C255.589 190.465 260.647 177.377 260.647 161.233C260.647 145.089 255.589 132.001 249.351 132.001C243.112 132.001 238.055 145.089 238.055 161.233C238.055 177.377 243.112 190.465 249.351 190.465Z" fill="#221F20" stroke="black" stroke-width="3.944" stroke-linecap="round" stroke-linejoin="round"/>
</g>
<path d="M279.927 179.817C281.223 165.745 282.503 151.417 279.551 137.601C278.767 133.937 277.671 130.281 275.647 127.121C273.631 123.961 270.599 121.321 266.967 120.401C260.975 118.881 254.559 122.409 251.055 127.505C247.551 132.601 246.407 138.937 245.831 145.097C244.711 157.073 245.431 169.209 247.943 180.969" stroke="black" stroke-width="3.944" stroke-linecap="round" stroke-linejoin="round"/>
<path d="M243.279 172.745C244.895 174.081 246.111 175.977 246.343 178.057C246.743 181.585 244.215 184.969 240.999 186.465C237.783 187.961 234.055 187.913 230.551 187.353C227.719 186.905 224.663 185.945 223.191 183.489C221.719 181.033 222.311 177.897 223.783 175.505C227.815 168.953 237.487 167.937 243.271 172.737L243.279 172.745Z" fill="#D6C7B7" stroke="black" stroke-width="3.944" stroke-linecap="round" stroke-linejoin="round"/>
<path d="M194.759 202.977C190.727 200.313 187.591 195.929 187.471 191.105C187.311 184.753 192.591 179.105 198.735 177.481C204.879 175.857 211.519 177.641 216.999 180.865C222.255 183.961 227.135 188.489 233.223 188.801C236.775 188.985 240.247 187.649 243.303 185.841C246.359 184.033 249.103 181.745 252.055 179.761C257.343 176.193 263.663 173.553 269.983 174.409C278.503 175.561 285.999 184.657 285.255 193.225C284.487 202.057 282.647 204.345 275.815 207.241" fill="#D6C7B7"/>
<path d="M194.759 202.977C190.727 200.313 187.591 195.929 187.471 191.105C187.311 184.753 192.591 179.105 198.735 177.481C204.879 175.857 211.519 177.641 216.999 180.865C222.255 183.961 227.135 188.489 233.223 188.801C236.775 188.985 240.247 187.649 243.303 185.841C246.359 184.033 249.103 181.745 252.055 179.761C257.343 176.193 263.663 173.553 269.983 174.409C278.503 175.561 285.999 184.657 285.255 193.225C284.487 202.057 282.647 204.345 275.815 207.241" stroke="black" stroke-width="3.944" stroke-linecap="round" stroke-linejoin="round"/>
<path d="M210.991 219.921C216.343 227.537 224.367 232.721 233.559 231.257C242.087 229.897 249.335 228.169 255.143 221.777C258.343 218.257 262.463 209.793 264.551 205.521C266.639 201.249 267.143 195.073 265.927 190.473C263.943 192.705 257.031 194.073 254.055 194.329C242.183 195.361 236.927 195.801 223.487 195.417C220.583 195.337 216.383 194.665 213.495 194.329C211.479 194.097 204.079 191.809 204.079 191.809C204.079 191.809 204.695 201.217 205.079 204.105C205.831 209.737 207.711 215.257 210.991 219.921Z" fill="#605B54"/>
<mask id="mask3_136_84016" style="mask-type:luminance" maskUnits="userSpaceOnUse" x="204" y="190" width="63" height="42">
<path d="M210.991 219.921C216.343 227.537 224.367 232.721 233.559 231.257C242.087 229.897 249.335 228.169 255.143 221.777C258.343 218.257 262.463 209.793 264.551 205.521C266.639 201.249 267.143 195.073 265.927 190.473C263.943 192.705 257.031 194.073 254.055 194.329C242.183 195.361 236.927 195.801 223.487 195.417C220.583 195.337 216.383 194.665 213.495 194.329C211.479 194.097 204.079 191.809 204.079 191.809C204.079 191.809 204.695 201.217 205.079 204.105C205.831 209.737 207.711 215.257 210.991 219.921Z" fill="white"/>
</mask>
<g mask="url(#mask3_136_84016)">
<path d="M206.311 220.009C208.183 214.137 212.959 209.265 218.791 207.281C224.623 205.297 231.375 206.241 236.447 209.753C243.111 203.753 254.143 203.393 261.183 208.945C265.031 211.977 265.743 218.073 263.647 222.505C261.551 226.937 257.303 229.961 252.927 232.185C246.511 235.449 239.447 237.401 232.279 238.113C226.079 238.729 219.535 238.353 214.087 235.313C208.639 232.273 204.415 225.945 206.311 220.009Z" fill="#E58EA5" stroke="black" stroke-width="3.944" stroke-linecap="round" stroke-linejoin="round"/>
</g>
<path d="M210.991 219.921C216.343 227.537 224.367 232.721 233.559 231.257C242.087 229.897 249.335 228.169 255.143 221.777C258.343 218.257 262.463 209.793 264.551 205.521C266.639 201.249 267.143 195.073 265.927 190.473C263.943 192.705 257.031 194.073 254.055 194.329C242.183 195.361 236.927 195.801 223.487 195.417C220.583 195.337 216.383 194.665 213.495 194.329C211.479 194.097 204.079 191.809 204.079 191.809C204.079 191.809 204.695 201.217 205.079 204.105C205.831 209.737 207.711 215.257 210.991 219.921Z" stroke="black" stroke-width="3.944" stroke-linecap="round" stroke-linejoin="round"/>
<path d="M194.844 173.884C196.628 173.823 198.014 172.02 197.94 169.856C197.866 167.692 196.36 165.988 194.576 166.049C192.792 166.11 191.406 167.913 191.48 170.077C191.554 172.241 193.06 173.945 194.844 173.884Z" fill="white"/>
<path d="M197.195 165.231C198.215 165.196 199.007 164.169 198.965 162.937C198.923 161.705 198.062 160.735 197.042 160.77C196.022 160.804 195.229 161.831 195.271 163.063C195.314 164.295 196.175 165.266 197.195 165.231Z" fill="white"/>
<path d="M250.756 173.668C252.54 173.607 253.926 171.803 253.852 169.64C253.778 167.476 252.272 165.772 250.488 165.833C248.704 165.894 247.318 167.697 247.392 169.861C247.466 172.025 248.972 173.729 250.756 173.668Z" fill="white"/>
<path d="M253.098 165.015C254.118 164.98 254.911 163.953 254.869 162.721C254.827 161.489 253.966 160.519 252.946 160.554C251.926 160.589 251.133 161.616 251.175 162.847C251.217 164.079 252.078 165.05 253.098 165.015Z" fill="white"/>
<path d="M249.959 241.865C242.599 247.937 231.743 249.425 223.023 245.545L249.959 241.865Z" fill="#D6C7B7"/>
<path d="M249.959 241.865C242.599 247.937 231.743 249.425 223.023 245.545" stroke="black" stroke-width="3.944" stroke-linecap="round" stroke-linejoin="round"/>
<path d="M262.591 185.801C264.423 188.817 267.367 191.145 270.735 192.217L262.591 185.801Z" fill="white"/>
<path d="M262.591 185.801C264.423 188.817 267.367 191.145 270.735 192.217" stroke="black" stroke-width="3.944" stroke-linecap="round" stroke-linejoin="round"/>
<path d="M205.407 187.617C203.975 190.169 201.775 192.281 199.167 193.609L205.407 187.617Z" fill="white"/>
<path d="M205.407 187.617C203.975 190.169 201.775 192.281 199.167 193.609" stroke="black" stroke-width="3.944" stroke-linecap="round" stroke-linejoin="round"/>
<path d="M187.007 114.705C192.527 105.601 205.335 101.801 214.927 106.409L187.007 114.705Z" fill="#D6C7B7"/>
<path d="M187.007 114.705C192.527 105.601 205.335 101.801 214.927 106.409" stroke="black" stroke-width="3.944" stroke-linecap="round" stroke-linejoin="round"/>
<path d="M246.135 113.889C249.327 109.049 254.455 105.529 260.119 104.281C265.783 103.033 271.919 104.097 276.839 107.161" fill="#D6C7B7"/>
<path d="M246.135 113.889C249.327 109.049 254.455 105.529 260.119 104.281C265.783 103.033 271.919 104.097 276.839 107.161" stroke="black" stroke-width="3.944" stroke-linecap="round" stroke-linejoin="round"/>
<path d="M44.6653 123.031L18.9818 136.567C16.0073 138.135 14.8668 141.817 16.4344 144.791L46.3404 201.537C47.908 204.512 51.5901 205.652 54.5646 204.085L80.2481 190.549C83.2227 188.981 84.3632 185.299 82.7956 182.325L52.8896 125.579C51.3219 122.604 47.6398 121.464 44.6653 123.031Z" fill="#6B645D" stroke="black" stroke-width="2.4" stroke-linecap="round" stroke-linejoin="round"/>
<path d="M59.879 211.281C59.207 207.921 56.455 205.353 53.519 203.593C50.583 201.833 47.319 200.609 44.559 198.585C41.711 196.497 39.455 193.593 36.351 191.913C33.239 190.233 28.639 190.353 26.927 193.441C25.279 196.409 27.207 200.057 29.295 202.729C36.519 211.953 48.599 221.489 59.263 225.049" fill="#D6C7B7"/>
<path d="M59.879 211.281C59.207 207.921 56.455 205.353 53.519 203.593C50.583 201.833 47.319 200.609 44.559 198.585C41.711 196.497 39.455 193.593 36.351 191.913C33.239 190.233 28.639 190.353 26.927 193.441C25.279 196.409 27.207 200.057 29.295 202.729C36.519 211.953 48.599 221.489 59.263 225.049" stroke="black" stroke-width="3.944" stroke-linecap="round" stroke-linejoin="round"/>
<path d="M318.919 188.913C333.039 208.161 335.103 242.113 337.783 265.833C328.775 271.193 329.175 271.025 325.327 281.801C322.815 288.825 326.215 296.697 318.639 306.105C315.687 309.777 316.135 315.025 320.847 315.097C325.559 315.169 334.223 309.153 337.991 306.321C335.375 314.425 339.031 312.089 336.423 320.193C335.887 321.849 335.359 323.681 336.047 325.273C336.735 326.889 338.543 327.809 340.303 327.937C342.063 328.065 343.791 327.529 345.463 326.977C350.639 325.257 349.439 333.681 354.503 331.665C359.471 329.689 364.567 327.625 368.471 323.961C375.231 317.617 377.167 307.465 376.031 298.265C374.399 285.121 367.023 272.785 356.207 265.129C356.055 234.849 347.503 204.633 331.815 178.737" fill="#D6C7B7"/>
<path d="M318.919 188.913C333.039 208.161 335.103 242.113 337.783 265.833C328.775 271.193 329.175 271.025 325.327 281.801C322.815 288.825 326.215 296.697 318.639 306.105C315.687 309.777 316.135 315.025 320.847 315.097C325.559 315.169 334.223 309.153 337.991 306.321C335.375 314.425 339.031 312.089 336.423 320.193C335.887 321.849 335.359 323.681 336.047 325.273C336.735 326.889 338.543 327.809 340.303 327.937C342.063 328.065 343.791 327.529 345.463 326.977C350.639 325.257 349.439 333.681 354.503 331.665C359.471 329.689 364.567 327.625 368.471 323.961C375.231 317.617 377.167 307.465 376.031 298.265C374.399 285.121 367.023 272.785 356.207 265.129C356.055 234.849 347.503 204.633 331.815 178.737" stroke="black" stroke-width="3.944" stroke-linecap="round" stroke-linejoin="round"/>
<path d="M375.231 311.737C374.655 317.769 372.735 323.665 369.663 328.889C368.607 330.681 367.335 332.473 365.471 333.409C363.607 334.345 361.023 334.145 359.807 332.449C359.015 331.345 358.951 329.849 359.279 328.529C359.599 327.209 360.263 326.001 360.823 324.761C362.175 321.777 363.271 311.137 363.479 307.865" fill="#D6C7B7"/>
<path d="M375.231 311.737C374.655 317.769 372.735 323.665 369.663 328.889C368.607 330.681 367.335 332.473 365.471 333.409C363.607 334.345 361.023 334.145 359.807 332.449C359.015 331.345 358.951 329.849 359.279 328.529C359.599 327.209 360.263 326.001 360.823 324.761C362.175 321.777 363.271 311.137 363.479 307.865" stroke="black" stroke-width="3.944" stroke-linecap="round" stroke-linejoin="round"/>
<path d="M369.127 313.969C368.551 320.001 364.127 327.457 361.047 332.681C359.991 334.473 358.719 336.265 356.855 337.201C354.991 338.137 352.407 337.937 351.191 336.241C350.399 335.137 350.335 333.641 350.663 332.321C350.991 331.001 351.647 329.793 352.207 328.553C353.559 325.569 354.367 322.329 354.575 319.057" fill="#D6C7B7"/>
<path d="M369.127 313.969C368.551 320.001 364.127 327.457 361.047 332.681C359.991 334.473 358.719 336.265 356.855 337.201C354.991 338.137 352.407 337.937 351.191 336.241C350.399 335.137 350.335 333.641 350.663 332.321C350.991 331.001 351.647 329.793 352.207 328.553C353.559 325.569 354.367 322.329 354.575 319.057" stroke="black" stroke-width="3.944" stroke-linecap="round" stroke-linejoin="round"/>
<path d="M362.663 315.769C361.607 322.481 357.863 329.921 353.511 335.353C352.015 337.225 350.279 339.049 348.007 339.809C345.735 340.569 342.831 339.913 341.727 337.793C341.007 336.409 341.183 334.697 341.767 333.249C342.351 331.801 343.295 330.529 344.135 329.217C346.167 326.041 347.607 322.497 348.383 318.809" fill="#D6C7B7"/>
<path d="M362.663 315.769C361.607 322.481 357.863 329.921 353.511 335.353C352.015 337.225 350.279 339.049 348.007 339.809C345.735 340.569 342.831 339.913 341.727 337.793C341.007 336.409 341.183 334.697 341.767 333.249C342.351 331.801 343.295 330.529 344.135 329.217C346.167 326.041 347.607 322.497 348.383 318.809" stroke="black" stroke-width="3.944" stroke-linecap="round" stroke-linejoin="round"/>
<path d="M354.255 307.801C355.023 317.537 349.959 332.425 342.615 338.873C340.887 340.385 338.935 341.737 336.703 342.257C334.471 342.777 331.903 342.321 330.327 340.649C328.511 338.729 328.415 335.697 329.239 333.185C330.063 330.673 331.647 328.497 332.927 326.185C337.167 318.529 337.999 309.065 335.167 300.785" fill="#D6C7B7"/>
<path d="M354.255 307.801C355.023 317.537 349.959 332.425 342.615 338.873C340.887 340.385 338.935 341.737 336.703 342.257C334.471 342.777 331.903 342.321 330.327 340.649C328.511 338.729 328.415 335.697 329.239 333.185C330.063 330.673 331.647 328.497 332.927 326.185C337.167 318.529 337.999 309.065 335.167 300.785" stroke="black" stroke-width="3.944" stroke-linecap="round" stroke-linejoin="round"/>
<path d="M349.239 283.625L352.151 289.945L349.239 283.625Z" fill="#D6C7B7"/>
<path d="M349.239 283.625L352.151 289.945" stroke="black" stroke-width="3.944" stroke-linecap="round" stroke-linejoin="round"/>
<path d="M357.191 281.689C358.623 284.617 360.047 287.537 361.479 290.465L357.191 281.689Z" fill="#D6C7B7"/>
<path d="M357.191 281.689C358.623 284.617 360.047 287.537 361.479 290.465" stroke="black" stroke-width="3.944" stroke-linecap="round" stroke-linejoin="round"/>
<path d="M245.183 283.169C247.191 282.449 249.319 282.289 251.295 281.537C251.455 280.033 251.743 277.513 251.375 276.025C250.911 274.129 252.183 267.657 250.999 271.233C250.495 272.769 248.535 278.345 247.743 279.545C247.207 280.361 245.911 282.953 245.175 283.153L245.183 283.169Z" fill="#221F20" stroke="black" stroke-width="3.944" stroke-linecap="round" stroke-linejoin="round"/>
<path d="M232.511 215.761C233.663 212.905 235.543 210.353 237.919 208.393L232.511 215.761Z" fill="#221F20"/>
<path d="M232.511 215.761C233.663 212.905 235.543 210.353 237.919 208.393" stroke="black" stroke-width="3.944" stroke-linecap="round" stroke-linejoin="round"/>
<path d="M327.855 233.073C327.743 228.297 330.479 217.985 329.455 213.313C329.207 212.169 328.679 211.105 328.159 210.057C326.791 207.281 325.871 200.817 323.431 196.297C325.711 207.241 327.423 223.513 327.855 233.073Z" fill="white" stroke="black" stroke-width="3.944" stroke-linecap="round" stroke-linejoin="round"/>
<path d="M45.1232 128.207L22.9854 139.874C21.3868 140.716 20.7738 142.695 21.6163 144.294L49.6798 197.544C50.5223 199.142 52.5012 199.755 54.0999 198.913L76.2377 187.246C77.8363 186.403 78.4493 184.424 77.6068 182.826L49.5433 129.576C48.7008 127.977 46.7219 127.364 45.1232 128.207Z" fill="#BAE0EF" stroke="black" stroke-width="2.4" stroke-linecap="round" stroke-linejoin="round"/>
<path d="M41.7988 166.385C40.9028 162.481 42.7508 158.009 46.2708 156.153C49.7188 154.329 54.0468 155.633 56.9348 158.409" stroke="black" stroke-width="2.4" stroke-linecap="round" stroke-linejoin="round"/>
<path d="M44.879 166.489C44.263 163.801 45.535 160.729 47.951 159.457C50.319 158.209 53.295 159.105 55.279 161.009" stroke="black" stroke-width="2.4" stroke-linecap="round" stroke-linejoin="round"/>
<path d="M47.4629 166.865C47.0709 165.145 47.8789 163.177 49.4309 162.353C50.9509 161.553 52.8549 162.129 54.1269 163.345" stroke="black" stroke-width="2.4" stroke-linecap="round" stroke-linejoin="round"/>
<path d="M52.2282 167.767C52.8145 167.458 53.0359 166.726 52.7228 166.132C52.4097 165.538 51.6806 165.307 51.0943 165.616C50.508 165.925 50.2865 166.657 50.5996 167.251C50.9127 167.845 51.6419 168.076 52.2282 167.767Z" stroke="black" stroke-width="2.4" stroke-linecap="round" stroke-linejoin="round"/>
<path d="M40.0309 132.881C31.2789 134.513 22.9669 146.633 24.5989 155.393C22.9669 146.641 10.8469 138.329 2.08691 139.961C10.8389 138.329 19.1509 126.209 17.5189 117.449C19.1509 126.201 31.2709 134.513 40.0309 132.881Z" fill="white"/>
<path d="M40.0309 132.881C31.2789 134.513 22.9669 146.633 24.5989 155.393C22.9669 146.641 10.8469 138.329 2.08691 139.961C10.8389 138.329 19.1509 126.209 17.5189 117.449C19.1509 126.201 31.2709 134.513 40.0309 132.881Z" stroke="black" stroke-width="3.944" stroke-linecap="round" stroke-linejoin="round"/>
<path d="M84.1269 52.7613C75.3749 54.3933 67.0629 66.5133 68.6949 75.2733C67.0629 66.5213 54.9429 58.2093 46.1829 59.8413C54.9349 58.2093 63.2469 46.0893 61.6149 37.3293C63.2469 46.0813 75.3669 54.3933 84.1269 52.7613Z" fill="white"/>
<path d="M84.1269 52.7613C75.3749 54.3933 67.0629 66.5133 68.6949 75.2733C67.0629 66.5213 54.9429 58.2093 46.1829 59.8413C54.9349 58.2093 63.2469 46.0893 61.6149 37.3293C63.2469 46.0813 75.3669 54.3933 84.1269 52.7613Z" stroke="black" stroke-width="3.944" stroke-linecap="round" stroke-linejoin="round"/>
<path d="M415.047 86.4654C406.295 88.0974 397.983 100.217 399.615 108.977C397.983 100.225 385.863 91.9133 377.103 93.5453C385.855 91.9133 394.167 79.7933 392.535 71.0333C394.167 79.7853 406.287 88.0974 415.047 86.4654Z" fill="white"/>
<path d="M415.047 86.4654C406.295 88.0974 397.983 100.217 399.615 108.977C397.983 100.225 385.863 91.9133 377.103 93.5453C385.855 91.9133 394.167 79.7933 392.535 71.0333C394.167 79.7853 406.287 88.0974 415.047 86.4654Z" stroke="black" stroke-width="3.944" stroke-linecap="round" stroke-linejoin="round"/>
</svg>
