<svg width="403" height="465" viewBox="0 0 403 465" fill="none" xmlns="http://www.w3.org/2000/svg">
<path d="M180.844 332.758C181.444 357.486 183.444 382.542 182.908 407.27C182.404 430.046 182.764 437.87 181.18 456.654C215.364 463.59 251.013 463.254 285.069 455.662C285.341 439.086 275.796 422.718 261.228 414.806C246.66 406.894 223.212 415.046 209.452 424.286C207.036 396.054 209.381 360.646 206.965 332.414" fill="#D6C7B7"/>
<path d="M180.844 332.758C181.444 357.486 183.444 382.542 182.908 407.27C182.404 430.046 182.764 437.87 181.18 456.654C215.364 463.59 251.013 463.254 285.069 455.662C285.341 439.086 275.796 422.718 261.228 414.806C246.66 406.894 223.212 415.046 209.452 424.286C207.036 396.054 209.381 360.646 206.965 332.414" stroke="black" stroke-width="3.944" stroke-linecap="round" stroke-linejoin="round"/>
<path d="M158.78 333.814C158.18 358.542 156.18 383.598 156.716 408.326C157.22 431.102 156.86 438.926 158.444 457.71C124.26 464.646 88.6124 464.31 54.5564 456.718C54.2844 440.142 63.8284 423.774 78.3964 415.862C92.9564 407.942 116.412 416.102 130.172 425.342C132.588 397.11 130.244 361.702 132.66 333.47" fill="#D6C7B7"/>
<path d="M158.78 333.814C158.18 358.542 156.18 383.598 156.716 408.326C157.22 431.102 156.86 438.926 158.444 457.71C124.26 464.646 88.6124 464.31 54.5564 456.718C54.2844 440.142 63.8284 423.774 78.3964 415.862C92.9564 407.942 116.412 416.102 130.172 425.342C132.588 397.11 130.244 361.702 132.66 333.47" stroke="black" stroke-width="3.944" stroke-linecap="round" stroke-linejoin="round"/>
<path d="M133.773 342.43C136.861 339.406 141.269 337.782 145.573 338.086C149.877 338.39 154.021 340.614 156.653 344.038C156.677 340.534 156.701 337.038 156.725 333.534C151.293 333.454 145.853 333.55 140.429 333.798C138.549 333.886 135.541 333.406 134.437 334.886C133.261 336.462 135.165 341.07 133.781 342.422L133.773 342.43Z" fill="black" stroke="black" stroke-width="3.944" stroke-linecap="round" stroke-linejoin="round"/>
<path d="M182.5 342.166C185.588 339.142 189.996 337.518 194.3 337.822C198.604 338.126 202.748 340.35 205.38 343.774C205.404 340.27 205.429 336.774 205.453 333.27C200.021 333.19 194.581 333.286 189.157 333.534C187.277 333.622 184.269 333.142 183.165 334.622C181.989 336.198 183.892 340.806 182.508 342.158L182.5 342.166Z" fill="black" stroke="black" stroke-width="3.944" stroke-linecap="round" stroke-linejoin="round"/>
<path d="M57.2124 107.854L86.6685 329.558C87.3325 334.542 91.5804 338.27 96.6124 338.27L163.38 338.286H176.98L243.748 338.302C248.78 338.302 253.036 334.582 253.7 329.59L283.252 107.902" fill="#D6C7B7"/>
<path d="M57.2124 107.854L86.6685 329.558C87.3325 334.542 91.5804 338.27 96.6124 338.27L163.38 338.286H176.98L243.748 338.302C248.78 338.302 253.036 334.582 253.7 329.59L283.252 107.902" stroke="black" stroke-width="3.944" stroke-linecap="round" stroke-linejoin="round"/>
<path d="M170.517 137.342C142.141 137.342 115.317 135.174 94.9725 131.262C84.2765 129.198 75.6206 126.694 69.2686 123.798C54.5006 117.078 51.4045 107.622 51.4045 100.87C51.4045 94.1261 54.5086 84.6701 69.2606 77.9581C75.6126 75.0701 84.2526 72.5581 94.9406 70.5101C115.261 66.6061 142.061 64.4541 170.405 64.4541H170.533C198.901 64.4541 225.733 66.6221 246.077 70.5341C256.773 72.5981 265.429 75.1021 271.781 77.9981C286.549 84.7181 289.645 94.1741 289.645 100.926C289.645 107.67 286.541 117.126 271.789 123.838C265.437 126.726 256.797 129.238 246.101 131.294C225.781 135.198 198.981 137.35 170.637 137.35H170.509L170.517 137.342Z" fill="#D6C7B7"/>
<path d="M170.517 137.342C142.141 137.342 115.317 135.174 94.9725 131.262C84.2765 129.198 75.6206 126.694 69.2686 123.798C54.5006 117.078 51.4045 107.622 51.4045 100.87C51.4045 94.1261 54.5086 84.6701 69.2606 77.9581C75.6126 75.0701 84.2526 72.5581 94.9406 70.5101C115.261 66.6061 142.061 64.4541 170.405 64.4541H170.533C198.901 64.4541 225.733 66.6221 246.077 70.5341C256.773 72.5981 265.429 75.1021 271.781 77.9981C286.549 84.7181 289.645 94.1741 289.645 100.926C289.645 107.67 286.541 117.126 271.789 123.838C265.437 126.726 256.797 129.238 246.101 131.294C225.781 135.198 198.981 137.35 170.637 137.35H170.509L170.517 137.342Z" stroke="black" stroke-width="3.944" stroke-linecap="round" stroke-linejoin="round"/>
<path d="M170.525 118.35C227.056 118.35 272.884 109.535 272.884 98.6621C272.884 87.7887 227.056 78.9741 170.525 78.9741C113.993 78.9741 68.1646 87.7887 68.1646 98.6621C68.1646 109.535 113.993 118.35 170.525 118.35Z" fill="#6E6860"/>
<mask id="mask0_136_84020" style="mask-type:luminance" maskUnits="userSpaceOnUse" x="68" y="78" width="205" height="41">
<path d="M170.525 118.35C227.056 118.35 272.884 109.535 272.884 98.6621C272.884 87.7887 227.056 78.9741 170.525 78.9741C113.993 78.9741 68.1646 87.7887 68.1646 98.6621C68.1646 109.535 113.993 118.35 170.525 118.35Z" fill="white"/>
</mask>
<g mask="url(#mask0_136_84020)">
<path d="M169.421 122.222C225.952 122.222 271.78 114.124 271.78 104.134C271.78 94.1444 225.952 86.0461 169.421 86.0461C112.889 86.0461 67.0605 94.1444 67.0605 104.134C67.0605 114.124 112.889 122.222 169.421 122.222Z" fill="#38332F"/>
<path d="M169.421 122.222C225.952 122.222 271.78 114.124 271.78 104.134C271.78 94.1444 225.952 86.0461 169.421 86.0461C112.889 86.0461 67.0605 94.1444 67.0605 104.134C67.0605 114.124 112.889 122.222 169.421 122.222Z" stroke="black" stroke-width="3.944" stroke-linecap="round" stroke-linejoin="round"/>
<path d="M224.461 104.542L203.565 94.5344L208.429 109.894L224.461 104.534V104.542Z" fill="white" stroke="black" stroke-width="3.944" stroke-linecap="round" stroke-linejoin="round"/>
<path d="M191.669 175.782L237.245 161.358C239.853 160.534 241.245 157.582 240.357 154.774L224.461 104.542L208.429 109.47L203.565 94.5344L169.373 105.358C166.765 106.182 165.373 109.134 166.261 111.942L185.333 172.19C186.221 174.998 189.061 176.614 191.669 175.782Z" fill="white" stroke="black" stroke-width="3.944" stroke-linecap="round" stroke-linejoin="round"/>
<path d="M215.22 117.734L184.324 127.518" stroke="black" stroke-width="3.944" stroke-linecap="round" stroke-linejoin="round"/>
<path d="M230.013 102.782L209.117 92.7744L213.981 108.134L230.013 102.774V102.782Z" fill="white" stroke="black" stroke-width="3.944" stroke-linecap="round" stroke-linejoin="round"/>
<path d="M197.221 174.022L242.797 159.598C245.405 158.774 246.797 155.822 245.909 153.014L230.013 102.782L213.981 107.71L209.117 92.7744L174.925 103.598C172.317 104.422 170.925 107.374 171.813 110.182L190.885 170.43C191.773 173.238 194.613 174.854 197.221 174.022Z" fill="white" stroke="black" stroke-width="3.944" stroke-linecap="round" stroke-linejoin="round"/>
<path d="M220.781 115.974L189.885 125.758" stroke="black" stroke-width="3.944" stroke-linecap="round" stroke-linejoin="round"/>
<path d="M235.069 101.182L214.173 91.1743L219.037 106.534L235.069 101.174V101.182Z" fill="white" stroke="black" stroke-width="3.944" stroke-linecap="round" stroke-linejoin="round"/>
<path d="M202.277 172.422L247.853 157.998C250.461 157.174 251.853 154.222 250.965 151.414L235.069 101.182L219.037 106.11L214.173 91.1743L179.981 101.998C177.373 102.822 175.981 105.774 176.869 108.582L195.941 168.83C196.829 171.638 199.669 173.254 202.277 172.422Z" fill="white" stroke="black" stroke-width="3.944" stroke-linecap="round" stroke-linejoin="round"/>
<path d="M225.829 114.374L194.933 124.158" stroke="black" stroke-width="3.944" stroke-linecap="round" stroke-linejoin="round"/>
<path d="M207.916 128.382L198.3 107.31L192.18 122.214L207.916 128.382Z" fill="white" stroke="black" stroke-width="3.944" stroke-linecap="round" stroke-linejoin="round"/>
<path d="M137.069 162.022L181.293 180.182C183.821 181.222 186.781 179.854 187.901 177.126L207.917 128.382L192.453 121.886L198.301 107.31L165.125 93.6864C162.597 92.6464 159.637 94.0144 158.517 96.7424L134.509 155.198C133.389 157.926 134.533 160.982 137.061 162.022H137.069Z" fill="white" stroke="black" stroke-width="3.944" stroke-linecap="round" stroke-linejoin="round"/>
<path d="M192.365 132.59L162.388 120.278" stroke="black" stroke-width="3.944" stroke-linecap="round" stroke-linejoin="round"/>
<path d="M213.309 130.598L203.693 109.526L197.573 124.43L213.309 130.598Z" fill="white" stroke="black" stroke-width="3.944" stroke-linecap="round" stroke-linejoin="round"/>
<path d="M142.46 164.238L186.684 182.398C189.212 183.438 192.172 182.07 193.292 179.342L213.308 130.598L197.844 124.102L203.692 109.526L170.516 95.9025C167.988 94.8625 165.028 96.2305 163.908 98.9585L139.9 157.414C138.78 160.142 139.924 163.198 142.452 164.238H142.46Z" fill="white" stroke="black" stroke-width="3.944" stroke-linecap="round" stroke-linejoin="round"/>
<path d="M218.213 132.614L208.597 111.542L202.477 126.446L218.213 132.614Z" fill="white" stroke="black" stroke-width="3.944" stroke-linecap="round" stroke-linejoin="round"/>
<path d="M147.364 166.247L191.588 184.406C194.116 185.446 197.076 184.078 198.196 181.35L218.212 132.607L202.748 126.111L208.596 111.535L175.42 97.9105C172.892 96.8705 169.932 98.2385 168.812 100.967L144.804 159.423C143.684 162.151 144.828 165.207 147.356 166.247H147.364Z" fill="white" stroke="black" stroke-width="3.944" stroke-linecap="round" stroke-linejoin="round"/>
<path d="M142.125 106.654L121.205 96.7024L126.109 112.054L142.125 106.654Z" fill="white" stroke="black" stroke-width="3.944" stroke-linecap="round" stroke-linejoin="round"/>
<path d="M109.525 177.982L155.069 163.438C157.677 162.606 159.061 159.654 158.165 156.846L142.133 106.654L126.117 111.63L121.213 96.7104L87.0528 107.622C84.4448 108.454 83.0608 111.406 83.9568 114.214L103.189 174.414C104.085 177.222 106.925 178.822 109.533 177.99L109.525 177.982Z" fill="white" stroke="black" stroke-width="3.944" stroke-linecap="round" stroke-linejoin="round"/>
<path d="M132.925 119.878L102.053 129.734" stroke="black" stroke-width="3.944" stroke-linecap="round" stroke-linejoin="round"/>
<path d="M147.685 104.878L126.765 94.9263L131.669 110.278L147.685 104.878Z" fill="white" stroke="black" stroke-width="3.944" stroke-linecap="round" stroke-linejoin="round"/>
<path d="M115.077 176.214L160.621 161.67C163.229 160.838 164.613 157.886 163.717 155.078L147.685 104.886L131.669 109.862L126.765 94.9424L92.6048 105.854C89.9968 106.686 88.6128 109.638 89.5088 112.446L108.741 172.646C109.637 175.454 112.477 177.054 115.085 176.222L115.077 176.214Z" fill="white" stroke="black" stroke-width="3.944" stroke-linecap="round" stroke-linejoin="round"/>
<path d="M138.477 118.102L107.613 127.958" stroke="black" stroke-width="3.944" stroke-linecap="round" stroke-linejoin="round"/>
<path d="M152.733 103.27L131.813 93.3184L136.717 108.67L152.733 103.27Z" fill="white" stroke="black" stroke-width="3.944" stroke-linecap="round" stroke-linejoin="round"/>
<path d="M120.125 174.598L165.669 160.054C168.277 159.222 169.661 156.27 168.765 153.462L152.733 103.27L136.717 108.246L131.813 93.3264L97.6529 104.238C95.0449 105.07 93.6609 108.022 94.5569 110.83L113.789 171.03C114.685 173.838 117.525 175.438 120.133 174.606L120.125 174.598Z" fill="white" stroke="black" stroke-width="3.944" stroke-linecap="round" stroke-linejoin="round"/>
<path d="M143.525 116.486L112.661 126.35" stroke="black" stroke-width="3.944" stroke-linecap="round" stroke-linejoin="round"/>
</g>
<path d="M170.525 118.35C227.056 118.35 272.884 109.535 272.884 98.6621C272.884 87.7887 227.056 78.9741 170.525 78.9741C113.993 78.9741 68.1646 87.7887 68.1646 98.6621C68.1646 109.535 113.993 118.35 170.525 118.35Z" stroke="black" stroke-width="3.944" stroke-linecap="round" stroke-linejoin="round"/>
<path d="M123.149 254.59C120.037 256.654 118.477 260.678 118.997 264.374C119.517 268.078 121.933 271.374 125.101 273.358C128.269 275.342 132.117 276.078 135.853 275.838" fill="#D6C7B7"/>
<path d="M123.149 254.59C120.037 256.654 118.477 260.678 118.997 264.374C119.517 268.078 121.933 271.374 125.101 273.358C128.269 275.342 132.117 276.078 135.853 275.838" stroke="black" stroke-width="3.944" stroke-linecap="round" stroke-linejoin="round"/>
<path d="M218.476 254.558C222.9 258.158 224.533 264.798 222.269 270.038C220.005 275.27 214.052 278.646 208.396 277.886" fill="#D6C7B7"/>
<path d="M218.476 254.558C222.9 258.158 224.533 264.798 222.269 270.038C220.005 275.27 214.052 278.646 208.396 277.886" stroke="black" stroke-width="3.944" stroke-linecap="round" stroke-linejoin="round"/>
<path d="M160.628 271.534C166.868 269.766 173.596 269.75 179.844 271.478L160.628 271.534Z" fill="white"/>
<path d="M160.628 271.534C166.868 269.766 173.596 269.75 179.844 271.478" stroke="black" stroke-width="3.944" stroke-linecap="round" stroke-linejoin="round"/>
<path d="M134.269 263.582C144.149 261.494 157.109 260.31 170.149 260.286C183.189 260.262 196.213 261.414 206.205 263.462" stroke="black" stroke-width="3.944" stroke-linecap="round" stroke-linejoin="round"/>
<path d="M107.573 152.294C110.605 147.806 115.237 144.43 120.437 142.91C125.637 141.39 131.357 141.742 136.325 143.886" fill="#D6C7B7"/>
<path d="M107.573 152.294C110.605 147.806 115.237 144.43 120.437 142.91C125.637 141.39 131.357 141.742 136.325 143.886" stroke="black" stroke-width="3.944" stroke-linecap="round" stroke-linejoin="round"/>
<path d="M114.94 217.094C113.532 201.838 112.148 186.31 115.348 171.326C116.196 167.35 117.388 163.39 119.58 159.966C121.764 156.542 125.052 153.678 128.988 152.678C135.484 151.03 142.436 154.862 146.244 160.382C150.044 165.91 151.284 172.774 151.908 179.454C153.116 192.438 152.348 205.598 149.62 218.35" fill="white"/>
<mask id="mask1_136_84020" style="mask-type:luminance" maskUnits="userSpaceOnUse" x="113" y="152" width="40" height="67">
<path d="M114.94 217.094C113.532 201.838 112.148 186.31 115.348 171.326C116.196 167.35 117.388 163.39 119.58 159.966C121.764 156.542 125.052 153.678 128.988 152.678C135.484 151.03 142.436 154.862 146.244 160.382C150.044 165.91 151.284 172.774 151.908 179.454C153.116 192.438 152.348 205.598 149.62 218.35" fill="white"/>
</mask>
<g mask="url(#mask1_136_84020)">
<path d="M132.925 230.982C139.689 230.982 145.173 216.791 145.173 199.286C145.173 181.781 139.689 167.59 132.925 167.59C126.16 167.59 120.677 181.781 120.677 199.286C120.677 216.791 126.16 230.982 132.925 230.982Z" fill="#221F20" stroke="black" stroke-width="3.944" stroke-linecap="round" stroke-linejoin="round"/>
</g>
<path d="M114.94 217.094C113.532 201.838 112.148 186.31 115.348 171.326C116.196 167.35 117.388 163.39 119.58 159.966C121.764 156.542 125.052 153.678 128.988 152.678C135.484 151.03 142.436 154.862 146.244 160.382C150.044 165.91 151.284 172.774 151.908 179.454C153.116 192.438 152.348 205.598 149.62 218.35" stroke="black" stroke-width="3.944" stroke-linecap="round" stroke-linejoin="round"/>
<path d="M152.452 182.078C139.116 180.814 122.828 181.95 110.492 187.166C110.204 180.398 109.924 173.486 111.828 166.982C113.732 160.478 118.228 154.342 124.692 152.318C132.18 149.966 140.612 153.798 145.436 159.99C150.26 166.182 152.02 174.246 152.444 182.078" fill="#D6C7B7"/>
<path d="M152.452 182.078C139.116 180.814 122.828 181.95 110.492 187.166C110.204 180.398 109.924 173.486 111.828 166.982C113.732 160.478 118.228 154.342 124.692 152.318C132.18 149.966 140.612 153.798 145.436 159.99C150.26 166.182 152.02 174.246 152.444 182.078" stroke="black" stroke-width="3.944" stroke-linecap="round" stroke-linejoin="round"/>
<path d="M129.365 195.566C131.3 195.566 132.869 193.664 132.869 191.318C132.869 188.972 131.3 187.07 129.365 187.07C127.429 187.07 125.861 188.972 125.861 191.318C125.861 193.664 127.429 195.566 129.365 195.566Z" fill="white"/>
<path d="M132.229 201.206C133.333 201.206 134.229 200.121 134.229 198.782C134.229 197.443 133.333 196.358 132.229 196.358C131.124 196.358 130.229 197.443 130.229 198.782C130.229 200.121 131.124 201.206 132.229 201.206Z" fill="white"/>
<path d="M107.573 222.102C114.805 218.862 122.373 215.998 130.293 215.566C138.213 215.134 146.589 217.454 151.997 223.246C151.629 222.75 151.261 222.262 150.893 221.766" fill="#D6C7B7"/>
<path d="M107.573 222.102C114.805 218.862 122.373 215.998 130.293 215.566C138.213 215.134 146.589 217.454 151.997 223.246C151.629 222.75 151.261 222.262 150.893 221.766" stroke="black" stroke-width="3.944" stroke-linecap="round" stroke-linejoin="round"/>
<path d="M165.86 214.39C162.7 210.726 158.748 207.758 154.356 205.734C151.74 204.534 148.892 203.654 146.02 203.87C143.148 204.094 140.26 205.582 138.94 208.134C137.3 211.302 138.38 215.198 140.084 218.334C144.5 226.43 153.124 232.07 162.316 232.87" fill="#D6C7B7"/>
<path d="M165.86 214.39C162.7 210.726 158.748 207.758 154.356 205.734C151.74 204.534 148.892 203.654 146.02 203.87C143.148 204.094 140.26 205.582 138.94 208.134C137.3 211.302 138.38 215.198 140.084 218.334C144.5 226.43 153.124 232.07 162.316 232.87" stroke="black" stroke-width="3.944" stroke-linecap="round" stroke-linejoin="round"/>
<path d="M214.068 152.294C211.036 147.806 206.404 144.43 201.204 142.91C196.004 141.39 190.284 141.742 185.316 143.886" fill="#D6C7B7"/>
<path d="M214.068 152.294C211.036 147.806 206.404 144.43 201.204 142.91C196.004 141.39 190.284 141.742 185.316 143.886" stroke="black" stroke-width="3.944" stroke-linecap="round" stroke-linejoin="round"/>
<path d="M173.004 217.094C171.596 201.838 170.212 186.31 173.412 171.326C174.26 167.35 175.452 163.39 177.644 159.966C179.828 156.542 183.116 153.678 187.052 152.678C193.548 151.03 200.5 154.862 204.308 160.382C208.108 165.91 209.348 172.774 209.972 179.454C211.18 192.438 210.412 205.598 207.684 218.35" fill="white"/>
<mask id="mask2_136_84020" style="mask-type:luminance" maskUnits="userSpaceOnUse" x="171" y="152" width="40" height="67">
<path d="M173.004 217.094C171.596 201.838 170.212 186.31 173.412 171.326C174.26 167.35 175.452 163.39 177.644 159.966C179.828 156.542 183.116 153.678 187.052 152.678C193.548 151.03 200.5 154.862 204.308 160.382C208.108 165.91 209.348 172.774 209.972 179.454C211.18 192.438 210.412 205.598 207.684 218.35" fill="white"/>
</mask>
<g mask="url(#mask2_136_84020)">
<path d="M191.292 230.566C198.057 230.566 203.54 216.375 203.54 198.87C203.54 181.365 198.057 167.174 191.292 167.174C184.528 167.174 179.044 181.365 179.044 198.87C179.044 216.375 184.528 230.566 191.292 230.566Z" fill="#221F20" stroke="black" stroke-width="3.944" stroke-linecap="round" stroke-linejoin="round"/>
</g>
<path d="M173.004 217.094C171.596 201.838 170.212 186.31 173.412 171.326C174.26 167.35 175.452 163.39 177.644 159.966C179.828 156.542 183.116 153.678 187.052 152.678C193.548 151.03 200.5 154.862 204.308 160.382C208.108 165.91 209.348 172.774 209.972 179.454C211.18 192.438 210.412 205.598 207.684 218.35" stroke="black" stroke-width="3.944" stroke-linecap="round" stroke-linejoin="round"/>
<path d="M171.9 181.102C185.236 179.838 201.524 180.974 213.86 186.19C214.148 179.422 214.428 172.51 212.524 166.006C210.62 159.502 206.124 153.366 199.66 151.342C192.172 148.99 183.74 152.822 178.916 159.014C174.092 165.206 172.332 173.27 171.908 181.102" fill="#D6C7B7"/>
<path d="M171.9 181.102C185.236 179.838 201.524 180.974 213.86 186.19C214.148 179.422 214.428 172.51 212.524 166.006C210.62 159.502 206.124 153.366 199.66 151.342C192.172 148.99 183.74 152.822 178.916 159.014C174.092 165.206 172.332 173.27 171.908 181.102" stroke="black" stroke-width="3.944" stroke-linecap="round" stroke-linejoin="round"/>
<path d="M216.212 222.974C209.348 219.006 202.108 215.39 194.284 214.15C186.46 212.91 177.884 214.366 171.908 219.574C172.324 219.118 172.74 218.67 173.156 218.214" fill="#D6C7B7"/>
<path d="M216.212 222.974C209.348 219.006 202.108 215.39 194.284 214.15C186.46 212.91 177.884 214.366 171.908 219.574C172.324 219.118 172.74 218.67 173.156 218.214" stroke="black" stroke-width="3.944" stroke-linecap="round" stroke-linejoin="round"/>
<path d="M188.084 195.15C190.02 195.15 191.588 193.248 191.588 190.902C191.588 188.556 190.02 186.654 188.084 186.654C186.149 186.654 184.58 188.556 184.58 190.902C184.58 193.248 186.149 195.15 188.084 195.15Z" fill="white"/>
<path d="M190.948 200.79C192.053 200.79 192.948 199.705 192.948 198.366C192.948 197.027 192.053 195.942 190.948 195.942C189.844 195.942 188.948 197.027 188.948 198.366C188.948 199.705 189.844 200.79 190.948 200.79Z" fill="white"/>
<path d="M83.0685 303.526C82.2605 292.182 80.8444 291.302 81.4444 285.982C82.0284 280.798 89.1244 274.486 91.8204 270.19C90.6124 274.982 89.7005 276.126 88.3565 280.894C87.5805 283.638 86.5644 285.638 84.7484 291.558C84.1724 293.43 82.3965 301.734 83.0685 303.526Z" fill="white" stroke="black" stroke-width="3.944" stroke-linecap="round" stroke-linejoin="round"/>
<path d="M40.1245 156.174C31.3725 157.806 23.0604 169.926 24.6924 178.686C23.0604 169.934 10.9404 161.622 2.18042 163.254C10.9324 161.622 19.2445 149.502 17.6125 140.742C19.2445 149.494 31.3645 157.806 40.1245 156.174Z" fill="white"/>
<path d="M40.1245 156.174C31.3725 157.806 23.0604 169.926 24.6924 178.686C23.0604 169.934 10.9404 161.622 2.18042 163.254C10.9324 161.622 19.2445 149.502 17.6125 140.742C19.2445 149.494 31.3645 157.806 40.1245 156.174Z" stroke="black" stroke-width="3.944" stroke-linecap="round" stroke-linejoin="round"/>
<path d="M309.428 17.7262C300.676 19.3582 292.364 31.4782 293.996 40.2382C292.364 31.4862 280.244 23.1742 271.484 24.8062C280.236 23.1742 288.548 11.0542 286.916 2.29419C288.548 11.0462 300.668 19.3582 309.428 17.7262Z" fill="white"/>
<path d="M309.428 17.7262C300.676 19.3582 292.364 31.4782 293.996 40.2382C292.364 31.4862 280.244 23.1742 271.484 24.8062C280.236 23.1742 288.548 11.0542 286.916 2.29419C288.548 11.0462 300.668 19.3582 309.428 17.7262Z" stroke="black" stroke-width="3.944" stroke-linecap="round" stroke-linejoin="round"/>
<path d="M259.428 242.662C275.516 250.558 292.628 256.366 310.204 259.91C321.604 262.206 337.444 266.35 347.964 258.694C350.652 256.742 352.468 253.486 355.62 252.43C360.236 250.886 364.788 254.79 369.58 255.606C373.38 256.254 377.212 254.918 381.044 254.494C384.876 254.062 389.444 254.99 391.14 258.454C392.556 261.366 391.252 265.046 388.844 267.214C386.436 269.382 383.188 270.342 380.004 270.966C381.972 275.63 383.964 280.358 384.676 285.366C385.388 290.374 384.692 295.79 381.692 299.87C377.412 305.694 369.228 307.582 362.14 306.174C355.052 304.766 348.82 300.63 343.044 296.294C337.268 291.958 327.7 284.054 321.06 281.206C300.572 272.414 277.916 267.35 255.964 263.47" fill="#D6C7B7"/>
<path d="M259.428 242.662C275.516 250.558 292.628 256.366 310.204 259.91C321.604 262.206 337.444 266.35 347.964 258.694C350.652 256.742 352.468 253.486 355.62 252.43C360.236 250.886 364.788 254.79 369.58 255.606C373.38 256.254 377.212 254.918 381.044 254.494C384.876 254.062 389.444 254.99 391.14 258.454C392.556 261.366 391.252 265.046 388.844 267.214C386.436 269.382 383.188 270.342 380.004 270.966C381.972 275.63 383.964 280.358 384.676 285.366C385.388 290.374 384.692 295.79 381.692 299.87C377.412 305.694 369.228 307.582 362.14 306.174C355.052 304.766 348.82 300.63 343.044 296.294C337.268 291.958 327.7 284.054 321.06 281.206C300.572 272.414 277.916 267.35 255.964 263.47" stroke="black" stroke-width="3.944" stroke-linecap="round" stroke-linejoin="round"/>
<path d="M355.292 293.958C354.5 295.606 354.716 297.63 355.62 299.222C356.524 300.814 358.044 301.99 359.708 302.75C361.372 303.51 363.188 303.862 365.004 304.102C368.956 304.622 372.764 304.406 376.716 304.07C378.18 303.942 379.556 304.094 380.996 303.59C382.3 303.134 383.428 302.334 384.396 301.358C386.332 299.43 386.788 296.102 384.628 293.982" fill="#D6C7B7"/>
<path d="M355.292 293.958C354.5 295.606 354.716 297.63 355.62 299.222C356.524 300.814 358.044 301.99 359.708 302.75C361.372 303.51 363.188 303.862 365.004 304.102C368.956 304.622 372.764 304.406 376.716 304.07C378.18 303.942 379.556 304.094 380.996 303.59C382.3 303.134 383.428 302.334 384.396 301.358C386.332 299.43 386.788 296.102 384.628 293.982" stroke="black" stroke-width="3.944" stroke-linecap="round" stroke-linejoin="round"/>
<path d="M336.228 268.022C333.756 269.534 332.94 272.75 332.884 275.646C332.828 278.542 333.284 281.518 332.452 284.286C331.78 286.518 330.332 288.414 329.196 290.446C328.06 292.478 327.22 294.886 327.908 297.11C328.548 299.182 330.492 300.71 332.612 301.174C334.732 301.638 336.988 301.134 338.908 300.118C342.276 298.342 344.74 294.942 345.38 291.19C346.02 287.438 344.82 283.414 342.236 280.622" fill="#D6C7B7"/>
<path d="M336.228 268.022C333.756 269.534 332.94 272.75 332.884 275.646C332.828 278.542 333.284 281.518 332.452 284.286C331.78 286.518 330.332 288.414 329.196 290.446C328.06 292.478 327.22 294.886 327.908 297.11C328.548 299.182 330.492 300.71 332.612 301.174C334.732 301.638 336.988 301.134 338.908 300.118C342.276 298.342 344.74 294.942 345.38 291.19C346.02 287.438 344.82 283.414 342.236 280.622" stroke="black" stroke-width="3.944" stroke-linecap="round" stroke-linejoin="round"/>
<path d="M355.036 287.206C354.516 288.958 355.06 290.926 356.204 292.35C357.348 293.774 359.036 294.694 360.804 295.174C362.572 295.654 364.42 295.718 366.252 295.662C370.236 295.542 373.964 294.726 377.804 293.758C379.228 293.398 380.604 293.326 381.956 292.598C383.172 291.942 384.148 290.966 384.956 289.854C386.556 287.638 386.476 284.286 384.004 282.534" fill="#D6C7B7"/>
<path d="M355.036 287.206C354.516 288.958 355.06 290.926 356.204 292.35C357.348 293.774 359.036 294.694 360.804 295.174C362.572 295.654 364.42 295.718 366.252 295.662C370.236 295.542 373.964 294.726 377.804 293.758C379.228 293.398 380.604 293.326 381.956 292.598C383.172 291.942 384.148 290.966 384.956 289.854C386.556 287.638 386.476 284.286 384.004 282.534" stroke="black" stroke-width="3.944" stroke-linecap="round" stroke-linejoin="round"/>
<path d="M362.541 272.806C359.565 273.654 356.597 274.774 354.629 276.638C352.661 278.502 351.956 281.278 353.684 283.27C355.444 285.294 359.029 285.918 362.261 286.038C368.893 286.278 375.597 285.086 381.365 282.646C383.821 281.606 386.188 280.262 387.396 278.366C388.604 276.47 389.069 272.046 383.837 270.51" fill="#D6C7B7"/>
<path d="M362.541 272.806C359.565 273.654 356.597 274.774 354.629 276.638C352.661 278.502 351.956 281.278 353.684 283.27C355.444 285.294 359.029 285.918 362.261 286.038C368.893 286.278 375.597 285.086 381.365 282.646C383.821 281.606 386.188 280.262 387.396 278.366C388.604 276.47 389.069 272.046 383.837 270.51" stroke="black" stroke-width="3.944" stroke-linecap="round" stroke-linejoin="round"/>
<path d="M347.964 258.694C351.236 256.294 349.756 255.718 352.428 253.654C355.1 251.59 358.516 250.118 362.028 250.294C366.284 250.502 370.004 253.014 374.212 253.606C377.948 254.134 381.7 253.118 385.412 252.454C389.116 251.79 393.236 251.55 396.412 253.398C400.98 256.07 401.532 262.502 398.252 266.414C394.972 270.334 388.932 271.782 383.572 270.926C378.22 270.07 373.476 267.254 369.428 263.974" fill="#D6C7B7"/>
<path d="M347.964 258.694C351.236 256.294 349.756 255.718 352.428 253.654C355.1 251.59 358.516 250.118 362.028 250.294C366.284 250.502 370.004 253.014 374.212 253.606C377.948 254.134 381.7 253.118 385.412 252.454C389.116 251.79 393.236 251.55 396.412 253.398C400.98 256.07 401.532 262.502 398.252 266.414C394.972 270.334 388.932 271.782 383.572 270.926C378.22 270.07 373.476 267.254 369.428 263.974" stroke="black" stroke-width="3.944" stroke-linecap="round" stroke-linejoin="round"/>
<path d="M259.957 282.726C260.589 277.99 260.165 274.398 260.765 271.958C261.133 270.47 262.853 266.51 261.661 265.414C260.709 264.542 255.957 263.462 255.957 263.462C255.957 263.462 257.741 269.894 258.053 271.326C258.541 273.574 260.517 280.43 259.957 282.726Z" fill="black" stroke="black" stroke-width="3.944" stroke-linecap="round" stroke-linejoin="round"/>
<path d="M91.8204 270.19C77.1404 289.014 74.0844 322.894 70.7004 346.518C79.5484 352.142 79.1564 351.966 82.6844 362.846C84.9884 369.942 81.3645 377.71 88.6525 387.334C91.5005 391.086 90.8924 396.318 86.1804 396.262C81.4684 396.198 72.9884 389.926 69.3004 386.99C71.6764 395.166 68.0845 392.726 70.4605 400.902C70.9485 402.574 71.4204 404.414 70.6924 405.998C69.9564 407.598 68.1165 408.462 66.3645 408.534C64.6125 408.606 62.8924 408.03 61.2364 407.422C56.1084 405.558 57.0605 414.006 52.0605 411.838C47.1485 409.71 42.1164 407.502 38.3244 403.726C31.7564 397.182 30.1164 386.982 31.5244 377.814C33.5404 364.718 41.2764 352.614 52.3084 345.278C53.3564 315.022 62.7804 285.062 79.2284 259.638" fill="#D6C7B7"/>
<path d="M91.8204 270.19C77.1404 289.014 74.0844 322.894 70.7004 346.518C79.5484 352.142 79.1564 351.966 82.6844 362.846C84.9884 369.942 81.3645 377.71 88.6525 387.334C91.5005 391.086 90.8924 396.318 86.1804 396.262C81.4684 396.198 72.9884 389.926 69.3004 386.99C71.6764 395.166 68.0845 392.726 70.4605 400.902C70.9485 402.574 71.4204 404.414 70.6924 405.998C69.9564 407.598 68.1165 408.462 66.3645 408.534C64.6125 408.606 62.8924 408.03 61.2364 407.422C56.1084 405.558 57.0605 414.006 52.0605 411.838C47.1485 409.71 42.1164 407.502 38.3244 403.726C31.7564 397.182 30.1164 386.982 31.5244 377.814C33.5404 364.718 41.2764 352.614 52.3084 345.278C53.3564 315.022 62.7804 285.062 79.2284 259.638" stroke="black" stroke-width="3.944" stroke-linecap="round" stroke-linejoin="round"/>
<path d="M31.9243 391.31C32.3243 397.358 34.0683 403.31 36.9883 408.614C37.9963 410.438 39.2123 412.262 41.0443 413.254C42.8763 414.246 45.4683 414.118 46.7323 412.462C47.5563 411.382 47.6603 409.894 47.3803 408.558C47.1003 407.222 46.4763 405.998 45.9483 404.742C44.6843 401.718 43.9003 391.054 43.7883 387.774" fill="#D6C7B7"/>
<path d="M31.9243 391.31C32.3243 397.358 34.0683 403.31 36.9883 408.614C37.9963 410.438 39.2123 412.262 41.0443 413.254C42.8763 414.246 45.4683 414.118 46.7323 412.462C47.5563 411.382 47.6603 409.894 47.3803 408.558C47.1003 407.222 46.4763 405.998 45.9483 404.742C44.6843 401.718 43.9003 391.054 43.7883 387.774" stroke="black" stroke-width="3.944" stroke-linecap="round" stroke-linejoin="round"/>
<path d="M37.9648 393.718C38.3648 399.766 42.5728 407.35 45.4928 412.654C46.5008 414.478 47.7168 416.302 49.5488 417.294C51.3808 418.286 53.9728 418.158 55.2368 416.502C56.0608 415.422 56.1648 413.934 55.8848 412.598C55.6048 411.27 54.9808 410.038 54.4528 408.782C53.1888 405.758 52.4768 402.502 52.3648 399.222" fill="#D6C7B7"/>
<path d="M37.9648 393.718C38.3648 399.766 42.5728 407.35 45.4928 412.654C46.5008 414.478 47.7168 416.302 49.5488 417.294C51.3808 418.286 53.9728 418.158 55.2368 416.502C56.0608 415.422 56.1648 413.934 55.8848 412.598C55.6048 411.27 54.9808 410.038 54.4528 408.782C53.1888 405.758 52.4768 402.502 52.3648 399.222" stroke="black" stroke-width="3.944" stroke-linecap="round" stroke-linejoin="round"/>
<path d="M44.3647 395.71C45.2207 402.454 48.7487 409.998 52.9327 415.558C54.3727 417.47 56.0607 419.342 58.3007 420.174C60.5407 421.006 63.4687 420.43 64.6367 418.342C65.3967 416.974 65.2767 415.27 64.7327 413.798C64.1887 412.326 63.2847 411.038 62.4847 409.694C60.5487 406.462 59.2127 402.87 58.5487 399.166" fill="#D6C7B7"/>
<path d="M44.3647 395.71C45.2207 402.454 48.7487 409.998 52.9327 415.558C54.3727 417.47 56.0607 419.342 58.3007 420.174C60.5407 421.006 63.4687 420.43 64.6367 418.342C65.3967 416.974 65.2767 415.27 64.7327 413.798C64.1887 412.326 63.2847 411.038 62.4847 409.694C60.5487 406.462 59.2127 402.87 58.5487 399.166" stroke="black" stroke-width="3.944" stroke-linecap="round" stroke-linejoin="round"/>
<path d="M53.0125 387.99C51.9565 397.702 56.5885 412.734 63.7405 419.39C65.4205 420.95 67.3325 422.366 69.5565 422.95C71.7805 423.534 74.3564 423.15 75.9804 421.526C77.8524 419.662 78.0364 416.63 77.2924 414.094C76.5484 411.558 75.0285 409.342 73.8125 406.99C69.7965 399.214 69.2445 389.726 72.3245 381.534" fill="#D6C7B7"/>
<path d="M53.0125 387.99C51.9565 397.702 56.5885 412.734 63.7405 419.39C65.4205 420.95 67.3325 422.366 69.5565 422.95C71.7805 423.534 74.3564 423.15 75.9804 421.526C77.8524 419.662 78.0364 416.63 77.2924 414.094C76.5484 411.558 75.0285 409.342 73.8125 406.99C69.7965 399.214 69.2445 389.726 72.3245 381.534" stroke="black" stroke-width="3.944" stroke-linecap="round" stroke-linejoin="round"/>
<path d="M58.7327 363.974C57.7007 366.054 56.6687 368.126 55.6367 370.206L58.7327 363.974Z" fill="white"/>
<path d="M58.7327 363.974C57.7007 366.054 56.6687 368.126 55.6367 370.206" stroke="black" stroke-width="3.944" stroke-linecap="round" stroke-linejoin="round"/>
<path d="M50.8448 361.798C49.3328 364.678 47.8128 367.558 46.3008 370.438L50.8448 361.798Z" fill="white"/>
<path d="M50.8448 361.798C49.3328 364.678 47.8128 367.558 46.3008 370.438" stroke="black" stroke-width="3.944" stroke-linecap="round" stroke-linejoin="round"/>
</svg>
