<svg width="459" height="423" viewBox="0 0 459 423" fill="none" xmlns="http://www.w3.org/2000/svg">
<path d="M58.1195 112.265C63.1675 99.3049 63.3115 87.025 67.5115 77.353C69.1275 73.641 71.0555 69.585 69.8395 65.721C68.5755 61.681 63.8875 59.3049 59.7035 59.9609C55.5195 60.6169 52.0235 63.817 50.2155 67.641C48.4075 71.465 48.0875 75.8489 48.4315 80.0729C43.9515 80.2489 39.8795 77.289 37.1515 73.729C34.4235 70.169 32.6635 65.9769 30.2395 62.2009C25.0555 54.1049 21.2235 48.4569 11.9115 46.0729C9.19153 45.3769 5.94353 45.105 3.91953 47.049C0.983533 49.857 2.87953 54.9289 5.75153 57.8009C10.3435 62.3849 12.1995 64.2569 17.8955 67.3609C23.5995 70.4649 22.0475 67.993 24.6955 74.537C24.1195 72.417 27.5995 74.457 25.4235 74.745C23.2475 75.033 20.6715 80.3769 19.1035 81.9129C11.4315 89.4489 9.06353 101.881 13.4315 111.713C17.7995 121.545 32.4395 125.865 43.1835 125.225" fill="#D6C7B7"/>
<path d="M58.1195 112.265C63.1675 99.3049 63.3115 87.025 67.5115 77.353C69.1275 73.641 71.0555 69.585 69.8395 65.721C68.5755 61.681 63.8875 59.3049 59.7035 59.9609C55.5195 60.6169 52.0235 63.817 50.2155 67.641C48.4075 71.465 48.0875 75.8489 48.4315 80.0729C43.9515 80.2489 39.8795 77.289 37.1515 73.729C34.4235 70.169 32.6635 65.9769 30.2395 62.2009C25.0555 54.1049 21.2235 48.4569 11.9115 46.0729C9.19153 45.3769 5.94353 45.105 3.91953 47.049C0.983533 49.857 2.87953 54.9289 5.75153 57.8009C10.3435 62.3849 12.1995 64.2569 17.8955 67.3609C23.5995 70.4649 22.0475 67.993 24.6955 74.537C24.1195 72.417 27.5995 74.457 25.4235 74.745C23.2475 75.033 20.6715 80.3769 19.1035 81.9129C11.4315 89.4489 9.06353 101.881 13.4315 111.713C17.7995 121.545 32.4395 125.865 43.1835 125.225" stroke="black" stroke-width="3.944" stroke-linecap="round" stroke-linejoin="round"/>
<path d="M31.1037 81.8089C28.3517 78.7289 27.7037 76.3689 27.4477 72.0169C27.2637 68.7929 27.0717 65.5689 26.8877 62.3529C26.6637 58.4809 26.3917 54.4569 24.4637 51.0969C22.5357 47.7369 18.3997 45.3049 14.7517 46.6089C11.6717 47.7129 9.93571 51.0249 9.24771 54.2249C8.16771 59.2649 8.97571 64.5609 10.6877 69.4169C12.3997 74.2729 14.9837 78.7769 17.5517 83.2409" fill="#D6C7B7"/>
<path d="M31.1037 81.8089C28.3517 78.7289 27.7037 76.3689 27.4477 72.0169C27.2637 68.7929 27.0717 65.5689 26.8877 62.3529C26.6637 58.4809 26.3917 54.4569 24.4637 51.0969C22.5357 47.7369 18.3997 45.3049 14.7517 46.6089C11.6717 47.7129 9.93571 51.0249 9.24771 54.2249C8.16771 59.2649 8.97571 64.5609 10.6877 69.4169C12.3997 74.2729 14.9837 78.7769 17.5517 83.2409" stroke="black" stroke-width="3.944" stroke-linecap="round" stroke-linejoin="round"/>
<path d="M26.9276 88.0648C23.4316 85.8888 22.2796 81.3048 22.3036 77.1848C22.3276 73.0648 23.2076 68.9049 22.4716 64.8489C22.1036 62.8169 21.3036 60.8249 19.8796 59.3289C18.4556 57.8329 16.3516 56.9209 14.3116 57.2409C11.2956 57.7049 9.26364 60.5849 8.13564 63.4169C4.13564 73.4169 6.95964 84.7048 9.82364 95.0888" fill="#D6C7B7"/>
<path d="M26.9276 88.0648C23.4316 85.8888 22.2796 81.3048 22.3036 77.1848C22.3276 73.0648 23.2076 68.9049 22.4716 64.8489C22.1036 62.8169 21.3036 60.8249 19.8796 59.3289C18.4556 57.8329 16.3516 56.9209 14.3116 57.2409C11.2956 57.7049 9.26364 60.5849 8.13564 63.4169C4.13564 73.4169 6.95964 84.7048 9.82364 95.0888" stroke="black" stroke-width="3.944" stroke-linecap="round" stroke-linejoin="round"/>
<path d="M24.4475 105.945C25.6395 102.905 24.7515 99.4329 23.3035 96.5129C21.8555 93.5929 19.8635 90.9289 18.6955 87.8889C17.4875 84.7449 17.1675 81.2649 15.5435 78.3209C13.9115 75.3769 10.1675 73.1049 7.1995 74.6969C4.3515 76.2249 4.02349 80.1449 4.32749 83.3609C5.37549 94.4729 10.3915 106.817 15.9275 116.057" fill="#D6C7B7"/>
<path d="M24.4475 105.945C25.6395 102.905 24.7515 99.4329 23.3035 96.5129C21.8555 93.5929 19.8635 90.9289 18.6955 87.8889C17.4875 84.7449 17.1675 81.2649 15.5435 78.3209C13.9115 75.3769 10.1675 73.1049 7.1995 74.6969C4.3515 76.2249 4.02349 80.1449 4.32749 83.3609C5.37549 94.4729 10.3915 106.817 15.9275 116.057" stroke="black" stroke-width="3.944" stroke-linecap="round" stroke-linejoin="round"/>
<path d="M49.4396 107.969C46.8716 104.377 42.9436 101.777 38.6316 100.809L49.4396 107.969Z" fill="#D6C7B7"/>
<path d="M49.4396 107.969C46.8716 104.377 42.9436 101.777 38.6316 100.809" stroke="black" stroke-width="3.944" stroke-linecap="round" stroke-linejoin="round"/>
<path d="M22.3515 78.0729C22.0155 79.6409 21.3515 81.1369 20.4155 82.4409L22.3515 78.0729Z" fill="#D6C7B7"/>
<path d="M22.3515 78.0729C22.0155 79.6409 21.3515 81.1369 20.4155 82.4409" stroke="black" stroke-width="3.944" stroke-linecap="round" stroke-linejoin="round"/>
<path d="M19.2155 89.7209C18.8795 91.2889 18.2155 92.7849 17.2795 94.0889L19.2155 89.7209Z" fill="#D6C7B7"/>
<path d="M19.2155 89.7209C18.8795 91.2889 18.2155 92.7849 17.2795 94.0889" stroke="black" stroke-width="3.944" stroke-linecap="round" stroke-linejoin="round"/>
<path d="M27.2397 69.6729C26.9037 71.2409 26.2397 72.7369 25.3037 74.0409L27.2397 69.6729Z" fill="#D6C7B7"/>
<path d="M27.2397 69.6729C26.9037 71.2409 26.2397 72.7369 25.3037 74.0409" stroke="black" stroke-width="3.944" stroke-linecap="round" stroke-linejoin="round"/>
<path d="M58.1196 112.265C69.5356 129.177 65.9196 154.681 80.3516 169.113C89.2796 178.033 102.904 180.881 115.448 179.513C127.992 178.145 139.8 173.097 151.4 168.113C153.976 175.969 153.52 181.649 153.064 189.905C135.048 196.041 115.816 198.545 96.8316 197.233C87.7516 196.601 78.2636 194.913 71.1916 189.185C53.0876 174.521 58.6156 142.689 43.1836 125.233" fill="#D6C7B7"/>
<path d="M58.1196 112.265C69.5356 129.177 65.9196 154.681 80.3516 169.113C89.2796 178.033 102.904 180.881 115.448 179.513C127.992 178.145 139.8 173.097 151.4 168.113C153.976 175.969 153.52 181.649 153.064 189.905C135.048 196.041 115.816 198.545 96.8316 197.233C87.7516 196.601 78.2636 194.913 71.1916 189.185C53.0876 174.521 58.6156 142.689 43.1836 125.233" stroke="black" stroke-width="3.944" stroke-linecap="round" stroke-linejoin="round"/>
<path d="M135.096 193.713C138.216 192.065 141.552 190.825 144.152 189.057C144.904 188.545 145.656 187.921 145.88 187.073C146.032 186.481 145.912 185.857 145.784 185.257C145.36 183.281 144.944 181.305 144.52 179.337C144.28 178.209 144 177.017 143.136 176.201C141.976 175.113 140.048 175.049 138.544 175.665C137.496 176.097 135.536 177.257 135.184 178.353C134.832 179.449 135.52 181.401 135.752 182.529C137.16 189.241 136.92 192.793 135.096 193.705V193.713Z" fill="black" stroke="black" stroke-width="3.944" stroke-linecap="round" stroke-linejoin="round"/>
<path d="M274.112 348.929C271.096 352.889 267.648 356.193 265.272 358.265C262.896 360.345 260.528 362.385 261.672 365.401C262.304 367.081 264.08 369.409 265.512 370.521C267.976 372.433 270.16 375.105 272.624 377.017C273.768 377.905 273.728 378.265 275.088 378.713C276.456 379.161 279.568 378.841 280.6 377.897C279.68 378.817 279.608 380.345 280.088 381.593C280.568 382.841 281.16 384.801 282.112 385.737C297.64 400.977 303.736 406.649 316.696 416.169C319.176 417.993 322.008 418.953 325.048 418.881C330.064 418.761 334.344 412.497 339.04 407.961" fill="black"/>
<path d="M274.112 348.929C271.096 352.889 267.648 356.193 265.272 358.265C262.896 360.345 260.528 362.385 261.672 365.401C262.304 367.081 264.08 369.409 265.512 370.521C267.976 372.433 270.16 375.105 272.624 377.017C273.768 377.905 273.728 378.265 275.088 378.713C276.456 379.161 279.568 378.841 280.6 377.897C279.68 378.817 279.608 380.345 280.088 381.593C280.568 382.841 281.16 384.801 282.112 385.737C297.64 400.977 303.736 406.649 316.696 416.169C319.176 417.993 322.008 418.953 325.048 418.881C330.064 418.761 334.344 412.497 339.04 407.961" stroke="black" stroke-width="3.944" stroke-linecap="round" stroke-linejoin="round"/>
<path d="M275.872 346.385C272.624 350.233 271.192 355.545 272.056 360.505C273.392 368.137 279.544 373.881 285.344 379.017C294.44 387.073 303.544 395.137 312.64 403.193C317.656 407.633 323.424 412.353 330.112 411.993C336.656 411.641 342.12 406.161 344.08 399.905C346.664 391.657 343.984 382.305 338.368 375.737C332.752 369.169 324.56 365.177 316.112 363.361C316.152 360.889 316.192 358.377 315.536 355.993C314.88 353.609 313.424 351.329 311.192 350.273C309.496 349.465 307.56 349.433 305.696 349.193C302.72 348.817 299.832 347.849 297.208 346.409C294.648 345.009 292.752 342.081 290.336 340.841C285.792 338.513 278.808 342.897 275.872 346.377V346.385Z" fill="#38332F" stroke="black" stroke-width="3.944" stroke-linecap="round" stroke-linejoin="round"/>
<path d="M316.648 363.793C314.632 363.297 312.4 363.809 310.8 365.129L316.648 363.793Z" fill="#38332F"/>
<path d="M316.648 363.793C314.632 363.297 312.4 363.809 310.8 365.129" stroke="black" stroke-width="3.944" stroke-linecap="round" stroke-linejoin="round"/>
<path d="M298.743 336.833C296.599 335.713 294.127 334.577 291.863 335.409C289.831 336.161 288.623 338.385 288.543 340.545C288.463 342.705 289.295 344.801 290.327 346.705C292.943 351.513 296.911 355.569 301.663 358.289C304.255 359.769 307.167 360.873 310.151 360.729C313.135 360.585 316.167 358.993 317.407 356.281C318.647 353.569 317.535 349.825 314.767 348.729" fill="black"/>
<path d="M298.743 336.833C296.599 335.713 294.127 334.577 291.863 335.409C289.831 336.161 288.623 338.385 288.543 340.545C288.463 342.705 289.295 344.801 290.327 346.705C292.943 351.513 296.911 355.569 301.663 358.289C304.255 359.769 307.167 360.873 310.151 360.729C313.135 360.585 316.167 358.993 317.407 356.281C318.647 353.569 317.535 349.825 314.767 348.729" stroke="black" stroke-width="3.944" stroke-linecap="round" stroke-linejoin="round"/>
<path d="M285.823 233.433C296.839 246.905 308.416 262.993 310.192 284.697C311.896 305.537 304.023 324.993 296.831 342.737C301.431 349.481 308.375 355.641 313.311 349.513C325.719 334.129 332.368 308.113 330.168 283.577C327.968 259.041 316.991 236.905 302.351 227.465" fill="#D6C7B7"/>
<path d="M285.823 233.433C296.839 246.905 308.416 262.993 310.192 284.697C311.896 305.537 304.023 324.993 296.831 342.737C301.431 349.481 308.375 355.641 313.311 349.513C325.719 334.129 332.368 308.113 330.168 283.577C327.968 259.041 316.991 236.905 302.351 227.465" stroke="black" stroke-width="3.944" stroke-linecap="round" stroke-linejoin="round"/>
<path d="M317.64 271.777C313.416 275.481 310.136 277.673 310 283.513C310.416 277.441 309.992 271.313 308.744 265.353C313.264 265.473 317.816 263.929 321.336 261.089C322.112 260.465 322.848 259.777 323.752 259.361C324.656 258.945 325.792 258.865 326.592 259.457C328.152 260.601 327.92 263.449 328.864 265.065C324.872 267.233 321.216 268.633 317.632 271.777H317.64Z" fill="black" stroke="black" stroke-width="3.944" stroke-linecap="round" stroke-linejoin="round"/>
<path d="M138.448 37.6729H375.031V219.681C375.031 245.681 353.92 266.793 327.92 266.793H185.56C159.56 266.793 138.448 245.681 138.448 219.681V37.6729Z" fill="#D6C7B7" stroke="black" stroke-width="3.944" stroke-linecap="round" stroke-linejoin="round"/>
<path d="M188.312 373.897C183.976 375.689 183.336 381.537 187.208 383.953C181.864 386.025 176.536 388.265 172.056 391.449C167.576 394.633 163.952 398.873 162.904 403.705C161.856 408.537 163.768 413.937 168.48 416.897C172.248 419.265 177.192 419.817 181.896 420.065C194.984 420.745 202.104 420.857 214.744 417.953C217.6 417.297 223.152 415.489 225.4 413.881C228.912 411.377 228.016 407.241 228.328 403.401C229.272 391.761 228.112 379.737 216.664 373.009" fill="#38332F"/>
<path d="M188.312 373.897C183.976 375.689 183.336 381.537 187.208 383.953C181.864 386.025 176.536 388.265 172.056 391.449C167.576 394.633 163.952 398.873 162.904 403.705C161.856 408.537 163.768 413.937 168.48 416.897C172.248 419.265 177.192 419.817 181.896 420.065C194.984 420.745 202.104 420.857 214.744 417.953C217.6 417.297 223.152 415.489 225.4 413.881C228.912 411.377 228.016 407.241 228.328 403.401C229.272 391.761 228.112 379.737 216.664 373.009" stroke="black" stroke-width="3.944" stroke-linecap="round" stroke-linejoin="round"/>
<path d="M194.16 365.001C191.328 364.369 188.464 367.009 188.264 369.905C188.056 372.801 189.992 375.537 192.496 377.001C195 378.465 197.992 378.849 200.896 378.905C204 378.961 207.208 378.649 209.968 377.225C212.728 375.801 214.968 373.065 215.104 369.961C215.24 366.857 212.776 363.657 209.672 363.609" fill="black"/>
<path d="M194.16 365.001C191.328 364.369 188.464 367.009 188.264 369.905C188.056 372.801 189.992 375.537 192.496 377.001C195 378.465 197.992 378.849 200.896 378.905C204 378.961 207.208 378.649 209.968 377.225C212.728 375.801 214.968 373.065 215.104 369.961C215.24 366.857 212.776 363.657 209.672 363.609" stroke="black" stroke-width="3.944" stroke-linecap="round" stroke-linejoin="round"/>
<path d="M187 384.169C194.616 382.193 202.984 382.281 210.536 384.417L187 384.169Z" fill="#D6C7B7"/>
<path d="M187 384.169C194.616 382.193 202.984 382.281 210.536 384.417" stroke="black" stroke-width="3.944" stroke-linecap="round" stroke-linejoin="round"/>
<path d="M225.904 408.265C223.448 413.401 223.944 414.713 217.544 416.209C211.144 417.705 204.408 417.745 197.808 418.369C191.328 418.977 184.768 420.161 178.344 419.217C174.384 418.633 165.32 410.689 165.32 410.689C165.32 410.689 181.024 410.521 184.728 410.337C200.76 409.545 209.84 408.537 225.904 408.273V408.265Z" fill="black" stroke="black" stroke-width="3.944" stroke-linecap="round" stroke-linejoin="round"/>
<path d="M189.336 87.1929C180.584 88.8249 172.272 100.945 173.904 109.705C172.272 100.953 160.152 92.6409 151.392 94.2729C160.144 92.6409 168.456 80.5209 166.824 71.7609C168.456 80.5129 180.576 88.8249 189.336 87.1929Z" fill="white"/>
<path d="M189.336 87.1929C180.584 88.8249 172.272 100.945 173.904 109.705C172.272 100.953 160.152 92.6409 151.392 94.2729C160.144 92.6409 168.456 80.5209 166.824 71.7609C168.456 80.5129 180.576 88.8249 189.336 87.1929Z" stroke="black" stroke-width="3.944" stroke-linecap="round" stroke-linejoin="round"/>
<path d="M256.512 154.825C261.796 154.825 266.08 151.311 266.08 146.977C266.08 142.643 261.796 139.129 256.512 139.129C251.227 139.129 246.944 142.643 246.944 146.977C246.944 151.311 251.227 154.825 256.512 154.825Z" fill="#D6C7B7" stroke="black" stroke-width="3.944" stroke-linecap="round" stroke-linejoin="round"/>
<path d="M283.424 160.561C284.552 164.225 287.2 167.393 290.608 169.153L283.424 160.561Z" fill="#D6C7B7"/>
<path d="M283.424 160.561C284.552 164.225 287.2 167.393 290.608 169.153" stroke="black" stroke-width="3.944" stroke-linecap="round" stroke-linejoin="round"/>
<path d="M229.568 159.145C228.776 163.481 225.896 167.393 221.984 169.425L229.568 159.145Z" fill="#D6C7B7"/>
<path d="M229.568 159.145C228.776 163.481 225.896 167.393 221.984 169.425" stroke="black" stroke-width="3.944" stroke-linecap="round" stroke-linejoin="round"/>
<path d="M209.199 102.441C212.311 93.9129 220.911 87.6809 229.983 87.3689L209.199 102.441Z" fill="#D6C7B7"/>
<path d="M209.199 102.441C212.311 93.9129 220.911 87.6809 229.983 87.3689" stroke="black" stroke-width="3.944" stroke-linecap="round" stroke-linejoin="round"/>
<path d="M304.383 100.489C299.207 93.5049 291.047 88.8089 282.399 87.8489L304.383 100.489Z" fill="#D6C7B7"/>
<path d="M304.383 100.489C299.207 93.5049 291.047 88.8089 282.399 87.8489" stroke="black" stroke-width="3.944" stroke-linecap="round" stroke-linejoin="round"/>
<path d="M246.768 207.441C252 211.401 259.808 211.529 265.176 207.753L246.768 207.441Z" fill="#D6C7B7"/>
<path d="M246.768 207.441C252 211.401 259.808 211.529 265.176 207.753" stroke="black" stroke-width="3.944" stroke-linecap="round" stroke-linejoin="round"/>
<path d="M193.888 255.609C184.368 274.449 179.704 295.649 180.008 316.729C180.16 327.417 181.592 338.081 184.312 348.417C185.608 353.329 187.328 357.945 189.264 362.585C190.504 365.553 191.064 370.497 194.488 371.857C201.352 374.577 206.104 372.057 208.84 368.513C212.432 363.849 209.144 354.161 207.68 348.457C200.168 319.209 196.288 287.097 213.048 261.977" fill="#D6C7B7"/>
<path d="M193.888 255.609C184.368 274.449 179.704 295.649 180.008 316.729C180.16 327.417 181.592 338.081 184.312 348.417C185.608 353.329 187.328 357.945 189.264 362.585C190.504 365.553 191.064 370.497 194.488 371.857C201.352 374.577 206.104 372.057 208.84 368.513C212.432 363.849 209.144 354.161 207.68 348.457C200.168 319.209 196.288 287.097 213.048 261.977" stroke="black" stroke-width="3.944" stroke-linecap="round" stroke-linejoin="round"/>
<path d="M238.952 112.841C236.232 112.865 233.928 109.873 234.648 107.249C235.368 104.625 238.872 103.225 241.2 104.633C243.288 102.473 242.296 98.473 239.712 96.945C237.128 95.417 233.688 96.025 231.24 97.753C228.792 99.481 227.16 102.137 225.832 104.833C220.992 114.641 219.328 126.153 222.072 136.745C222.824 139.649 223.96 142.577 226.12 144.657C228.28 146.737 231.664 147.785 234.376 146.505C239.504 144.089 236.176 136.721 236.008 132.561C235.744 125.881 236.744 119.153 238.952 112.849V112.841Z" fill="#38332F" stroke="black" stroke-width="3.944" stroke-linecap="round" stroke-linejoin="round"/>
<path d="M289.808 112.841C287.088 112.865 284.784 109.873 285.504 107.249C286.224 104.625 289.728 103.225 292.056 104.633C294.144 102.473 293.152 98.473 290.568 96.945C287.984 95.417 284.544 96.025 282.096 97.753C279.648 99.481 278.016 102.137 276.688 104.833C271.848 114.641 270.184 126.153 272.928 136.745C273.68 139.649 274.816 142.577 276.976 144.657C279.136 146.737 282.52 147.785 285.232 146.505C290.36 144.089 287.032 136.721 286.864 132.561C286.6 125.881 287.6 119.153 289.808 112.849V112.841Z" fill="#38332F" stroke="black" stroke-width="3.944" stroke-linecap="round" stroke-linejoin="round"/>
<path d="M175.023 265.609C177.759 266.153 181.999 265.921 184.567 266.073C185.071 266.105 185.583 266.129 186.055 265.961C186.911 265.657 187.415 264.793 187.847 263.993C188.599 262.617 192.887 257.209 193.895 255.601C190.063 258.689 180.503 265.609 175.023 265.609Z" fill="black" stroke="black" stroke-width="3.944" stroke-linecap="round" stroke-linejoin="round"/>
<path d="M239.056 182.593C237.92 186.809 236.336 190.905 234.328 194.785C239.96 196.465 245.592 198.145 251.224 199.825C252.024 195.921 252.824 192.017 253.624 188.121" fill="white"/>
<path d="M239.056 182.593C237.92 186.809 236.336 190.905 234.328 194.785C239.96 196.465 245.592 198.145 251.224 199.825C252.024 195.921 252.824 192.017 253.624 188.121" stroke="black" stroke-width="3.944" stroke-linecap="round" stroke-linejoin="round"/>
<path d="M262.992 187.321L266.64 197.313C271.456 195.065 276.136 192.521 280.632 189.681C278.976 186.841 277.328 184.001 275.672 181.169" fill="white"/>
<path d="M262.992 187.321L266.64 197.313C271.456 195.065 276.136 192.521 280.632 189.681C278.976 186.841 277.328 184.001 275.672 181.169" stroke="black" stroke-width="3.944" stroke-linecap="round" stroke-linejoin="round"/>
<path d="M226.583 165.081C230.599 177.001 242.616 185.745 255.192 185.913C267.768 186.081 280.007 177.649 284.343 165.841" fill="#D6C7B7"/>
<path d="M226.583 165.081C230.599 177.001 242.616 185.745 255.192 185.913C267.768 186.081 280.007 177.649 284.343 165.841" stroke="black" stroke-width="3.944" stroke-linecap="round" stroke-linejoin="round"/>
<path d="M329.712 226.105C324.68 227.041 319.904 234.009 320.84 239.041C319.904 234.009 312.936 229.233 307.904 230.169C312.936 229.233 317.712 222.265 316.776 217.233C317.712 222.265 324.68 227.041 329.712 226.105Z" fill="white"/>
<path d="M329.712 226.105C324.68 227.041 319.904 234.009 320.84 239.041C319.904 234.009 312.936 229.233 307.904 230.169C312.936 229.233 317.712 222.265 316.776 217.233C317.712 222.265 324.68 227.041 329.712 226.105Z" stroke="black" stroke-width="3.944" stroke-linecap="round" stroke-linejoin="round"/>
<path d="M341.888 270.041C337.96 270.617 335.048 274.993 336.032 278.833C337.144 283.153 341.816 285.377 344.736 288.753C346.824 291.169 348.016 294.217 349.656 296.953C351.296 299.689 353.68 302.305 356.824 302.849C359.968 303.393 363.672 300.833 363.2 297.673" fill="#D6C7B7"/>
<path d="M341.888 270.041C337.96 270.617 335.048 274.993 336.032 278.833C337.144 283.153 341.816 285.377 344.736 288.753C346.824 291.169 348.016 294.217 349.656 296.953C351.296 299.689 353.68 302.305 356.824 302.849C359.968 303.393 363.672 300.833 363.2 297.673" stroke="black" stroke-width="3.944" stroke-linecap="round" stroke-linejoin="round"/>
<path d="M365.176 165.505C381.12 164.905 397.152 166.697 412.568 170.817C417.2 172.057 422.176 173.801 424.68 177.889C428.728 184.513 424.128 192.921 419.424 199.097C409.104 212.641 396.664 229.577 382.432 239.241C376.384 243.345 368.192 243.889 361.496 247.585C355.072 251.137 349.344 255.977 344.864 261.801C341.368 266.345 337.744 274.289 340.608 279.257C341.688 281.137 344.616 282.225 346.344 283.633C349.024 285.817 348.48 289.769 351.112 292.409C353.552 294.857 357.032 296.105 359.84 294.097C361.464 299.969 367.752 304.161 373.8 303.393C376.776 308.625 384.84 308.729 389.68 305.145C394.52 301.561 396.92 295.641 399.08 290.017C403.48 278.561 407.856 265.825 403.528 254.345C414.888 230.193 444.424 216.897 454.064 192.001C457.144 184.041 457.728 174.465 452.92 167.417C449.072 161.769 442.504 158.689 436.136 156.201C414.432 147.721 391.24 143.073 367.944 142.545" fill="#D6C7B7"/>
<path d="M365.176 165.505C381.12 164.905 397.152 166.697 412.568 170.817C417.2 172.057 422.176 173.801 424.68 177.889C428.728 184.513 424.128 192.921 419.424 199.097C409.104 212.641 396.664 229.577 382.432 239.241C376.384 243.345 368.192 243.889 361.496 247.585C355.072 251.137 349.344 255.977 344.864 261.801C341.368 266.345 337.744 274.289 340.608 279.257C341.688 281.137 344.616 282.225 346.344 283.633C349.024 285.817 348.48 289.769 351.112 292.409C353.552 294.857 357.032 296.105 359.84 294.097C361.464 299.969 367.752 304.161 373.8 303.393C376.776 308.625 384.84 308.729 389.68 305.145C394.52 301.561 396.92 295.641 399.08 290.017C403.48 278.561 407.856 265.825 403.528 254.345C414.888 230.193 444.424 216.897 454.064 192.001C457.144 184.041 457.728 174.465 452.92 167.417C449.072 161.769 442.504 158.689 436.136 156.201C414.432 147.721 391.24 143.073 367.944 142.545" stroke="black" stroke-width="3.944" stroke-linecap="round" stroke-linejoin="round"/>
<path d="M374.167 303.385C373.375 300.929 373.039 298.337 373.183 295.761L374.167 303.385Z" fill="#D6C7B7"/>
<path d="M374.167 303.385C373.375 300.929 373.039 298.337 373.183 295.761" stroke="black" stroke-width="3.944" stroke-linecap="round" stroke-linejoin="round"/>
<path d="M359.8 294.177C359.072 291.833 358.944 289.313 359.424 286.905L359.8 294.177Z" fill="#D6C7B7"/>
<path d="M359.8 294.177C359.072 291.833 358.944 289.313 359.424 286.905" stroke="black" stroke-width="3.944" stroke-linecap="round" stroke-linejoin="round"/>
<path d="M347.408 284.737C346.768 282.273 346.696 279.657 347.192 277.161L347.408 284.737Z" fill="#D6C7B7"/>
<path d="M347.408 284.737C346.768 282.273 346.696 279.657 347.192 277.161" stroke="black" stroke-width="3.944" stroke-linecap="round" stroke-linejoin="round"/>
<path d="M387.751 294.873C393.135 292.713 397.799 288.825 400.895 283.921L387.751 294.873Z" fill="#D6C7B7"/>
<path d="M387.751 294.873C393.135 292.713 397.799 288.825 400.895 283.921" stroke="black" stroke-width="3.944" stroke-linecap="round" stroke-linejoin="round"/>
<path d="M361.896 268.161C363.208 262.145 368.104 257.057 374.064 255.521L361.896 268.161Z" fill="#D6C7B7"/>
<path d="M361.896 268.161C363.208 262.145 368.104 257.057 374.064 255.521" stroke="black" stroke-width="3.944" stroke-linecap="round" stroke-linejoin="round"/>
<path d="M375.816 276.377C375.376 275.385 375.424 274.225 375.76 273.193C376.096 272.161 376.704 271.241 377.368 270.377C378.912 268.385 380.808 266.657 382.944 265.313" fill="#D6C7B7"/>
<path d="M375.816 276.377C375.376 275.385 375.424 274.225 375.76 273.193C376.096 272.161 376.704 271.241 377.368 270.377C378.912 268.385 380.808 266.657 382.944 265.313" stroke="black" stroke-width="3.944" stroke-linecap="round" stroke-linejoin="round"/>
<path d="M364.912 165.601C367.016 168.801 373.28 176.985 374.912 180.649C374.648 180.057 372.664 171.953 373.008 171.433C373.888 170.097 373.44 168.345 374.912 166.225C375.88 164.833 370.344 167.785 369.08 167.337C367.664 166.841 366.272 166.257 364.904 165.601H364.912Z" fill="black" stroke="black" stroke-width="3.944" stroke-linecap="round" stroke-linejoin="round"/>
<path d="M256.256 75.2409C227.888 75.2409 201.056 73.0729 180.712 69.1609C170.016 67.0969 161.36 64.5929 155.008 61.6969C140.24 54.9769 137.144 45.5209 137.144 38.7689C137.144 32.0249 140.248 22.5689 155 15.8569C161.352 12.9689 169.992 10.4569 180.68 8.4009C201 4.4969 227.8 2.34494 256.144 2.34494H256.272C284.64 2.34494 311.472 4.51292 331.816 8.42492C342.512 10.4809 351.168 12.9929 357.52 15.8889C372.288 22.6089 375.384 32.0649 375.384 38.8169C375.384 45.5609 372.28 55.0169 357.528 61.7289C351.176 64.6169 342.536 67.1289 331.848 69.1849C311.528 73.0889 284.728 75.2409 256.384 75.2409H256.256Z" fill="#D6C7B7"/>
<path d="M256.256 75.2409C227.888 75.2409 201.056 73.0729 180.712 69.1609C170.016 67.0969 161.36 64.5929 155.008 61.6969C140.24 54.9769 137.144 45.5209 137.144 38.7689C137.144 32.0249 140.248 22.5689 155 15.8569C161.352 12.9689 169.992 10.4569 180.68 8.4009C201 4.4969 227.8 2.34494 256.144 2.34494H256.272C284.64 2.34494 311.472 4.51292 331.816 8.42492C342.512 10.4809 351.168 12.9929 357.52 15.8889C372.288 22.6089 375.384 32.0649 375.384 38.8169C375.384 45.5609 372.28 55.0169 357.528 61.7289C351.176 64.6169 342.536 67.1289 331.848 69.1849C311.528 73.0889 284.728 75.2409 256.384 75.2409H256.256Z" stroke="black" stroke-width="3.944" stroke-linecap="round" stroke-linejoin="round"/>
<path d="M256.264 56.2409C312.795 56.2409 358.624 47.4263 358.624 36.553C358.624 25.6796 312.795 16.8649 256.264 16.8649C199.732 16.8649 153.904 25.6796 153.904 36.553C153.904 47.4263 199.732 56.2409 256.264 56.2409Z" fill="#6E6860"/>
<mask id="mask0_136_84014" style="mask-type:luminance" maskUnits="userSpaceOnUse" x="153" y="16" width="206" height="41">
<path d="M256.264 56.2409C312.795 56.2409 358.624 47.4263 358.624 36.553C358.624 25.6796 312.795 16.8649 256.264 16.8649C199.732 16.8649 153.904 25.6796 153.904 36.553C153.904 47.4263 199.732 56.2409 256.264 56.2409Z" fill="white"/>
</mask>
<g mask="url(#mask0_136_84014)">
<path d="M255.16 60.1129C311.691 60.1129 357.52 52.0146 357.52 42.0249C357.52 32.0352 311.691 23.9369 255.16 23.9369C198.628 23.9369 152.8 32.0352 152.8 42.0249C152.8 52.0146 198.628 60.1129 255.16 60.1129Z" fill="#38332F"/>
<path d="M255.16 60.1129C311.691 60.1129 357.52 52.0146 357.52 42.0249C357.52 32.0352 311.691 23.9369 255.16 23.9369C198.628 23.9369 152.8 32.0352 152.8 42.0249C152.8 52.0146 198.628 60.1129 255.16 60.1129Z" stroke="black" stroke-width="3.944" stroke-linecap="round" stroke-linejoin="round"/>
<path d="M310.2 42.4329L289.304 32.4249L294.168 47.7849L310.2 42.4249V42.4329Z" fill="white" stroke="black" stroke-width="3.944" stroke-linecap="round" stroke-linejoin="round"/>
<path d="M277.408 113.681L322.984 99.2568C325.592 98.4328 326.984 95.4809 326.096 92.6729L310.2 42.4409L294.168 47.3689L289.304 32.4329L255.112 43.2568C252.504 44.0808 251.112 47.0329 252 49.8409L271.072 110.089C271.96 112.897 274.8 114.513 277.408 113.681Z" fill="white" stroke="black" stroke-width="3.944" stroke-linecap="round" stroke-linejoin="round"/>
<path d="M300.959 55.6329L270.063 65.4089" stroke="black" stroke-width="3.944" stroke-linecap="round" stroke-linejoin="round"/>
<path d="M315.751 40.6809L294.855 30.6729L299.719 46.0329L315.751 40.6729V40.6809Z" fill="white" stroke="black" stroke-width="3.944" stroke-linecap="round" stroke-linejoin="round"/>
<path d="M282.96 111.921L328.536 97.4969C331.144 96.6729 332.536 93.7209 331.648 90.9129L315.752 40.6809L299.72 45.6089L294.856 30.6729L260.664 41.4969C258.056 42.3209 256.664 45.2729 257.552 48.0809L276.624 108.329C277.512 111.137 280.352 112.753 282.96 111.921Z" fill="white" stroke="black" stroke-width="3.944" stroke-linecap="round" stroke-linejoin="round"/>
<path d="M306.52 53.8729L275.624 63.6568" stroke="black" stroke-width="3.944" stroke-linecap="round" stroke-linejoin="round"/>
<path d="M320.808 39.0809L299.912 29.0729L304.776 44.4329L320.808 39.0729V39.0809Z" fill="white" stroke="black" stroke-width="3.944" stroke-linecap="round" stroke-linejoin="round"/>
<path d="M288.016 110.321L333.592 95.8969C336.2 95.0729 337.592 92.1209 336.704 89.3129L320.808 39.0809L304.776 44.0089L299.912 29.0729L265.72 39.8969C263.112 40.7209 261.72 43.6729 262.608 46.4809L281.68 106.729C282.568 109.537 285.408 111.153 288.016 110.321Z" fill="white" stroke="black" stroke-width="3.944" stroke-linecap="round" stroke-linejoin="round"/>
<path d="M311.568 52.2729L280.672 62.0568" stroke="black" stroke-width="3.944" stroke-linecap="round" stroke-linejoin="round"/>
<path d="M293.664 66.281L284.048 45.209L277.928 60.113L293.664 66.281Z" fill="white" stroke="black" stroke-width="3.944" stroke-linecap="round" stroke-linejoin="round"/>
<path d="M222.808 99.921L267.032 118.081C269.56 119.121 272.52 117.753 273.64 115.025L293.656 66.281L278.192 59.785L284.04 45.209L250.864 31.585C248.336 30.545 245.376 31.913 244.256 34.641L220.248 93.097C219.128 95.825 220.272 98.881 222.8 99.921H222.808Z" fill="white" stroke="black" stroke-width="3.944" stroke-linecap="round" stroke-linejoin="round"/>
<path d="M278.112 70.481L248.128 58.177" stroke="black" stroke-width="3.944" stroke-linecap="round" stroke-linejoin="round"/>
<path d="M299.056 68.497L289.44 47.425L283.32 62.329L299.056 68.497Z" fill="white" stroke="black" stroke-width="3.944" stroke-linecap="round" stroke-linejoin="round"/>
<path d="M228.2 102.129L272.424 120.289C274.952 121.329 277.912 119.961 279.032 117.233L299.048 68.489L283.584 61.993L289.432 47.417L256.256 33.793C253.728 32.753 250.768 34.121 249.648 36.849L225.64 95.305C224.52 98.033 225.664 101.089 228.192 102.129H228.2Z" fill="white" stroke="black" stroke-width="3.944" stroke-linecap="round" stroke-linejoin="round"/>
<path d="M303.952 70.513L294.336 49.441L288.216 64.345L303.952 70.513Z" fill="white" stroke="black" stroke-width="3.944" stroke-linecap="round" stroke-linejoin="round"/>
<path d="M233.104 104.145L277.328 122.305C279.856 123.345 282.816 121.977 283.936 119.249L303.952 70.505L288.488 64.009L294.336 49.433L261.16 35.809C258.632 34.769 255.672 36.137 254.552 38.865L230.544 97.321C229.424 100.049 230.568 103.105 233.096 104.145H233.104Z" fill="white" stroke="black" stroke-width="3.944" stroke-linecap="round" stroke-linejoin="round"/>
<path d="M227.871 44.5533L206.951 34.6013L211.855 49.9533L227.871 44.5533Z" fill="white" stroke="black" stroke-width="3.944" stroke-linecap="round" stroke-linejoin="round"/>
<path d="M195.263 115.881L240.807 101.337C243.415 100.505 244.799 97.5533 243.903 94.7453L227.871 44.5533L211.855 49.5293L206.951 34.6093L172.791 45.5213C170.183 46.3533 168.799 49.3053 169.695 52.1133L188.927 112.313C189.823 115.121 192.663 116.721 195.271 115.889L195.263 115.881Z" fill="white" stroke="black" stroke-width="3.944" stroke-linecap="round" stroke-linejoin="round"/>
<path d="M218.663 57.7773L187.799 67.6333" stroke="black" stroke-width="3.944" stroke-linecap="round" stroke-linejoin="round"/>
<path d="M233.424 42.777L212.504 32.825L217.408 48.177L233.424 42.777Z" fill="white" stroke="black" stroke-width="3.944" stroke-linecap="round" stroke-linejoin="round"/>
<path d="M200.815 114.113L246.359 99.5693C248.967 98.7373 250.351 95.7853 249.455 92.9773L233.423 42.7853L217.407 47.7613L212.503 32.8413L178.343 43.7534C175.735 44.5854 174.351 47.5373 175.247 50.3453L194.479 110.545C195.375 113.353 198.215 114.953 200.823 114.121L200.815 114.113Z" fill="white" stroke="black" stroke-width="3.944" stroke-linecap="round" stroke-linejoin="round"/>
<path d="M224.215 56.0013L193.351 65.8572" stroke="black" stroke-width="3.944" stroke-linecap="round" stroke-linejoin="round"/>
<path d="M238.471 41.1693L217.551 31.2173L222.455 46.5693L238.471 41.1693Z" fill="white" stroke="black" stroke-width="3.944" stroke-linecap="round" stroke-linejoin="round"/>
<path d="M205.863 112.497L251.407 97.9533C254.015 97.1213 255.399 94.1692 254.503 91.3612L238.471 41.1693L222.455 46.1453L217.551 31.2253L183.391 42.1373C180.783 42.9693 179.399 45.9213 180.295 48.7293L199.527 108.929C200.423 111.737 203.263 113.337 205.871 112.505L205.863 112.497Z" fill="white" stroke="black" stroke-width="3.944" stroke-linecap="round" stroke-linejoin="round"/>
<path d="M229.263 54.3853L198.399 64.2493" stroke="black" stroke-width="3.944" stroke-linecap="round" stroke-linejoin="round"/>
</g>
<path d="M256.264 56.2409C312.795 56.2409 358.624 47.4263 358.624 36.553C358.624 25.6796 312.795 16.8649 256.264 16.8649C199.732 16.8649 153.904 25.6796 153.904 36.553C153.904 47.4263 199.732 56.2409 256.264 56.2409Z" stroke="black" stroke-width="3.944" stroke-linecap="round" stroke-linejoin="round"/>
</svg>
