<svg width="557" height="416" viewBox="0 0 557 416" fill="none" xmlns="http://www.w3.org/2000/svg">
<path d="M302.807 288.165C287.453 272.206 264.972 249.256 263.993 227.135C263.626 218.887 269.453 210 267.604 201.955C263.728 185.139 256.982 174.32 240.696 168.622C224.41 162.923 206.723 163.025 189.485 163.739C176.484 164.276 162.401 165.568 152.752 174.3C145.455 180.902 141.967 190.776 140.437 200.493C137.112 221.634 142.076 243.966 154.044 261.707C166.012 279.448 184.861 292.416 205.71 297.244" fill="#E5F3FC"/>
<path d="M302.807 288.165C287.453 272.206 264.972 249.256 263.993 227.135C263.626 218.887 269.453 210 267.604 201.955C263.728 185.139 256.982 174.32 240.696 168.622C224.41 162.923 206.723 163.025 189.485 163.739C176.484 164.276 162.401 165.568 152.752 174.3C145.455 180.902 141.967 190.776 140.437 200.493C137.112 221.634 142.076 243.966 154.044 261.707C166.012 279.448 184.861 292.416 205.71 297.244" stroke="black" stroke-width="3.3524" stroke-linecap="round" stroke-linejoin="round"/>
<path d="M207.362 298.563C194.299 288.227 181.128 277.795 170.465 264.991C159.803 252.187 151.704 236.676 150.487 220.063C149.705 209.306 152.268 197.623 160.252 190.368C168.235 183.105 182.42 182.425 189.084 190.912C191.681 194.217 192.898 198.419 195.312 201.867C202.446 212.067 220.343 211.468 226.776 200.813C226.674 207.177 232.434 212.468 238.649 213.835C244.864 215.208 252.235 215.249 257.335 211.441C262.857 207.313 267.161 200.439 267.161 200.439C267.161 200.439 274.356 214.773 293.192 205.647C301.909 201.425 307.574 189.151 306.071 179.583C301.76 152.159 277.014 131.364 250.243 124.02C218.215 115.235 181.944 123.157 156.913 144.985C138.526 161.019 126.415 184.071 123.64 208.313C120.866 232.555 127.462 257.742 141.756 277.517" fill="#B6DFF7"/>
<path d="M207.362 298.563C194.299 288.227 181.128 277.795 170.465 264.991C159.803 252.187 151.704 236.676 150.487 220.063C149.705 209.306 152.268 197.623 160.252 190.368C168.235 183.105 182.42 182.425 189.084 190.912C191.681 194.217 192.898 198.419 195.312 201.867C202.446 212.067 220.343 211.468 226.776 200.813C226.674 207.177 232.434 212.468 238.649 213.835C244.864 215.208 252.235 215.249 257.335 211.441C262.857 207.313 267.161 200.439 267.161 200.439C267.161 200.439 274.356 214.773 293.192 205.647C301.909 201.425 307.574 189.151 306.071 179.583C301.76 152.159 277.014 131.364 250.243 124.02C218.215 115.235 181.944 123.157 156.913 144.985C138.526 161.019 126.415 184.071 123.64 208.313C120.866 232.555 127.462 257.742 141.756 277.517" stroke="black" stroke-width="3.3524" stroke-linecap="round" stroke-linejoin="round"/>
<path d="M185.269 219.268C180.183 227.033 181.176 237.567 185.371 245.849C189.567 254.131 196.482 260.653 203.255 266.997" fill="#B6DFF7"/>
<path d="M185.269 219.268C180.183 227.033 181.176 237.567 185.371 245.849C189.567 254.131 196.482 260.653 203.255 266.997" stroke="black" stroke-width="3.3524" stroke-linecap="round" stroke-linejoin="round"/>
<path d="M238.431 271.186C231.903 264.474 227.109 256.09 224.627 247.066L238.431 271.186Z" fill="#B6DFF7"/>
<path d="M238.431 271.186C231.903 264.474 227.109 256.09 224.627 247.066" stroke="black" stroke-width="3.3524" stroke-linecap="round" stroke-linejoin="round"/>
<path d="M242.45 221.158C243.028 233.371 247.285 245.394 254.52 255.254L242.45 221.158Z" fill="#B6DFF7"/>
<path d="M242.45 221.158C243.028 233.371 247.285 245.394 254.52 255.254" stroke="black" stroke-width="3.3524" stroke-linecap="round" stroke-linejoin="round"/>
<path d="M205.696 297.624C188.342 279.591 162.937 253.649 161.822 228.645C161.407 219.322 167.997 209.279 165.902 200.18C161.523 181.174 153.893 168.948 135.486 162.501C117.078 156.055 97.0863 156.177 77.6043 156.987C62.9027 157.599 46.9907 159.054 36.0835 168.927C27.8351 176.394 23.8911 187.553 22.1639 198.535C18.4035 222.43 24.0135 247.671 37.5387 267.725C51.0639 287.778 72.3683 302.432 95.937 307.892" fill="#E5F3FC"/>
<path d="M205.696 297.624C188.342 279.591 162.937 253.649 161.822 228.645C161.407 219.322 167.997 209.279 165.902 200.18C161.523 181.174 153.893 168.948 135.486 162.501C117.078 156.055 97.0863 156.177 77.6043 156.987C62.9027 157.599 46.9907 159.054 36.0835 168.927C27.8351 176.394 23.8911 187.553 22.1639 198.535C18.4035 222.43 24.0135 247.671 37.5387 267.725C51.0639 287.778 72.3683 302.432 95.937 307.892" stroke="black" stroke-width="3.3524" stroke-linecap="round" stroke-linejoin="round"/>
<path d="M97.814 309.368C83.0444 297.686 68.1659 285.894 56.1163 271.424C44.0667 256.954 34.9072 239.423 33.5404 220.642C32.6564 208.483 35.5532 195.284 44.5768 187.077C53.5936 178.869 69.6279 178.101 77.1623 187.689C80.0999 191.429 81.4736 196.175 84.2004 200.072C92.2584 211.598 112.495 210.918 119.764 198.882C119.649 206.069 126.163 212.053 133.181 213.604C140.205 215.154 148.542 215.208 154.301 210.897C160.537 206.232 165.406 198.467 165.406 198.467C165.406 198.467 173.539 214.664 194.823 204.356C204.676 199.582 211.075 185.71 209.375 174.891C204.499 143.897 176.531 120.396 146.278 112.093C110.081 102.158 69.0839 111.114 40.7891 135.784C20.0083 153.906 6.31996 179.964 3.18516 207.361C0.0503633 234.758 9.29836 274.906 25.4552 297.257" fill="#B6DFF7"/>
<path d="M97.814 309.368C83.0444 297.686 68.1659 285.894 56.1163 271.424C44.0667 256.954 34.9072 239.423 33.5404 220.642C32.6564 208.483 35.5532 195.284 44.5768 187.077C53.5936 178.869 69.6279 178.101 77.1623 187.689C80.0999 191.429 81.4736 196.175 84.2004 200.072C92.2584 211.598 112.495 210.918 119.764 198.882C119.649 206.069 126.163 212.053 133.181 213.604C140.205 215.154 148.542 215.208 154.301 210.897C160.537 206.232 165.406 198.467 165.406 198.467C165.406 198.467 173.539 214.664 194.823 204.356C204.676 199.582 211.075 185.71 209.375 174.891C204.499 143.897 176.531 120.396 146.278 112.093C110.081 102.158 69.0839 111.114 40.7891 135.784C20.0083 153.906 6.31996 179.964 3.18516 207.361C0.0503633 234.758 9.29836 274.906 25.4552 297.257" stroke="black" stroke-width="3.3524" stroke-linecap="round" stroke-linejoin="round"/>
<path d="M72.851 219.744C67.105 228.523 68.2271 240.423 72.9667 249.786C77.7063 259.143 85.5195 266.514 93.1831 273.688" fill="#B6DFF7"/>
<path d="M72.851 219.744C67.105 228.523 68.2271 240.423 72.9667 249.786C77.7063 259.143 85.5195 266.514 93.1831 273.688" stroke="black" stroke-width="3.3524" stroke-linecap="round" stroke-linejoin="round"/>
<path d="M132.936 278.435C125.558 270.846 120.138 261.374 117.33 251.174L132.936 278.435Z" fill="#B6DFF7"/>
<path d="M132.936 278.435C125.558 270.846 120.138 261.374 117.33 251.174" stroke="black" stroke-width="3.3524" stroke-linecap="round" stroke-linejoin="round"/>
<path d="M137.478 221.886C138.131 235.69 142.946 249.276 151.119 260.422L137.478 221.886Z" fill="#B6DFF7"/>
<path d="M137.478 221.886C138.131 235.69 142.946 249.276 151.119 260.422" stroke="black" stroke-width="3.3524" stroke-linecap="round" stroke-linejoin="round"/>
<path d="M119.608 199.222C120.975 195.584 121.179 191.51 120.172 187.75L119.608 199.222Z" fill="#B6DFF7"/>
<path d="M119.608 199.222C120.975 195.584 121.179 191.51 120.172 187.75" stroke="black" stroke-width="3.3524" stroke-linecap="round" stroke-linejoin="round"/>
<path d="M165.311 198.963C165.746 194.128 164.27 189.151 161.278 185.336L165.311 198.963Z" fill="#B6DFF7"/>
<path d="M165.311 198.963C165.746 194.128 164.27 189.151 161.278 185.336" stroke="black" stroke-width="3.3524" stroke-linecap="round" stroke-linejoin="round"/>
<path d="M267.08 200.656C267.372 196.352 266.311 191.973 264.088 188.273L267.08 200.656Z" fill="#B6DFF7"/>
<path d="M267.08 200.656C267.372 196.352 266.311 191.973 264.088 188.273" stroke="black" stroke-width="3.3524" stroke-linecap="round" stroke-linejoin="round"/>
<path d="M226.796 200.915C227.15 197.154 226.259 193.285 224.287 190.062L226.796 200.915Z" fill="#B6DFF7"/>
<path d="M226.796 200.915C227.15 197.154 226.259 193.285 224.287 190.062" stroke="black" stroke-width="3.3524" stroke-linecap="round" stroke-linejoin="round"/>
<path d="M550.885 360.864C561.84 379.979 546.39 394.266 533.327 402.086C520.258 409.906 504.543 411.722 489.345 412.619C373.677 419.433 260.246 383.488 149.957 347.965C137.071 343.817 123.831 339.472 113.461 330.781C103.084 322.084 93.9723 308.518 102.846 294.877" fill="#6B645D"/>
<path d="M550.885 360.864C561.84 379.979 546.39 394.266 533.327 402.086C520.258 409.906 504.543 411.722 489.345 412.619C373.677 419.433 260.246 383.488 149.957 347.965C137.071 343.817 123.831 339.472 113.461 330.781C103.084 322.084 93.9723 308.518 102.846 294.877" stroke="black" stroke-width="3.3524" stroke-linecap="round" stroke-linejoin="round"/>
<path d="M149.25 339.485C134.555 334.576 119.615 329.612 109.538 321.513C104.499 317.46 101.146 312.367 99.9225 306.601C97.5357 295.381 112.7 280.897 133.222 274.797C143.762 271.662 154.486 269.717 164.495 269.024C184.508 267.637 202.208 269.969 219.657 272.24C330.83 286.711 446.247 299.821 526.364 341.315C535.891 346.251 544.996 351.678 549.899 359.219C554.598 366.447 556.284 376.151 549.722 385.929C549.144 386.786 548.267 387.629 547.165 388.371C534.646 396.816 517.123 402.236 501.938 405.024C486.088 407.934 471.23 408.009 456.936 407.621C336.766 404.385 242.859 370.738 149.257 339.472L149.25 339.485Z" fill="#D6C7B7" stroke="black" stroke-width="3.3524" stroke-linecap="round" stroke-linejoin="round"/>
<path d="M235.262 333.447C270.666 333.447 299.366 329.242 299.366 324.056C299.366 318.87 270.666 314.665 235.262 314.665C199.859 314.665 171.158 318.87 171.158 324.056C171.158 329.242 199.859 333.447 235.262 333.447Z" fill="black" stroke="black" stroke-width="3.3524" stroke-linecap="round" stroke-linejoin="round"/>
<path d="M225.157 135.662C223.457 141.721 217.446 146.025 211.183 146.63C204.921 147.235 198.624 144.543 193.973 140.306C189.321 136.063 185.581 129.841 183.426 123.932L181.154 117.71C187.54 116.547 192.64 110.407 192.599 103.919C192.585 101.424 191.912 98.8806 192.585 96.4802C193.088 94.6986 194.326 93.0462 194.122 91.2034C193.87 88.9186 191.246 87.4021 188.981 87.8305C186.717 88.2589 184.976 90.1969 184.153 92.3457C183.331 94.4945 183.283 96.8542 183.324 99.1594C183.337 100.023 183.358 100.914 183.058 101.723C182.759 102.532 182.066 103.267 181.202 103.328C179.944 103.416 179.04 102.158 178.516 101.016C177.075 97.8605 176.469 94.3314 176.768 90.8702C173.416 89.8638 169.928 89.3265 166.426 89.2653C165.515 83.5873 164.596 77.8822 162.679 72.4626C162.012 70.5858 161.197 68.709 159.796 67.3014C158.395 65.8938 156.273 65.0506 154.369 65.6286C152.268 66.2678 150.963 68.4777 150.711 70.6605C150.459 72.8433 151.058 75.0194 151.649 77.1342C150.969 74.8698 148.712 73.1766 146.345 73.163C143.979 73.1426 141.694 74.8018 140.98 77.0526C140.259 79.3034 141.164 81.9757 143.108 83.3289C139.804 88.8301 139.681 96.2354 143.251 101.573C144.747 103.811 146.794 105.626 148.481 107.727C151.078 110.957 152.785 114.806 154.458 118.601C156.151 122.436 163.821 125.074 165.514 128.916C170.737 140.748 180.325 150.907 192.116 156.232C203.907 161.549 218.725 160.944 228.857 152.913" fill="#D6C7B7"/>
<path d="M225.157 135.662C223.457 141.721 217.446 146.025 211.183 146.63C204.921 147.235 198.624 144.543 193.973 140.306C189.321 136.063 185.581 129.841 183.426 123.932L181.154 117.71C187.54 116.547 192.64 110.407 192.599 103.919C192.585 101.424 191.912 98.8806 192.585 96.4802C193.088 94.6986 194.326 93.0462 194.122 91.2034C193.87 88.9186 191.246 87.4021 188.981 87.8305C186.717 88.2589 184.976 90.1969 184.153 92.3457C183.331 94.4945 183.283 96.8542 183.324 99.1594C183.337 100.023 183.358 100.914 183.058 101.723C182.759 102.532 182.066 103.267 181.202 103.328C179.944 103.416 179.04 102.158 178.516 101.016C177.075 97.8605 176.469 94.3314 176.768 90.8702C173.416 89.8638 169.928 89.3265 166.426 89.2653C165.515 83.5873 164.596 77.8822 162.679 72.4626C162.012 70.5858 161.197 68.709 159.796 67.3014C158.395 65.8938 156.273 65.0506 154.369 65.6286C152.268 66.2678 150.963 68.4777 150.711 70.6605C150.459 72.8433 151.058 75.0194 151.649 77.1342C150.969 74.8698 148.712 73.1766 146.345 73.163C143.979 73.1426 141.694 74.8018 140.98 77.0526C140.259 79.3034 141.164 81.9757 143.108 83.3289C139.804 88.8301 139.681 96.2354 143.251 101.573C144.747 103.811 146.794 105.626 148.481 107.727C151.078 110.957 152.785 114.806 154.458 118.601C156.151 122.436 163.821 125.074 165.514 128.916C170.737 140.748 180.325 150.907 192.116 156.232C203.907 161.549 218.725 160.944 228.857 152.913" stroke="black" stroke-width="3.3524" stroke-linecap="round" stroke-linejoin="round"/>
<path d="M177.224 97.1806C177.048 95.2426 176.463 93.5223 177.625 91.9583C179.795 94.0323 183.167 94.9979 185.915 93.7943C188.662 92.5907 190.246 88.9527 188.784 86.3347C187.526 84.0975 184.731 83.2611 182.929 81.4319C181.835 80.3303 181.1 78.8547 179.808 77.9911C177.959 76.7535 175.368 77.1411 173.539 78.4127C171.709 79.6843 170.52 81.6698 169.561 83.6758C168.602 85.6818 167.827 87.7967 166.575 89.6395" fill="#D6C7B7"/>
<path d="M177.224 97.1806C177.048 95.2426 176.463 93.5223 177.625 91.9583C179.795 94.0323 183.167 94.9979 185.915 93.7943C188.662 92.5907 190.246 88.9527 188.784 86.3347C187.526 84.0975 184.731 83.2611 182.929 81.4319C181.835 80.3303 181.1 78.8547 179.808 77.9911C177.959 76.7535 175.368 77.1411 173.539 78.4127C171.709 79.6843 170.52 81.6698 169.561 83.6758C168.602 85.6818 167.827 87.7967 166.575 89.6395" stroke="black" stroke-width="3.3524" stroke-linecap="round" stroke-linejoin="round"/>
<path d="M151.656 77.1545C154.124 82.6693 157.232 89.0614 157.232 96.045L151.656 77.1545Z" fill="white"/>
<path d="M151.656 77.1545C154.124 82.6693 157.232 89.0614 157.232 96.045" stroke="black" stroke-width="3.3524" stroke-linecap="round" stroke-linejoin="round"/>
<path d="M149.793 95.4533C148.093 92.2845 147.739 91.8697 148.195 88.6193C148.365 87.4021 149.12 86.5249 148.685 84.3761C148.433 83.1045 146.828 82.0641 145.543 81.8941C144.067 81.6969 143.156 81.7649 141.993 82.6965C140.919 83.5533 140.559 85.0085 140.375 86.3753C139.872 90.1085 140.219 93.9573 141.388 97.5409" fill="#D6C7B7"/>
<path d="M149.793 95.4533C148.093 92.2845 147.739 91.8697 148.195 88.6193C148.365 87.4021 149.12 86.5249 148.685 84.3761C148.433 83.1045 146.828 82.0641 145.543 81.8941C144.067 81.6969 143.156 81.7649 141.993 82.6965C140.919 83.5533 140.559 85.0085 140.375 86.3753C139.872 90.1085 140.219 93.9573 141.388 97.5409" stroke="black" stroke-width="3.3524" stroke-linecap="round" stroke-linejoin="round"/>
<path d="M153.533 101.512C156.525 95.9226 162.108 91.795 168.33 90.571L153.533 101.512Z" fill="white"/>
<path d="M153.533 101.512C156.525 95.9226 162.108 91.795 168.33 90.571" stroke="black" stroke-width="3.3524" stroke-linecap="round" stroke-linejoin="round"/>
<path d="M164.576 104.287C167.602 105.817 170.002 108.537 171.145 111.726L164.576 104.287Z" fill="#D6C7B7"/>
<path d="M164.576 104.287C167.602 105.817 170.002 108.537 171.145 111.726" stroke="black" stroke-width="3.3524" stroke-linecap="round" stroke-linejoin="round"/>
<path d="M219.622 157.864C222.274 156.463 225.11 155.409 227.32 153.906C227.959 153.471 228.598 152.941 228.789 152.22C228.918 151.717 228.816 151.186 228.707 150.676C228.347 148.997 227.993 147.317 227.633 145.644C227.429 144.685 227.191 143.672 226.456 142.979C225.47 142.054 223.832 141.999 222.553 142.523C221.662 142.89 219.996 143.876 219.697 144.808C219.398 145.739 219.983 147.399 220.18 148.357C221.377 154.063 221.173 157.082 219.622 157.857V157.864Z" fill="black" stroke="black" stroke-width="3.3524" stroke-linecap="round" stroke-linejoin="round"/>
<path d="M245.829 245.339C249.807 248.827 252.888 250.881 253.017 256.382C252.629 250.67 253.024 244.904 254.193 239.301C249.937 239.409 245.659 237.961 242.341 235.289C241.613 234.704 240.92 234.051 240.07 233.663C239.22 233.276 238.152 233.201 237.397 233.752C235.929 234.826 236.146 237.512 235.255 239.029C239.009 241.062 242.45 242.388 245.823 245.339H245.829Z" fill="black" stroke="black" stroke-width="3.3524" stroke-linecap="round" stroke-linejoin="round"/>
<path d="M260.892 210.802C246.034 216.922 234.895 231.277 232.658 247.189C230.421 263.101 237.173 279.971 249.767 289.947C238.071 282.093 221.982 281.345 209.599 288.077C197.223 294.809 189.104 308.722 189.335 322.805C218.276 329.258 248.577 329.543 277.64 323.648C281.013 310.442 273.791 297.053 266.495 285.547C259.198 274.042 251.208 261.428 252.936 247.909C254.738 233.833 266.488 223.402 277.667 214.664" fill="#D6C7B7"/>
<path d="M260.892 210.802C246.034 216.922 234.895 231.277 232.658 247.189C230.421 263.101 237.173 279.971 249.767 289.947C238.071 282.093 221.982 281.345 209.599 288.077C197.223 294.809 189.104 308.722 189.335 322.805C218.276 329.258 248.577 329.543 277.64 323.648C281.013 310.442 273.791 297.053 266.495 285.547C259.198 274.042 251.208 261.428 252.936 247.909C254.738 233.833 266.488 223.402 277.667 214.664" stroke="black" stroke-width="3.3524" stroke-linecap="round" stroke-linejoin="round"/>
<path d="M212.135 43.4199L234.929 232.154C235.439 236.397 239.016 239.607 243.293 239.661L300.046 240.348L311.606 240.491L368.359 241.177C372.636 241.232 376.288 238.104 376.906 233.874L404.27 45.7523" fill="#D6C7B7"/>
<path d="M212.135 43.4199L234.929 232.154C235.439 236.397 239.016 239.607 243.293 239.661L300.046 240.348L311.606 240.491L368.359 241.177C372.636 241.232 376.288 238.104 376.906 233.874L404.27 45.7523" stroke="black" stroke-width="3.3524" stroke-linecap="round" stroke-linejoin="round"/>
<path d="M313.938 64.2279C312.041 64.2279 310.13 64.2142 308.206 64.1938C284.093 63.9014 261.313 61.7934 244.061 58.2574C234.99 56.401 227.66 54.1775 222.288 51.6547C209.803 45.7931 207.267 37.7282 207.335 31.989C207.403 26.3858 210.007 18.5522 222.036 13.017C227.163 10.6574 234.12 8.63102 242.715 6.98542C258.811 3.90502 280.299 2.20508 303.228 2.20508C305.125 2.20508 307.036 2.21863 308.961 2.23903C333.074 2.53143 355.853 4.63942 373.105 8.17542C382.176 10.0318 389.507 12.2555 394.879 14.7783C407.363 20.6399 409.9 28.7046 409.832 34.4438C409.764 40.047 407.159 47.8806 395.13 53.4158C390.003 55.7754 383.047 57.8018 374.451 59.4474C358.356 62.5278 336.868 64.2279 313.938 64.2279Z" fill="#D6C7B7"/>
<path d="M313.938 64.2279C312.041 64.2279 310.13 64.2142 308.206 64.1938C284.093 63.9014 261.313 61.7934 244.061 58.2574C234.99 56.401 227.66 54.1775 222.288 51.6547C209.803 45.7931 207.267 37.7282 207.335 31.989C207.403 26.3858 210.007 18.5522 222.036 13.017C227.163 10.6574 234.12 8.63102 242.715 6.98542C258.811 3.90502 280.299 2.20508 303.228 2.20508C305.125 2.20508 307.036 2.21863 308.961 2.23903C333.074 2.53143 355.853 4.63942 373.105 8.17542C382.176 10.0318 389.507 12.2555 394.879 14.7783C407.363 20.6399 409.9 28.7046 409.832 34.4438C409.764 40.047 407.159 47.8806 395.13 53.4158C390.003 55.7754 383.047 57.8018 374.451 59.4474C358.356 62.5278 336.868 64.2279 313.938 64.2279Z" stroke="black" stroke-width="3.3524" stroke-linecap="round" stroke-linejoin="round"/>
<path d="M395.476 32.2979C395.587 23.0562 356.726 15.0953 308.678 14.5166C260.629 13.938 221.588 20.9607 221.477 30.2024C221.365 39.4441 260.226 47.4051 308.275 47.9838C356.323 48.5625 395.365 41.5396 395.476 32.2979Z" fill="#6E6860"/>
<mask id="mask0_136_84022" style="mask-type:luminance" maskUnits="userSpaceOnUse" x="221" y="14" width="175" height="35">
<path d="M395.476 32.2979C395.587 23.0562 356.726 15.0953 308.678 14.5166C260.629 13.938 221.588 20.9607 221.477 30.2024C221.365 39.4441 260.226 47.4051 308.275 47.9838C356.323 48.5625 395.365 41.5396 395.476 32.2979Z" fill="white"/>
</mask>
<g mask="url(#mask0_136_84022)">
<path d="M394.478 36.9371C394.58 28.4465 355.712 21.0944 307.664 20.5158C259.615 19.9371 220.581 26.3509 220.479 34.8416C220.377 43.3322 259.245 50.6844 307.293 51.2631C355.342 51.8418 394.376 45.4278 394.478 36.9371Z" fill="#38332F"/>
<path d="M394.478 36.9371C394.58 28.4465 355.712 21.0944 307.664 20.5158C259.615 19.9371 220.581 26.3509 220.479 34.8416C220.377 43.3322 259.245 50.6844 307.293 51.2631C355.342 51.8418 394.376 45.4278 394.478 36.9371Z" stroke="black" stroke-width="3.3524" stroke-linecap="round" stroke-linejoin="round"/>
<path d="M354.378 36.8579L336.719 28.1404L340.697 41.2439L354.378 36.8511V36.8579Z" fill="white" stroke="black" stroke-width="3.3524" stroke-linecap="round" stroke-linejoin="round"/>
<path d="M325.791 97.0787L364.673 85.2806C366.897 84.6074 368.114 82.1118 367.387 79.7182L354.378 36.8646L340.703 40.8902L336.725 28.147L307.56 37.0006C305.337 37.6738 304.119 40.1694 304.847 42.563L320.446 93.9642C321.174 96.3646 323.567 97.7586 325.791 97.0854V97.0787Z" fill="white" stroke="black" stroke-width="3.3524" stroke-linecap="round" stroke-linejoin="round"/>
<path d="M346.395 47.9824L320.039 55.9792" stroke="black" stroke-width="3.3524" stroke-linecap="round" stroke-linejoin="round"/>
<path d="M359.125 35.416L341.465 26.6985L345.443 39.802L359.125 35.4092V35.416Z" fill="white" stroke="black" stroke-width="3.3524" stroke-linecap="round" stroke-linejoin="round"/>
<path d="M330.531 95.6369L369.413 83.8389C371.637 83.1657 372.854 80.6702 372.126 78.2766L359.118 35.423L345.443 39.4486L341.465 26.7053L312.3 35.5589C310.076 36.2321 308.859 38.7278 309.587 41.1214L325.186 92.5226C325.913 94.923 328.307 96.3169 330.531 95.6437V95.6369Z" fill="white" stroke="black" stroke-width="3.3524" stroke-linecap="round" stroke-linejoin="round"/>
<path d="M351.135 46.541L324.778 54.5378" stroke="black" stroke-width="3.3524" stroke-linecap="round" stroke-linejoin="round"/>
<path d="M363.436 34.1106L345.777 25.3931L349.755 38.4967L363.436 34.1038V34.1106Z" fill="white" stroke="black" stroke-width="3.3524" stroke-linecap="round" stroke-linejoin="round"/>
<path d="M334.842 94.3313L373.725 82.5333C375.948 81.8601 377.165 79.3644 376.438 76.9708L363.429 34.1172L349.755 38.1429L345.777 25.3997L316.611 34.2533C314.388 34.9265 313.171 37.422 313.898 39.8156L329.497 91.2168C330.225 93.6172 332.619 95.0113 334.842 94.3381V94.3313Z" fill="white" stroke="black" stroke-width="3.3524" stroke-linecap="round" stroke-linejoin="round"/>
<path d="M355.446 45.2356L329.089 53.2324" stroke="black" stroke-width="3.3524" stroke-linecap="round" stroke-linejoin="round"/>
<path d="M340.085 56.9588L332.129 38.9456L326.777 51.5528L340.092 56.9588H340.085Z" fill="white" stroke="black" stroke-width="3.3524" stroke-linecap="round" stroke-linejoin="round"/>
<path d="M279.524 84.8252L316.931 100.71C319.073 101.621 321.602 100.486 322.582 98.1804L340.085 56.9588L327.008 51.2807L332.129 38.9523L304.072 27.0388C301.93 26.1276 299.4 27.2632 298.421 29.5684L277.423 79.0112C276.444 81.3164 277.382 83.9276 279.524 84.832V84.8252Z" fill="white" stroke="black" stroke-width="3.3524" stroke-linecap="round" stroke-linejoin="round"/>
<path d="M326.825 60.3723L301.468 49.6079" stroke="black" stroke-width="3.3524" stroke-linecap="round" stroke-linejoin="round"/>
<path d="M344.648 58.8967L336.692 40.8835L331.34 53.4907L344.655 58.8967H344.648Z" fill="white" stroke="black" stroke-width="3.3524" stroke-linecap="round" stroke-linejoin="round"/>
<path d="M284.087 86.7632L321.494 102.648C323.636 103.559 326.165 102.424 327.144 100.118L344.648 58.8968L331.571 53.2188L336.692 40.8904L308.635 28.9768C306.493 28.0656 303.963 29.2012 302.984 31.5064L281.985 80.9491C281.006 83.2543 281.945 85.8656 284.087 86.77V86.7632Z" fill="white" stroke="black" stroke-width="3.3524" stroke-linecap="round" stroke-linejoin="round"/>
<path d="M348.789 60.658L340.833 42.6448L335.481 55.252L348.796 60.658H348.789Z" fill="white" stroke="black" stroke-width="3.3524" stroke-linecap="round" stroke-linejoin="round"/>
<path d="M288.235 88.5244L325.642 104.409C327.784 105.32 330.313 104.185 331.292 101.88L348.796 60.658L335.719 54.98L340.84 42.6516L312.783 30.738C310.641 29.8268 308.111 30.9624 307.132 33.2676L286.134 82.7105C285.154 85.0157 286.093 87.6268 288.235 88.5312V88.5244Z" fill="white" stroke="black" stroke-width="3.3524" stroke-linecap="round" stroke-linejoin="round"/>
<path d="M284.386 37.8236L266.706 29.1536L270.718 42.2504L284.386 37.8236Z" fill="white" stroke="black" stroke-width="3.3524" stroke-linecap="round" stroke-linejoin="round"/>
<path d="M255.955 98.1188L294.81 86.2188C297.034 85.5388 298.244 83.0432 297.51 80.6496L284.393 37.83L270.725 41.8964L266.713 29.1667L237.568 38.0952C235.344 38.7752 234.134 41.2708 234.868 43.6644L250.604 95.0248C251.338 97.4184 253.738 98.8124 255.962 98.1324L255.955 98.1188Z" fill="white" stroke="black" stroke-width="3.3524" stroke-linecap="round" stroke-linejoin="round"/>
<path d="M276.43 48.9688L250.094 57.0335" stroke="black" stroke-width="3.3524" stroke-linecap="round" stroke-linejoin="round"/>
<path d="M289.125 36.3685L271.445 27.6985L275.457 40.7953L289.125 36.3685Z" fill="white" stroke="black" stroke-width="3.3524" stroke-linecap="round" stroke-linejoin="round"/>
<path d="M260.688 96.6707L299.543 84.7707C301.767 84.0907 302.977 81.5951 302.243 79.2015L289.125 36.3819L275.458 40.4483L271.445 27.7188L242.301 36.6471C240.077 37.3271 238.867 39.8227 239.601 42.2163L255.336 93.5767C256.071 95.9703 258.471 97.3643 260.695 96.6843L260.688 96.6707Z" fill="white" stroke="black" stroke-width="3.3524" stroke-linecap="round" stroke-linejoin="round"/>
<path d="M281.17 47.5137L254.833 55.5853" stroke="black" stroke-width="3.3524" stroke-linecap="round" stroke-linejoin="round"/>
<path d="M293.43 35.0487L275.75 26.3787L279.761 39.4755L293.43 35.0487Z" fill="white" stroke="black" stroke-width="3.3524" stroke-linecap="round" stroke-linejoin="round"/>
<path d="M264.999 95.3448L303.854 83.4448C306.078 82.7648 307.288 80.2692 306.554 77.8756L293.436 35.056L279.768 39.1224L275.756 26.3928L246.612 35.3212C244.388 36.0012 243.178 38.4969 243.912 40.8905L259.647 92.2508C260.382 94.6444 262.782 96.0385 265.006 95.3585L264.999 95.3448Z" fill="white" stroke="black" stroke-width="3.3524" stroke-linecap="round" stroke-linejoin="round"/>
<path d="M285.474 46.1938L259.137 54.2654" stroke="black" stroke-width="3.3524" stroke-linecap="round" stroke-linejoin="round"/>
</g>
<path d="M395.476 32.2979C395.587 23.0562 356.726 15.0953 308.678 14.5166C260.629 13.938 221.588 20.9607 221.477 30.2024C221.365 39.4441 260.226 47.4051 308.275 47.9838C356.323 48.5625 395.365 41.5396 395.476 32.2979Z" stroke="black" stroke-width="3.3524" stroke-linecap="round" stroke-linejoin="round"/>
<path d="M391.418 369.011C427.031 369.011 455.902 364.806 455.902 359.62C455.902 354.433 427.031 350.229 391.418 350.229C355.804 350.229 326.933 354.433 326.933 359.62C326.933 364.806 355.804 369.011 391.418 369.011Z" fill="black" stroke="black" stroke-width="3.3524" stroke-linecap="round" stroke-linejoin="round"/>
<path d="M317.794 154.042C316.597 141.075 314.999 124.619 317.712 111.882C318.433 108.503 319.446 105.137 321.309 102.226C323.166 99.3159 325.961 96.8815 329.306 96.0315C334.828 94.6307 340.737 97.8879 343.974 102.58C347.204 107.279 348.258 113.113 348.788 118.791C349.815 129.827 349.162 141.013 346.844 151.853" fill="white"/>
<mask id="mask1_136_84022" style="mask-type:luminance" maskUnits="userSpaceOnUse" x="316" y="95" width="34" height="60">
<path d="M317.794 154.042C316.597 141.075 314.999 124.619 317.712 111.882C318.433 108.503 319.446 105.137 321.309 102.226C323.166 99.3159 325.961 96.8815 329.306 96.0315C334.828 94.6307 340.737 97.8879 343.974 102.58C347.204 107.279 348.258 113.113 348.788 118.791C349.815 129.827 349.162 141.013 346.844 151.853" fill="white"/>
</mask>
<g mask="url(#mask1_136_84022)">
<path d="M345.552 160.604C351.301 160.604 355.962 148.542 355.962 133.663C355.962 118.783 351.301 106.721 345.552 106.721C339.802 106.721 335.141 118.783 335.141 133.663C335.141 148.542 339.802 160.604 345.552 160.604Z" fill="#221F20" stroke="black" stroke-width="3.3524" stroke-linecap="round" stroke-linejoin="round"/>
</g>
<path d="M317.794 154.042C316.597 141.075 314.999 124.619 317.712 111.882C318.433 108.503 319.446 105.137 321.309 102.226C323.166 99.3159 325.961 96.8815 329.306 96.0315C334.828 94.6307 340.737 97.8879 343.974 102.58C347.204 107.279 348.258 113.113 348.788 118.791C349.815 129.827 349.162 141.013 346.844 151.853" stroke="black" stroke-width="3.3524" stroke-linecap="round" stroke-linejoin="round"/>
<path d="M349.258 121.022C337.922 119.947 324.077 120.913 313.591 125.346C313.347 119.594 313.109 113.718 314.727 108.19C316.346 102.662 320.167 97.4459 325.661 95.7255C332.026 93.7263 339.194 96.9835 343.294 102.247C347.394 107.51 348.89 114.364 349.251 121.022" fill="#D6C7B7"/>
<path d="M349.258 121.022C337.922 119.947 324.077 120.913 313.591 125.346C313.347 119.594 313.109 113.718 314.727 108.19C316.346 102.662 320.167 97.4459 325.661 95.7255C332.026 93.7263 339.194 96.9835 343.294 102.247C347.394 107.51 348.89 114.364 349.251 121.022" stroke="black" stroke-width="3.3524" stroke-linecap="round" stroke-linejoin="round"/>
<path d="M265.393 93.0598C267.97 89.245 271.908 86.3754 276.328 85.0834C280.748 83.7914 285.609 84.0906 289.832 85.913" fill="#D6C7B7"/>
<path d="M265.393 93.0598C267.97 89.245 271.908 86.3754 276.328 85.0834C280.748 83.7914 285.609 84.0906 289.832 85.913" stroke="black" stroke-width="3.3524" stroke-linecap="round" stroke-linejoin="round"/>
<path d="M323.9 87.1303C328.443 85.7567 333.08 84.3627 337.82 84.5123C342.56 84.6551 347.51 86.6135 350.053 90.6119" fill="#D6C7B7"/>
<path d="M323.9 87.1303C328.443 85.7567 333.08 84.3627 337.82 84.5123C342.56 84.6551 347.51 86.6135 350.053 90.6119" stroke="black" stroke-width="3.3524" stroke-linecap="round" stroke-linejoin="round"/>
<path d="M266.094 152.852C264.897 139.885 263.72 126.686 266.44 113.949C267.161 110.57 268.174 107.204 270.038 104.293C271.894 101.383 274.689 98.9486 278.034 98.0986C283.556 96.6978 289.465 99.9549 292.702 104.647C295.932 109.346 296.986 115.18 297.516 120.858C298.543 131.895 297.89 143.081 295.571 153.92" fill="white"/>
<mask id="mask2_136_84022" style="mask-type:luminance" maskUnits="userSpaceOnUse" x="264" y="97" width="34" height="57">
<path d="M266.094 152.852C264.897 139.885 263.72 126.686 266.44 113.949C267.161 110.57 268.174 107.204 270.038 104.293C271.894 101.383 274.689 98.9486 278.034 98.0986C283.556 96.6978 289.465 99.9549 292.702 104.647C295.932 109.346 296.986 115.18 297.516 120.858C298.543 131.895 297.89 143.081 295.571 153.92" fill="white"/>
</mask>
<g mask="url(#mask2_136_84022)">
<path d="M294.266 162.672C300.016 162.672 304.677 150.61 304.677 135.73C304.677 120.851 300.016 108.789 294.266 108.789C288.516 108.789 283.855 120.851 283.855 135.73C283.855 150.61 288.516 162.672 294.266 162.672Z" fill="#221F20" stroke="black" stroke-width="3.3524" stroke-linecap="round" stroke-linejoin="round"/>
</g>
<path d="M266.094 152.852C264.897 139.885 263.72 126.686 266.44 113.949C267.161 110.57 268.174 107.204 270.038 104.293C271.894 101.383 274.689 98.9486 278.034 98.0986C283.556 96.6978 289.465 99.9549 292.702 104.647C295.932 109.346 296.986 115.18 297.516 120.858C298.543 131.895 297.89 143.081 295.571 153.92" stroke="black" stroke-width="3.3524" stroke-linecap="round" stroke-linejoin="round"/>
<path d="M299.862 146.338C298.373 147.569 297.258 149.316 297.034 151.234C296.666 154.484 298.992 157.599 301.957 158.986C304.922 160.373 308.356 160.319 311.579 159.809C314.183 159.394 317.005 158.51 318.365 156.245C319.725 153.981 319.174 151.091 317.821 148.888C314.102 142.849 305.194 141.911 299.862 146.338Z" fill="#D6C7B7" stroke="black" stroke-width="3.3524" stroke-linecap="round" stroke-linejoin="round"/>
<path d="M344.579 174.198C348.292 171.743 351.182 167.704 351.298 163.256C351.447 157.402 346.585 152.193 340.921 150.697C335.256 149.201 329.136 150.84 324.091 153.811C319.249 156.66 314.748 160.842 309.138 161.128C305.867 161.298 302.664 160.067 299.849 158.401C297.033 156.735 294.504 154.627 291.784 152.791C286.908 149.507 281.087 147.072 275.26 147.861C267.406 148.922 260.497 157.306 261.184 165.201C261.891 173.341 263.591 175.449 269.881 178.121" fill="#D6C7B7"/>
<path d="M344.579 174.198C348.292 171.743 351.182 167.704 351.298 163.256C351.447 157.402 346.585 152.193 340.921 150.697C335.256 149.201 329.136 150.84 324.091 153.811C319.249 156.66 314.748 160.842 309.138 161.128C305.867 161.298 302.664 160.067 299.849 158.401C297.033 156.735 294.504 154.627 291.784 152.791C286.908 149.507 281.087 147.072 275.26 147.861C267.406 148.922 260.497 157.306 261.184 165.201C261.891 173.341 263.591 175.449 269.881 178.121" stroke="black" stroke-width="3.3524" stroke-linecap="round" stroke-linejoin="round"/>
<path d="M297.979 123.089C286.643 122.014 272.798 122.98 262.313 127.413C262.068 121.661 261.83 115.785 263.448 110.257C265.067 104.729 268.888 99.513 274.383 97.7926C280.747 95.7934 287.915 99.0506 292.015 104.314C296.115 109.577 297.611 116.431 297.972 123.089" fill="#D6C7B7"/>
<path d="M297.979 123.089C286.643 122.014 272.798 122.98 262.313 127.413C262.068 121.661 261.83 115.785 263.448 110.257C265.067 104.729 268.888 99.513 274.383 97.7926C280.747 95.7934 287.915 99.0506 292.015 104.314C296.115 109.577 297.611 116.431 297.972 123.089" stroke="black" stroke-width="3.3524" stroke-linecap="round" stroke-linejoin="round"/>
<path d="M329.619 189.81C324.689 196.828 315.958 201.445 307.485 200.092C299.624 198.841 293.362 193 288.003 187.111C285.052 183.867 282.182 180.474 280.258 176.537C278.334 172.6 277.864 166.908 278.986 162.665C280.816 164.718 287.187 165.983 289.928 166.221C300.869 167.173 305.71 167.574 318.093 167.221C320.772 167.146 324.642 166.527 327.3 166.221C329.157 166.004 335.984 163.902 335.984 163.902C335.984 163.902 335.42 172.572 335.059 175.231C334.366 180.42 332.638 185.506 329.612 189.81H329.619Z" fill="#605B54"/>
<mask id="mask3_136_84022" style="mask-type:luminance" maskUnits="userSpaceOnUse" x="278" y="162" width="58" height="39">
<path d="M329.619 189.81C324.689 196.828 315.958 201.445 307.485 200.092C299.624 198.841 293.362 193 288.003 187.111C285.052 183.867 282.182 180.474 280.258 176.537C278.334 172.6 277.864 166.908 278.986 162.665C280.816 164.718 287.187 165.983 289.928 166.221C300.869 167.173 305.71 167.574 318.093 167.221C320.772 167.146 324.642 166.527 327.3 166.221C329.157 166.004 335.984 163.902 335.984 163.902C335.984 163.902 335.42 172.572 335.059 175.231C334.366 180.42 332.638 185.506 329.612 189.81H329.619Z" fill="white"/>
</mask>
<g mask="url(#mask3_136_84022)">
<path d="M333.931 189.892C332.211 184.479 327.811 179.991 322.432 178.162C317.053 176.333 310.831 177.203 306.167 180.44C300.026 174.912 289.86 174.585 283.366 179.699C279.817 182.494 279.164 188.11 281.095 192.19C283.033 196.277 286.943 199.065 290.975 201.112C296.891 204.118 303.399 205.92 310.002 206.579C315.714 207.144 321.752 206.797 326.764 204.002C331.782 201.207 335.672 195.366 333.931 189.899V189.892Z" fill="#E58EA5" stroke="black" stroke-width="3.3524" stroke-linecap="round" stroke-linejoin="round"/>
</g>
<path d="M329.619 189.81C324.689 196.828 315.958 201.445 307.485 200.092C299.624 198.841 293.362 193 288.003 187.111C285.052 183.867 282.182 180.474 280.258 176.537C278.334 172.6 277.864 166.908 278.986 162.665C280.816 164.718 287.187 165.983 289.928 166.221C300.869 167.173 305.71 167.574 318.093 167.221C320.772 167.146 324.642 166.527 327.3 166.221C329.157 166.004 335.984 163.902 335.984 163.902C335.984 163.902 335.42 172.572 335.059 175.231C334.366 180.42 332.638 185.506 329.612 189.81H329.619Z" stroke="black" stroke-width="3.3524" stroke-linecap="round" stroke-linejoin="round"/>
<path d="M291.247 132.568C292.892 132.568 294.225 130.951 294.225 128.957C294.225 126.963 292.892 125.346 291.247 125.346C289.602 125.346 288.268 126.963 288.268 128.957C288.268 130.951 289.602 132.568 291.247 132.568Z" fill="white"/>
<path d="M293.681 137.362C294.62 137.362 295.381 136.439 295.381 135.301C295.381 134.163 294.62 133.241 293.681 133.241C292.742 133.241 291.981 134.163 291.981 135.301C291.981 136.439 292.742 137.362 293.681 137.362Z" fill="white"/>
<path d="M342.743 131.011C344.388 131.011 345.721 129.394 345.721 127.4C345.721 125.406 344.388 123.789 342.743 123.789C341.098 123.789 339.765 125.406 339.765 127.4C339.765 129.394 341.098 131.011 342.743 131.011Z" fill="white"/>
<path d="M345.178 135.798C346.116 135.798 346.878 134.875 346.878 133.737C346.878 132.599 346.116 131.677 345.178 131.677C344.239 131.677 343.478 132.599 343.478 133.737C343.478 134.875 344.239 135.798 345.178 135.798Z" fill="white"/>
<path d="M293.708 210.04C300.488 215.637 310.491 217.003 318.528 213.433L293.708 210.04Z" fill="#D6C7B7"/>
<path d="M293.708 210.04C300.488 215.637 310.491 217.003 318.528 213.433" stroke="black" stroke-width="3.3524" stroke-linecap="round" stroke-linejoin="round"/>
<path d="M364.442 229.033C379.3 235.153 390.438 249.508 392.676 265.42C394.913 281.332 388.16 315.665 375.567 325.64C387.263 317.786 403.352 317.038 415.734 323.77C428.11 330.502 436.23 344.415 435.998 358.498C407.058 364.951 376.757 365.237 347.694 359.341C344.321 346.136 351.542 332.746 358.839 321.241C366.135 309.735 374.125 279.659 372.398 266.14C370.596 252.064 358.846 241.633 347.666 232.895" fill="#D6C7B7"/>
<path d="M364.442 229.033C379.3 235.153 390.438 249.508 392.676 265.42C394.913 281.332 388.16 315.665 375.567 325.64C387.263 317.786 403.352 317.038 415.734 323.77C428.11 330.502 436.23 344.415 435.998 358.498C407.058 364.951 376.757 365.237 347.694 359.341C344.321 346.136 351.542 332.746 358.839 321.241C366.135 309.735 374.125 279.659 372.398 266.14C370.596 252.064 358.846 241.633 347.666 232.895" stroke="black" stroke-width="3.3524" stroke-linecap="round" stroke-linejoin="round"/>
<path d="M385.685 137.069C399.36 143.781 413.905 148.718 428.845 151.73C438.535 153.682 451.999 157.204 460.941 150.697C463.226 149.037 464.769 146.27 467.448 145.372C471.372 144.06 475.241 147.378 479.314 148.072C482.544 148.623 485.801 147.487 489.059 147.127C492.316 146.759 496.199 147.548 497.64 150.493C498.844 152.968 497.735 156.096 495.689 157.939C493.642 159.781 490.881 160.597 488.175 161.128C489.847 165.092 491.541 169.111 492.146 173.368C492.751 177.625 492.159 182.228 489.609 185.696C485.971 190.647 479.015 192.251 472.99 191.055C466.966 189.858 461.668 186.342 456.759 182.657C451.849 178.971 443.716 172.253 438.072 169.832C420.657 162.359 401.4 158.054 382.741 154.756" fill="#D6C7B7"/>
<path d="M385.685 137.069C399.36 143.781 413.905 148.718 428.845 151.73C438.535 153.682 451.999 157.204 460.941 150.697C463.226 149.037 464.769 146.27 467.448 145.372C471.372 144.06 475.241 147.378 479.314 148.072C482.544 148.623 485.801 147.487 489.059 147.127C492.316 146.759 496.199 147.548 497.64 150.493C498.844 152.968 497.735 156.096 495.689 157.939C493.642 159.781 490.881 160.597 488.175 161.128C489.847 165.092 491.541 169.111 492.146 173.368C492.751 177.625 492.159 182.228 489.609 185.696C485.971 190.647 479.015 192.251 472.99 191.055C466.966 189.858 461.668 186.342 456.759 182.657C451.849 178.971 443.716 172.253 438.072 169.832C420.657 162.359 401.4 158.054 382.741 154.756" stroke="black" stroke-width="3.3524" stroke-linecap="round" stroke-linejoin="round"/>
<path d="M467.169 180.678C466.496 182.079 466.68 183.799 467.448 185.152C468.217 186.505 469.509 187.505 470.923 188.151C472.337 188.797 473.881 189.096 475.425 189.3C478.784 189.742 482.021 189.559 485.38 189.273C486.624 189.164 487.794 189.293 489.018 188.865C490.126 188.477 491.085 187.797 491.908 186.968C493.553 185.329 493.941 182.5 492.105 180.698" fill="#D6C7B7"/>
<path d="M467.169 180.678C466.496 182.079 466.68 183.799 467.448 185.152C468.217 186.505 469.509 187.505 470.923 188.151C472.337 188.797 473.881 189.096 475.425 189.3C478.784 189.742 482.021 189.559 485.38 189.273C486.624 189.164 487.794 189.293 489.018 188.865C490.126 188.477 491.085 187.797 491.908 186.968C493.553 185.329 493.941 182.5 492.105 180.698" stroke="black" stroke-width="3.3524" stroke-linecap="round" stroke-linejoin="round"/>
<path d="M450.958 158.632C448.857 159.918 448.163 162.651 448.116 165.113C448.068 167.574 448.456 170.104 447.749 172.457C447.177 174.354 445.947 175.966 444.981 177.693C444.016 179.42 443.301 181.467 443.886 183.357C444.43 185.118 446.083 186.417 447.885 186.812C449.687 187.206 451.604 186.778 453.236 185.914C456.099 184.404 458.193 181.514 458.737 178.325C459.281 175.136 458.261 171.716 456.065 169.342" fill="#D6C7B7"/>
<path d="M450.958 158.632C448.857 159.918 448.163 162.651 448.116 165.113C448.068 167.574 448.456 170.104 447.749 172.457C447.177 174.354 445.947 175.966 444.981 177.693C444.016 179.42 443.301 181.467 443.886 183.357C444.43 185.118 446.083 186.417 447.885 186.812C449.687 187.206 451.604 186.778 453.236 185.914C456.099 184.404 458.193 181.514 458.737 178.325C459.281 175.136 458.261 171.716 456.065 169.342" stroke="black" stroke-width="3.3524" stroke-linecap="round" stroke-linejoin="round"/>
<path d="M282.067 158.374C280.38 161.155 277.66 163.297 274.56 164.283L282.067 158.374Z" fill="white"/>
<path d="M282.067 158.374C280.38 161.155 277.66 163.297 274.56 164.283" stroke="black" stroke-width="3.3524" stroke-linecap="round" stroke-linejoin="round"/>
<path d="M334.767 160.047C336.086 162.399 338.119 164.344 340.519 165.568L334.767 160.047Z" fill="white"/>
<path d="M334.767 160.047C336.086 162.399 338.119 164.344 340.519 165.568" stroke="black" stroke-width="3.3524" stroke-linecap="round" stroke-linejoin="round"/>
<path d="M466.952 174.932C466.51 176.421 466.972 178.094 467.945 179.304C468.917 180.515 470.352 181.297 471.855 181.705C473.357 182.113 474.928 182.167 476.485 182.12C479.872 182.018 483.041 181.324 486.305 180.501C487.515 180.195 488.685 180.134 489.834 179.515C490.867 178.958 491.697 178.128 492.384 177.183C493.744 175.299 493.676 172.45 491.575 170.961" fill="#D6C7B7"/>
<path d="M466.952 174.932C466.51 176.421 466.972 178.094 467.945 179.304C468.917 180.515 470.352 181.297 471.855 181.705C473.357 182.113 474.928 182.167 476.485 182.12C479.872 182.018 483.041 181.324 486.305 180.501C487.515 180.195 488.685 180.134 489.834 179.515C490.867 178.958 491.697 178.128 492.384 177.183C493.744 175.299 493.676 172.45 491.575 170.961" stroke="black" stroke-width="3.3524" stroke-linecap="round" stroke-linejoin="round"/>
<path d="M473.323 162.692C470.794 163.413 468.271 164.365 466.598 165.949C464.925 167.533 464.327 169.893 465.796 171.586C467.292 173.307 470.338 173.837 473.085 173.939C478.723 174.143 484.421 173.13 489.324 171.056C491.412 170.172 493.424 169.029 494.451 167.418C495.478 165.806 495.872 162.046 491.425 160.74" fill="#D6C7B7"/>
<path d="M473.323 162.692C470.794 163.413 468.271 164.365 466.598 165.949C464.925 167.533 464.327 169.893 465.796 171.586C467.292 173.307 470.338 173.837 473.085 173.939C478.723 174.143 484.421 173.13 489.324 171.056C491.412 170.172 493.424 169.029 494.451 167.418C495.478 165.806 495.872 162.046 491.425 160.74" stroke="black" stroke-width="3.3524" stroke-linecap="round" stroke-linejoin="round"/>
<path d="M460.934 150.697C463.715 148.657 462.457 148.167 464.728 146.413C467 144.658 469.903 143.407 472.888 143.557C476.506 143.733 479.668 145.869 483.245 146.372C486.42 146.821 489.61 145.957 492.765 145.393C495.913 144.828 499.415 144.624 502.115 146.195C505.998 148.466 506.467 153.933 503.679 157.259C500.891 160.591 495.757 161.821 491.201 161.094C486.652 160.366 482.619 157.973 479.178 155.185" fill="#D6C7B7"/>
<path d="M460.934 150.697C463.715 148.657 462.457 148.167 464.728 146.413C467 144.658 469.903 143.407 472.888 143.557C476.506 143.733 479.668 145.869 483.245 146.372C486.42 146.821 489.61 145.957 492.765 145.393C495.913 144.828 499.415 144.624 502.115 146.195C505.998 148.466 506.467 153.933 503.679 157.259C500.891 160.591 495.757 161.821 491.201 161.094C486.652 160.366 482.619 157.973 479.178 155.185" stroke="black" stroke-width="3.3524" stroke-linecap="round" stroke-linejoin="round"/>
<path d="M306.499 180.793C307.614 182.079 308.519 183.547 309.165 185.118L306.499 180.793Z" fill="white"/>
<path d="M306.499 180.793C307.614 182.079 308.519 183.547 309.165 185.118" stroke="black" stroke-width="3.3524" stroke-linecap="round" stroke-linejoin="round"/>
<path d="M386.27 168.417C386.399 164.256 387.725 158.993 387.915 155.695C387.915 155.797 380.687 154.042 380.687 154.042C380.687 154.042 384.175 158.557 384.549 159.509C385.569 162.093 386.249 165.616 386.27 168.417Z" fill="black" stroke="black" stroke-width="3.3524" stroke-linecap="round" stroke-linejoin="round"/>
<path d="M344.239 240.47C345.504 240.348 349.108 240.538 350.379 240.47C351.535 240.409 353.718 240.491 354.874 240.47C354.296 240.477 352.243 237.812 351.807 237.404C351.195 236.839 348.754 233.759 348.754 233.759C348.754 233.759 344.763 239.144 344.239 240.477V240.47Z" fill="black" stroke="black" stroke-width="3.3524" stroke-linecap="round" stroke-linejoin="round"/>
<path d="M200.847 56.8974C193.408 58.2846 186.343 68.5866 187.73 76.0326C186.343 68.5934 176.041 61.5282 168.595 62.9154C176.034 61.5282 183.099 51.2263 181.712 43.7803C183.099 51.2195 193.401 58.2846 200.847 56.8974Z" fill="white"/>
<path d="M200.847 56.8974C193.408 58.2846 186.343 68.5866 187.73 76.0326C186.343 68.5934 176.041 61.5282 168.595 62.9154C176.034 61.5282 183.099 51.2263 181.712 43.7803C183.099 51.2195 193.401 58.2846 200.847 56.8974Z" stroke="black" stroke-width="3.3524" stroke-linecap="round" stroke-linejoin="round"/>
<path d="M80.8479 56.8974C73.4087 58.2846 66.3435 68.5866 67.7307 76.0326C66.3435 68.5934 56.0415 61.5282 48.5955 62.9154C56.0347 61.5282 63.0999 51.2263 61.7127 43.7803C63.0999 51.2195 73.4019 58.2846 80.8479 56.8974Z" fill="white"/>
<path d="M80.8479 56.8974C73.4087 58.2846 66.3435 68.5866 67.7307 76.0326C66.3435 68.5934 56.0415 61.5282 48.5955 62.9154C56.0347 61.5282 63.0999 51.2263 61.7127 43.7803C63.0999 51.2195 73.4019 58.2846 80.8479 56.8974Z" stroke="black" stroke-width="3.3524" stroke-linecap="round" stroke-linejoin="round"/>
<path d="M129.244 136.675C115.596 139.225 102.642 158.115 105.192 171.763C102.642 158.115 83.7518 145.161 70.1042 147.711C83.7518 145.161 96.7058 126.271 94.1558 112.623C96.7058 126.271 115.596 139.225 129.244 136.675Z" fill="white"/>
<path d="M129.244 136.675C115.596 139.225 102.642 158.115 105.192 171.763C102.642 158.115 83.7518 145.161 70.1042 147.711C83.7518 145.161 96.7058 126.271 94.1558 112.623C96.7058 126.271 115.596 139.225 129.244 136.675Z" stroke="black" stroke-width="3.3524" stroke-linecap="round" stroke-linejoin="round"/>
<path d="M418.318 45.3374C410.879 46.7246 403.814 57.0266 405.201 64.4726C403.814 57.0334 393.512 49.9681 386.066 51.3553C393.505 49.9681 400.57 39.6662 399.183 32.2202C400.57 39.6594 410.872 46.7246 418.318 45.3374Z" fill="white"/>
<path d="M418.318 45.3374C410.879 46.7246 403.814 57.0266 405.201 64.4726C403.814 57.0334 393.512 49.9681 386.066 51.3553C393.505 49.9681 400.57 39.6662 399.183 32.2202C400.57 39.6594 410.872 46.7246 418.318 45.3374Z" stroke="black" stroke-width="3.3524" stroke-linecap="round" stroke-linejoin="round"/>
</svg>
