<svg width="673" height="661" viewBox="0 0 673 661" fill="none" xmlns="http://www.w3.org/2000/svg">
<path d="M453.703 451.979C446.159 462.083 433.127 466.899 420.527 467.427C415.951 467.619 357.336 458.947 357.616 456.883C358.6 449.723 361.719 442.939 366.591 437.355C366.511 437.451 376.751 439.643 378.151 439.899C383.063 440.811 387.951 443.091 392.759 444.499C402.319 447.299 412.039 449.283 421.703 446.843C431.359 444.403 440.143 438.627 446.207 430.723" fill="#D6C7B7"/>
<path d="M453.703 451.979C446.159 462.083 433.127 466.899 420.527 467.427C415.951 467.619 357.336 458.947 357.616 456.883C358.6 449.723 361.719 442.939 366.591 437.355C366.511 437.451 376.751 439.643 378.151 439.899C383.063 440.811 387.951 443.091 392.759 444.499C402.319 447.299 412.039 449.283 421.703 446.843C431.359 444.403 440.143 438.627 446.207 430.723" stroke="black" stroke-width="3.944" stroke-linecap="round" stroke-linejoin="round"/>
<path d="M513.543 495.691C511.631 503.563 506.839 510.435 504.223 518.099C501.599 525.763 501.791 535.515 508.159 540.531C512.199 543.723 517.727 544.195 522.871 544.043C539.767 543.555 556.023 537.827 571.951 532.171C573.495 544.475 575.079 556.907 579.447 568.507C583.815 580.107 591.311 590.979 602.159 596.979C613.007 602.979 627.495 603.203 637.215 595.499C648.887 586.251 650.647 569.067 648.143 554.387C643.919 529.635 629.999 506.675 610.015 491.475C605.751 488.227 601.103 485.275 595.879 484.067C590.655 482.859 584.735 483.643 580.719 487.187C577.367 490.139 575.743 494.523 573.727 498.515C564.679 516.443 544.967 528.451 524.879 528.267C523.999 517.691 525.751 506.907 529.943 497.155" fill="#D6C7B7"/>
<path d="M513.543 495.691C511.631 503.563 506.839 510.435 504.223 518.099C501.599 525.763 501.791 535.515 508.159 540.531C512.199 543.723 517.727 544.195 522.871 544.043C539.767 543.555 556.023 537.827 571.951 532.171C573.495 544.475 575.079 556.907 579.447 568.507C583.815 580.107 591.311 590.979 602.159 596.979C613.007 602.979 627.495 603.203 637.215 595.499C648.887 586.251 650.647 569.067 648.143 554.387C643.919 529.635 629.999 506.675 610.015 491.475C605.751 488.227 601.103 485.275 595.879 484.067C590.655 482.859 584.735 483.643 580.719 487.187C577.367 490.139 575.743 494.523 573.727 498.515C564.679 516.443 544.967 528.451 524.879 528.267C523.999 517.691 525.751 506.907 529.943 497.155" stroke="black" stroke-width="3.944" stroke-linecap="round" stroke-linejoin="round"/>
<path d="M644.664 271.531L617.848 493.571C617.248 498.563 613.04 502.339 608.008 502.403L541.24 503.211L527.64 503.379L460.872 504.187C455.84 504.251 451.544 500.571 450.816 495.595L418.624 274.275" fill="#D6C7B7"/>
<path d="M644.664 271.531L617.848 493.571C617.248 498.563 613.04 502.339 608.008 502.403L541.24 503.211L527.64 503.379L460.872 504.187C455.84 504.251 451.544 500.571 450.816 495.595L418.624 274.275" stroke="black" stroke-width="3.944" stroke-linecap="round" stroke-linejoin="round"/>
<path d="M524.895 296.003C497.919 296.003 472.639 294.003 453.703 290.379C443.591 288.443 435.407 286.051 429.375 283.283C415.223 276.771 412.159 267.555 412.079 260.963C411.999 254.211 414.983 244.723 429.671 237.827C435.999 234.859 444.615 232.243 455.287 230.059C475.583 225.899 502.383 223.419 530.751 223.075C533.015 223.051 535.271 223.035 537.495 223.035C564.463 223.035 589.751 225.035 608.679 228.659C618.791 230.595 626.975 232.987 633.007 235.755C647.159 242.267 650.223 251.483 650.303 258.075C650.383 264.827 647.399 274.315 632.711 281.211C626.383 284.179 617.767 286.795 607.095 288.979C586.799 293.139 559.999 295.619 531.631 295.963C529.367 295.987 527.119 296.003 524.887 296.003H524.895Z" fill="#D6C7B7"/>
<path d="M524.895 296.003C497.919 296.003 472.639 294.003 453.703 290.379C443.591 288.443 435.407 286.051 429.375 283.283C415.223 276.771 412.159 267.555 412.079 260.963C411.999 254.211 414.983 244.723 429.671 237.827C435.999 234.859 444.615 232.243 455.287 230.059C475.583 225.899 502.383 223.419 530.751 223.075C533.015 223.051 535.271 223.035 537.495 223.035C564.463 223.035 589.751 225.035 608.679 228.659C618.791 230.595 626.975 232.987 633.007 235.755C647.159 242.267 650.223 251.483 650.303 258.075C650.383 264.827 647.399 274.315 632.711 281.211C626.383 284.179 617.767 286.795 607.095 288.979C586.799 293.139 559.999 295.619 531.631 295.963C529.367 295.987 527.119 296.003 524.887 296.003H524.895Z" stroke="black" stroke-width="3.944" stroke-linecap="round" stroke-linejoin="round"/>
<path d="M531.29 277.075C587.818 276.394 633.537 267.029 633.406 256.156C633.275 245.283 587.344 237.021 530.816 237.702C474.288 238.383 428.57 247.749 428.701 258.621C428.832 269.494 474.763 277.756 531.29 277.075Z" fill="#6E6860"/>
<mask id="mask0_136_84018" style="mask-type:luminance" maskUnits="userSpaceOnUse" x="428" y="237" width="206" height="41">
<path d="M531.29 277.075C587.818 276.394 633.537 267.029 633.406 256.156C633.275 245.283 587.344 237.021 530.816 237.702C474.288 238.383 428.57 247.749 428.701 258.621C428.832 269.494 474.763 277.756 531.29 277.075Z" fill="white"/>
</mask>
<g mask="url(#mask0_136_84018)">
<path d="M532.449 280.941C588.977 280.26 634.704 271.61 634.584 261.621C634.463 251.632 588.541 244.087 532.013 244.767C475.485 245.448 429.758 254.098 429.878 264.087C429.999 274.076 475.921 281.622 532.449 280.941Z" fill="#38332F"/>
<path d="M532.449 280.941C588.977 280.26 634.704 271.61 634.584 261.621C634.463 251.632 588.541 244.087 532.013 244.767C475.485 245.448 429.758 254.098 429.878 264.087C429.999 274.076 475.921 281.622 532.449 280.941Z" stroke="black" stroke-width="3.944" stroke-linecap="round" stroke-linejoin="round"/>
<path d="M477.311 263.811L498.087 253.555L493.407 268.971L477.311 263.803V263.811Z" fill="white" stroke="black" stroke-width="3.944" stroke-linecap="round" stroke-linejoin="round"/>
<path d="M510.951 334.659L465.207 320.779C462.591 319.987 461.159 317.051 462.015 314.235L477.319 263.819L493.407 268.555L498.087 253.563L532.399 263.979C535.015 264.771 536.447 267.707 535.591 270.523L517.239 330.995C516.383 333.819 513.567 335.459 510.951 334.667V334.659Z" fill="white" stroke="black" stroke-width="3.944" stroke-linecap="round" stroke-linejoin="round"/>
<path d="M486.711 276.891L517.719 286.307" stroke="black" stroke-width="3.944" stroke-linecap="round" stroke-linejoin="round"/>
<path d="M471.735 262.115L492.511 251.859L487.831 267.275L471.735 262.107V262.115Z" fill="white" stroke="black" stroke-width="3.944" stroke-linecap="round" stroke-linejoin="round"/>
<path d="M505.375 332.963L459.631 319.083C457.015 318.291 455.583 315.355 456.439 312.539L471.743 262.123L487.831 266.859L492.511 251.867L526.823 262.283C529.439 263.075 530.871 266.011 530.015 268.827L511.663 329.299C510.807 332.123 507.991 333.763 505.375 332.971V332.963Z" fill="white" stroke="black" stroke-width="3.944" stroke-linecap="round" stroke-linejoin="round"/>
<path d="M481.127 275.203L512.143 284.611" stroke="black" stroke-width="3.944" stroke-linecap="round" stroke-linejoin="round"/>
<path d="M466.664 260.579L487.44 250.323L482.76 265.739L466.664 260.571V260.579Z" fill="white" stroke="black" stroke-width="3.944" stroke-linecap="round" stroke-linejoin="round"/>
<path d="M500.303 331.427L454.559 317.547C451.943 316.755 450.511 313.819 451.367 311.003L466.671 260.587L482.759 265.323L487.439 250.331L521.751 260.747C524.367 261.539 525.799 264.475 524.943 267.291L506.591 327.763C505.735 330.587 502.919 332.227 500.303 331.435V331.427Z" fill="white" stroke="black" stroke-width="3.944" stroke-linecap="round" stroke-linejoin="round"/>
<path d="M476.055 273.659L507.071 283.075" stroke="black" stroke-width="3.944" stroke-linecap="round" stroke-linejoin="round"/>
<path d="M494.135 287.451L503.496 266.259L509.792 281.091L494.127 287.451H494.135Z" fill="white" stroke="black" stroke-width="3.944" stroke-linecap="round" stroke-linejoin="round"/>
<path d="M565.383 320.243L521.375 338.931C518.855 340.003 515.879 338.667 514.727 335.955L494.135 287.459L509.519 280.779L503.495 266.275L536.503 252.259C539.023 251.187 541.999 252.523 543.151 255.235L567.855 313.403C569.007 316.115 567.903 319.187 565.383 320.251V320.243Z" fill="white" stroke="black" stroke-width="3.944" stroke-linecap="round" stroke-linejoin="round"/>
<path d="M509.735 291.475L539.559 278.803" stroke="black" stroke-width="3.944" stroke-linecap="round" stroke-linejoin="round"/>
<path d="M488.767 289.731L498.127 268.539L504.423 283.371L488.759 289.731H488.767Z" fill="white" stroke="black" stroke-width="3.944" stroke-linecap="round" stroke-linejoin="round"/>
<path d="M560.015 322.523L516.007 341.211C513.487 342.283 510.511 340.947 509.359 338.235L488.767 289.739L504.151 283.059L498.127 268.555L531.135 254.539C533.655 253.467 536.631 254.803 537.783 257.515L562.487 315.683C563.639 318.395 562.535 321.467 560.015 322.531V322.523Z" fill="white" stroke="black" stroke-width="3.944" stroke-linecap="round" stroke-linejoin="round"/>
<path d="M483.887 291.803L493.247 270.611L499.543 285.443L483.879 291.803H483.887Z" fill="white" stroke="black" stroke-width="3.944" stroke-linecap="round" stroke-linejoin="round"/>
<path d="M555.136 324.595L511.128 343.283C508.608 344.355 505.632 343.019 504.48 340.307L483.888 291.811L499.272 285.131L493.248 270.627L526.256 256.611C528.776 255.539 531.752 256.875 532.904 259.587L557.608 317.755C558.76 320.467 557.656 323.539 555.136 324.603V324.595Z" fill="white" stroke="black" stroke-width="3.944" stroke-linecap="round" stroke-linejoin="round"/>
<path d="M559.664 264.939L580.464 254.739L575.744 270.147L559.664 264.939Z" fill="white" stroke="black" stroke-width="3.944" stroke-linecap="round" stroke-linejoin="round"/>
<path d="M593.111 335.883L547.399 321.883C544.783 321.083 543.359 318.147 544.223 315.331L559.655 264.955L575.735 269.739L580.455 254.763L614.743 265.267C617.359 266.067 618.783 269.003 617.919 271.819L599.407 332.243C598.543 335.059 595.719 336.699 593.103 335.899L593.111 335.883Z" fill="white" stroke="black" stroke-width="3.944" stroke-linecap="round" stroke-linejoin="round"/>
<path d="M569.023 278.051L600.007 287.547" stroke="black" stroke-width="3.944" stroke-linecap="round" stroke-linejoin="round"/>
<path d="M554.087 263.235L574.887 253.035L570.167 268.443L554.087 263.235Z" fill="white" stroke="black" stroke-width="3.944" stroke-linecap="round" stroke-linejoin="round"/>
<path d="M587.535 334.171L541.823 320.171C539.207 319.371 537.783 316.435 538.647 313.619L554.079 263.243L570.159 268.027L574.879 253.051L609.167 263.555C611.783 264.355 613.207 267.291 612.343 270.107L593.831 330.531C592.967 333.347 590.143 334.987 587.527 334.187L587.535 334.171Z" fill="white" stroke="black" stroke-width="3.944" stroke-linecap="round" stroke-linejoin="round"/>
<path d="M563.447 276.347L594.431 285.835" stroke="black" stroke-width="3.944" stroke-linecap="round" stroke-linejoin="round"/>
<path d="M549.023 261.683L569.823 251.483L565.103 266.891L549.023 261.683Z" fill="white" stroke="black" stroke-width="3.944" stroke-linecap="round" stroke-linejoin="round"/>
<path d="M582.471 332.619L536.759 318.619C534.143 317.819 532.719 314.883 533.583 312.067L549.015 261.691L565.095 266.475L569.815 251.499L604.103 262.003C606.719 262.803 608.143 265.739 607.279 268.555L588.767 328.979C587.903 331.795 585.079 333.435 582.463 332.635L582.471 332.619Z" fill="white" stroke="black" stroke-width="3.944" stroke-linecap="round" stroke-linejoin="round"/>
<path d="M558.383 274.795L589.367 284.283" stroke="black" stroke-width="3.944" stroke-linecap="round" stroke-linejoin="round"/>
</g>
<path d="M531.29 277.075C587.818 276.394 633.537 267.029 633.406 256.156C633.275 245.283 587.344 237.021 530.816 237.702C474.288 238.383 428.57 247.749 428.701 258.621C428.832 269.494 474.763 277.756 531.29 277.075Z" stroke="black" stroke-width="3.944" stroke-linecap="round" stroke-linejoin="round"/>
<path d="M567.039 508.571C562.759 510.963 554.439 519.123 550.159 521.515C551.279 524.691 552.311 527.907 553.247 531.155C553.767 532.955 555.743 535.491 558.223 535.979C556.591 530.435 556.839 530.595 557.951 526.507C558.527 524.403 559.247 522.291 560.127 520.195C560.575 519.131 565.831 509.259 567.039 508.579V508.571Z" fill="#221F20" stroke="black" stroke-width="3.944" stroke-linecap="round" stroke-linejoin="round"/>
<path d="M617.064 499.587C613.856 507.579 605.984 513.499 597.416 514.363C588.848 515.227 579.952 511.003 575.216 503.811" fill="#221F20"/>
<path d="M617.064 499.587C613.856 507.579 605.984 513.499 597.416 514.363C588.848 515.227 579.952 511.003 575.216 503.811" stroke="black" stroke-width="3.944" stroke-linecap="round" stroke-linejoin="round"/>
<path d="M518.807 397.315C520.103 383.243 521.383 368.915 518.431 355.099C517.647 351.435 516.551 347.779 514.527 344.619C512.511 341.459 509.479 338.819 505.847 337.899C499.855 336.379 493.439 339.907 489.935 345.003C486.431 350.099 485.287 356.435 484.711 362.595C483.591 374.571 484.311 386.707 486.823 398.467" fill="white"/>
<mask id="mask1_136_84018" style="mask-type:luminance" maskUnits="userSpaceOnUse" x="484" y="337" width="37" height="62">
<path d="M518.807 397.315C520.103 383.243 521.383 368.915 518.431 355.099C517.647 351.435 516.551 347.779 514.527 344.619C512.511 341.459 509.479 338.819 505.847 337.899C499.855 336.379 493.439 339.907 489.935 345.003C486.431 350.099 485.287 356.435 484.711 362.595C483.591 374.571 484.311 386.707 486.823 398.467" fill="white"/>
</mask>
<g mask="url(#mask1_136_84018)">
<path d="M488.231 407.963C494.47 407.963 499.527 394.875 499.527 378.731C499.527 362.586 494.47 349.499 488.231 349.499C481.992 349.499 476.935 362.586 476.935 378.731C476.935 394.875 481.992 407.963 488.231 407.963Z" fill="#221F20" stroke="black" stroke-width="3.944" stroke-linecap="round" stroke-linejoin="round"/>
</g>
<path d="M518.807 397.315C520.103 383.243 521.383 368.915 518.431 355.099C517.647 351.435 516.551 347.779 514.527 344.619C512.511 341.459 509.479 338.819 505.847 337.899C499.855 336.379 493.439 339.907 489.935 345.003C486.431 350.099 485.287 356.435 484.711 362.595C483.591 374.571 484.311 386.707 486.823 398.467" stroke="black" stroke-width="3.944" stroke-linecap="round" stroke-linejoin="round"/>
<path d="M574.455 399.563C575.751 385.491 577.031 371.163 574.079 357.347C573.295 353.683 572.199 350.027 570.175 346.867C568.159 343.707 565.127 341.067 561.495 340.147C555.503 338.627 549.087 342.155 545.583 347.251C542.079 352.347 540.935 358.683 540.359 364.843C539.239 376.819 539.959 388.955 542.471 400.715" fill="white"/>
<mask id="mask2_136_84018" style="mask-type:luminance" maskUnits="userSpaceOnUse" x="539" y="339" width="37" height="62">
<path d="M574.455 399.563C575.751 385.491 577.031 371.163 574.079 357.347C573.295 353.683 572.199 350.027 570.175 346.867C568.159 343.707 565.127 341.067 561.495 340.147C555.503 338.627 549.087 342.155 545.583 347.251C542.079 352.347 540.935 358.683 540.359 364.843C539.239 376.819 539.959 388.955 542.471 400.715" fill="white"/>
</mask>
<g mask="url(#mask2_136_84018)">
<path d="M543.879 410.211C550.118 410.211 555.175 397.123 555.175 380.979C555.175 364.834 550.118 351.747 543.879 351.747C537.64 351.747 532.583 364.834 532.583 380.979C532.583 397.123 537.64 410.211 543.879 410.211Z" fill="#221F20" stroke="black" stroke-width="3.944" stroke-linecap="round" stroke-linejoin="round"/>
</g>
<path d="M574.455 399.563C575.751 385.491 577.031 371.163 574.079 357.347C573.295 353.683 572.199 350.027 570.175 346.867C568.159 343.707 565.127 341.067 561.495 340.147C555.503 338.627 549.087 342.155 545.583 347.251C542.079 352.347 540.935 358.683 540.359 364.843C539.239 376.819 539.959 388.955 542.471 400.715" stroke="black" stroke-width="3.944" stroke-linecap="round" stroke-linejoin="round"/>
<path d="M537.807 392.483C539.423 393.819 540.639 395.715 540.871 397.795C541.271 401.323 538.743 404.707 535.527 406.203C532.311 407.707 528.583 407.651 525.079 407.091C522.247 406.643 519.191 405.683 517.719 403.227C516.271 400.819 516.839 397.635 518.311 395.243C522.343 388.691 532.015 387.675 537.799 392.475L537.807 392.483Z" fill="#D6C7B7" stroke="black" stroke-width="3.944" stroke-linecap="round" stroke-linejoin="round"/>
<path d="M489.288 422.715C485.256 420.051 482.12 415.667 482 410.843C481.84 404.491 487.12 398.843 493.264 397.219C499.408 395.595 506.048 397.379 511.528 400.603C516.784 403.699 521.664 408.227 527.752 408.539C531.304 408.723 534.776 407.387 537.832 405.579C540.888 403.771 543.632 401.483 546.584 399.499C551.872 395.931 558.192 393.291 564.512 394.147C573.032 395.299 580.528 404.395 579.784 412.963C579.016 421.795 577.176 424.083 570.344 426.979" fill="#D6C7B7"/>
<path d="M489.288 422.715C485.256 420.051 482.12 415.667 482 410.843C481.84 404.491 487.12 398.843 493.264 397.219C499.408 395.595 506.048 397.379 511.528 400.603C516.784 403.699 521.664 408.227 527.752 408.539C531.304 408.723 534.776 407.387 537.832 405.579C540.888 403.771 543.632 401.483 546.584 399.499C551.872 395.931 558.192 393.291 564.512 394.147C573.032 395.299 580.528 404.395 579.784 412.963C579.016 421.795 577.176 424.083 570.344 426.979" stroke="black" stroke-width="3.944" stroke-linecap="round" stroke-linejoin="round"/>
<path d="M505.519 439.659C510.871 447.275 518.895 452.459 528.087 450.995C536.615 449.635 543.863 447.906 549.671 441.514C552.871 437.994 556.991 429.531 559.079 425.259C561.167 420.987 561.671 414.811 560.455 410.211C558.471 412.443 551.559 413.811 548.583 414.067C536.711 415.099 531.455 415.539 518.015 415.155C515.111 415.075 510.911 414.403 508.023 414.067C506.007 413.835 498.607 411.547 498.607 411.547C498.607 411.547 499.223 420.955 499.607 423.843C500.359 429.475 502.239 434.995 505.519 439.659Z" fill="#605B54"/>
<mask id="mask3_136_84018" style="mask-type:luminance" maskUnits="userSpaceOnUse" x="498" y="410" width="64" height="42">
<path d="M505.519 439.659C510.871 447.275 518.895 452.459 528.087 450.995C536.615 449.635 543.863 447.906 549.671 441.514C552.871 437.994 556.991 429.531 559.079 425.259C561.167 420.987 561.671 414.811 560.455 410.211C558.471 412.443 551.559 413.811 548.583 414.067C536.711 415.099 531.455 415.539 518.015 415.155C515.111 415.075 510.911 414.403 508.023 414.067C506.007 413.835 498.607 411.547 498.607 411.547C498.607 411.547 499.223 420.955 499.607 423.843C500.359 429.475 502.239 434.995 505.519 439.659Z" fill="white"/>
</mask>
<g mask="url(#mask3_136_84018)">
<path d="M500.84 439.747C502.712 433.875 507.488 429.003 513.32 427.019C519.152 425.035 525.904 425.979 530.976 429.491C537.64 423.491 548.672 423.131 555.712 428.683C559.56 431.715 560.272 437.811 558.176 442.243C556.072 446.675 551.832 449.699 547.456 451.923C541.04 455.187 533.976 457.139 526.808 457.851C520.608 458.467 514.064 458.091 508.616 455.051C503.168 452.011 498.944 445.683 500.84 439.747Z" fill="#E58EA5" stroke="black" stroke-width="3.944" stroke-linecap="round" stroke-linejoin="round"/>
</g>
<path d="M505.519 439.659C510.871 447.275 518.895 452.459 528.087 450.995C536.615 449.635 543.863 447.906 549.671 441.514C552.871 437.994 556.991 429.531 559.079 425.259C561.167 420.987 561.671 414.811 560.455 410.211C558.471 412.443 551.559 413.811 548.583 414.067C536.711 415.099 531.455 415.539 518.015 415.155C515.111 415.075 510.911 414.403 508.023 414.067C506.007 413.835 498.607 411.547 498.607 411.547C498.607 411.547 499.223 420.955 499.607 423.843C500.359 429.475 502.239 434.995 505.519 439.659Z" stroke="black" stroke-width="3.944" stroke-linecap="round" stroke-linejoin="round"/>
<path d="M489.374 393.634C491.158 393.572 492.544 391.769 492.47 389.605C492.396 387.442 490.889 385.737 489.106 385.798C487.322 385.859 485.936 387.663 486.01 389.826C486.084 391.99 487.59 393.695 489.374 393.634Z" fill="white"/>
<path d="M491.716 384.973C492.736 384.938 493.529 383.911 493.486 382.679C493.444 381.447 492.583 380.476 491.563 380.511C490.543 380.546 489.75 381.573 489.793 382.805C489.835 384.037 490.696 385.008 491.716 384.973Z" fill="white"/>
<path d="M545.277 393.41C547.061 393.349 548.447 391.545 548.373 389.381C548.299 387.218 546.793 385.513 545.009 385.574C543.225 385.635 541.839 387.439 541.913 389.603C541.987 391.766 543.493 393.471 545.277 393.41Z" fill="white"/>
<path d="M547.628 384.756C548.648 384.722 549.441 383.694 549.398 382.462C549.356 381.231 548.495 380.26 547.475 380.295C546.455 380.33 545.662 381.357 545.705 382.589C545.747 383.821 546.608 384.791 547.628 384.756Z" fill="white"/>
<path d="M544.479 461.611C537.119 467.683 526.263 469.171 517.543 465.291L544.479 461.611Z" fill="#D6C7B7"/>
<path d="M544.479 461.611C537.119 467.683 526.263 469.171 517.543 465.291" stroke="black" stroke-width="3.944" stroke-linecap="round" stroke-linejoin="round"/>
<path d="M557.119 405.547C558.951 408.563 561.895 410.891 565.263 411.963L557.119 405.547Z" fill="white"/>
<path d="M557.119 405.547C558.951 408.563 561.895 410.891 565.263 411.963" stroke="black" stroke-width="3.944" stroke-linecap="round" stroke-linejoin="round"/>
<path d="M499.927 407.363C498.495 409.915 496.296 412.027 493.688 413.355L499.927 407.363Z" fill="white"/>
<path d="M499.927 407.363C498.495 409.915 496.296 412.027 493.688 413.355" stroke="black" stroke-width="3.944" stroke-linecap="round" stroke-linejoin="round"/>
<path d="M481.527 337.651C487.047 328.547 499.855 324.747 509.447 329.355L481.527 337.651Z" fill="#D6C7B7"/>
<path d="M481.527 337.651C487.047 328.547 499.855 324.747 509.447 329.355" stroke="black" stroke-width="3.944" stroke-linecap="round" stroke-linejoin="round"/>
<path d="M556.855 317.531C562.071 315.003 568.287 314.603 573.783 316.435C579.279 318.267 584.015 322.315 586.679 327.459" fill="#D6C7B7"/>
<path d="M556.855 317.531C562.071 315.003 568.287 314.603 573.783 316.435C579.279 318.267 584.015 322.315 586.679 327.459" stroke="black" stroke-width="3.944" stroke-linecap="round" stroke-linejoin="round"/>
<path d="M613.447 408.651C627.567 427.899 629.631 461.851 632.311 485.571C623.303 490.931 623.703 490.763 619.855 501.539C617.343 508.563 620.743 516.435 613.167 525.843C610.215 529.515 610.663 534.763 615.375 534.835C620.087 534.907 628.751 528.891 632.519 526.059C629.903 534.163 633.559 531.827 630.951 539.931C630.415 541.587 629.887 543.419 630.575 545.011C631.263 546.627 633.071 547.547 634.831 547.675C636.591 547.803 638.319 547.267 639.991 546.715C645.167 544.995 643.967 553.419 649.031 551.403C653.999 549.427 659.095 547.363 662.999 543.699C669.759 537.355 671.695 527.203 670.559 518.003C668.927 504.859 661.551 492.523 650.735 484.867C650.583 454.587 642.031 424.371 626.343 398.475" fill="#D6C7B7"/>
<path d="M613.447 408.651C627.567 427.899 629.631 461.851 632.311 485.571C623.303 490.931 623.703 490.763 619.855 501.539C617.343 508.563 620.743 516.435 613.167 525.843C610.215 529.515 610.663 534.763 615.375 534.835C620.087 534.907 628.751 528.891 632.519 526.059C629.903 534.163 633.559 531.827 630.951 539.931C630.415 541.587 629.887 543.419 630.575 545.011C631.263 546.627 633.071 547.547 634.831 547.675C636.591 547.803 638.319 547.267 639.991 546.715C645.167 544.995 643.967 553.419 649.031 551.403C653.999 549.427 659.095 547.363 662.999 543.699C669.759 537.355 671.695 527.203 670.559 518.003C668.927 504.859 661.551 492.523 650.735 484.867C650.583 454.587 642.031 424.371 626.343 398.475" stroke="black" stroke-width="3.944" stroke-linecap="round" stroke-linejoin="round"/>
<path d="M669.751 531.475C669.175 537.507 667.255 543.403 664.183 548.627C663.127 550.419 661.855 552.211 659.991 553.147C658.127 554.083 655.543 553.883 654.327 552.187C653.535 551.083 653.471 549.587 653.799 548.267C654.119 546.947 654.783 545.739 655.343 544.499C656.695 541.515 657.791 530.875 657.999 527.603" fill="#D6C7B7"/>
<path d="M669.751 531.475C669.175 537.507 667.255 543.403 664.183 548.627C663.127 550.419 661.855 552.211 659.991 553.147C658.127 554.083 655.543 553.883 654.327 552.187C653.535 551.083 653.471 549.587 653.799 548.267C654.119 546.947 654.783 545.739 655.343 544.499C656.695 541.515 657.791 530.875 657.999 527.603" stroke="black" stroke-width="3.944" stroke-linecap="round" stroke-linejoin="round"/>
<path d="M663.655 533.707C663.079 539.739 658.656 547.195 655.576 552.419C654.52 554.211 653.248 556.003 651.384 556.939C649.52 557.875 646.936 557.675 645.72 555.979C644.928 554.875 644.864 553.379 645.192 552.059C645.52 550.739 646.175 549.531 646.735 548.291C648.087 545.307 648.896 542.067 649.104 538.795" fill="#D6C7B7"/>
<path d="M663.655 533.707C663.079 539.739 658.656 547.195 655.576 552.419C654.52 554.211 653.248 556.003 651.384 556.939C649.52 557.875 646.936 557.675 645.72 555.979C644.928 554.875 644.864 553.379 645.192 552.059C645.52 550.739 646.175 549.531 646.735 548.291C648.087 545.307 648.896 542.067 649.104 538.795" stroke="black" stroke-width="3.944" stroke-linecap="round" stroke-linejoin="round"/>
<path d="M657.192 535.515C656.136 542.227 652.391 549.667 648.039 555.099C646.543 556.971 644.807 558.795 642.535 559.555C640.263 560.315 637.36 559.659 636.256 557.539C635.536 556.155 635.712 554.443 636.296 552.995C636.88 551.547 637.824 550.275 638.664 548.963C640.696 545.787 642.136 542.243 642.912 538.555" fill="#D6C7B7"/>
<path d="M657.192 535.515C656.136 542.227 652.391 549.667 648.039 555.099C646.543 556.971 644.807 558.795 642.535 559.555C640.263 560.315 637.36 559.659 636.256 557.539C635.536 556.155 635.712 554.443 636.296 552.995C636.88 551.547 637.824 550.275 638.664 548.963C640.696 545.787 642.136 542.243 642.912 538.555" stroke="black" stroke-width="3.944" stroke-linecap="round" stroke-linejoin="round"/>
<path d="M648.783 527.547C649.551 537.283 644.487 552.171 637.143 558.619C635.415 560.131 633.463 561.483 631.231 562.003C628.991 562.523 626.431 562.067 624.855 560.395C623.039 558.475 622.943 555.443 623.767 552.931C624.591 550.419 626.175 548.243 627.455 545.931C631.695 538.275 632.527 528.811 629.695 520.531" fill="#D6C7B7"/>
<path d="M648.783 527.547C649.551 537.283 644.487 552.171 637.143 558.619C635.415 560.131 633.463 561.483 631.231 562.003C628.991 562.523 626.431 562.067 624.855 560.395C623.039 558.475 622.943 555.443 623.767 552.931C624.591 550.419 626.175 548.243 627.455 545.931C631.695 538.275 632.527 528.811 629.695 520.531" stroke="black" stroke-width="3.944" stroke-linecap="round" stroke-linejoin="round"/>
<path d="M643.767 503.371L646.679 509.691L643.767 503.371Z" fill="white"/>
<path d="M643.767 503.371L646.679 509.691" stroke="black" stroke-width="3.944" stroke-linecap="round" stroke-linejoin="round"/>
<path d="M651.711 501.427L655.999 510.203L651.711 501.427Z" fill="white"/>
<path d="M651.711 501.427L655.999 510.203" stroke="black" stroke-width="3.944" stroke-linecap="round" stroke-linejoin="round"/>
<path d="M524.951 517.307C524.487 513.739 524.031 508.051 523.567 504.475C520.735 504.331 517.903 504.115 515.079 503.819C513.511 503.659 510.895 504.267 509.711 505.811C514.551 506.283 514.343 506.403 517.151 508.323C518.599 509.307 519.999 510.403 521.343 511.587C522.023 512.187 524.823 516.299 524.951 517.307Z" fill="#221F20" stroke="black" stroke-width="3.944" stroke-linecap="round" stroke-linejoin="round"/>
<path d="M527.031 435.499C528.183 432.643 530.063 430.091 532.439 428.131L527.031 435.499Z" fill="#221F20"/>
<path d="M527.031 435.499C528.183 432.643 530.063 430.091 532.439 428.131" stroke="black" stroke-width="3.944" stroke-linecap="round" stroke-linejoin="round"/>
<path d="M622.383 452.811C622.271 448.035 625.007 437.723 623.983 433.051C623.735 431.907 623.207 430.843 622.688 429.795C621.319 427.019 620.399 420.555 617.959 416.035C620.239 426.979 621.951 443.251 622.383 452.811Z" fill="white" stroke="black" stroke-width="3.944" stroke-linecap="round" stroke-linejoin="round"/>
<path d="M541.343 491.619C547.823 520.227 541.055 551.555 523.343 574.931C515.415 562.531 502.367 553.515 487.959 550.491C473.559 547.459 457.983 550.459 445.727 558.611C440.703 561.955 435.959 566.611 435.047 572.579C434.111 578.699 437.383 584.611 440.743 589.803C456.671 614.459 477.367 636.011 501.351 652.923C505.455 655.819 509.927 658.667 514.943 658.923C521.431 659.251 527.535 654.947 530.751 649.299C533.959 643.651 535.767 638.867 537.191 630.339C538.599 621.923 538.431 614.347 536.007 604.147C534.727 598.755 537.527 594.611 539.911 589.611C554.479 559.099 555.431 524.099 556.103 490.291" fill="#D6C7B7"/>
<mask id="mask4_136_84018" style="mask-type:luminance" maskUnits="userSpaceOnUse" x="434" y="490" width="123" height="169">
<path d="M541.343 491.619C547.823 520.227 541.055 551.555 523.343 574.931C515.415 562.531 502.367 553.515 487.959 550.491C473.559 547.459 457.983 550.459 445.727 558.611C440.703 561.955 435.959 566.611 435.047 572.579C434.111 578.699 437.383 584.611 440.743 589.803C456.671 614.459 477.367 636.011 501.351 652.923C505.455 655.819 509.927 658.667 514.943 658.923C521.431 659.251 527.535 654.947 530.751 649.299C533.959 643.651 535.767 638.867 537.191 630.339C538.599 621.923 538.431 614.347 536.007 604.147C534.727 598.755 537.527 594.611 539.911 589.611C554.479 559.099 555.431 524.099 556.103 490.291" fill="white"/>
</mask>
<g mask="url(#mask4_136_84018)">
<path d="M524.182 665.667C529.802 660.047 512.674 633.806 485.925 607.057C459.175 580.307 432.934 563.179 427.314 568.799C421.693 574.42 438.822 600.661 465.571 627.41C492.321 654.159 518.561 671.288 524.182 665.667Z" fill="#221F20" stroke="black" stroke-width="3.944" stroke-linecap="round" stroke-linejoin="round"/>
</g>
<path d="M541.343 491.619C547.823 520.227 541.055 551.555 523.343 574.931C515.415 562.531 502.367 553.515 487.959 550.491C473.559 547.459 457.983 550.459 445.727 558.611C440.703 561.955 435.959 566.611 435.047 572.579C434.111 578.699 437.383 584.611 440.743 589.803C456.671 614.459 477.367 636.011 501.351 652.923C505.455 655.819 509.927 658.667 514.943 658.923C521.431 659.251 527.535 654.947 530.751 649.299C533.959 643.651 535.767 638.867 537.191 630.339C538.599 621.923 538.431 614.347 536.007 604.147C534.727 598.755 537.527 594.611 539.911 589.611C554.479 559.099 555.431 524.099 556.103 490.291" stroke="black" stroke-width="3.944" stroke-linecap="round" stroke-linejoin="round"/>
<path d="M561.295 488.955C559.919 489.331 557.711 489.715 556.335 490.091C556.303 492.291 556.247 494.483 556.167 496.675C556.119 497.891 556.087 499.667 556.111 501.499C556.247 497.747 556.391 497.315 557.551 494.947C558.503 492.995 557.895 494.427 558.343 493.379C558.567 492.851 560.911 489.067 561.303 488.963L561.295 488.955Z" fill="#221F20" stroke="black" stroke-width="3.944" stroke-linecap="round" stroke-linejoin="round"/>
<path d="M571.767 532.219C577.575 531.387 583.263 526.523 584.175 524.283L571.767 532.219Z" fill="#D6C7B7"/>
<path d="M571.767 532.219C577.575 531.387 583.263 526.523 584.175 524.283" stroke="black" stroke-width="3.944" stroke-linecap="round" stroke-linejoin="round"/>
<path d="M522.663 573.899C524.311 576.419 525.455 579.659 525.455 582.075L522.663 573.899Z" fill="#D6C7B7"/>
<path d="M522.663 573.899C524.311 576.419 525.455 579.659 525.455 582.075" stroke="black" stroke-width="3.944" stroke-linecap="round" stroke-linejoin="round"/>
<path d="M68.1434 336.659C73.1914 323.699 73.3354 311.419 77.5354 301.747C79.1514 298.035 81.0794 293.979 79.8634 290.115C78.5994 286.075 73.9114 283.699 69.7274 284.355C65.5434 285.011 62.0475 288.211 60.2395 292.035C58.4315 295.859 58.1114 300.243 58.4554 304.467C53.9754 304.643 49.9034 301.683 47.1754 298.123C44.4474 294.571 42.6874 290.371 40.2634 286.595C35.0794 278.499 31.2475 272.851 21.9355 270.467C19.2155 269.771 15.9675 269.499 13.9435 271.443C11.0075 274.251 12.9034 279.323 15.7754 282.195C20.3674 286.779 22.2234 288.651 27.9194 291.755C33.6234 294.859 32.0714 292.387 34.7194 298.931C34.1434 296.811 37.6234 298.851 35.4474 299.139C33.2714 299.427 30.6954 304.771 29.1274 306.307C21.4554 313.843 19.0874 326.275 23.4554 336.107C27.8234 345.939 42.4634 350.259 53.2074 349.619" fill="#D6C7B7"/>
<path d="M68.1434 336.659C73.1914 323.699 73.3354 311.419 77.5354 301.747C79.1514 298.035 81.0794 293.979 79.8634 290.115C78.5994 286.075 73.9114 283.699 69.7274 284.355C65.5434 285.011 62.0475 288.211 60.2395 292.035C58.4315 295.859 58.1114 300.243 58.4554 304.467C53.9754 304.643 49.9034 301.683 47.1754 298.123C44.4474 294.571 42.6874 290.371 40.2634 286.595C35.0794 278.499 31.2475 272.851 21.9355 270.467C19.2155 269.771 15.9675 269.499 13.9435 271.443C11.0075 274.251 12.9034 279.323 15.7754 282.195C20.3674 286.779 22.2234 288.651 27.9194 291.755C33.6234 294.859 32.0714 292.387 34.7194 298.931C34.1434 296.811 37.6234 298.851 35.4474 299.139C33.2714 299.427 30.6954 304.771 29.1274 306.307C21.4554 313.843 19.0874 326.275 23.4554 336.107C27.8234 345.939 42.4634 350.259 53.2074 349.619" stroke="black" stroke-width="3.944" stroke-linecap="round" stroke-linejoin="round"/>
<path d="M41.1274 306.211C38.3754 303.131 37.7274 300.771 37.4714 296.419C37.2874 293.195 37.0954 289.971 36.9114 286.755C36.6874 282.883 36.4154 278.859 34.4874 275.499C32.5594 272.139 28.4234 269.707 24.7754 271.011C21.6954 272.115 19.9594 275.427 19.2714 278.627C18.1914 283.667 18.9994 288.963 20.7114 293.819C22.4234 298.675 25.0074 303.179 27.5754 307.643" fill="#D6C7B7"/>
<path d="M41.1274 306.211C38.3754 303.131 37.7274 300.771 37.4714 296.419C37.2874 293.195 37.0954 289.971 36.9114 286.755C36.6874 282.883 36.4154 278.859 34.4874 275.499C32.5594 272.139 28.4234 269.707 24.7754 271.011C21.6954 272.115 19.9594 275.427 19.2714 278.627C18.1914 283.667 18.9994 288.963 20.7114 293.819C22.4234 298.675 25.0074 303.179 27.5754 307.643" stroke="black" stroke-width="3.944" stroke-linecap="round" stroke-linejoin="round"/>
<path d="M36.9516 312.459C33.4556 310.283 32.3036 305.699 32.3276 301.579C32.3516 297.459 33.2316 293.299 32.4956 289.243C32.1276 287.211 31.3276 285.219 29.9036 283.723C28.4796 282.235 26.3756 281.315 24.3356 281.635C21.3196 282.099 19.2876 284.979 18.1596 287.811C14.1596 297.811 16.9836 309.099 19.8476 319.483" fill="#D6C7B7"/>
<path d="M36.9516 312.459C33.4556 310.283 32.3036 305.699 32.3276 301.579C32.3516 297.459 33.2316 293.299 32.4956 289.243C32.1276 287.211 31.3276 285.219 29.9036 283.723C28.4796 282.235 26.3756 281.315 24.3356 281.635C21.3196 282.099 19.2876 284.979 18.1596 287.811C14.1596 297.811 16.9836 309.099 19.8476 319.483" stroke="black" stroke-width="3.944" stroke-linecap="round" stroke-linejoin="round"/>
<path d="M34.4717 330.339C35.6637 327.299 34.7757 323.827 33.3277 320.907C31.8797 317.979 29.8877 315.323 28.7197 312.283C27.5117 309.139 27.1917 305.659 25.5677 302.715C23.9357 299.771 20.1917 297.499 17.2237 299.091C14.3757 300.619 14.0477 304.539 14.3517 307.755C15.3997 318.867 20.4157 331.211 25.9517 340.451" fill="#D6C7B7"/>
<path d="M34.4717 330.339C35.6637 327.299 34.7757 323.827 33.3277 320.907C31.8797 317.979 29.8877 315.323 28.7197 312.283C27.5117 309.139 27.1917 305.659 25.5677 302.715C23.9357 299.771 20.1917 297.499 17.2237 299.091C14.3757 300.619 14.0477 304.539 14.3517 307.755C15.3997 318.867 20.4157 331.211 25.9517 340.451" stroke="black" stroke-width="3.944" stroke-linecap="round" stroke-linejoin="round"/>
<path d="M59.4635 332.363C56.8955 328.771 52.9675 326.171 48.6555 325.203L59.4635 332.363Z" fill="#D6C7B7"/>
<path d="M59.4635 332.363C56.8955 328.771 52.9675 326.171 48.6555 325.203" stroke="black" stroke-width="3.944" stroke-linecap="round" stroke-linejoin="round"/>
<path d="M32.3754 302.467C32.0394 304.035 31.3755 305.531 30.4395 306.835L32.3754 302.467Z" fill="#D6C7B7"/>
<path d="M32.3754 302.467C32.0394 304.035 31.3755 305.531 30.4395 306.835" stroke="black" stroke-width="3.944" stroke-linecap="round" stroke-linejoin="round"/>
<path d="M29.2395 314.115C28.9035 315.683 28.2395 317.179 27.3035 318.483L29.2395 314.115Z" fill="#D6C7B7"/>
<path d="M29.2395 314.115C28.9035 315.683 28.2395 317.179 27.3035 318.483" stroke="black" stroke-width="3.944" stroke-linecap="round" stroke-linejoin="round"/>
<path d="M37.2634 294.067C36.9274 295.635 36.2634 297.131 35.3274 298.435L37.2634 294.067Z" fill="#D6C7B7"/>
<path d="M37.2634 294.067C36.9274 295.635 36.2634 297.131 35.3274 298.435" stroke="black" stroke-width="3.944" stroke-linecap="round" stroke-linejoin="round"/>
<path d="M68.1433 336.659C79.5593 353.571 75.9433 379.075 90.3753 393.507C99.3033 402.427 112.927 405.275 125.471 403.907C138.015 402.539 149.823 397.491 161.423 392.507C163.999 400.363 163.543 406.043 163.087 414.299C145.071 420.435 125.839 422.939 106.855 421.627C97.7753 420.995 88.2873 419.307 81.2153 413.579C63.1113 398.915 68.6393 367.083 53.2073 349.627" fill="#D6C7B7"/>
<path d="M68.1433 336.659C79.5593 353.571 75.9433 379.075 90.3753 393.507C99.3033 402.427 112.927 405.275 125.471 403.907C138.015 402.539 149.823 397.491 161.423 392.507C163.999 400.363 163.543 406.043 163.087 414.299C145.071 420.435 125.839 422.939 106.855 421.627C97.7753 420.995 88.2873 419.307 81.2153 413.579C63.1113 398.915 68.6393 367.083 53.2073 349.627" stroke="black" stroke-width="3.944" stroke-linecap="round" stroke-linejoin="round"/>
<path d="M145.12 418.107C148.24 416.459 151.575 415.219 154.175 413.451C154.927 412.939 155.68 412.315 155.904 411.467C156.056 410.875 155.936 410.251 155.808 409.651C155.384 407.675 154.967 405.699 154.543 403.731C154.303 402.603 154.023 401.411 153.159 400.595C151.999 399.507 150.071 399.443 148.567 400.059C147.519 400.491 145.56 401.651 145.208 402.747C144.856 403.843 145.543 405.795 145.775 406.923C147.183 413.635 146.944 417.187 145.12 418.099V418.107Z" fill="black" stroke="black" stroke-width="3.944" stroke-linecap="round" stroke-linejoin="round"/>
<path d="M284.135 573.323C281.119 577.283 277.671 580.587 275.295 582.659C272.919 584.731 270.551 586.779 271.695 589.795C272.327 591.475 274.103 593.803 275.535 594.915C277.999 596.827 280.183 599.499 282.647 601.411C283.791 602.299 283.751 602.659 285.111 603.107C286.471 603.555 289.591 603.235 290.623 602.291C289.703 603.211 289.631 604.739 290.111 605.987C290.591 607.235 291.183 609.195 292.135 610.131C307.663 625.371 313.759 631.043 326.719 640.563C329.199 642.387 332.031 643.347 335.071 643.275C340.087 643.155 344.367 636.891 349.063 632.355" fill="black"/>
<path d="M284.135 573.323C281.119 577.283 277.671 580.587 275.295 582.659C272.919 584.731 270.551 586.779 271.695 589.795C272.327 591.475 274.103 593.803 275.535 594.915C277.999 596.827 280.183 599.499 282.647 601.411C283.791 602.299 283.751 602.659 285.111 603.107C286.471 603.555 289.591 603.235 290.623 602.291C289.703 603.211 289.631 604.739 290.111 605.987C290.591 607.235 291.183 609.195 292.135 610.131C307.663 625.371 313.759 631.043 326.719 640.563C329.199 642.387 332.031 643.347 335.071 643.275C340.087 643.155 344.367 636.891 349.063 632.355" stroke="black" stroke-width="3.944" stroke-linecap="round" stroke-linejoin="round"/>
<path d="M285.903 570.779C282.655 574.627 281.223 579.939 282.087 584.899C283.423 592.531 289.575 598.275 295.375 603.411C304.471 611.467 313.575 619.531 322.671 627.587C327.687 632.027 333.455 636.747 340.143 636.387C346.687 636.035 352.151 630.555 354.111 624.299C356.695 616.051 354.015 606.699 348.399 600.131C342.783 593.563 334.591 589.571 326.143 587.755C326.183 585.283 326.223 582.771 325.567 580.387C324.911 578.003 323.455 575.723 321.223 574.667C319.527 573.859 317.591 573.827 315.727 573.587C312.751 573.211 309.863 572.243 307.239 570.803C304.615 569.363 302.783 566.475 300.367 565.235C295.823 562.907 288.839 567.291 285.903 570.771V570.779Z" fill="#38332F" stroke="black" stroke-width="3.944" stroke-linecap="round" stroke-linejoin="round"/>
<path d="M326.671 588.195C324.655 587.699 322.423 588.211 320.823 589.531L326.671 588.195Z" fill="#38332F"/>
<path d="M326.671 588.195C324.655 587.699 322.423 588.211 320.823 589.531" stroke="black" stroke-width="3.944" stroke-linecap="round" stroke-linejoin="round"/>
<path d="M308.767 561.235C306.623 560.115 304.151 558.979 301.887 559.811C299.855 560.563 298.647 562.787 298.567 564.947C298.487 567.107 299.319 569.203 300.351 571.107C302.967 575.915 306.935 579.971 311.687 582.691C314.279 584.171 317.191 585.275 320.175 585.131C323.159 584.987 326.191 583.395 327.431 580.683C328.671 577.971 327.559 574.227 324.791 573.131" fill="black"/>
<path d="M308.767 561.235C306.623 560.115 304.151 558.979 301.887 559.811C299.855 560.563 298.647 562.787 298.567 564.947C298.487 567.107 299.319 569.203 300.351 571.107C302.967 575.915 306.935 579.971 311.687 582.691C314.279 584.171 317.191 585.275 320.175 585.131C323.159 584.987 326.191 583.395 327.431 580.683C328.671 577.971 327.559 574.227 324.791 573.131" stroke="black" stroke-width="3.944" stroke-linecap="round" stroke-linejoin="round"/>
<path d="M295.847 457.835C306.863 471.307 318.439 487.395 320.215 509.099C321.919 529.939 314.047 549.395 306.855 567.139C311.455 573.883 318.399 580.043 323.335 573.915C335.743 558.531 342.391 532.515 340.191 507.979C337.991 483.443 327.015 461.307 312.375 451.867" fill="#D6C7B7"/>
<path d="M295.847 457.835C306.863 471.307 318.439 487.395 320.215 509.099C321.919 529.939 314.047 549.395 306.855 567.139C311.455 573.883 318.399 580.043 323.335 573.915C335.743 558.531 342.391 532.515 340.191 507.979C337.991 483.443 327.015 461.307 312.375 451.867" stroke="black" stroke-width="3.944" stroke-linecap="round" stroke-linejoin="round"/>
<path d="M327.663 496.171C323.439 499.875 320.159 502.067 320.023 507.907C320.439 501.835 320.015 495.707 318.767 489.747C323.287 489.867 327.839 488.323 331.359 485.483C332.135 484.859 332.871 484.171 333.775 483.755C334.679 483.339 335.815 483.259 336.615 483.851C338.175 484.995 337.943 487.843 338.887 489.459C334.895 491.627 331.239 493.027 327.655 496.171H327.663Z" fill="black" stroke="black" stroke-width="3.944" stroke-linecap="round" stroke-linejoin="round"/>
<path d="M148.471 262.067H385.055V444.075C385.055 470.075 363.943 491.187 337.943 491.187H195.583C169.583 491.187 148.471 470.075 148.471 444.075V262.067Z" fill="#D6C7B7" stroke="black" stroke-width="3.944" stroke-linecap="round" stroke-linejoin="round"/>
<path d="M198.335 598.291C193.999 600.083 193.359 605.931 197.231 608.347C191.887 610.419 186.559 612.659 182.079 615.843C177.599 619.027 173.975 623.267 172.927 628.099C171.879 632.931 173.791 638.331 178.503 641.291C182.271 643.659 187.215 644.211 191.919 644.459C205.007 645.139 212.127 645.251 224.767 642.347C227.623 641.691 233.175 639.883 235.423 638.275C238.935 635.771 238.039 631.635 238.351 627.795C239.295 616.155 238.135 604.131 226.687 597.403" fill="#38332F"/>
<path d="M198.335 598.291C193.999 600.083 193.359 605.931 197.231 608.347C191.887 610.419 186.559 612.659 182.079 615.843C177.599 619.027 173.975 623.267 172.927 628.099C171.879 632.931 173.791 638.331 178.503 641.291C182.271 643.659 187.215 644.211 191.919 644.459C205.007 645.139 212.127 645.251 224.767 642.347C227.623 641.691 233.175 639.883 235.423 638.275C238.935 635.771 238.039 631.635 238.351 627.795C239.295 616.155 238.135 604.131 226.687 597.403" stroke="black" stroke-width="3.944" stroke-linecap="round" stroke-linejoin="round"/>
<path d="M204.183 589.395C201.351 588.763 198.487 591.403 198.287 594.299C198.079 597.195 200.015 599.931 202.519 601.395C205.023 602.859 208.015 603.243 210.919 603.299C214.023 603.355 217.231 603.043 219.991 601.619C222.751 600.187 224.991 597.459 225.127 594.355C225.263 591.251 222.799 588.051 219.695 588.003" fill="black"/>
<path d="M204.183 589.395C201.351 588.763 198.487 591.403 198.287 594.299C198.079 597.195 200.015 599.931 202.519 601.395C205.023 602.859 208.015 603.243 210.919 603.299C214.023 603.355 217.231 603.043 219.991 601.619C222.751 600.187 224.991 597.459 225.127 594.355C225.263 591.251 222.799 588.051 219.695 588.003" stroke="black" stroke-width="3.944" stroke-linecap="round" stroke-linejoin="round"/>
<path d="M197.023 608.563C204.639 606.587 213.007 606.675 220.559 608.811L197.023 608.563Z" fill="#D6C7B7"/>
<path d="M197.023 608.563C204.639 606.587 213.007 606.675 220.559 608.811" stroke="black" stroke-width="3.944" stroke-linecap="round" stroke-linejoin="round"/>
<path d="M235.927 632.667C233.471 637.803 233.967 639.115 227.567 640.611C221.167 642.107 214.431 642.147 207.831 642.771C201.351 643.379 194.791 644.563 188.367 643.619C184.407 643.035 175.343 635.091 175.343 635.091C175.343 635.091 191.047 634.923 194.751 634.739C210.783 633.947 219.863 632.939 235.927 632.675V632.667Z" fill="black" stroke="black" stroke-width="3.944" stroke-linecap="round" stroke-linejoin="round"/>
<path d="M199.359 311.595C190.607 313.227 182.295 325.347 183.927 334.107C182.295 325.355 170.175 317.043 161.415 318.675C170.167 317.043 178.479 304.923 176.847 296.163C178.479 304.915 190.599 313.227 199.359 311.595Z" fill="white"/>
<path d="M199.359 311.595C190.607 313.227 182.295 325.347 183.927 334.107C182.295 325.355 170.175 317.043 161.415 318.675C170.167 317.043 178.479 304.923 176.847 296.163C178.479 304.915 190.599 313.227 199.359 311.595Z" stroke="black" stroke-width="3.944" stroke-linecap="round" stroke-linejoin="round"/>
<path d="M540.231 123.499C531.479 125.131 523.167 137.251 524.799 146.011C523.167 137.259 511.047 128.947 502.287 130.579C511.039 128.947 519.351 116.827 517.719 108.067C519.351 116.819 531.471 125.131 540.231 123.499Z" fill="white"/>
<path d="M540.231 123.499C531.479 125.131 523.167 137.251 524.799 146.011C523.167 137.259 511.047 128.947 502.287 130.579C511.039 128.947 519.351 116.827 517.719 108.067C519.351 116.819 531.471 125.131 540.231 123.499Z" stroke="black" stroke-width="3.944" stroke-linecap="round" stroke-linejoin="round"/>
<path d="M468.279 99.8989C457.015 97.3949 440.951 107.611 438.439 118.875C440.943 107.611 430.727 91.5469 419.463 89.0349C430.727 91.5389 446.791 81.3229 449.303 70.0589C446.799 81.3229 457.015 97.3869 468.279 99.8989Z" fill="white"/>
<path d="M468.279 99.8989C457.015 97.3949 440.951 107.611 438.439 118.875C440.943 107.611 430.727 91.5469 419.463 89.0349C430.727 91.5389 446.791 81.3229 449.303 70.0589C446.799 81.3229 457.015 97.3869 468.279 99.8989Z" stroke="black" stroke-width="3.944" stroke-linecap="round" stroke-linejoin="round"/>
<path d="M266.535 379.219C271.82 379.219 276.103 375.705 276.103 371.371C276.103 367.037 271.82 363.523 266.535 363.523C261.251 363.523 256.967 367.037 256.967 371.371C256.967 375.705 261.251 379.219 266.535 379.219Z" fill="#D6C7B7" stroke="black" stroke-width="3.944" stroke-linecap="round" stroke-linejoin="round"/>
<path d="M293.447 384.955C294.575 388.619 297.223 391.787 300.631 393.547L293.447 384.955Z" fill="#D6C7B7"/>
<path d="M293.447 384.955C294.575 388.619 297.223 391.787 300.631 393.547" stroke="black" stroke-width="3.944" stroke-linecap="round" stroke-linejoin="round"/>
<path d="M239.591 383.547C238.799 387.883 235.919 391.795 232.007 393.827L239.591 383.547Z" fill="#D6C7B7"/>
<path d="M239.591 383.547C238.799 387.883 235.919 391.795 232.007 393.827" stroke="black" stroke-width="3.944" stroke-linecap="round" stroke-linejoin="round"/>
<path d="M219.223 326.835C222.335 318.307 230.935 312.075 240.007 311.763L219.223 326.835Z" fill="#D6C7B7"/>
<path d="M219.223 326.835C222.335 318.307 230.935 312.075 240.007 311.763" stroke="black" stroke-width="3.944" stroke-linecap="round" stroke-linejoin="round"/>
<path d="M314.407 324.883C309.231 317.899 301.071 313.203 292.423 312.243L314.407 324.883Z" fill="#D6C7B7"/>
<path d="M314.407 324.883C309.231 317.899 301.071 313.203 292.423 312.243" stroke="black" stroke-width="3.944" stroke-linecap="round" stroke-linejoin="round"/>
<path d="M256.791 431.843C262.023 435.803 269.831 435.931 275.199 432.155L256.791 431.843Z" fill="#D6C7B7"/>
<path d="M256.791 431.843C262.023 435.803 269.831 435.931 275.199 432.155" stroke="black" stroke-width="3.944" stroke-linecap="round" stroke-linejoin="round"/>
<path d="M203.919 480.003C194.399 498.843 189.735 520.043 190.039 541.123C190.191 551.811 191.623 562.475 194.343 572.811C195.639 577.723 197.359 582.339 199.295 586.979C200.535 589.947 201.095 594.891 204.519 596.251C211.383 598.971 216.135 596.451 218.871 592.907C222.463 588.243 219.175 578.555 217.711 572.851C210.199 543.603 206.319 511.491 223.079 486.371" fill="#D6C7B7"/>
<path d="M203.919 480.003C194.399 498.843 189.735 520.043 190.039 541.123C190.191 551.811 191.623 562.475 194.343 572.811C195.639 577.723 197.359 582.339 199.295 586.979C200.535 589.947 201.095 594.891 204.519 596.251C211.383 598.971 216.135 596.451 218.871 592.907C222.463 588.243 219.175 578.555 217.711 572.851C210.199 543.603 206.319 511.491 223.079 486.371" stroke="black" stroke-width="3.944" stroke-linecap="round" stroke-linejoin="round"/>
<path d="M248.975 337.235C246.255 337.259 243.951 334.267 244.671 331.643C245.391 329.019 248.895 327.619 251.223 329.027C253.311 326.867 252.319 322.867 249.735 321.339C247.151 319.811 243.711 320.419 241.263 322.147C238.815 323.875 237.183 326.531 235.855 329.227C231.015 339.035 229.351 350.547 232.095 361.139C232.847 364.043 233.983 366.971 236.143 369.051C238.303 371.139 241.687 372.179 244.399 370.899C249.527 368.483 246.199 361.115 246.031 356.955C245.767 350.275 246.767 343.547 248.975 337.243V337.235Z" fill="#38332F" stroke="black" stroke-width="3.944" stroke-linecap="round" stroke-linejoin="round"/>
<path d="M299.831 337.235C297.111 337.259 294.807 334.267 295.527 331.643C296.247 329.019 299.751 327.619 302.079 329.027C304.167 326.867 303.175 322.867 300.591 321.339C298.007 319.803 294.567 320.419 292.119 322.147C289.671 323.875 288.039 326.531 286.711 329.227C281.871 339.035 280.207 350.547 282.951 361.139C283.703 364.043 284.839 366.971 286.999 369.051C289.159 371.139 292.543 372.179 295.255 370.899C300.383 368.483 297.055 361.115 296.887 356.955C296.623 350.275 297.623 343.547 299.831 337.243V337.235Z" fill="#38332F" stroke="black" stroke-width="3.944" stroke-linecap="round" stroke-linejoin="round"/>
<path d="M185.047 490.011C187.783 490.555 192.023 490.323 194.591 490.475C195.095 490.507 195.607 490.531 196.079 490.363C196.935 490.059 197.439 489.195 197.871 488.395C198.623 487.019 202.911 481.611 203.919 480.003C200.087 483.091 190.527 490.011 185.047 490.011Z" fill="black" stroke="black" stroke-width="3.944" stroke-linecap="round" stroke-linejoin="round"/>
<path d="M249.079 406.987C247.943 411.203 246.359 415.299 244.351 419.179C249.983 420.859 255.615 422.539 261.247 424.219C262.047 420.315 262.847 416.411 263.647 412.515" fill="white"/>
<path d="M249.079 406.987C247.943 411.203 246.359 415.299 244.351 419.179C249.983 420.859 255.615 422.539 261.247 424.219C262.047 420.315 262.847 416.411 263.647 412.515" stroke="black" stroke-width="3.944" stroke-linecap="round" stroke-linejoin="round"/>
<path d="M273.015 411.715C274.231 415.043 275.447 418.379 276.663 421.707C281.479 419.459 286.159 416.915 290.655 414.075C288.999 411.235 287.351 408.395 285.695 405.563" fill="white"/>
<path d="M273.015 411.715C274.231 415.043 275.447 418.379 276.663 421.707C281.479 419.459 286.159 416.915 290.655 414.075C288.999 411.235 287.351 408.395 285.695 405.563" stroke="black" stroke-width="3.944" stroke-linecap="round" stroke-linejoin="round"/>
<path d="M236.615 389.475C240.631 401.395 252.647 410.139 265.223 410.307C277.799 410.475 290.039 402.043 294.375 390.235" fill="#D6C7B7"/>
<path d="M236.615 389.475C240.631 401.395 252.647 410.139 265.223 410.307C277.799 410.475 290.039 402.043 294.375 390.235" stroke="black" stroke-width="3.944" stroke-linecap="round" stroke-linejoin="round"/>
<path d="M339.735 450.499C334.703 451.435 329.927 458.403 330.863 463.435C329.927 458.403 322.959 453.627 317.927 454.563C322.959 453.627 327.735 446.659 326.799 441.627C327.735 446.659 334.703 451.435 339.735 450.499Z" fill="white"/>
<path d="M339.735 450.499C334.703 451.435 329.927 458.403 330.863 463.435C329.927 458.403 322.959 453.627 317.927 454.563C322.959 453.627 327.735 446.659 326.799 441.627C327.735 446.659 334.703 451.435 339.735 450.499Z" stroke="black" stroke-width="3.944" stroke-linecap="round" stroke-linejoin="round"/>
<path d="M374.935 389.995C377.039 393.195 383.303 401.379 384.935 405.043C384.671 404.451 382.687 396.347 383.031 395.827C383.911 394.491 383.463 392.739 384.935 390.619C385.903 389.227 380.367 392.179 379.103 391.731C377.687 391.235 376.295 390.651 374.927 389.995H374.935Z" fill="black" stroke="black" stroke-width="3.944" stroke-linecap="round" stroke-linejoin="round"/>
<path d="M266.287 299.635C237.919 299.635 211.087 297.467 190.743 293.555C180.047 291.491 171.391 288.987 165.039 286.091C150.271 279.371 147.175 269.915 147.175 263.163C147.175 256.419 150.279 246.963 165.031 240.251C171.383 237.363 180.023 234.851 190.719 232.803C211.039 228.899 237.839 226.747 266.191 226.747H266.303C294.679 226.747 321.503 228.915 341.847 232.827C352.543 234.883 361.199 237.395 367.551 240.291C382.319 247.011 385.415 256.467 385.415 263.219C385.415 269.963 382.311 279.419 367.559 286.131C361.207 289.019 352.567 291.531 341.879 293.587C321.559 297.491 294.759 299.643 266.415 299.643H266.287V299.635Z" fill="#D6C7B7"/>
<path d="M266.287 299.635C237.919 299.635 211.087 297.467 190.743 293.555C180.047 291.491 171.391 288.987 165.039 286.091C150.271 279.371 147.175 269.915 147.175 263.163C147.175 256.419 150.279 246.963 165.031 240.251C171.383 237.363 180.023 234.851 190.719 232.803C211.039 228.899 237.839 226.747 266.191 226.747H266.303C294.679 226.747 321.503 228.915 341.847 232.827C352.543 234.883 361.199 237.395 367.551 240.291C382.319 247.011 385.415 256.467 385.415 263.219C385.415 269.963 382.311 279.419 367.559 286.131C361.207 289.019 352.567 291.531 341.879 293.587C321.559 297.491 294.759 299.643 266.415 299.643H266.287V299.635Z" stroke="black" stroke-width="3.944" stroke-linecap="round" stroke-linejoin="round"/>
<path d="M266.295 280.643C322.827 280.643 368.655 271.828 368.655 260.955C368.655 250.082 322.827 241.267 266.295 241.267C209.763 241.267 163.935 250.082 163.935 260.955C163.935 271.828 209.763 280.643 266.295 280.643Z" fill="#6E6860"/>
<mask id="mask5_136_84018" style="mask-type:luminance" maskUnits="userSpaceOnUse" x="163" y="241" width="206" height="40">
<path d="M266.295 280.643C322.827 280.643 368.655 271.828 368.655 260.955C368.655 250.082 322.827 241.267 266.295 241.267C209.763 241.267 163.935 250.082 163.935 260.955C163.935 271.828 209.763 280.643 266.295 280.643Z" fill="white"/>
</mask>
<g mask="url(#mask5_136_84018)">
<path d="M265.183 284.515C321.715 284.515 367.543 276.417 367.543 266.427C367.543 256.437 321.715 248.339 265.183 248.339C208.651 248.339 162.823 256.437 162.823 266.427C162.823 276.417 208.651 284.515 265.183 284.515Z" fill="#38332F"/>
<path d="M265.183 284.515C321.715 284.515 367.543 276.417 367.543 266.427C367.543 256.437 321.715 248.339 265.183 248.339C208.651 248.339 162.823 256.437 162.823 266.427C162.823 276.417 208.651 284.515 265.183 284.515Z" stroke="black" stroke-width="3.944" stroke-linecap="round" stroke-linejoin="round"/>
<path d="M320.223 266.835L299.327 256.827L304.191 272.187L320.223 266.827V266.835Z" fill="white" stroke="black" stroke-width="3.944" stroke-linecap="round" stroke-linejoin="round"/>
<path d="M287.431 338.075L333.007 323.651C335.615 322.827 337.007 319.875 336.119 317.067L320.223 266.835L304.191 271.763L299.327 256.827L265.135 267.651C262.527 268.475 261.135 271.427 262.023 274.235L281.095 334.483C281.983 337.291 284.823 338.907 287.431 338.075Z" fill="white" stroke="black" stroke-width="3.944" stroke-linecap="round" stroke-linejoin="round"/>
<path d="M310.983 280.027L280.087 289.811" stroke="black" stroke-width="3.944" stroke-linecap="round" stroke-linejoin="round"/>
<path d="M325.775 265.075L304.879 255.067L309.743 270.427L325.775 265.067V265.075Z" fill="white" stroke="black" stroke-width="3.944" stroke-linecap="round" stroke-linejoin="round"/>
<path d="M292.991 336.315L338.567 321.891C341.175 321.067 342.567 318.115 341.679 315.307L325.783 265.075L309.751 270.003L304.887 255.067L270.695 265.891C268.087 266.715 266.695 269.667 267.583 272.475L286.655 332.723C287.543 335.531 290.383 337.147 292.991 336.315Z" fill="white" stroke="black" stroke-width="3.944" stroke-linecap="round" stroke-linejoin="round"/>
<path d="M316.543 278.267L285.647 288.051" stroke="black" stroke-width="3.944" stroke-linecap="round" stroke-linejoin="round"/>
<path d="M330.831 263.475L309.935 253.467L314.799 268.827L330.831 263.467V263.475Z" fill="white" stroke="black" stroke-width="3.944" stroke-linecap="round" stroke-linejoin="round"/>
<path d="M298.039 334.723L343.615 320.299C346.223 319.475 347.615 316.523 346.727 313.715L330.831 263.483L314.799 268.411L309.935 253.475L275.743 264.299C273.135 265.123 271.743 268.075 272.631 270.883L291.703 331.131C292.591 333.939 295.431 335.555 298.039 334.723Z" fill="white" stroke="black" stroke-width="3.944" stroke-linecap="round" stroke-linejoin="round"/>
<path d="M321.591 276.675L290.695 286.451" stroke="black" stroke-width="3.944" stroke-linecap="round" stroke-linejoin="round"/>
<path d="M303.687 290.675L294.071 269.603L287.951 284.507L303.687 290.675Z" fill="white" stroke="black" stroke-width="3.944" stroke-linecap="round" stroke-linejoin="round"/>
<path d="M232.831 324.315L277.055 342.475C279.583 343.515 282.543 342.147 283.663 339.419L303.679 290.675L288.215 284.179L294.063 269.603L260.887 255.979C258.359 254.939 255.399 256.307 254.279 259.035L230.271 317.491C229.151 320.219 230.295 323.275 232.823 324.315H232.831Z" fill="white" stroke="black" stroke-width="3.944" stroke-linecap="round" stroke-linejoin="round"/>
<path d="M288.135 294.883L258.159 282.571" stroke="black" stroke-width="3.944" stroke-linecap="round" stroke-linejoin="round"/>
<path d="M309.079 292.891L299.463 271.819L293.343 286.723L309.079 292.891Z" fill="white" stroke="black" stroke-width="3.944" stroke-linecap="round" stroke-linejoin="round"/>
<path d="M238.223 326.531L282.447 344.691C284.975 345.731 287.935 344.363 289.055 341.635L309.071 292.891L293.607 286.395L299.455 271.819L266.279 258.195C263.751 257.155 260.791 258.523 259.671 261.251L235.663 319.707C234.543 322.435 235.687 325.491 238.215 326.531H238.223Z" fill="white" stroke="black" stroke-width="3.944" stroke-linecap="round" stroke-linejoin="round"/>
<path d="M313.975 294.907L304.359 273.835L298.239 288.739L313.975 294.907Z" fill="white" stroke="black" stroke-width="3.944" stroke-linecap="round" stroke-linejoin="round"/>
<path d="M243.127 328.539L287.351 346.699C289.879 347.739 292.839 346.371 293.959 343.643L313.975 294.899L298.511 288.403L304.359 273.827L271.183 260.203C268.655 259.163 265.695 260.531 264.575 263.259L240.567 321.715C239.447 324.443 240.591 327.499 243.119 328.539H243.127Z" fill="white" stroke="black" stroke-width="3.944" stroke-linecap="round" stroke-linejoin="round"/>
<path d="M237.895 268.947L216.975 258.995L221.879 274.347L237.895 268.947Z" fill="white" stroke="black" stroke-width="3.944" stroke-linecap="round" stroke-linejoin="round"/>
<path d="M205.287 340.275L250.831 325.731C253.439 324.899 254.823 321.947 253.927 319.139L237.895 268.947L221.879 273.923L216.975 259.003L182.815 269.915C180.207 270.747 178.823 273.699 179.719 276.507L198.951 336.707C199.847 339.515 202.687 341.115 205.295 340.283L205.287 340.275Z" fill="white" stroke="black" stroke-width="3.944" stroke-linecap="round" stroke-linejoin="round"/>
<path d="M228.687 282.171L197.823 292.027" stroke="black" stroke-width="3.944" stroke-linecap="round" stroke-linejoin="round"/>
<path d="M243.447 267.171L222.527 257.219L227.431 272.571L243.447 267.171Z" fill="white" stroke="black" stroke-width="3.944" stroke-linecap="round" stroke-linejoin="round"/>
<path d="M210.839 338.507L256.383 323.963C258.991 323.131 260.375 320.179 259.479 317.371L243.447 267.179L227.431 272.155L222.527 257.235L188.367 268.147C185.759 268.979 184.375 271.931 185.271 274.739L204.504 334.939C205.4 337.747 208.239 339.347 210.847 338.515L210.839 338.507Z" fill="white" stroke="black" stroke-width="3.944" stroke-linecap="round" stroke-linejoin="round"/>
<path d="M234.239 280.395L203.375 290.259" stroke="black" stroke-width="3.944" stroke-linecap="round" stroke-linejoin="round"/>
<path d="M248.495 265.563L227.575 255.611L232.479 270.963L248.495 265.563Z" fill="white" stroke="black" stroke-width="3.944" stroke-linecap="round" stroke-linejoin="round"/>
<path d="M215.888 336.891L261.431 322.347C264.039 321.515 265.423 318.563 264.527 315.755L248.496 265.563L232.48 270.539L227.576 255.619L193.416 266.531C190.808 267.363 189.424 270.315 190.32 273.123L209.552 333.323C210.448 336.131 213.288 337.731 215.896 336.899L215.888 336.891Z" fill="white" stroke="black" stroke-width="3.944" stroke-linecap="round" stroke-linejoin="round"/>
<path d="M239.287 278.787L208.423 288.643" stroke="black" stroke-width="3.944" stroke-linecap="round" stroke-linejoin="round"/>
</g>
<path d="M266.295 280.643C322.827 280.643 368.655 271.828 368.655 260.955C368.655 250.082 322.827 241.267 266.295 241.267C209.763 241.267 163.935 250.082 163.935 260.955C163.935 271.828 209.763 280.643 266.295 280.643Z" stroke="black" stroke-width="3.944" stroke-linecap="round" stroke-linejoin="round"/>
<path d="M145.863 17.507L3.90331 371.187C-0.000685692 374.371 4.32734 382.027 11.3833 385.083C18.4313 388.147 26.6073 386.083 26.6633 381.227L169.127 26.2829C160.943 22.9949 154.047 20.795 145.863 17.507Z" fill="#38332F" stroke="black" stroke-width="3.944" stroke-linecap="round" stroke-linejoin="round"/>
<path d="M161.495 2.25885C156.735 1.11485 151.655 3.54684 148.447 7.25084C144.007 12.3708 142.679 20.2669 146.015 26.1629C149.351 32.0589 157.551 34.9469 163.495 31.6909C168.359 29.0349 170.255 24.6828 172.559 19.6428C175.519 13.1468 174.007 6.29885 161.503 2.25885" fill="black"/>
<path d="M161.495 2.25885C156.735 1.11485 151.655 3.54684 148.447 7.25084C144.007 12.3708 142.679 20.2669 146.015 26.1629C149.351 32.0589 157.551 34.9469 163.495 31.6909C168.359 29.0349 170.255 24.6828 172.559 19.6428C175.519 13.1468 174.007 6.29885 161.503 2.25885" stroke="black" stroke-width="3.944" stroke-linecap="round" stroke-linejoin="round"/>
<path d="M267.895 191.219C278.519 188.035 284.671 179.739 294.623 176.123C293.807 176.419 280.871 166.307 279.031 165.331C275.223 163.307 253.623 158.219 256.799 162.259C264.983 172.651 267.895 182.435 267.895 191.227V191.219Z" fill="#D6C7B7" stroke="black" stroke-width="3.944" stroke-linecap="round" stroke-linejoin="round"/>
<path d="M267.895 191.219C281.831 201.747 300.711 201.667 318.055 203.771C354.311 208.171 388.111 223.795 421.271 239.107C429.063 242.707 437.023 246.347 445.543 247.387C454.063 248.427 463.399 246.467 469.327 240.251C451.431 234.107 435.671 221.923 425.223 206.147C438.607 202.195 451.999 198.235 465.383 194.283C434.695 175.139 403.999 155.995 373.311 136.851C361.823 129.683 349.799 123.507 337.647 117.523C315.399 106.555 304.215 104.123 288.103 98.7229C281.567 96.5309 285.311 108.347 285.903 114.763C286.399 120.083 290.855 124.587 290.135 129.875C287.327 150.483 285.631 180.075 267.887 191.211L267.895 191.219Z" fill="#EBE4DC" stroke="black" stroke-width="3.944" stroke-linecap="round" stroke-linejoin="round"/>
<path d="M124.751 138.235C171.095 140.203 239.759 153.211 281.879 172.651C294.623 145.547 298.047 131.699 300.551 115.139C305.287 83.7709 303.735 77.8669 277.327 66.7069C262.095 60.2749 205.447 33.2989 169.375 37.2189C169.543 73.9469 144.167 124.619 124.759 138.227L124.751 138.235Z" fill="#EBE4DC" stroke="black" stroke-width="3.944" stroke-linecap="round" stroke-linejoin="round"/>
<path d="M162.599 116.267C162.015 115.795 161.671 115.195 161.551 114.467C161.455 113.947 161.503 113.395 161.695 112.819C161.887 112.243 162.199 111.603 162.631 110.891C163.263 109.843 163.967 108.835 164.735 107.851C167.991 103.555 170.455 100.003 172.175 97.1549C172.903 95.9469 173.527 94.7789 174.047 93.6589C173.511 93.7469 173.159 93.7708 172.999 93.7228C172.655 93.6188 172.727 93.1789 173.199 92.4029C173.671 91.6349 174.223 91.0269 174.855 90.5789C175.487 90.1309 176.271 89.8109 177.215 89.6029C178.295 89.3469 179.527 89.2269 180.927 89.2509C182.319 89.2749 183.607 89.4668 184.799 89.8188C187.607 90.6588 189.295 92.2989 189.863 94.7629C190.439 97.2749 189.743 100.419 187.727 104.251C186.103 107.339 184.079 110.043 181.655 112.355C179.175 114.707 176.479 116.387 173.575 117.355C170.639 118.331 167.775 118.371 165.007 117.475C163.991 117.147 163.199 116.739 162.615 116.267H162.599ZM174.399 112.731C176.231 112.403 178.031 111.571 179.783 110.259C181.519 108.963 182.999 107.163 184.223 104.899C185.743 102.067 186.239 99.7309 185.735 97.8749C185.239 96.0429 183.991 94.8268 182.007 94.2268C180.911 93.8988 179.591 93.7308 178.039 93.7308C176.631 95.9868 175.031 98.3309 173.239 100.771C171.335 103.379 169.751 105.747 168.495 107.867C167.631 109.315 167.279 110.379 167.439 111.027C167.599 111.683 168.215 112.187 169.279 112.523C170.855 112.987 172.567 113.059 174.407 112.731H174.399Z" fill="#221F20"/>
<path d="M183.951 119.251C184.543 118.083 185.455 116.731 186.663 115.203C187.879 113.699 188.815 112.299 189.463 111.011C189.783 110.371 189.991 109.803 190.087 109.307C190.183 108.811 190.095 108.387 189.831 108.027C189.567 107.667 189.4 107.347 189.32 107.067C189.24 106.787 189.287 106.483 189.455 106.155C189.671 105.747 190.055 105.347 190.631 104.963C191.199 104.579 191.815 104.315 192.495 104.147C193.167 103.987 193.759 103.987 194.287 104.147C195.071 104.387 195.431 104.899 195.359 105.683C195.287 106.475 194.967 107.443 194.399 108.611C193.751 109.939 192.679 111.691 191.167 113.891C190.351 115.083 189.743 116.075 189.351 116.875C188.975 117.643 188.815 118.275 188.895 118.763C188.975 119.259 189.215 119.795 189.631 120.379C189.775 120.619 189.775 120.899 189.615 121.227C189.439 121.587 189.103 122.011 188.607 122.483C188.111 122.963 187.503 123.331 186.775 123.603C186.047 123.875 185.303 123.883 184.543 123.635C182.919 123.107 182.727 121.627 183.943 119.235L183.951 119.251ZM194.935 99.107C194.775 98.547 194.903 97.8669 195.303 97.0669C195.743 96.2589 196.319 95.6589 197.039 95.2669C197.751 94.8749 198.455 94.787 199.143 94.995C199.831 95.203 200.263 95.571 200.439 96.107C200.615 96.643 200.512 97.307 200.12 98.107C199.704 98.963 199.127 99.6029 198.399 100.019C197.663 100.443 196.919 100.539 196.167 100.307C195.503 100.075 195.087 99.675 194.927 99.107H194.935Z" fill="#221F20"/>
<path d="M185.319 138.387C184.663 136.859 184.775 135.195 185.647 133.387C186.279 132.067 187.127 131.019 188.191 130.251C189.247 129.483 190.239 129.259 191.175 129.563C191.719 129.739 191.895 130.043 191.703 130.459C191.623 130.635 191.455 130.915 191.199 131.299C190.943 131.683 190.767 131.987 190.671 132.195C190.223 133.155 190.287 134.027 190.863 134.803C191.439 135.579 192.367 136.179 193.647 136.603C194.951 137.035 196.231 137.155 197.479 136.963C198.719 136.771 199.567 136.139 200.015 135.091C200.431 134.115 200.295 133.299 199.615 132.627C198.943 131.963 197.855 131.219 196.351 130.411C196.183 130.315 195.735 130.059 194.991 129.635C194.255 129.211 193.687 128.779 193.295 128.331C192.591 127.667 192.167 126.987 192.031 126.291C191.895 125.603 192.015 124.851 192.399 124.043C193.135 122.475 194.439 121.467 196.311 121.011C195.759 120.195 195.503 119.227 195.535 118.107C195.567 116.995 195.879 115.827 196.455 114.603C197.191 113.051 198.183 111.707 199.439 110.587C200.687 109.467 202.111 108.715 203.719 108.307C205.319 107.907 207.007 107.979 208.775 108.523C210.279 108.987 211.463 109.667 212.319 110.555C213.183 111.451 213.335 112.571 212.775 113.931C212.583 114.395 212.335 114.811 212.031 115.171C211.727 115.539 211.415 115.667 211.087 115.563C210.815 115.475 210.439 115.235 209.951 114.835C209.775 115.595 209.527 116.355 209.207 117.107C208.375 119.091 207.119 120.667 205.423 121.835C203.711 123.019 201.839 123.459 199.823 123.147C199.031 122.971 198.439 122.899 198.055 122.947C197.671 122.995 197.391 123.203 197.223 123.571C197.071 123.907 197.103 124.187 197.311 124.403C197.519 124.627 197.879 124.875 198.399 125.163C200.087 125.939 201.407 126.723 202.367 127.523C203.327 128.323 203.951 129.291 204.231 130.427C204.511 131.571 204.311 132.987 203.615 134.667C202.791 136.659 201.607 138.307 200.063 139.587C198.503 140.883 196.767 141.707 194.855 142.067C192.935 142.427 191.079 142.307 189.295 141.699C187.295 141.027 185.967 139.915 185.303 138.371L185.319 138.387ZM204.551 118.411C205.559 117.819 206.343 116.891 206.887 115.635C207.159 115.011 207.367 114.331 207.511 113.603C206.927 113.139 206.239 112.787 205.447 112.539C204.143 112.131 202.983 112.123 201.967 112.507C200.951 112.891 200.191 113.627 199.687 114.715C199.255 115.659 199.183 116.491 199.479 117.219C199.775 117.955 200.391 118.467 201.319 118.763C202.455 119.123 203.527 119.003 204.543 118.411H204.551Z" fill="#221F20"/>
<path d="M210.495 127.795C210.983 126.571 211.767 125.147 212.847 123.531C213.935 121.947 214.743 120.475 215.279 119.123C215.543 118.451 215.703 117.859 215.751 117.339C215.799 116.819 215.671 116.379 215.375 115.995C215.071 115.619 214.871 115.283 214.767 114.987C214.663 114.691 214.679 114.371 214.815 114.035C214.991 113.603 215.343 113.187 215.879 112.779C216.415 112.379 217.015 112.091 217.679 111.923C218.343 111.755 218.943 111.755 219.487 111.923C220.303 112.171 220.711 112.707 220.719 113.531C220.719 114.363 220.495 115.379 220.031 116.603C219.503 117.995 218.591 119.835 217.279 122.155C216.567 123.411 216.055 124.451 215.735 125.291C215.423 126.099 215.327 126.763 215.455 127.275C215.583 127.795 215.879 128.363 216.351 128.971C216.519 129.219 216.543 129.515 216.415 129.859C216.271 130.243 215.975 130.683 215.519 131.179C215.063 131.683 214.487 132.075 213.783 132.363C213.079 132.651 212.327 132.667 211.535 132.403C209.839 131.851 209.511 130.299 210.511 127.779L210.495 127.795ZM219.647 106.627C219.431 106.043 219.495 105.331 219.823 104.491C220.191 103.643 220.711 103.011 221.399 102.595C222.079 102.187 222.775 102.091 223.495 102.299C224.215 102.515 224.679 102.899 224.911 103.459C225.135 104.019 225.095 104.715 224.783 105.547C224.447 106.443 223.927 107.115 223.231 107.563C222.535 108.003 221.791 108.107 221.015 107.875C220.319 107.627 219.871 107.211 219.655 106.619L219.647 106.627Z" fill="#221F20"/>
<path d="M221.079 133.403C220.831 131.811 221.127 129.843 221.959 127.507C222.335 126.459 222.967 124.995 223.863 123.139L225.719 119.227C225.119 119.251 224.551 119.179 224.015 119.019C223.735 118.931 223.551 118.803 223.455 118.635C223.359 118.467 223.375 118.219 223.487 117.899C223.767 117.139 224.487 116.243 225.655 115.219C226.807 114.203 228.015 113.371 229.255 112.723C230.495 112.075 231.399 111.843 231.967 112.019C232.511 112.187 232.591 112.843 232.199 114.011C232.023 114.539 231.743 115.163 231.351 115.899C232.711 115.979 233.719 116.115 234.375 116.315C234.983 116.499 235.391 116.771 235.607 117.131C235.823 117.491 235.823 118.019 235.607 118.715C235.367 119.483 234.967 120.203 234.415 120.875C233.863 121.547 233.415 121.843 233.079 121.739C232.823 121.659 232.495 121.483 232.103 121.219C231.175 120.611 230.191 120.139 229.143 119.819C227.839 122.131 226.919 124.067 226.391 125.603C225.743 127.491 225.647 128.939 226.111 129.923C226.583 130.915 227.583 131.667 229.127 132.155C229.575 132.299 229.871 132.499 229.991 132.755C230.111 133.011 230.095 133.379 229.943 133.875C229.567 135.051 228.783 135.907 227.599 136.435C226.407 136.971 225.151 137.019 223.823 136.595C222.231 136.075 221.311 135.011 221.063 133.395L221.079 133.403Z" fill="#221F20"/>
<path d="M233.023 137.299C232.471 135.619 232.583 133.555 233.335 131.139C234.063 128.795 235.223 126.707 236.799 124.851C238.351 123.027 240.143 121.723 242.191 120.931C244.223 120.147 246.295 120.083 248.423 120.739C250.015 121.227 251.271 121.979 252.167 122.995C253.071 124.011 253.391 125.091 253.119 126.211C253.031 126.579 252.903 126.979 252.735 127.419C252.567 127.859 252.407 128.211 252.255 128.491C251.863 129.139 251.471 129.403 251.071 129.275C250.967 129.243 250.775 129.131 250.511 128.931C249.911 130.403 249.447 131.763 249.127 133.019C248.287 136.315 248.591 138.435 250.055 139.339C250.327 139.547 250.511 139.739 250.599 139.931C250.687 140.123 250.679 140.435 250.567 140.875C250.351 141.763 249.903 142.587 249.231 143.331C248.551 144.083 247.679 144.291 246.615 143.947C245.527 143.595 244.831 142.787 244.527 141.539C244.223 140.299 244.335 138.715 244.847 136.795C243.591 138.395 242.223 139.563 240.759 140.291C239.279 141.019 237.807 141.155 236.351 140.675C234.679 140.131 233.559 139.003 233.007 137.299H233.023ZM242.471 135.035C243.543 134.451 244.503 133.531 245.367 132.283C246.287 130.995 247.119 129.227 247.855 127.003C247.015 126.091 245.983 125.443 244.759 125.059C243.167 124.563 241.687 124.747 240.311 125.619C238.919 126.499 237.951 127.851 237.399 129.691C236.975 131.107 236.927 132.331 237.271 133.363C237.615 134.395 238.295 135.083 239.319 135.419C240.343 135.747 241.399 135.619 242.471 135.027V135.035Z" fill="#221F20"/>
<path d="M253.743 145.123C253.511 144.379 253.559 143.267 253.895 141.819C254.199 140.491 254.815 138.451 255.735 135.739C256.999 132.115 257.895 129.091 258.455 126.635C259.039 124.059 259.456 121.803 259.704 119.851C259.952 117.923 259.952 116.203 259.704 114.683C259.616 114.003 259.607 113.531 259.671 113.259C259.807 112.691 260.231 112.227 260.951 111.883C261.671 111.539 262.343 111.459 262.967 111.651C263.871 111.923 264.319 112.779 264.327 114.243C264.327 115.723 264.039 117.851 263.447 120.651C262.975 122.867 262.495 124.803 261.999 126.443C261.503 128.107 260.887 130.067 260.135 132.331C259.303 134.723 258.76 136.483 258.52 137.595C258.264 138.787 258.207 139.723 258.375 140.403C258.543 141.083 258.943 141.851 259.599 142.691C259.767 142.907 259.879 143.099 259.943 143.283C260.007 143.467 260.023 143.667 259.975 143.891C259.887 144.307 259.655 144.779 259.271 145.323C258.887 145.867 258.359 146.299 257.687 146.611C257.015 146.923 256.239 146.939 255.367 146.659C254.519 146.387 253.983 145.875 253.743 145.123Z" fill="#221F20"/>
<path d="M263.999 146.979C263.119 144.939 262.975 142.475 263.543 139.603C264.039 137.115 264.911 134.971 266.151 133.171C267.375 131.395 268.807 130.147 270.439 129.411C272.063 128.683 273.695 128.579 275.351 129.083C276.959 129.579 278.167 130.475 278.983 131.779C279.807 133.099 280.103 134.611 279.855 136.339C279.655 137.723 279.135 138.915 278.295 139.899C277.447 140.891 276.407 141.571 275.159 141.923C273.911 142.283 272.615 142.251 271.279 141.827C270.495 141.579 269.767 141.211 269.095 140.723C268.415 140.235 267.879 139.683 267.463 139.051C267.183 140.739 267.367 142.243 268.031 143.555C268.703 144.883 269.711 145.763 271.071 146.203C271.895 146.467 272.767 146.539 273.695 146.419C274.623 146.299 275.447 145.995 276.175 145.515C276.639 145.187 277.039 145.083 277.383 145.187C277.663 145.275 277.879 145.475 278.031 145.779C278.183 146.083 278.231 146.427 278.175 146.803C278.055 147.643 277.351 148.579 276.055 149.619C273.743 151.499 271.247 152.011 268.599 151.147C266.415 150.443 264.879 149.043 263.991 146.971L263.999 146.979ZM274.151 138.083C274.903 137.755 275.335 137.179 275.471 136.363C275.575 135.691 275.439 135.107 275.063 134.603C274.687 134.099 274.119 133.731 273.359 133.491C272.327 133.171 271.391 133.235 270.535 133.683C269.679 134.139 268.975 134.923 268.423 136.059C268.751 136.499 269.199 136.907 269.767 137.275C270.343 137.643 270.927 137.923 271.535 138.115C272.527 138.427 273.399 138.419 274.151 138.083Z" fill="#221F20"/>
<path d="M195.655 83.0509C194.439 82.3789 193.519 81.5949 192.911 80.6989C192.455 80.0509 192.223 79.3949 192.215 78.7309C192.199 78.0749 192.343 77.3549 192.647 76.5789C193.087 75.4509 193.655 74.3709 194.343 73.3549C197.119 68.9549 199.007 65.3629 200.103 62.4749C200.559 61.2589 200.879 60.0829 201.047 58.9389C200.271 58.9149 199.751 58.8589 199.487 58.7629C198.911 58.5629 198.775 58.0829 199.071 57.3229C199.367 56.5709 199.879 56.0189 200.599 55.6749C201.311 55.3309 202.319 55.1549 203.623 55.1549C205.087 55.1309 206.855 55.2989 208.911 55.6589C210.943 56.0109 212.903 56.5229 214.791 57.1869C219.199 58.7389 222.423 60.8669 224.511 63.6349C226.639 66.4589 227.383 69.7229 226.687 73.5309C226.111 76.6509 224.751 79.3229 222.567 81.5309C220.295 83.8269 217.271 85.3469 213.471 86.0429C209.559 86.7629 205.127 86.3869 200.215 84.8829C198.399 84.3309 196.879 83.7149 195.663 83.0429L195.655 83.0509ZM212.119 80.7949C214.679 80.7149 216.871 80.0589 218.711 78.8589C220.503 77.6829 221.631 75.9309 222.127 73.6189C222.735 70.7709 222.159 68.3069 220.447 66.1709C218.751 64.0589 216.335 62.4749 213.151 61.3789C211.383 60.7709 209.359 60.2909 207.071 59.9389C206.199 62.1389 205.079 64.4349 203.695 66.8269C202.215 69.4269 201.079 71.8509 200.295 74.0829C199.759 75.6269 199.791 76.811 200.415 77.611C201.039 78.411 202.287 79.1149 204.151 79.6989C206.855 80.5149 209.511 80.8749 212.119 80.7949Z" fill="#221F20"/>
<path d="M229.679 89.6749C229.863 88.4349 230.383 87.035 231.223 85.491C232.079 83.987 232.591 82.5789 232.775 81.2589C232.871 80.6029 232.839 80.019 232.703 79.491C232.567 78.963 232.215 78.4829 231.663 78.0509C231.111 77.6109 230.703 77.2349 230.439 76.9149C230.175 76.5949 230.071 76.2669 230.127 75.9389C230.191 75.5229 230.511 75.1629 231.079 74.8429C231.639 74.5309 232.335 74.339 233.159 74.283C233.975 74.227 234.775 74.331 235.559 74.595C236.735 74.987 237.479 75.5949 237.807 76.4269C238.135 77.2669 238.247 78.2589 238.119 79.4269C237.975 80.7629 237.503 82.507 236.679 84.699C236.231 85.899 235.951 86.9149 235.855 87.7389C235.759 88.5389 235.903 89.227 236.279 89.787C236.655 90.347 237.287 90.979 238.175 91.683C238.503 91.9629 238.655 92.2829 238.623 92.6269C238.583 93.0109 238.359 93.4429 237.951 93.9149C237.535 94.3949 236.911 94.7469 236.071 94.9629C235.223 95.1869 234.191 95.1149 232.991 94.7469C230.407 93.9549 229.303 92.2429 229.695 89.6749H229.679ZM233.703 69.299C233.191 68.675 232.991 67.971 233.111 67.203C233.263 66.427 233.711 65.9069 234.447 65.6349C235.175 65.3629 236.039 65.4109 237.047 65.7629C238.055 66.1149 238.807 66.5869 239.311 67.1709C239.823 67.7629 240.031 68.435 239.959 69.203C239.871 70.027 239.471 70.595 238.743 70.907C238.015 71.219 237.087 71.187 235.983 70.811C234.975 70.435 234.215 69.939 233.703 69.307V69.299Z" fill="#221F20"/>
<path d="M244.159 96.907C245.383 93.491 246.039 90.707 246.167 88.507C246.255 86.899 246.215 85.667 246.047 84.795C245.879 83.931 245.623 83.3069 245.287 82.9149C244.951 82.5229 244.447 82.107 243.791 81.675C243.167 81.251 242.871 80.811 242.903 80.363C242.935 79.947 243.175 79.547 243.623 79.163C244.063 78.787 244.655 78.5389 245.391 78.4349C246.119 78.3229 246.919 78.419 247.775 78.707C249.831 79.395 250.815 80.979 250.735 83.507C250.695 84.755 250.375 86.403 249.767 88.483L249.927 88.579C252.767 83.251 256.239 81.459 260.471 82.883C262.151 83.451 263.487 84.347 264.487 85.595C265.495 86.851 266.039 88.2189 266.127 89.7149C266.183 90.6189 266.007 91.6829 265.607 92.9229C265.255 94.0189 265.111 95.043 265.159 96.003C265.255 97.955 266.279 99.5709 268.231 100.827C268.735 101.187 269.007 101.579 269.039 102.003C269.071 102.427 268.983 102.899 268.767 103.427C268.559 103.955 268.167 104.363 267.607 104.651C267.039 104.939 266.239 104.931 265.215 104.611C263.783 104.171 262.639 103.315 261.775 102.051C260.919 100.795 260.479 99.3789 260.439 97.8189C260.407 96.6589 260.671 95.099 261.215 93.179C261.551 91.747 261.711 90.8109 261.695 90.3309C261.647 88.8909 260.807 87.915 259.175 87.371C257.255 86.739 255.599 87.0829 254.183 88.4269C252.735 89.8029 251.511 91.7629 250.519 94.3309L250.479 95.571C250.439 96.899 250.007 97.867 249.183 98.459C248.343 99.059 247.271 99.163 245.951 98.763C244.551 98.331 243.959 97.707 244.167 96.891L244.159 96.907Z" fill="#221F20"/>
<path d="M308.792 144.755C308.016 143.923 307.495 143.043 307.223 142.099C306.951 141.155 306.992 140.259 307.344 139.403C307.592 138.803 307.928 138.347 308.36 138.051C308.792 137.755 309.208 137.699 309.608 137.899C309.872 138.035 310.104 138.283 310.304 138.651C310.64 139.547 311.168 140.411 311.904 141.243C312.64 142.083 313.48 142.739 314.448 143.219C315.792 143.891 317 144.131 318.072 143.939C319.144 143.747 319.888 143.155 320.288 142.171C320.648 141.283 320.576 140.451 320.072 139.675C319.568 138.891 318.608 137.899 317.192 136.683C315.464 135.195 314.224 133.755 313.464 132.371C312.704 130.987 312.68 129.435 313.384 127.715C313.928 126.395 314.8 125.275 316 124.355C317.2 123.435 318.608 122.891 320.232 122.715C321.848 122.539 323.496 122.859 325.168 123.675C326.688 124.419 327.848 125.323 328.648 126.387C329.448 127.451 329.664 128.451 329.288 129.379C329.096 129.859 328.808 130.219 328.416 130.483C328.024 130.747 327.624 130.907 327.192 130.963C326.768 131.027 326.416 130.987 326.144 130.859C325.92 130.747 325.664 130.483 325.376 130.075C324.904 129.387 324.328 128.755 323.656 128.171C322.984 127.587 322.344 127.147 321.744 126.851C320.672 126.323 319.688 126.155 318.784 126.339C317.88 126.523 317.28 126.987 316.968 127.739C316.64 128.539 316.8 129.419 317.432 130.379C318.072 131.339 319.384 132.675 321.368 134.379C322.8 135.691 323.744 136.955 324.208 138.163C324.672 139.379 324.583 140.795 323.927 142.411C323.303 143.955 322.352 145.219 321.056 146.203C319.768 147.187 318.296 147.755 316.64 147.907C314.992 148.051 313.312 147.699 311.608 146.851C310.488 146.291 309.544 145.595 308.768 144.763L308.792 144.755Z" fill="#221F20"/>
<path d="M323.399 152.363C323.255 152.091 323.255 151.827 323.415 151.571C326.199 147.067 328.287 143.107 329.671 139.667C330.591 137.371 331.255 135.507 331.655 134.075C332.055 132.643 332.239 131.171 332.199 129.651C332.175 128.979 332.223 128.491 332.343 128.195C332.535 127.723 332.975 127.379 333.663 127.179C334.351 126.979 334.967 127.003 335.503 127.267C336.287 127.651 336.623 128.443 336.503 129.643C336.383 130.843 335.871 132.579 334.967 134.843C333.447 138.627 331.575 142.187 329.351 145.515L329.455 145.659C331.079 143.907 332.807 142.611 334.639 141.755C336.471 140.899 338.143 140.851 339.663 141.603C340.687 142.107 341.359 142.859 341.687 143.851C342.007 144.851 341.975 145.859 341.567 146.875C341.119 147.995 340.351 148.843 339.255 149.411C338.159 149.979 336.855 150.275 335.351 150.283C335.247 152.467 335.991 153.955 337.583 154.747C337.855 154.883 338.095 154.971 338.295 155.011L338.399 155.059C338.623 155.171 338.615 155.547 338.359 156.187C338.023 157.035 337.519 157.691 336.847 158.147C336.167 158.611 335.311 158.579 334.263 158.051C331.759 156.795 330.975 153.699 331.911 148.787C331.967 148.507 332.015 148.323 332.055 148.219C332.287 147.635 332.719 147.467 333.351 147.723C334.207 148.027 334.991 148.091 335.703 147.907C336.415 147.731 336.903 147.291 337.183 146.603C337.335 146.219 337.367 145.875 337.271 145.571C337.175 145.267 336.959 145.027 336.615 144.859C335.983 144.547 335.191 144.563 334.247 144.915C333.303 145.267 332.431 145.763 331.639 146.403C330.375 147.451 329.367 148.491 328.599 149.507L327.983 151.035C327.607 151.979 327.047 152.635 326.319 153.003C325.591 153.371 324.823 153.355 324.039 152.963C323.767 152.827 323.559 152.619 323.407 152.347L323.399 152.363Z" fill="#221F20"/>
<path d="M341.111 160.435C342.783 158.011 343.959 155.939 344.639 154.219C345.143 152.939 345.455 151.939 345.575 151.219C345.695 150.499 345.687 149.963 345.551 149.627C345.415 149.283 345.159 148.915 344.799 148.523C344.463 148.139 344.367 147.755 344.519 147.379C344.663 147.027 344.951 146.683 345.391 146.371C345.831 146.059 346.343 145.859 346.935 145.787C347.519 145.715 348.095 145.811 348.639 146.083C350.031 146.771 350.303 148.203 349.447 150.371C350.303 149.515 351.151 148.947 351.983 148.675C352.815 148.403 353.679 148.483 354.575 148.931C355.239 149.259 355.711 149.683 355.975 150.195C356.239 150.707 356.247 151.299 355.983 151.963C355.711 152.659 355.255 153.203 354.615 153.603C353.975 154.003 353.447 154.107 353.031 153.899C352.823 153.795 352.695 153.635 352.639 153.427C352.503 152.867 352.215 152.483 351.775 152.267C351.087 151.923 350.295 152.131 349.399 152.875C348.503 153.627 347.711 154.827 347.031 156.483L345.751 159.947C345.367 160.923 344.815 161.595 344.095 161.963C343.375 162.331 342.623 162.315 341.847 161.923C340.975 161.483 340.735 160.995 341.111 160.443V160.435Z" fill="#221F20"/>
<path d="M352.368 165.523C351.92 164.123 352.048 162.531 352.744 160.755C353.432 159.003 354.496 157.507 355.944 156.259C357.392 155.011 359.064 154.243 360.96 153.939C362.856 153.635 364.768 153.955 366.688 154.907C368.128 155.619 369.224 156.483 369.984 157.499C370.744 158.515 370.952 159.467 370.616 160.347C370.504 160.635 370.36 160.939 370.184 161.267C370 161.595 369.832 161.859 369.672 162.051C369.272 162.499 368.904 162.643 368.552 162.467C368.456 162.419 368.296 162.291 368.072 162.091C367.432 163.163 366.936 164.171 366.576 165.099C365.648 167.515 365.792 169.203 367.008 170.155C367.232 170.363 367.384 170.547 367.448 170.699C367.512 170.851 367.488 171.091 367.368 171.403C367.128 172.027 366.696 172.563 366.064 172.995C365.44 173.427 364.68 173.419 363.792 172.979C362.88 172.523 362.327 171.803 362.127 170.811C361.927 169.827 362.087 168.643 362.623 167.267C361.455 168.267 360.232 168.907 358.944 169.195C357.656 169.483 356.392 169.315 355.168 168.699C353.752 167.987 352.824 166.931 352.376 165.531L352.368 165.523ZM360.608 165.467C361.568 165.203 362.464 164.659 363.28 163.827C364.168 162.971 365 161.707 365.784 160.027C365.08 159.123 364.184 158.403 363.096 157.859C361.68 157.155 360.336 157.043 359.064 157.523C357.792 157.995 356.879 158.931 356.335 160.323C355.919 161.379 355.848 162.347 356.12 163.219C356.384 164.091 356.959 164.755 357.839 165.195C358.719 165.635 359.64 165.723 360.608 165.459V165.467Z" fill="#221F20"/>
<path d="M369.807 175.131C369.655 174.539 369.775 173.739 370.167 172.715C370.527 171.771 371.215 170.347 372.231 168.427C373.647 165.819 374.719 163.563 375.447 161.667C376.223 159.643 376.823 157.827 377.247 156.211C377.671 154.595 377.847 153.091 377.767 151.707C377.751 151.091 377.791 150.667 377.879 150.435C378.063 149.947 378.527 149.611 379.255 149.435C379.983 149.259 380.647 149.315 381.231 149.595C382.071 150.003 382.407 150.867 382.239 152.179C382.071 153.491 381.551 155.291 380.671 157.595C379.991 159.379 379.335 160.907 378.719 162.171C378.095 163.435 377.343 164.899 376.455 166.571C375.487 168.291 374.855 169.563 374.543 170.371C374.215 171.235 374.095 171.931 374.183 172.475C374.271 173.019 374.559 173.659 375.063 174.411C375.191 174.595 375.271 174.763 375.311 174.907C375.351 175.051 375.343 175.203 375.287 175.363C375.175 175.651 374.935 175.955 374.559 176.283C374.183 176.611 373.695 176.827 373.095 176.931C372.495 177.035 371.831 176.907 371.103 176.539C370.399 176.187 369.967 175.715 369.815 175.123L369.807 175.131Z" fill="#221F20"/>
<path d="M378.168 178.355C377.752 176.899 377.888 175.267 378.576 173.459C379.264 171.651 380.256 170.099 381.568 168.795C382.872 167.491 384.32 166.627 385.896 166.195C387.472 165.763 388.983 165.907 390.423 166.619C391.727 167.259 392.695 168.235 393.327 169.539C394.087 167.371 394.623 165.611 394.951 164.251C395.279 162.899 395.4 161.555 395.312 160.219C395.296 159.595 395.32 159.195 395.392 159.011C395.584 158.491 396.048 158.147 396.784 157.987C397.52 157.827 398.167 157.883 398.735 158.155C399.615 158.587 399.983 159.459 399.839 160.771C399.695 162.083 399.192 163.923 398.312 166.275C397.664 168.003 397.031 169.499 396.423 170.763C395.807 172.027 395.008 173.619 394.008 175.523C393.112 177.171 392.551 178.267 392.351 178.819C392.015 179.715 391.928 180.547 392.096 181.323C392.256 182.091 392.656 182.731 393.288 183.235C393.64 183.507 393.727 183.875 393.551 184.355C393.311 184.995 392.856 185.515 392.176 185.931C391.496 186.347 390.655 186.299 389.655 185.803C388.679 185.315 388.135 184.611 388.031 183.691C387.927 182.771 388.176 181.499 388.792 179.859C387.544 180.923 386.24 181.643 384.872 182.011C383.504 182.379 382.191 182.243 380.935 181.611C379.519 180.899 378.6 179.811 378.184 178.347L378.168 178.355ZM385.88 178.227C386.72 178.083 387.56 177.739 388.392 177.179C389.2 176.611 390.168 175.643 391.304 174.275C390.544 172.467 389.432 171.203 387.968 170.467C386.712 169.843 385.543 169.763 384.463 170.219C383.375 170.675 382.592 171.547 382.112 172.827C381.704 173.899 381.647 174.915 381.943 175.875C382.239 176.835 382.799 177.523 383.631 177.939C384.295 178.267 385.048 178.363 385.888 178.227H385.88Z" fill="#221F20"/>
<path d="M396.775 187.515C396.183 185.851 396.279 183.987 397.047 181.923C397.727 180.099 398.727 178.595 400.047 177.403C401.367 176.211 402.831 175.483 404.439 175.195C406.047 174.915 407.591 175.139 409.079 175.875C410.519 176.587 411.535 177.547 412.111 178.755C412.695 179.963 412.743 181.219 412.271 182.523C411.895 183.563 411.255 184.371 410.351 184.963C409.447 185.555 408.415 185.867 407.247 185.899C406.079 185.931 404.919 185.659 403.767 185.083C403.095 184.747 402.479 184.331 401.927 183.835C401.375 183.339 400.943 182.811 400.639 182.251C400.207 183.483 400.223 184.651 400.679 185.763C401.135 186.875 401.943 187.715 403.095 188.291C403.791 188.643 404.559 188.859 405.399 188.947C406.239 189.035 407.007 188.971 407.719 188.755C408.175 188.603 408.551 188.603 408.839 188.747C409.079 188.867 409.247 189.051 409.343 189.307C409.439 189.563 409.431 189.819 409.343 190.083C409.127 190.667 408.383 191.211 407.111 191.715C404.863 192.611 402.631 192.507 400.415 191.395C398.583 190.475 397.383 189.187 396.791 187.515H396.775ZM406.791 182.771C407.519 182.659 407.991 182.299 408.215 181.691C408.399 181.187 408.351 180.699 408.071 180.235C407.791 179.763 407.311 179.363 406.639 179.027C405.727 178.571 404.847 178.443 404.015 178.643C403.175 178.835 402.439 179.323 401.815 180.107C402.063 180.515 402.423 180.915 402.903 181.307C403.383 181.699 403.887 182.027 404.415 182.291C405.279 182.723 406.079 182.883 406.799 182.771H406.791Z" fill="#221F20"/>
<path d="M412.792 189.395C412.792 189.171 412.856 188.859 413.008 188.459C413.44 187.283 413.936 186.499 414.52 186.091C414.784 185.907 415.087 185.899 415.431 186.075L423.304 189.987C423.568 190.123 423.727 190.283 423.775 190.483C423.815 190.675 423.791 190.923 423.679 191.219C423.463 191.811 423.136 192.379 422.696 192.931C422.248 193.483 421.839 193.667 421.479 193.491L418.231 191.867C416.871 191.187 415.463 190.627 414.023 190.195C413.631 190.091 413.335 189.995 413.143 189.899C412.927 189.787 412.816 189.627 412.808 189.403L412.792 189.395Z" fill="#221F20"/>
<path d="M291.223 182.227C290.551 180.915 290.479 179.619 291.007 178.323C291.399 177.371 291.999 176.667 292.807 176.227C293.615 175.787 294.415 175.771 295.223 176.187C295.695 176.427 295.863 176.707 295.735 177.019C295.679 177.147 295.567 177.347 295.391 177.611C295.215 177.883 295.095 178.091 295.031 178.243C294.743 178.939 294.871 179.651 295.407 180.371C295.943 181.091 296.751 181.731 297.831 182.291C298.935 182.867 299.991 183.187 300.999 183.251C302.007 183.323 302.671 182.979 302.975 182.227C303.263 181.523 303.095 180.843 302.495 180.187C301.887 179.531 300.927 178.731 299.623 177.803C299.479 177.699 299.079 177.403 298.431 176.923C297.783 176.443 297.279 175.987 296.911 175.547C296.263 174.867 295.855 174.227 295.679 173.627C295.503 173.019 295.543 172.411 295.799 171.795C296.295 170.587 297.327 169.955 298.895 169.891C298.359 169.083 298.055 168.195 297.999 167.219C297.935 166.243 298.111 165.251 298.519 164.259C299.039 162.979 299.823 161.931 300.863 161.123C301.895 160.307 303.127 159.859 304.559 159.763C305.991 159.675 307.519 160.043 309.159 160.875C310.551 161.579 311.655 162.427 312.463 163.411C313.271 164.395 313.447 165.451 312.991 166.587C312.839 166.971 312.631 167.299 312.367 167.571C312.111 167.843 311.831 167.899 311.535 167.755C311.287 167.627 310.943 167.347 310.495 166.899C310.367 167.547 310.175 168.179 309.927 168.795C309.279 170.395 308.247 171.547 306.831 172.251C305.415 172.955 303.823 172.995 302.071 172.371C301.375 172.075 300.863 171.915 300.535 171.883C300.207 171.851 299.983 171.979 299.871 172.267C299.767 172.523 299.807 172.763 300.007 172.987C300.199 173.211 300.527 173.491 300.991 173.819C302.479 174.771 303.655 175.667 304.511 176.499C305.367 177.331 305.951 178.243 306.247 179.227C306.543 180.211 306.447 181.315 305.951 182.539C305.375 183.971 304.487 185.043 303.287 185.763C302.095 186.483 300.735 186.811 299.215 186.747C297.695 186.683 296.191 186.259 294.711 185.483C293.047 184.611 291.879 183.523 291.207 182.211L291.223 182.227ZM305.879 169.099C306.735 168.763 307.375 168.075 307.791 167.051C307.999 166.539 308.151 165.963 308.247 165.331C307.703 164.803 307.071 164.355 306.351 163.995C305.159 163.387 304.127 163.171 303.247 163.339C302.367 163.507 301.743 164.043 301.375 164.939C301.063 165.707 301.055 166.443 301.375 167.147C301.687 167.851 302.255 168.411 303.087 168.835C304.095 169.355 305.031 169.443 305.887 169.107L305.879 169.099Z" fill="#221F20"/>
<path d="M311.623 180.483C311.303 179.411 311.431 178.155 312.007 176.731C312.415 175.723 312.959 174.747 313.631 173.819C314.319 172.859 314.799 172.043 315.063 171.371C315.519 170.235 315.511 169.347 315.039 168.699C314.807 168.331 314.655 168.027 314.583 167.795C314.511 167.563 314.527 167.323 314.623 167.091C314.871 166.475 315.439 166.043 316.311 165.787C317.191 165.539 317.967 165.587 318.647 165.931C319.935 166.587 320.103 168.115 319.143 170.515C318.647 171.755 317.935 173.011 317.015 174.283C316.391 175.211 315.983 175.939 315.775 176.459C315.255 177.755 315.551 178.691 316.663 179.267C317.711 179.803 318.943 179.675 320.367 178.867C321.791 178.059 323.247 176.667 324.759 174.683L325.023 173.931C325.479 172.635 326.071 171.763 326.791 171.307C327.511 170.851 328.303 170.835 329.167 171.283C329.919 171.667 330.191 172.131 329.975 172.675C329.863 172.963 329.519 173.475 328.951 174.211C327.511 176.163 326.439 178.035 325.727 179.835C325.295 180.931 325.103 181.867 325.143 182.643C325.191 183.427 325.527 184.115 326.143 184.715C326.351 184.883 326.487 185.059 326.559 185.235C326.623 185.411 326.591 185.675 326.455 186.011C326.183 186.691 325.687 187.195 324.967 187.515C324.247 187.835 323.479 187.787 322.679 187.379C321.007 186.515 320.711 184.739 321.783 182.051C321.967 181.579 322.287 180.899 322.727 179.995L322.671 179.923C321.143 181.619 319.623 182.731 318.119 183.259C316.615 183.787 315.183 183.699 313.815 182.995C312.679 182.411 311.951 181.579 311.631 180.499L311.623 180.483Z" fill="#221F20"/>
<path d="M329.159 187.315C329.535 186.371 330.159 185.307 331.047 184.123C331.951 182.955 332.623 181.819 333.055 180.723C333.271 180.171 333.391 179.675 333.423 179.219C333.455 178.763 333.319 178.339 333.039 177.939C332.751 177.547 332.559 177.203 332.455 176.915C332.351 176.627 332.351 176.339 332.463 176.051C332.607 175.691 332.92 175.371 333.4 175.099C333.88 174.827 334.423 174.675 335.023 174.643C335.631 174.611 336.184 174.723 336.696 174.979C337.456 175.363 337.839 175.939 337.863 176.699C337.879 177.459 337.687 178.347 337.287 179.363C336.831 180.515 336.047 181.979 334.935 183.763C334.335 184.715 333.911 185.523 333.655 186.179C333.407 186.811 333.343 187.355 333.471 187.811C333.599 188.267 333.872 188.795 334.304 189.403C334.456 189.643 334.487 189.891 334.383 190.155C334.271 190.443 334.023 190.755 333.647 191.083C333.271 191.411 332.783 191.627 332.183 191.731C331.583 191.835 330.943 191.707 330.255 191.355C328.783 190.595 328.423 189.251 329.183 187.339L329.159 187.315ZM336.735 169.987C336.519 169.379 336.559 168.707 336.855 167.955C337.183 167.195 337.672 166.667 338.32 166.395C338.968 166.115 339.632 166.147 340.32 166.499C341.008 166.843 341.463 167.315 341.687 167.907C341.911 168.499 341.871 169.171 341.575 169.923C341.255 170.723 340.776 171.275 340.12 171.571C339.464 171.867 338.767 171.819 338.039 171.451C337.383 171.091 336.951 170.603 336.735 169.995V169.987Z" fill="#221F20"/>
<path d="M337.52 193.323C337.136 191.859 337.296 190.219 338.008 188.403C338.72 186.587 339.736 185.027 341.048 183.723C342.368 182.419 343.808 181.547 345.376 181.123C346.944 180.699 348.44 180.843 349.856 181.563C351.136 182.211 352.08 183.195 352.68 184.507C353.464 182.331 354.032 180.563 354.384 179.203C354.728 177.843 354.872 176.491 354.808 175.147C354.808 174.523 354.832 174.115 354.904 173.931C355.104 173.411 355.576 173.067 356.304 172.907C357.032 172.747 357.68 172.803 358.232 173.083C359.096 173.515 359.44 174.395 359.28 175.715C359.12 177.035 358.576 178.883 357.672 181.243C357 182.971 356.352 184.475 355.72 185.747C355.088 187.019 354.264 188.611 353.248 190.523C352.328 192.171 351.76 193.275 351.544 193.835C351.192 194.739 351.096 195.571 351.248 196.347C351.392 197.123 351.776 197.763 352.4 198.275C352.744 198.547 352.824 198.923 352.64 199.403C352.392 200.043 351.928 200.571 351.248 200.987C350.568 201.403 349.736 201.355 348.752 200.851C347.792 200.355 347.264 199.643 347.176 198.723C347.088 197.803 347.36 196.515 347.992 194.875C346.736 195.947 345.432 196.659 344.072 197.027C342.712 197.387 341.416 197.251 340.184 196.619C338.792 195.899 337.904 194.803 337.512 193.331L337.52 193.323ZM345.16 193.219C346 193.075 346.832 192.731 347.664 192.171C348.472 191.603 349.448 190.635 350.6 189.259C349.88 187.443 348.8 186.163 347.36 185.427C346.128 184.803 344.976 184.715 343.896 185.171C342.816 185.627 342.024 186.499 341.52 187.787C341.096 188.867 341.024 189.883 341.304 190.851C341.584 191.819 342.128 192.507 342.936 192.931C343.584 193.267 344.328 193.363 345.168 193.227L345.16 193.219Z" fill="#221F20"/>
<path d="M355.783 202.587C355.231 200.915 355.351 199.035 356.151 196.963C356.855 195.131 357.871 193.619 359.199 192.427C360.527 191.235 361.991 190.507 363.583 190.227C365.183 189.947 366.703 190.179 368.167 190.923C369.583 191.643 370.567 192.611 371.119 193.827C371.671 195.043 371.703 196.307 371.207 197.611C370.815 198.651 370.167 199.467 369.263 200.059C368.359 200.651 367.327 200.955 366.175 200.987C365.015 201.019 363.871 200.739 362.743 200.155C362.079 199.819 361.479 199.395 360.943 198.899C360.399 198.395 359.983 197.867 359.695 197.307C359.247 198.539 359.239 199.715 359.679 200.835C360.111 201.955 360.895 202.803 362.031 203.387C362.719 203.739 363.471 203.963 364.303 204.051C365.135 204.139 365.895 204.083 366.607 203.867C367.063 203.715 367.431 203.715 367.711 203.867C367.951 203.987 368.111 204.179 368.199 204.427C368.287 204.683 368.279 204.939 368.175 205.211C367.951 205.803 367.207 206.347 365.935 206.851C363.695 207.747 361.487 207.635 359.311 206.507C357.519 205.579 356.343 204.275 355.791 202.603L355.783 202.587ZM365.791 197.843C366.511 197.731 366.983 197.371 367.223 196.763C367.415 196.259 367.375 195.771 367.103 195.299C366.831 194.827 366.367 194.419 365.703 194.083C364.807 193.627 363.943 193.491 363.111 193.683C362.279 193.875 361.543 194.363 360.903 195.147C361.143 195.555 361.495 195.955 361.959 196.355C362.423 196.755 362.919 197.083 363.439 197.347C364.287 197.779 365.071 197.947 365.791 197.835V197.843Z" fill="#221F20"/>
<path d="M375.743 389.659C383.287 399.763 396.319 404.579 408.919 405.107C413.495 405.299 437.271 402.411 437.271 402.411C437.271 402.411 435.023 388.531 434.143 380.899C434.191 380.955 418.559 383.011 404.623 380.115C394.687 378.051 385.775 371.699 383.247 368.411" fill="#D6C7B7"/>
<path d="M375.743 389.659C383.287 399.763 396.319 404.579 408.919 405.107C413.495 405.299 437.271 402.411 437.271 402.411C437.271 402.411 435.023 388.531 434.143 380.899C434.191 380.955 418.559 383.011 404.623 380.115C394.687 378.051 385.775 371.699 383.247 368.411" stroke="black" stroke-width="3.944" stroke-linecap="round" stroke-linejoin="round"/>
<path d="M437.775 461.915C439.759 460.987 441.735 460.051 443.719 459.123C444.007 458.987 444.327 458.827 444.455 458.531C444.567 458.283 444.519 457.987 444.471 457.715C443.919 454.747 443.375 451.779 442.823 448.811C442.335 446.179 442.199 442.923 441.199 440.491C440.247 441.451 440.767 443.683 440.735 444.931C440.687 446.835 440.543 448.731 440.311 450.619C439.839 454.459 438.991 458.243 437.767 461.915H437.775Z" fill="black" stroke="black" stroke-width="3.944" stroke-linecap="round" stroke-linejoin="round"/>
</svg>
